<svg id="Multicolor" xmlns="http://www.w3.org/2000/svg" viewBox="0 0 100 112"><defs><style>.cls-1{fill:#e8f4fa;}.cls-2,.cls-4{fill:#fff;}.cls-17,.cls-3,.cls-7{fill:none;}.cls-10,.cls-11,.cls-14,.cls-16,.cls-3,.cls-4,.cls-5,.cls-7{stroke:#191816;}.cls-16,.cls-17,.cls-3{stroke-linecap:round;}.cls-10,.cls-11,.cls-14,.cls-16,.cls-17,.cls-3,.cls-4,.cls-5,.cls-7{stroke-linejoin:round;}.cls-5{fill:#fff2e8;}.cls-6{fill:#f0f0f0;}.cls-14,.cls-8{fill:#ff6242;}.cls-9{fill:#ff866e;}.cls-10{fill:#ffa694;}.cls-11{fill:#debb7e;}.cls-12{fill:#00b8f0;}.cls-13{fill:#4acfff;}.cls-15{fill:#191816;opacity:0.15;}.cls-16{fill:#6dd627;}.cls-17{stroke:#fff;}</style></defs><title>01- house-for-sale</title><g id="Background"><g id="New_Symbol_25-2" data-name="New Symbol 25"><path class="cls-1" d="M90,56A40,40,0,1,0,13.56,72.5H86.44A39.85,39.85,0,0,0,90,56Z"/><path class="cls-2" d="M13.56,72.5a40,40,0,0,0,72.88,0Z"/><line class="cls-3" x1="11" y1="72.5" x2="89" y2="72.5"/><line class="cls-3" x1="6.5" y1="72.5" x2="9" y2="72.5"/><line class="cls-3" x1="91" y1="72.5" x2="93.5" y2="72.5"/></g></g><g id="Scene"><path class="cls-4" d="M54,19.91A2.88,2.88,0,0,0,51.15,17a2.75,2.75,0,0,0-1,.2,4.78,4.78,0,0,0-9.44,0,2.74,2.74,0,0,0-1-.2,2.88,2.88,0,1,0,0,5.75H51.15A2.88,2.88,0,0,0,54,19.91Z"/><path class="cls-4" d="M54,19.91A2.88,2.88,0,0,0,51.15,17a2.75,2.75,0,0,0-1,.2,4.78,4.78,0,0,0-9.44,0,2.74,2.74,0,0,0-1-.2,2.88,2.88,0,1,0,0,5.75H51.15A2.88,2.88,0,0,0,54,19.91Z"/><path class="cls-5" d="M85.24,48.49V40.65a1.2,1.2,0,0,0-1.2-1.2H80.68a1.2,1.2,0,0,0-1.2,1.2v2.86Z"/><polygon class="cls-2" points="86.72 72.54 57.94 72.54 57.94 55.48 72.33 43 86.72 55.48 86.72 72.54"/><path class="cls-6" d="M72.33,43,57.94,55.48v2.88l13-11.25a2.18,2.18,0,0,1,2.84,0l13,11.25V55.48Z"/><polygon class="cls-7" points="86.72 72.54 57.94 72.54 57.94 55.48 72.33 43 86.72 55.48 86.72 72.54"/><path class="cls-8" d="M56.54,56a2.13,2.13,0,0,1-1.64-.76,2.19,2.19,0,0,1-.51-1.57,2.16,2.16,0,0,1,.76-1.47L70.93,38.52a2.18,2.18,0,0,1,2.8,0L89.51,52.19a2.16,2.16,0,0,1,.76,1.47,2.19,2.19,0,0,1-.51,1.57,2.13,2.13,0,0,1-1.64.76,2.15,2.15,0,0,1-1.4-.51L72.33,43,57.94,55.48A2.15,2.15,0,0,1,56.54,56Z"/><path class="cls-9" d="M55.15,54.59,70.93,40.92a2.14,2.14,0,0,1,2.8,0L89.51,54.59a2,2,0,0,1,.39.44,2.14,2.14,0,0,0,.37-1.37,2.16,2.16,0,0,0-.76-1.47L73.73,38.52a2.18,2.18,0,0,0-2.8,0L55.15,52.19a2.16,2.16,0,0,0-.76,1.47A2.14,2.14,0,0,0,54.76,55,2,2,0,0,1,55.15,54.59Z"/><path class="cls-7" d="M56.54,56a2.13,2.13,0,0,1-1.64-.76,2.19,2.19,0,0,1-.51-1.57,2.16,2.16,0,0,1,.76-1.47L70.93,38.52a2.18,2.18,0,0,1,2.8,0L89.51,52.19a2.16,2.16,0,0,1,.76,1.47,2.19,2.19,0,0,1-.51,1.57,2.13,2.13,0,0,1-1.64.76,2.15,2.15,0,0,1-1.4-.51L72.33,43,57.94,55.48A2.15,2.15,0,0,1,56.54,56Z"/><path class="cls-10" d="M80.92,39.45H83.8V37.77a1.2,1.2,0,0,0-1.2-1.2h-.48a1.2,1.2,0,0,0-1.2,1.2Z"/><path class="cls-4" d="M61.78,69.66h9.51a1,1,0,0,1,1,1v1.88a0,0,0,0,1,0,0H60.78a0,0,0,0,1,0,0V70.66A1,1,0,0,1,61.78,69.66Z"/><path class="cls-11" d="M70.85,69.66H62.22V63.19a4.32,4.32,0,1,1,8.63,0Z"/><line class="cls-3" x1="67.97" y1="66.06" x2="67.97" y2="64.63"/><circle class="cls-12" cx="72.29" cy="51.68" r="2.88"/><path class="cls-13" d="M74.32,49.64a2.88,2.88,0,0,0-4.07,4.07Z"/><circle class="cls-3" cx="72.29" cy="51.68" r="2.88"/><rect class="cls-12" x="76.61" y="59.59" width="5.76" height="8.63" rx="1" ry="1"/><path class="cls-13" d="M82.34,60.7a1.19,1.19,0,0,0-1.18-1.11H77.81a1.2,1.2,0,0,0-1.2,1.2v5.65Z"/><rect class="cls-3" x="76.61" y="59.59" width="5.76" height="8.63" rx="1" ry="1"/><rect class="cls-14" x="29.99" y="48.87" width="20.14" height="14.39" rx="2" ry="2"/><path class="cls-4" d="M30,52.47v-1.2a2.39,2.39,0,0,1,2.39-2.4H47.73a2.4,2.4,0,0,1,2.4,2.4v1.2Z"/><path class="cls-4" d="M51.73,42.85a1.42,1.42,0,0,1-1.36,1H14.88a1.44,1.44,0,0,1-1.37-1L13,41.41a1.44,1.44,0,0,1,1.37-1.89H50.85a1.42,1.42,0,0,1,1.16.6,1.39,1.39,0,0,1,.2,1.29Z"/><path class="cls-4" d="M25.67,35.44a1.42,1.42,0,0,0-.29-.86l-.72-1a1.43,1.43,0,0,0-2.3,0l-.72,1a1.42,1.42,0,0,0-.29.86v45.8h4.32Z"/><ellipse class="cls-15" cx="30.7" cy="83.76" rx="18.7" ry="1.8"/><path class="cls-16" d="M35.74,80a2.66,2.66,0,0,0-2.66-2.66,2.77,2.77,0,0,0-1.21.3,3.5,3.5,0,0,0-4.66-1.75,5.29,5.29,0,0,0-10,2.15,2.63,2.63,0,0,0-1.78-.7,2.66,2.66,0,1,0,0,5.31h17.7A2.54,2.54,0,0,0,35.74,80Z"/><line class="cls-4" x1="32.86" y1="48.87" x2="32.86" y2="43.83"/><line class="cls-4" x1="46.53" y1="48.87" x2="46.53" y2="43.83"/><line class="cls-17" x1="36.46" y1="56.06" x2="43.65" y2="56.06"/><line class="cls-17" x1="34.3" y1="59.66" x2="45.81" y2="59.66"/></g></svg>