<svg viewBox="0 0 100 112" xmlns="http://www.w3.org/2000/svg"><path d="m90.5 56a40 40 0 1 0 -76.44 16.5h72.88a39.85 39.85 0 0 0 3.56-16.5z" fill="#e8f4fa"/><path d="m14.06 72.5a40 40 0 0 0 72.88 0z" fill="#fff"/><path d="m11.5 72.5h78" fill="none" stroke="#191816" stroke-linecap="round" stroke-linejoin="round"/><path d="m7 72.5h2.5" fill="none" stroke="#191816" stroke-linecap="round" stroke-linejoin="round"/><path d="m91.5 72.5h2.5" fill="none" stroke="#191816" stroke-linecap="round" stroke-linejoin="round"/><path d="m72.4 54a3.3 3.3 0 0 1 -3.3-3.3 3.3 3.3 0 0 1 -6.6 0 3.3 3.3 0 1 1 -6.6 0 3.3 3.3 0 1 1 -6.6 0 3.3 3.3 0 0 1 -6.6 0 3.3 3.3 0 0 1 -6.6 0 3.29 3.29 0 0 1 -3.3 3.3 3.68 3.68 0 0 1 -.66-.06v18.53h40.92v-18.54a3.52 3.52 0 0 1 -.66.07z" fill="#fff"/><path d="m46.66 61.92a5.28 5.28 0 1 0 -10.56 0v4h10.56z" fill="#80ddff"/><path d="m32.14 36.68h40.92v5.43h-40.92z" fill="#fff"/><path d="m75.7 48.72h-46.2l2.65-6.6h40.91z" fill="#ff6242"/><path d="m29.5 48.72v2a3.3 3.3 0 0 0 6.6 0v-2z" fill="#ff6242"/><path d="m36.1 48.72v2a3.3 3.3 0 0 0 6.6 0v-2z" fill="#ff6242"/><path d="m42.7 48.72v2a3.3 3.3 0 0 0 6.6 0v-2z" fill="#ff6242"/><path d="m49.3 48.72v2a3.3 3.3 0 1 0 6.6 0v-2z" fill="#ff6242"/><path d="m55.9 48.72v2a3.3 3.3 0 1 0 6.6 0v-2z" fill="#ff6242"/><path d="m62.5 48.72v2a3.3 3.3 0 0 0 6.6 0v-2z" fill="#ff6242"/><path d="m69.1 48.72v2a3.3 3.3 0 1 0 6.6 0v-2z" fill="#ff6242"/><path d="m36.1 65.88h10.56v6.6h-10.56z" fill="#debb7e"/><path d="m65.8 54a3.3 3.3 0 0 1 -3.23-2.64h-.13a3.3 3.3 0 0 1 -6.47 0h-.13a3.29 3.29 0 0 1 -5.22 2v14.1a1.11 1.11 0 0 0 1.1 1.1h16.28a1.1 1.1 0 0 0 1.1-1.1v-16.11h-.1a3.3 3.3 0 0 1 -3.2 2.65z" fill="#00b8f0"/><path d="m63.33 52.87a3.32 3.32 0 0 1 -.76-1.52h-.13a3.3 3.3 0 0 1 -6.47 0h-.13a3.29 3.29 0 0 1 -5.22 2v12.23z" fill="#4acfff"/><path d="m25.3 60.69c0 3.49-1.13 6.32-2.52 6.32s-2.52-2.83-2.52-6.32 2.52-12.69 2.52-12.69 2.52 9.2 2.52 12.69z" fill="#9ceb60"/><path d="m29.5 48.72h46.2l-1.15-2.9h-43.89z" fill="#ff866e"/><path d="m32.14 36.68h40.92v2.64h-40.92z" fill="#daedf7"/><g stroke="#191816"><path d="m32.14 36.68h40.92v5.43h-40.92z" fill="none" stroke-linejoin="round"/><path d="m72.4 54a3.3 3.3 0 0 1 -3.3-3.3 3.3 3.3 0 0 1 -6.6 0 3.3 3.3 0 1 1 -6.6 0 3.3 3.3 0 1 1 -6.6 0 3.3 3.3 0 0 1 -6.6 0 3.3 3.3 0 0 1 -6.6 0 3.29 3.29 0 0 1 -3.3 3.3 3.68 3.68 0 0 1 -.66-.06v18.53h40.92v-18.54a3.52 3.52 0 0 1 -.66.07z" fill="none" stroke-linejoin="round"/><path d="m25.3 60.69c0 3.49-1.13 6.32-2.52 6.32s-2.52-2.83-2.52-6.32 2.52-12.69 2.52-12.69 2.52 9.2 2.52 12.69z" fill="none" stroke-linejoin="round"/><path d="m41.39 56.64v15.83" fill="none" stroke-miterlimit="10"/><path d="m36.1 61.92h10.56" fill="none" stroke-miterlimit="10"/><path d="m75.7 48.72h-46.2l2.65-6.6h40.91z" fill="none" stroke-linejoin="round"/><path d="m46.66 61.92a5.28 5.28 0 1 0 -10.56 0v4h10.56z" fill="none" stroke-linejoin="round"/><path d="m41.39 56.64v15.83" fill="none" stroke-linejoin="round"/><path d="m36.1 65.88h10.56v6.6h-10.56z" fill="none" stroke-linejoin="round"/><path d="m36.1 61.92h10.56" fill="none" stroke-linejoin="round"/><path d="m29.5 48.72v2a3.3 3.3 0 0 0 6.6 0v-2z" fill="none" stroke-linejoin="round"/><path d="m36.1 48.72v2a3.3 3.3 0 0 0 6.6 0v-2z" fill="none" stroke-linejoin="round"/><path d="m42.7 48.72v2a3.3 3.3 0 0 0 6.6 0v-2z" fill="none" stroke-linejoin="round"/><path d="m49.3 48.72v2a3.3 3.3 0 1 0 6.6 0v-2z" fill="none" stroke-linejoin="round"/><path d="m55.9 48.72v2a3.3 3.3 0 1 0 6.6 0v-2z" fill="none" stroke-linejoin="round"/><path d="m62.5 48.72v2a3.3 3.3 0 0 0 6.6 0v-2z" fill="none" stroke-linejoin="round"/><path d="m69.1 48.72v2a3.3 3.3 0 1 0 6.6 0v-2z" fill="none" stroke-linejoin="round"/><path d="m65.8 54a3.3 3.3 0 0 1 -3.23-2.64h-.13a3.3 3.3 0 0 1 -6.47 0h-.13a3.29 3.29 0 0 1 -5.22 2v14.1a1.11 1.11 0 0 0 1.1 1.1h16.28a1.1 1.1 0 0 0 1.1-1.1v-16.11h-.1a3.3 3.3 0 0 1 -3.2 2.65z" fill="none" stroke-linejoin="round"/><path d="m84.39 19.34a2.56 2.56 0 0 0 -1 .19 4.38 4.38 0 0 0 -8.65 0 2.56 2.56 0 0 0 -1-.19 2.64 2.64 0 1 0 0 5.28h10.65a2.64 2.64 0 1 0 0-5.28z" fill="#fff" stroke-miterlimit="10"/><path d="m84.39 19.34a2.56 2.56 0 0 0 -1 .19 4.38 4.38 0 0 0 -8.65 0 2.56 2.56 0 0 0 -1-.19 2.64 2.64 0 1 0 0 5.28h10.65a2.64 2.64 0 1 0 0-5.28z" fill="#fff" stroke-linejoin="round"/><path d="m22.78 67.01v5.46" fill="none" stroke-linejoin="round"/><rect fill="#fff" height="3.71" rx=".5" stroke-linejoin="round" width="43.56" x="30.82" y="32.98"/></g></svg>