<svg viewBox="0 0 100 112" xmlns="http://www.w3.org/2000/svg" xmlns:xlink="http://www.w3.org/1999/xlink"><clipPath id="a"><circle cx="49.98" cy="56.23" r="40"/></clipPath><circle cx="49.98" cy="56.23" fill="#e8f4fa" r="40"/><g fill="#ffe500"><path d="m71 43.59a2.4 2.4 0 0 1 1.8-1.8l3.57-.79a.3.3 0 0 0 0-.59l-3.62-.83a2.38 2.38 0 0 1 -1.75-1.84l-.84-3.61a.3.3 0 0 0 -.58 0l-.83 3.61a2.41 2.41 0 0 1 -1.8 1.8l-3.61.83a.3.3 0 0 0 -.23.3.3.3 0 0 0 .23.29l3.61.83a2.43 2.43 0 0 1 1.8 1.8l.83 3.61a.3.3 0 0 0 .58 0z" stroke="#191816" stroke-linecap="round" stroke-linejoin="round"/><path d="m73.12 71.81 2.82-.94a.27.27 0 0 0 0-.51l-2.32-.77a1.09 1.09 0 0 1 -.67-.67l-.77-2.32a.27.27 0 0 0 -.25-.18.27.27 0 0 0 -.26.18l-.77 2.32a1 1 0 0 1 -.67.67l-2.32.77a.27.27 0 0 0 -.18.25.27.27 0 0 0 .18.26l2.32.77a1.06 1.06 0 0 1 .67.67l.77 2.32a.27.27 0 0 0 .51 0z" stroke="#191816" stroke-linecap="round" stroke-linejoin="round"/><path d="m64.54 60.24a8.36 8.36 0 1 1 -8.36-8.36 8.36 8.36 0 0 1 8.36 8.36z"/></g><path d="m56.18 67a8.36 8.36 0 0 1 -8.32-7.57v.78a8.36 8.36 0 1 0 16.72 0 6.79 6.79 0 0 0 0-.78 8.34 8.34 0 0 1 -8.4 7.57z" fill="#ebcb00"/><path d="m56.18 54.49a8.35 8.35 0 0 1 8.25 7.06 8.08 8.08 0 0 0 .11-1.31 8.36 8.36 0 0 0 -16.72 0 9.38 9.38 0 0 0 .11 1.31 8.36 8.36 0 0 1 8.25-7.06z" fill="#fff48c"/><path d="m64.54 60.24a8.36 8.36 0 1 1 -8.36-8.36 8.36 8.36 0 0 1 8.36 8.36z" fill="none" stroke="#191816" stroke-linejoin="round"/><path d="m56.18 54.92a.64.64 0 0 0 -.64.64v.63a2.39 2.39 0 0 0 -1.76 2.3 2.34 2.34 0 0 0 .71 1.69 2.3 2.3 0 0 0 1.69.7 1.13 1.13 0 0 1 1.12 1.12 1.12 1.12 0 0 1 -2.23 0 .65.65 0 1 0 -1.29 0 2.41 2.41 0 0 0 1.76 2.3v.62a.65.65 0 0 0 .64.65.69.69 0 0 0 .46-.19.64.64 0 0 0 .19-.46v-.62a2.38 2.38 0 0 0 1.75-2.3 2.39 2.39 0 0 0 -2.4-2.4 1.12 1.12 0 0 1 0-2.23 1.13 1.13 0 0 1 1.12 1.12.64.64 0 0 0 .64.64.64.64 0 0 0 .64-.64 2.38 2.38 0 0 0 -1.75-2.31v-.62a.64.64 0 0 0 -.65-.64z" fill="#525252"/><g clip-path="url(#a)"><path d="m34.84 64.32a2.64 2.64 0 0 1 -.55-.06 2.53 2.53 0 0 1 -1.92-3c.53-2.41.9-4.41 1.22-6.17 1.16-6.28 1.8-9.74 7.2-17.31a2.53 2.53 0 1 1 4.12 2.93c-4.75 6.66-5.25 9.37-6.34 15.3-.34 1.8-.71 3.84-1.26 6.34a2.53 2.53 0 0 1 -2.47 1.97z" fill="#ffb59e" stroke="#191816" stroke-miterlimit="10"/><path d="m35.68 62.32h-.3a2.52 2.52 0 0 1 -2.21-2.81c.43-3.64 3-16 18.1-21.72a2.53 2.53 0 1 1 1.8 4.73c-12.07 4.59-14.43 13.81-14.88 17.57a2.53 2.53 0 0 1 -2.51 2.23z" fill="#ffb59e" stroke="#191816" stroke-miterlimit="10"/><path d="m55.41 69.24c-7 3.46-14.5-3-14.4-9.16.15-9 8.27-11.15 14.38-9.3 2.57.78 3.51-3.65 1.1-4.81-9-4.33-19.86 3-22 7.49-3.92 8.44.41 7-9.67 17.11l9.71 9.7a1.4 1.4 0 0 1 .28.42c10.19-10.29 14.74-.41 23.73-7.48 2.62-2.07-.13-5.45-3.13-3.97z" fill="#ffcebf"/><path d="m56.49 46c-9-4.33-19.86 3-22 7.49-3.92 8.44.41 7-9.67 17.11l2.51 2.4c9.87-9.89 5.61-8.55 9.51-16.94 2-4.39 9.72-11.44 21-7.87a2.58 2.58 0 0 0 -1.35-2.19z" fill="#ffdcd1"/><rect fill="#009fd9" height="19.6" rx="1.26" stroke="#191816" stroke-linejoin="round" transform="matrix(.70710678 -.70710678 .70710678 .70710678 -55.58 38.22)" width="23.73" x="6.48" y="76.4"/><path d="m20.7 71.78a1.26 1.26 0 0 0 -1.79 0l-15 15a1.26 1.26 0 0 0 0 1.79l1.35 1.33 16.74-16.78z" fill="#00b8f0"/><g stroke="#191816" stroke-linejoin="round"><rect fill="none" height="19.6" rx="1.26" transform="matrix(.70710678 -.70710678 .70710678 .70710678 -55.58 38.22)" width="23.73" x="6.48" y="76.4"/><path d="m27.44 67.93h2.56a0 0 0 0 1 0 0v17.07a0 0 0 0 1 0 0h-2.56a1.26 1.26 0 0 1 -1.26-1.26v-14.54a1.26 1.26 0 0 1 1.26-1.26z" fill="#fff" stroke-linecap="round" transform="matrix(-.70710678 .70710678 -.70710678 -.70710678 102 110.69)"/><path d="m55.41 69.24c-7 3.46-14.5-3-14.4-9.16.15-9 8.27-11.15 14.38-9.3 2.57.78 3.51-3.65 1.1-4.81-9-4.33-19.86 3-22 7.49-3.92 8.44.41 7-9.67 17.11l9.71 9.7a1.4 1.4 0 0 1 .28.42c10.19-10.29 14.74-.41 23.73-7.48 2.62-2.07-.13-5.45-3.13-3.97z" fill="none" stroke-linecap="round"/></g></g></svg>