<svg id="Multicolor" xmlns="http://www.w3.org/2000/svg" viewBox="0 0 178 178"><defs><style>.cls-1,.cls-8{fill:#e8f4fa;}.cls-14,.cls-2{fill:#191816;}.cls-2{opacity:0.15;}.cls-3{fill:#c0dceb;}.cls-15,.cls-3,.cls-6,.cls-7,.cls-8{stroke:#191816;stroke-linecap:round;stroke-linejoin:round;}.cls-4{fill:#00b8f0;}.cls-5{fill:#4acfff;}.cls-6{fill:none;}.cls-7{fill:#656769;}.cls-9{fill:#fff;}.cls-10{fill:#bf8256;}.cls-11{fill:#915e3a;}.cls-12{fill:#e0e0e0;}.cls-13{fill:#f0f0f0;}.cls-15{fill:#fff5e3;}</style></defs><title>01- desktop-programmer-programming-flowchart</title><g id="Background"><g id="New_Symbol_51-9" data-name="New Symbol 51"><circle class="cls-1" cx="90.34" cy="87" r="81"/></g></g><g id="Scene"><path class="cls-2" d="M124.1,116.5a1.49,1.49,0,0,0-1-1.87l-15.58-4.73,0-3.2a1.51,1.51,0,0,0-1.52-1.49l-8.3.1-.39-1.16a1.49,1.49,0,0,0-1.89-1l-6.68,2.2-14.24.16A1.5,1.5,0,0,0,73,107.08l0,3.51-7.55,2.5a1.49,1.49,0,0,0-1,1.89l8.84,26.76.1,8.84A1.5,1.5,0,0,0,75,152.06l1.79,0,1.4,4.24a1.5,1.5,0,0,0,1.9.95l11.15-3.68,18.36,5.57a1.49,1.49,0,0,0,1.87-1Z"/><rect class="cls-2" x="51.76" y="48.56" width="78" height="54" rx="6" ry="6"/><rect class="cls-2" x="28.3" y="85.38" width="19.5" height="34.5" rx="3" ry="3" transform="translate(-43.62 29.76) rotate(-27.92)"/><path class="cls-3" d="M131.66,14.81H49.87a5.41,5.41,0,0,0-4.85,3h0v1.5h91.5v-1.5h0A5.43,5.43,0,0,0,131.66,14.81Z"/><path class="cls-4" d="M124.18,47.81H57.35a4.49,4.49,0,0,1-4.08-2.61L45.13,19.89a1.51,1.51,0,0,1,1.39-2.08H135a1.5,1.5,0,0,1,1.39,2.08L128.27,45.2A4.51,4.51,0,0,1,124.18,47.81Z"/><path class="cls-5" d="M72.77,47.81l29.82-30H46.52a1.51,1.51,0,0,0-1.39,2.08L53.27,45.2a4.49,4.49,0,0,0,4.08,2.61Z"/><path class="cls-6" d="M124.18,47.81H57.35a4.49,4.49,0,0,1-4.08-2.61L45.13,19.89a1.51,1.51,0,0,1,1.39-2.08H135a1.5,1.5,0,0,1,1.39,2.08L128.27,45.2A4.51,4.51,0,0,1,124.18,47.81Z"/><path class="cls-6" d="M124.18,47.81H57.35a4.49,4.49,0,0,1-4.08-2.61L45.13,19.89a1.51,1.51,0,0,1,1.39-2.08H135a1.5,1.5,0,0,1,1.39,2.08L128.27,45.2A4.51,4.51,0,0,1,124.18,47.81Z"/><rect class="cls-3" x="52.52" y="46.31" width="76.5" height="51" rx="4.5" ry="4.5"/><rect class="cls-6" x="61.52" y="46.31" width="58.5" height="6"/><rect class="cls-7" x="61.52" y="46.31" width="58.5" height="3"/><rect class="cls-8" x="82.52" y="80.81" width="16.5" height="12" rx="1.5" ry="1.5"/><rect class="cls-8" x="61.52" y="55.31" width="58.5" height="22.5" rx="1.5" ry="1.5"/><line class="cls-6" x1="66.02" y1="73.31" x2="70.52" y2="73.31"/><line class="cls-6" x1="66.02" y1="68.81" x2="70.52" y2="68.81"/><line class="cls-6" x1="66.02" y1="64.31" x2="70.52" y2="64.31"/><line class="cls-6" x1="66.02" y1="59.81" x2="70.52" y2="59.81"/><line class="cls-6" x1="73.52" y1="68.81" x2="78.02" y2="68.81"/><line class="cls-6" x1="73.52" y1="64.31" x2="78.02" y2="64.31"/><line class="cls-6" x1="73.52" y1="59.81" x2="78.02" y2="59.81"/><line class="cls-6" x1="81.02" y1="68.81" x2="85.52" y2="68.81"/><line class="cls-6" x1="81.02" y1="64.31" x2="85.52" y2="64.31"/><line class="cls-6" x1="81.02" y1="59.81" x2="85.52" y2="59.81"/><line class="cls-6" x1="88.52" y1="68.81" x2="93.02" y2="68.81"/><line class="cls-6" x1="88.52" y1="64.31" x2="93.02" y2="64.31"/><line class="cls-6" x1="88.52" y1="59.81" x2="93.02" y2="59.81"/><line class="cls-6" x1="96.02" y1="68.81" x2="100.52" y2="68.81"/><line class="cls-6" x1="96.02" y1="64.31" x2="100.52" y2="64.31"/><line class="cls-6" x1="96.02" y1="59.81" x2="100.52" y2="59.81"/><line class="cls-6" x1="103.52" y1="68.81" x2="108.02" y2="68.81"/><line class="cls-6" x1="103.52" y1="64.31" x2="108.02" y2="64.31"/><line class="cls-6" x1="103.52" y1="59.81" x2="108.02" y2="59.81"/><line class="cls-6" x1="111.02" y1="68.81" x2="115.52" y2="68.81"/><line class="cls-6" x1="111.02" y1="64.31" x2="115.52" y2="64.31"/><line class="cls-6" x1="111.02" y1="59.81" x2="115.52" y2="59.81"/><line class="cls-6" x1="73.52" y1="73.31" x2="78.02" y2="73.31"/><line class="cls-6" x1="81.02" y1="73.31" x2="100.52" y2="73.31"/><line class="cls-6" x1="103.52" y1="73.31" x2="108.02" y2="73.31"/><line class="cls-6" x1="111.02" y1="73.31" x2="115.52" y2="73.31"/><polygon class="cls-1" points="129.02 23.81 52.52 23.81 58.52 41.81 123.02 41.81 129.02 23.81"/><polygon class="cls-9" points="96.59 23.81 52.52 23.81 58.52 41.81 78.59 41.81 96.59 23.81"/><polygon class="cls-6" points="129.02 23.81 52.52 23.81 58.52 41.81 123.02 41.81 129.02 23.81"/><line class="cls-6" x1="58.52" y1="28.31" x2="64.52" y2="28.31"/><line class="cls-6" x1="63.02" y1="31.31" x2="70.52" y2="31.31"/><line class="cls-6" x1="66.02" y1="34.31" x2="73.52" y2="34.31"/><line class="cls-6" x1="64.52" y1="37.31" x2="70.52" y2="37.31"/><line class="cls-6" x1="113.27" y1="23.81" x2="111.02" y2="41.81"/><line class="cls-6" x1="73.52" y1="31.31" x2="75.02" y2="31.31"/><line class="cls-6" x1="67.52" y1="28.31" x2="69.02" y2="28.31"/><line class="cls-6" x1="76.52" y1="34.31" x2="81.02" y2="34.31"/><circle class="cls-2" cx="146.46" cy="99.57" r="10.5"/><path class="cls-2" d="M130.86,119.42l-2.34,8.2a6.83,6.83,0,1,0,13.13,3.74l2.34-8.2a6.83,6.83,0,0,0-13.13-3.74Z"/><path class="cls-9" d="M154.42,106.21A2.25,2.25,0,0,0,157.6,103l-3.71-3.71-3.18,3.18Z"/><path class="cls-6" d="M154.42,106.21A2.25,2.25,0,0,0,157.6,103l-3.71-3.71-3.18,3.18Z"/><circle class="cls-9" cx="146.46" cy="95.07" r="9.75"/><circle class="cls-10" cx="146.46" cy="95.07" r="6.75"/><path class="cls-11" d="M146.46,91.32A6.74,6.74,0,0,1,153,96.57a6.75,6.75,0,1,0-13.14,0A6.75,6.75,0,0,1,146.46,91.32Z"/><circle class="cls-6" cx="146.46" cy="95.07" r="9.75"/><circle class="cls-6" cx="146.46" cy="95.07" r="6.75"/><path class="cls-12" d="M130.89,117.46l-2.06,7.21A6,6,0,1,0,140.37,128l2.06-7.21a6,6,0,0,0-11.54-3.29Z"/><path class="cls-13" d="M138.3,113.34a6,6,0,0,0-7.41,4.12l-1,3.61a6,6,0,1,1,11.54,3.29l1-3.61A6,6,0,0,0,138.3,113.34Z"/><path class="cls-14" d="M136.86,117.88l.14,0a.51.51,0,0,1,.3.24.5.5,0,0,1-.44.74h-.14a.51.51,0,0,1,.14-1m0-1a1.5,1.5,0,0,0-.41,3,1.53,1.53,0,0,0,1.85-1,1.5,1.5,0,0,0-1-1.86,1.4,1.4,0,0,0-.41-.06Z"/><path class="cls-6" d="M130.89,117.46l-2.06,7.21A6,6,0,1,0,140.37,128l2.06-7.21a6,6,0,0,0-11.54-3.29Z"/><rect class="cls-15" x="77.89" y="113.55" width="45" height="33" rx="1.5" ry="1.5" transform="translate(-53.2 188.38) rotate(-73.13)"/><line class="cls-6" x1="94.12" y1="109.35" x2="99.87" y2="111.09"/><line class="cls-6" x1="92.82" y1="113.65" x2="105.74" y2="117.57"/><line class="cls-6" x1="91.51" y1="117.96" x2="100.13" y2="120.57"/><line class="cls-6" x1="90.21" y1="122.26" x2="100.26" y2="125.31"/><line class="cls-6" x1="88.9" y1="126.57" x2="93.21" y2="127.88"/><line class="cls-6" x1="87.6" y1="130.88" x2="103.39" y2="135.67"/><line class="cls-6" x1="86.29" y1="135.18" x2="96.34" y2="138.23"/><line class="cls-6" x1="84.98" y1="139.49" x2="103.65" y2="145.15"/><line class="cls-6" x1="83.68" y1="143.8" x2="92.29" y2="146.41"/><line class="cls-6" x1="102.74" y1="111.96" x2="109.92" y2="114.13"/><line class="cls-6" x1="96.08" y1="128.75" x2="103.26" y2="130.92"/><line class="cls-6" x1="95.16" y1="147.28" x2="102.34" y2="149.46"/><rect class="cls-15" x="71.27" y="105.73" width="33" height="45" rx="1.5" ry="1.5" transform="translate(-34.48 32.31) rotate(-17.49)"/><line class="cls-6" x1="70.91" y1="114.67" x2="76.63" y2="112.87"/><line class="cls-6" x1="72.26" y1="118.96" x2="85.14" y2="114.9"/><line class="cls-6" x1="73.62" y1="123.25" x2="82.2" y2="120.55"/><line class="cls-6" x1="74.97" y1="127.54" x2="84.98" y2="124.39"/><line class="cls-6" x1="76.32" y1="131.84" x2="80.61" y2="130.48"/><line class="cls-6" x1="77.67" y1="136.13" x2="93.41" y2="131.17"/><line class="cls-6" x1="79.03" y1="140.42" x2="89.04" y2="137.26"/><line class="cls-6" x1="80.38" y1="144.71" x2="98.98" y2="138.85"/><line class="cls-6" x1="81.73" y1="149" x2="90.31" y2="146.3"/><line class="cls-6" x1="79.49" y1="111.96" x2="86.65" y2="109.71"/><line class="cls-6" x1="83.47" y1="129.58" x2="90.63" y2="127.33"/><line class="cls-6" x1="93.18" y1="145.4" x2="100.33" y2="143.14"/><rect class="cls-15" x="75.02" y="104.81" width="33" height="45" rx="1.5" ry="1.5"/><ellipse class="cls-6" cx="84.01" cy="112.31" rx="4.5" ry="3"/><ellipse class="cls-6" cx="84.01" cy="142.31" rx="4.5" ry="3"/><line class="cls-6" x1="84.01" y1="115.31" x2="84.01" y2="118.31"/><rect class="cls-6" x="81.01" y="118.31" width="6" height="3"/><rect class="cls-6" x="97.51" y="118.31" width="6" height="3"/><line class="cls-6" x1="84.01" y1="121.31" x2="84.01" y2="124.31"/><rect class="cls-6" x="81.89" y="125.19" width="4.24" height="4.24" transform="translate(-65.42 96.69) rotate(-45)"/><rect class="cls-6" x="98.39" y="132.69" width="4.24" height="4.24" transform="translate(-65.89 110.56) rotate(-45)"/><line class="cls-6" x1="84.01" y1="130.31" x2="84.01" y2="133.31"/><polygon class="cls-6" points="103.51 128.81 96.01 128.81 97.51 125.81 105.01 125.81 103.51 128.81"/><line class="cls-6" x1="100.51" y1="128.81" x2="100.51" y2="131.81"/><line class="cls-6" x1="100.51" y1="121.31" x2="100.51" y2="125.81"/><line class="cls-6" x1="97.51" y1="134.81" x2="88.51" y2="134.81"/><rect class="cls-6" x="79.51" y="133.31" width="9" height="3"/><line class="cls-6" x1="84.01" y1="136.31" x2="84.01" y2="139.31"/><polyline class="cls-6" points="97.51 119.81 93.01 119.81 93.01 127.31 87.01 127.31"/><rect class="cls-13" x="29.64" y="82.43" width="18" height="33" rx="2" ry="2" transform="translate(-41.82 29.6) rotate(-27.92)"/><rect class="cls-6" x="29.64" y="82.43" width="18" height="33" rx="2" ry="2" transform="translate(-41.82 29.6) rotate(-27.92)"/><rect class="cls-4" x="29.29" y="88.52" width="18" height="19.5" transform="translate(-41.55 29.36) rotate(-27.92)"/><polygon class="cls-5" points="39.02 86.84 25.77 93.87 32.79 107.12 39.02 86.84"/><rect class="cls-6" x="29.29" y="88.52" width="18" height="19.5" transform="translate(-41.55 29.36) rotate(-27.92)"/><line class="cls-6" x1="30.99" y1="87.7" x2="33.64" y2="86.3"/><path class="cls-6" d="M45.27,109.85a.75.75,0,0,1-.31,1,.75.75,0,1,1-.7-1.33A.75.75,0,0,1,45.27,109.85Z"/></g></svg>