<svg id="Multicolor" xmlns="http://www.w3.org/2000/svg" xmlns:xlink="http://www.w3.org/1999/xlink" viewBox="0 0 100 112"><defs><style>.cls-1,.cls-16,.cls-7{fill:none;}.cls-2{fill:#e8f4fa;}.cls-3,.cls-4{fill:#ffe500;}.cls-10,.cls-13,.cls-15,.cls-16,.cls-3,.cls-7{stroke:#191816;}.cls-15,.cls-16,.cls-3{stroke-linecap:round;}.cls-13,.cls-15,.cls-16,.cls-3,.cls-7{stroke-linejoin:round;}.cls-5{fill:#ebcb00;}.cls-6{fill:#fff48c;}.cls-8{fill:#525252;}.cls-9{clip-path:url(#clip-path);}.cls-10{fill:#ffb59e;stroke-miterlimit:10;}.cls-11{fill:#ffcebf;}.cls-12{fill:#ffdcd1;}.cls-13{fill:#009fd9;}.cls-14{fill:#00b8f0;}.cls-15{fill:#fff;}</style><clipPath id="clip-path"><circle class="cls-1" cx="49.98" cy="56.23" r="40"/></clipPath></defs><title>01- currency-money-hand-1</title><g id="Background"><g id="New_Symbol_1-11" data-name="New Symbol 1"><circle class="cls-2" cx="49.98" cy="56.23" r="40"/></g></g><g id="Scene"><path class="cls-3" d="M71,43.59a2.4,2.4,0,0,1,1.8-1.8L76.37,41a.3.3,0,0,0,0-.59l-3.62-.83A2.38,2.38,0,0,1,71,37.74l-.84-3.61a.3.3,0,0,0-.58,0l-.83,3.61a2.41,2.41,0,0,1-1.8,1.8l-3.61.83a.3.3,0,0,0-.23.3.3.3,0,0,0,.23.29l3.61.83a2.43,2.43,0,0,1,1.8,1.8l.83,3.61a.3.3,0,0,0,.58,0Z"/><path class="cls-3" d="M73.12,71.81l2.82-.94a.27.27,0,0,0,0-.51l-2.32-.77a1.09,1.09,0,0,1-.67-.67l-.77-2.32a.27.27,0,0,0-.25-.18.27.27,0,0,0-.26.18l-.77,2.32a1,1,0,0,1-.67.67l-2.32.77a.27.27,0,0,0-.18.25.27.27,0,0,0,.18.26l2.32.77a1.06,1.06,0,0,1,.67.67l.77,2.32a.27.27,0,0,0,.51,0Z"/><path class="cls-4" d="M64.54,60.24a8.36,8.36,0,1,1-8.36-8.36A8.36,8.36,0,0,1,64.54,60.24Z"/><path class="cls-5" d="M56.18,67a8.36,8.36,0,0,1-8.32-7.57c0,.26,0,.52,0,.78a8.36,8.36,0,1,0,16.72,0,6.79,6.79,0,0,0,0-.78A8.34,8.34,0,0,1,56.18,67Z"/><path class="cls-6" d="M56.18,54.49a8.35,8.35,0,0,1,8.25,7.06,8.08,8.08,0,0,0,.11-1.31,8.36,8.36,0,0,0-16.72,0,9.38,9.38,0,0,0,.11,1.31A8.36,8.36,0,0,1,56.18,54.49Z"/><path class="cls-7" d="M64.54,60.24a8.36,8.36,0,1,1-8.36-8.36A8.36,8.36,0,0,1,64.54,60.24Z"/><path class="cls-8" d="M56.18,54.92a.64.64,0,0,0-.64.64v.63a2.39,2.39,0,0,0-1.76,2.3,2.34,2.34,0,0,0,.71,1.69,2.3,2.3,0,0,0,1.69.7A1.13,1.13,0,0,1,57.3,62a1.12,1.12,0,0,1-2.23,0,.65.65,0,1,0-1.29,0,2.41,2.41,0,0,0,1.76,2.3v.62a.65.65,0,0,0,.64.65.69.69,0,0,0,.46-.19.64.64,0,0,0,.19-.46V64.3A2.38,2.38,0,0,0,58.58,62a2.39,2.39,0,0,0-2.4-2.4,1.12,1.12,0,0,1,0-2.23h0a1.13,1.13,0,0,1,1.12,1.12.64.64,0,0,0,.64.64.64.64,0,0,0,.64-.64,2.38,2.38,0,0,0-1.75-2.31v-.62A.64.64,0,0,0,56.18,54.92Z"/><g class="cls-9"><path class="cls-10" d="M34.84,64.32a2.64,2.64,0,0,1-.55-.06,2.53,2.53,0,0,1-1.92-3c.53-2.41.9-4.41,1.22-6.17,1.16-6.28,1.8-9.74,7.2-17.31a2.53,2.53,0,1,1,4.12,2.93c-4.75,6.66-5.25,9.37-6.34,15.3-.34,1.8-.71,3.84-1.26,6.34A2.53,2.53,0,0,1,34.84,64.32Z"/><path class="cls-10" d="M35.68,62.32l-.3,0a2.52,2.52,0,0,1-2.21-2.81c.43-3.64,3-16,18.1-21.72a2.53,2.53,0,1,1,1.8,4.73C41,47.11,38.64,56.33,38.19,60.09A2.53,2.53,0,0,1,35.68,62.32Z"/><path class="cls-11" d="M55.41,69.24c-7,3.46-14.5-3-14.4-9.16.15-9,8.27-11.15,14.38-9.3,2.57.78,3.51-3.65,1.1-4.81-9-4.33-19.86,3-22,7.49-3.92,8.44.41,7-9.67,17.11l9.71,9.7a1.4,1.4,0,0,1,.28.42C45,70.4,49.55,80.28,58.54,73.21,61.16,71.14,58.41,67.76,55.41,69.24Z"/><path class="cls-12" d="M56.49,46c-9-4.33-19.86,3-22,7.49-3.92,8.44.41,7-9.67,17.11L27.33,73c9.87-9.89,5.61-8.55,9.51-16.94,2-4.39,9.72-11.44,21-7.87A2.58,2.58,0,0,0,56.49,46Z"/><rect class="cls-13" x="6.48" y="76.4" width="23.73" height="19.6" rx="1.26" ry="1.26" transform="translate(-55.58 38.22) rotate(-45)"/><path class="cls-14" d="M20.7,71.78a1.26,1.26,0,0,0-1.79,0l-15,15a1.26,1.26,0,0,0,0,1.79L5.26,89.9,22,73.12Z"/><rect class="cls-7" x="6.48" y="76.4" width="23.73" height="19.6" rx="1.26" ry="1.26" transform="translate(-55.58 38.22) rotate(-45)"/><path class="cls-15" d="M27.44,67.93H30a0,0,0,0,1,0,0V85a0,0,0,0,1,0,0H27.44a1.26,1.26,0,0,1-1.26-1.26V69.2a1.26,1.26,0,0,1,1.26-1.26Z" transform="translate(102 110.69) rotate(135)"/><path class="cls-16" d="M55.41,69.24c-7,3.46-14.5-3-14.4-9.16.15-9,8.27-11.15,14.38-9.3,2.57.78,3.51-3.65,1.1-4.81-9-4.33-19.86,3-22,7.49-3.92,8.44.41,7-9.67,17.11l9.71,9.7a1.4,1.4,0,0,1,.28.42C45,70.4,49.55,80.28,58.54,73.21,61.16,71.14,58.41,67.76,55.41,69.24Z"/></g></g></svg>