<svg id="Multicolor" xmlns="http://www.w3.org/2000/svg" xmlns:xlink="http://www.w3.org/1999/xlink" viewBox="0 0 100 112"><defs><style>.cls-1,.cls-5,.cls-6{fill:none;}.cls-2{fill:#e8f4fa;}.cls-3{fill:#adc4d9;}.cls-4{fill:#cdf7ad;}.cls-13,.cls-15,.cls-16,.cls-17,.cls-21,.cls-5,.cls-8{stroke:#191816;stroke-linejoin:round;}.cls-13,.cls-15,.cls-16,.cls-17,.cls-21,.cls-5,.cls-6,.cls-8{stroke-linecap:round;}.cls-6{stroke:#c0dceb;stroke-miterlimit:10;}.cls-7{clip-path:url(#clip-path);}.cls-8{fill:#6dd627;}.cls-9{fill:#00b8f0;}.cls-10{fill:#4acfff;}.cls-11{fill:#fff5e3;}.cls-12{fill:#f7e5c6;}.cls-13{fill:#ffe500;}.cls-14{fill:#009fd9;}.cls-15{fill:#b8ecff;}.cls-16{fill:#e0e0e0;}.cls-17{fill:#ff6242;}.cls-18{fill:#f0f0f0;}.cls-19{fill:#fff;}.cls-20{fill:#191816;}.cls-21{fill:#8ca4b8;}</style><clipPath id="clip-path"><circle class="cls-1" cx="50.5" cy="56" r="40" transform="translate(-20.29 81.98) rotate(-68.11)"/></clipPath></defs><title>02- supermarket-1</title><g id="Background"><g id="New_Symbol_23" data-name="New Symbol 23"><circle class="cls-2" cx="50.5" cy="56" r="40" transform="translate(-16.92 89.78) rotate(-74.57)"/><path class="cls-3" d="M18.88,80.5H82.12a39.79,39.79,0,0,0,4.83-8H14.05A39.79,39.79,0,0,0,18.88,80.5Z"/><path class="cls-4" d="M18.88,80.5a40,40,0,0,0,63.24,0Z"/><line class="cls-5" x1="11.5" y1="72.5" x2="89.5" y2="72.5"/><line class="cls-5" x1="7" y1="72.5" x2="9.5" y2="72.5"/><line class="cls-5" x1="91.5" y1="72.5" x2="94" y2="72.5"/><line class="cls-6" x1="30.66" y1="76" x2="37.81" y2="76"/><line class="cls-6" x1="26.48" y1="76" x2="28.27" y2="76"/><line class="cls-6" x1="23.5" y1="76" x2="24.1" y2="76"/><line class="cls-6" x1="67.84" y1="77.5" x2="75" y2="77.5"/><line class="cls-6" x1="63.67" y1="77.5" x2="65.46" y2="77.5"/><line class="cls-6" x1="60.69" y1="77.5" x2="61.28" y2="77.5"/><g class="cls-7"><line class="cls-5" x1="16.92" y1="80.5" x2="84.08" y2="80.5"/></g></g></g><g id="Scene"><path class="cls-8" d="M67,40.4h16.6a1,1,0,0,1,1,1v2.9a0,0,0,0,1,0,0H66a0,0,0,0,1,0,0V41.4A1,1,0,0,1,67,40.4Z"/><path class="cls-2" d="M79.85,72.5H57.05V45.3a1,1,0,0,1,1-1H84.61a1,1,0,0,1,1,1.21Z"/><polygon class="cls-3" points="83.42 55.7 57.05 55.7 57.05 72.5 79.85 72.5 83.42 55.7"/><path class="cls-5" d="M79.85,72.5H57.05V45.3a1,1,0,0,1,1-1H84.61a1,1,0,0,1,1,1.21Z"/><polygon class="cls-9" points="57.05 62.9 81.89 62.9 84.32 51.5 57.05 51.5 57.05 62.9"/><polygon class="cls-10" points="81.43 51.5 57.05 51.5 57.05 62.9 70.03 62.9 81.43 51.5"/><polygon class="cls-5" points="57.05 62.9 81.89 62.9 84.32 51.5 57.05 51.5 57.05 62.9"/><path class="cls-11" d="M44.45,48.5l-1.6-5.86a1,1,0,0,0-1-.74H18.05l1.8,30.6h55.2L69.83,49.28a1,1,0,0,0-1-.78Z"/><path class="cls-12" d="M69.83,49.28a1,1,0,0,0-1-.78H44.45l-1.6-5.86a1,1,0,0,0-1-.74H18.05l.47,8H70Z"/><polygon class="cls-12" points="34.25 62.9 19.29 62.9 19.49 66.4 35.13 66.4 34.25 62.9"/><path class="cls-5" d="M44.45,48.5l-1.6-5.86a1,1,0,0,0-1-.74H18.05l1.8,30.6h55.2L69.83,49.28a1,1,0,0,0-1-.78Z"/><rect class="cls-13" x="22.25" y="65.9" width="3" height="4.2" rx="0.5" ry="0.5"/><rect class="cls-13" x="28.25" y="65.9" width="3" height="4.2" rx="0.5" ry="0.5"/><rect class="cls-9" x="36.65" y="54.5" width="32.4" height="18"/><polygon class="cls-10" points="61.41 54.5 36.65 54.5 36.65 72.5 43.41 72.5 61.41 54.5"/><rect class="cls-5" x="36.65" y="54.5" width="32.4" height="18"/><path class="cls-2" d="M16.78,41.9a1,1,0,0,0-1,1.12l.35,2.8a1,1,0,0,0,1,.88H38.45l1.8,7.8h22.8l4.2,18h7.8L69.83,49.28a1,1,0,0,0-1-.78H44.45l-1.6-5.86a1,1,0,0,0-1-.74Z"/><path class="cls-3" d="M75.05,72.5l-4.51-20a1.09,1.09,0,0,0-.89-.45H44.35a1,1,0,0,1-1-.72L41.9,46.14a1.06,1.06,0,0,0-1-.74H16.09l.05.42a1,1,0,0,0,1,.88H38.45l1.8,7.8h22.8l4.2,18Z"/><path class="cls-5" d="M16.78,41.9a1,1,0,0,0-1,1.12l.35,2.8a1,1,0,0,0,1,.88H38.45l1.8,7.8h22.8l4.2,18h7.8L69.83,49.28a1,1,0,0,0-1-.78H44.45l-1.6-5.86a1,1,0,0,0-1-.74Z"/><path class="cls-14" d="M36.65,57.5h17a1,1,0,0,1,1,1v14a0,0,0,0,1,0,0h-18a0,0,0,0,1,0,0v-15A0,0,0,0,1,36.65,57.5Z"/><rect class="cls-9" x="36.65" y="59.9" width="18" height="12.6"/><path class="cls-5" d="M36.65,57.5h17a1,1,0,0,1,1,1v14a0,0,0,0,1,0,0h-18a0,0,0,0,1,0,0v-15A0,0,0,0,1,36.65,57.5Z"/><path class="cls-15" d="M43.75,61.1h3.1a0,0,0,0,1,0,0v6.6a0,0,0,0,1,0,0h-3.6a0,0,0,0,1,0,0V61.6A.5.5,0,0,1,43.75,61.1Z"/><path class="cls-15" d="M46.85,61.1h3.1a.5.5,0,0,1,.5.5v6.1a0,0,0,0,1,0,0h-3.6a0,0,0,0,1,0,0V61.1A0,0,0,0,1,46.85,61.1Z"/><path class="cls-16" d="M39,67.7h16.3a.5.5,0,0,1,.5.5v1.9a0,0,0,0,1,0,0H39a0,0,0,0,1,0,0V67.7A0,0,0,0,1,39,67.7Z"/><path class="cls-16" d="M39,70.1h17.5a.5.5,0,0,1,.5.5v1.9a0,0,0,0,1,0,0H39a0,0,0,0,1,0,0V70.1A0,0,0,0,1,39,70.1Z"/><path class="cls-17" d="M16.93,55.57a1,1,0,0,1,1-1.07H36.65l4.8,18h-4.8l-2.4-9.6H18.38a1,1,0,0,1-1-.93Z"/><line class="cls-5" x1="54.65" y1="60.5" x2="64.45" y2="60.5"/><line class="cls-5" x1="54.65" y1="66.5" x2="65.85" y2="66.5"/><line class="cls-5" x1="59.45" y1="54.5" x2="59.45" y2="72.5"/><line class="cls-5" x1="51.05" y1="54.5" x2="51.05" y2="57.5"/><line class="cls-5" x1="43.25" y1="54.5" x2="43.25" y2="57.5"/><line class="cls-5" x1="72.05" y1="57.5" x2="82.85" y2="57.5"/><line class="cls-5" x1="75.05" y1="51.5" x2="75.05" y2="62.9"/><line class="cls-5" x1="79.85" y1="51.5" x2="79.85" y2="62.9"/><circle class="cls-18" cx="75.35" cy="34.9" r="7"/><path class="cls-19" d="M75.35,30.35a7,7,0,0,1,6.89,5.77,6.92,6.92,0,0,0,.11-1.22,7,7,0,0,0-14,0,6.92,6.92,0,0,0,.11,1.22A7,7,0,0,1,75.35,30.35Z"/><circle class="cls-5" cx="75.35" cy="34.9" r="7"/><path class="cls-13" d="M71.94,33.19h5.12V35a1,1,0,0,1-1,1H73.75a1,1,0,0,1-.93-.63Z"/><path class="cls-5" d="M77.06,33.19v-.7a1,1,0,0,1,1-1h.7"/><path class="cls-20" d="M73.64,37.17a.58.58,0,0,0-.57.57.57.57,0,0,0,.57.57.56.56,0,0,0,.57-.57.57.57,0,0,0-.57-.57Z"/><path class="cls-20" d="M76.49,37.17a.57.57,0,0,0-.57.57.56.56,0,0,0,.57.57.57.57,0,0,0,.57-.57.58.58,0,0,0-.57-.57Z"/><path class="cls-21" d="M31.84,75.53a1.39,1.39,0,0,0-2.61.69,1.27,1.27,0,0,0,0,.34,1.4,1.4,0,0,0,2.71,0,1.27,1.27,0,0,0,0-.34A1.37,1.37,0,0,0,31.84,75.53Z"/><path class="cls-21" d="M25.2,76.22a1.4,1.4,0,0,0-1.4-1.4,1.42,1.42,0,0,0-1.4,1.4,1.27,1.27,0,0,0,0,.34,1.4,1.4,0,0,0,2.72,0A1.27,1.27,0,0,0,25.2,76.22Z"/><path class="cls-8" d="M33.42,74a1.29,1.29,0,0,0-1-1.26l-.73-.14-.21-.6a2.77,2.77,0,0,0-2.61-1.85H25.94a2,2,0,0,0-2,1.58l-.19.87-2,.49A1.11,1.11,0,0,0,21,74.12v.4a1,1,0,0,0,1,1h.59a1.38,1.38,0,0,1,1.21-.71,1.4,1.4,0,0,1,1.4,1.4,1.27,1.27,0,0,1,0,.34h4.11a1.27,1.27,0,0,1,0-.34,1.39,1.39,0,0,1,2.61-.69h.58a1,1,0,0,0,1-1Z"/><line class="cls-5" x1="26.07" y1="72.42" x2="28.67" y2="72.42"/><path class="cls-21" d="M72.84,75.83a1.39,1.39,0,0,0-2.61.69,1.27,1.27,0,0,0,0,.34,1.4,1.4,0,0,0,2.71,0,1.27,1.27,0,0,0,0-.34A1.37,1.37,0,0,0,72.84,75.83Z"/><path class="cls-21" d="M66.2,76.52a1.4,1.4,0,0,0-1.4-1.4,1.42,1.42,0,0,0-1.4,1.4,1.27,1.27,0,0,0,0,.34,1.4,1.4,0,0,0,2.72,0A1.27,1.27,0,0,0,66.2,76.52Z"/><path class="cls-13" d="M74.42,74.24a1.28,1.28,0,0,0-1-1.25l-.73-.14-.21-.6a2.78,2.78,0,0,0-2.62-1.85H66.27a1.16,1.16,0,0,0-1.14.93l-.33,1.52-2,.49A1.11,1.11,0,0,0,62,74.42v.4a1,1,0,0,0,1,1h.59a1.38,1.38,0,0,1,1.21-.71,1.4,1.4,0,0,1,1.4,1.4,1.27,1.27,0,0,1,0,.34h4.11a1.27,1.27,0,0,1,0-.34,1.39,1.39,0,0,1,2.61-.69h.58a1,1,0,0,0,1-1Z"/><line class="cls-5" x1="67.07" y1="72.72" x2="69.67" y2="72.72"/></g></svg>