<svg id="Multicolor" xmlns="http://www.w3.org/2000/svg" viewBox="0 0 100 112"><defs><style>.cls-1{fill:#e8f4fa;}.cls-2{fill:#191816;opacity:0.15;}.cls-3{fill:#ffcebf;}.cls-3,.cls-5,.cls-6,.cls-7,.cls-9{stroke:#191816;stroke-linejoin:round;}.cls-4{fill:#ffdcd1;}.cls-5,.cls-6{fill:none;}.cls-5,.cls-9{stroke-linecap:round;}.cls-7{fill:#009fd9;}.cls-8{fill:#00b8f0;}.cls-9{fill:#fff;}</style></defs><title>02- hand-thumbs-up-like</title><g id="Background"><g id="New_Symbol_2-12" data-name="New Symbol 2"><circle class="cls-1" cx="50" cy="56" r="40"/></g></g><g id="Scene"><ellipse class="cls-2" cx="49.72" cy="78.28" rx="14" ry="1.5"/><path class="cls-3" d="M56.79,47.45c.5-5,1.16-15.77-3-15.77a3,3,0,0,0-3,3v1c0,7.38-3.2,15.1-9.4,15.1h-2V66.24h2.8c3.87,0,5.7,2.69,12.63,2.69H66.52a2.69,2.69,0,0,0,0-5.37h1.34a2.69,2.69,0,0,0,0-5.37H69.2a2.69,2.69,0,1,0,0-5.37h1.34a2.69,2.69,0,1,0,0-5.37H56.79"/><path class="cls-4" d="M70.54,47.45H54.77a2.69,2.69,0,0,0,2.69,2.69H73.23A2.69,2.69,0,0,0,70.54,47.45Z"/><line class="cls-5" x1="54.1" y1="47.45" x2="58.13" y2="47.45"/><path class="cls-4" d="M53.43,38.39v-1a3,3,0,0,1,3-3c-.51-1.62-1.34-2.69-2.66-2.69A3,3,0,0,0,51,33.53a2.88,2.88,0,0,0-.24,1.17v1a24.85,24.85,0,0,1-.6,5.47C49,46.47,46,50.81,41.35,50.81h-2v2.68H44C50.23,53.49,53.43,45.78,53.43,38.39Z"/><path class="cls-6" d="M56.79,47.45c.5-5,1.16-15.77-3-15.77a3,3,0,0,0-3,3v1c0,7.38-3.2,15.1-9.4,15.1h-2V66.24h2.8c3.87,0,5.7,2.69,12.63,2.69H66.52a2.69,2.69,0,0,0,0-5.37h1.34a2.69,2.69,0,0,0,0-5.37H69.2a2.69,2.69,0,1,0,0-5.37h1.34a2.69,2.69,0,1,0,0-5.37H56.79"/><line class="cls-5" x1="66.52" y1="63.56" x2="65.18" y2="63.56"/><line class="cls-5" x1="67.86" y1="58.19" x2="66.52" y2="58.19"/><line class="cls-5" x1="69.2" y1="52.82" x2="67.86" y2="52.82"/><rect class="cls-7" x="27.93" y="48.12" width="9.39" height="20.8" rx="1.34" ry="1.34"/><path class="cls-8" d="M37.33,49.47A1.35,1.35,0,0,0,36,48.12H29.28a1.35,1.35,0,0,0-1.35,1.35v2h9.4Z"/><rect class="cls-6" x="27.93" y="48.12" width="9.39" height="20.8" rx="1.34" ry="1.34"/><path class="cls-9" d="M38.67,49.47h2.68a0,0,0,0,1,0,0V67.58a0,0,0,0,1,0,0H38.67a1.34,1.34,0,0,1-1.34-1.34V50.81A1.34,1.34,0,0,1,38.67,49.47Z" transform="translate(78.68 117.05) rotate(-180)"/></g></svg>