<svg id="Multicolor" xmlns="http://www.w3.org/2000/svg" viewBox="0 0 178 178"><defs><style>.cls-1{fill:#e8f4fa;}.cls-13,.cls-2{fill:#191816;}.cls-2{opacity:0.15;}.cls-3,.cls-7{fill:#87898c;}.cls-18,.cls-4{fill:#bdbec0;}.cls-17,.cls-5{fill:#656769;}.cls-6{fill:none;}.cls-14,.cls-17,.cls-18,.cls-22,.cls-23,.cls-6,.cls-7,.cls-8{stroke:#191816;stroke-linecap:round;stroke-linejoin:round;}.cls-8{fill:#fff;}.cls-9{fill:#bf8256;}.cls-10{fill:#915e3a;}.cls-11{fill:#e0e0e0;}.cls-12{fill:#f0f0f0;}.cls-14{fill:#c0dceb;}.cls-15{fill:#00b8f0;}.cls-16{fill:#4acfff;}.cls-19{fill:#ff6242;}.cls-20{fill:#ff866e;}.cls-21{fill:#fff48c;}.cls-22{fill:#ffe3cf;}.cls-23{fill:#ffb0ca;}.cls-24{fill:#ffe500;}</style></defs><title>03- desktop-graphic-designer-pen-tablet-3</title><g id="Background"><g id="New_Symbol_61-16" data-name="New Symbol 61"><circle class="cls-1" cx="88.5" cy="88" r="81"/></g></g><g id="Scene"><rect class="cls-2" x="47.76" y="51.39" width="81.9" height="56.7" rx="6.3" ry="6.3"/><circle class="cls-2" cx="147.2" cy="104.94" r="11.03"/><path class="cls-2" d="M130.82,125.78l-2.46,8.62a7.17,7.17,0,0,0,13.79,3.93l2.45-8.62a7.16,7.16,0,0,0-13.78-3.93Z"/><rect class="cls-2" x="57.21" y="119.12" width="63" height="40.95" rx="3.15" ry="3.15"/><rect class="cls-3" x="58" y="115.18" width="61.43" height="40.95" rx="3.15" ry="3.15"/><path class="cls-4" d="M116.27,115.18H61.15A3.15,3.15,0,0,0,58,118.33v3.15a3.15,3.15,0,0,1,3.15-3.15h55.12a3.15,3.15,0,0,1,3.15,3.15v-3.15A3.15,3.15,0,0,0,116.27,115.18Z"/><circle class="cls-5" cx="64.3" cy="135.66" r="3.15"/><path class="cls-3" d="M64.3,134.87a3.12,3.12,0,0,1,2.91,2,3.15,3.15,0,1,0-5.83,0A3.15,3.15,0,0,1,64.3,134.87Z"/><line class="cls-6" x1="64.3" y1="127.78" x2="64.3" y2="119.91"/><line class="cls-6" x1="64.3" y1="151.41" x2="64.3" y2="143.53"/><rect class="cls-5" x="70.6" y="119.91" width="44.1" height="31.5"/><rect class="cls-3" x="70.6" y="119.91" width="44.1" height="3.15"/><rect class="cls-6" x="58" y="115.18" width="61.43" height="40.95" rx="3.15" ry="3.15"/><rect class="cls-6" x="70.6" y="119.91" width="44.1" height="31.5"/><circle class="cls-6" cx="64.3" cy="135.66" r="3.15"/><path class="cls-2" d="M105.14,148.34a2.36,2.36,0,1,0,3.34-3.34l-15-15-4.12-1.38a.47.47,0,0,0-.59.6l1.37,4.12Z"/><path class="cls-7" d="M106.14,145.68a2.37,2.37,0,0,0,3.35-3.34l-15-15-5-1.67,1.67,5Z"/><path class="cls-8" d="M155.55,111.91a2.36,2.36,0,0,0,3.34-3.34l-3.89-3.9L151.65,108Z"/><circle class="cls-8" cx="147.2" cy="100.22" r="10.24"/><circle class="cls-9" cx="147.2" cy="100.22" r="7.09"/><path class="cls-10" d="M147.2,96.28a7.09,7.09,0,0,1,6.9,5.51,7.33,7.33,0,0,0,.19-1.57,7.09,7.09,0,1,0-14.18,0,7.33,7.33,0,0,0,.19,1.57A7.09,7.09,0,0,1,147.2,96.28Z"/><circle class="cls-6" cx="147.2" cy="100.22" r="7.09"/><path class="cls-11" d="M130.84,123.73l-2.16,7.57a6.3,6.3,0,1,0,12.12,3.46l2.16-7.57a6.3,6.3,0,0,0-12.12-3.46Z"/><path class="cls-12" d="M138.63,119.4a6.3,6.3,0,0,0-7.79,4.33l-1.08,3.78A6.3,6.3,0,0,1,141.88,131l1.08-3.78A6.3,6.3,0,0,0,138.63,119.4Z"/><path class="cls-13" d="M137.12,124.12l.16,0a.57.57,0,0,1,.39.71.58.58,0,0,1-.55.41.44.44,0,0,1-.16,0,.59.59,0,0,1-.35-.27.61.61,0,0,1-.05-.44.59.59,0,0,1,.56-.42m0-1a1.59,1.59,0,0,0-1.52,1.15,1.57,1.57,0,0,0,1.09,1.94,1.24,1.24,0,0,0,.43.06,1.58,1.58,0,0,0,0-3.15Z"/><path class="cls-6" d="M130.84,123.73l-2.16,7.57a6.3,6.3,0,1,0,12.12,3.46l2.16-7.57a6.3,6.3,0,0,0-12.12-3.46Z"/><path class="cls-14" d="M131.65,16H45.77a5.71,5.71,0,0,0-5.1,3.15h0v1.57h96.08V19.11h0A5.71,5.71,0,0,0,131.65,16Z"/><path class="cls-15" d="M123.8,50.61H53.63a4.73,4.73,0,0,1-4.29-2.75L40.79,21.29a1.58,1.58,0,0,1,1.46-2.18h92.92a1.58,1.58,0,0,1,1.46,2.18l-8.54,26.57A4.75,4.75,0,0,1,123.8,50.61Z"/><path class="cls-16" d="M69.81,50.61l31.32-31.5H42.25a1.58,1.58,0,0,0-1.46,2.18l8.55,26.57a4.73,4.73,0,0,0,4.29,2.75Z"/><path class="cls-6" d="M123.8,50.61H53.63a4.73,4.73,0,0,1-4.29-2.75L40.79,21.29a1.58,1.58,0,0,1,1.46-2.18h92.92a1.58,1.58,0,0,1,1.46,2.18l-8.54,26.57A4.75,4.75,0,0,1,123.8,50.61Z"/><path class="cls-6" d="M123.8,50.61H53.63a4.73,4.73,0,0,1-4.29-2.75L40.79,21.29a1.58,1.58,0,0,1,1.46-2.18h92.92a1.58,1.58,0,0,1,1.46,2.18l-8.54,26.57A4.75,4.75,0,0,1,123.8,50.61Z"/><path class="cls-7" d="M53.27,49h70.88a4.72,4.72,0,0,1,4.72,4.72v44.1a4.72,4.72,0,0,1-4.72,4.72H53.27a4.72,4.72,0,0,1-4.72-4.72V53.76A4.73,4.73,0,0,1,53.27,49Z"/><rect class="cls-6" x="58" y="49.03" width="61.43" height="6.3"/><rect class="cls-17" x="58" y="49.03" width="61.43" height="3.15"/><path class="cls-18" d="M76.9,85.26h23.63a1.57,1.57,0,0,1,1.57,1.57v11a1.58,1.58,0,0,1-1.58,1.58H76.9a1.57,1.57,0,0,1-1.57-1.57v-11A1.57,1.57,0,0,1,76.9,85.26Z"/><rect class="cls-18" x="58" y="58.48" width="61.43" height="23.63" rx="1.57" ry="1.57"/><line class="cls-6" x1="62.72" y1="77.38" x2="67.45" y2="77.38"/><line class="cls-6" x1="62.72" y1="72.66" x2="67.45" y2="72.66"/><line class="cls-6" x1="62.72" y1="67.93" x2="67.45" y2="67.93"/><line class="cls-6" x1="70.6" y1="72.66" x2="75.32" y2="72.66"/><line class="cls-6" x1="70.6" y1="67.93" x2="75.32" y2="67.93"/><line class="cls-6" x1="78.47" y1="72.66" x2="83.2" y2="72.66"/><line class="cls-6" x1="78.47" y1="67.93" x2="83.2" y2="67.93"/><line class="cls-6" x1="86.35" y1="72.66" x2="91.07" y2="72.66"/><line class="cls-6" x1="86.35" y1="67.93" x2="91.07" y2="67.93"/><line class="cls-6" x1="94.22" y1="72.66" x2="98.95" y2="72.66"/><line class="cls-6" x1="94.22" y1="67.93" x2="98.95" y2="67.93"/><line class="cls-6" x1="102.1" y1="72.66" x2="106.82" y2="72.66"/><line class="cls-6" x1="102.1" y1="67.93" x2="106.82" y2="67.93"/><line class="cls-6" x1="109.97" y1="72.66" x2="114.7" y2="72.66"/><line class="cls-6" x1="109.97" y1="67.93" x2="114.7" y2="67.93"/><line class="cls-6" x1="70.6" y1="77.38" x2="75.32" y2="77.38"/><line class="cls-6" x1="78.47" y1="77.38" x2="98.95" y2="77.38"/><line class="cls-6" x1="102.1" y1="77.38" x2="106.82" y2="77.38"/><line class="cls-6" x1="109.97" y1="77.38" x2="114.7" y2="77.38"/><path class="cls-5" d="M119.42,63.21H58V60.06a1.57,1.57,0,0,1,1.57-1.58h58.28a1.57,1.57,0,0,1,1.57,1.58Z"/><path class="cls-6" d="M119.42,63.21H58V60.06a1.57,1.57,0,0,1,1.57-1.58h58.28a1.57,1.57,0,0,1,1.57,1.58Z"/><path class="cls-2" d="M47.37,131.05a1.58,1.58,0,0,0,1.13-1.92L39.24,93.18a1.57,1.57,0,0,0-1.92-1.13L9.67,99.22a1.59,1.59,0,0,0-1.13,1.92l9.26,36a1.58,1.58,0,0,0,1.92,1.13Z"/><path class="cls-2" d="M22,116.86l2.63,7.29,16.9,17.62a3.15,3.15,0,1,0,4.55-4.36L29.2,119.79Z"/><path class="cls-19" d="M15.5,93.25h26a1.58,1.58,0,0,1,1.58,1.58v34.65A1.58,1.58,0,0,1,41.49,131h-26a1.57,1.57,0,0,1-1.57-1.57V94.82a1.58,1.58,0,0,1,1.58-1.58Z" transform="translate(-27.06 10.65) rotate(-14.44)"/><path class="cls-20" d="M38.87,94l-28.21,7.27L10.07,99a1.51,1.51,0,0,1,.17-1.19,1.57,1.57,0,0,1,1-.73L36.37,90.6a1.57,1.57,0,0,1,1.91,1.13Z"/><path class="cls-6" d="M15.5,93.25h26a1.58,1.58,0,0,1,1.58,1.58v34.65A1.58,1.58,0,0,1,41.49,131h-26a1.57,1.57,0,0,1-1.57-1.57V94.82a1.58,1.58,0,0,1,1.58-1.58Z" transform="translate(-27.06 10.65) rotate(-14.44)"/><line class="cls-6" x1="14.25" y1="96.3" x2="23.67" y2="132.9"/><path class="cls-1" d="M22.13,97.73H33.94a1.58,1.58,0,0,1,1.58,1.58v3.15A1.58,1.58,0,0,1,33.94,104H22.13a1.57,1.57,0,0,1-1.57-1.57V99.3A1.58,1.58,0,0,1,22.13,97.73Z" transform="translate(-24.27 10.18) rotate(-14.44)"/><path class="cls-6" d="M22.13,97.73H33.94a1.58,1.58,0,0,1,1.58,1.58v3.15A1.58,1.58,0,0,1,33.94,104H22.13a1.57,1.57,0,0,1-1.57-1.57V99.3A1.58,1.58,0,0,1,22.13,97.73Z" transform="translate(-24.27 10.18) rotate(-14.44)"/><rect class="cls-21" x="34.23" y="116.36" width="4.72" height="22.05" transform="translate(-66.68 44.32) rotate(-35.16)"/><polygon class="cls-22" points="26.62 113.22 28.31 119.73 32.18 117.01 26.62 113.22"/><line class="cls-6" x1="26.62" y1="113.22" x2="25.71" y2="111.93"/><path class="cls-23" d="M45.66,140.26h0a2.36,2.36,0,0,1-3.29-.57L41,137.76,44.88,135,46.24,137A2.36,2.36,0,0,1,45.66,140.26Z"/><rect class="cls-24" x="34.45" y="117.04" width="2.36" height="22.05" transform="translate(-67.25 43.88) rotate(-35.16)"/><rect class="cls-6" x="34.23" y="116.36" width="4.72" height="22.05" transform="translate(-66.68 44.32) rotate(-35.16)"/></g></svg>