<svg id="Multicolor" xmlns="http://www.w3.org/2000/svg" viewBox="0 0 100 112"><defs><style>.cls-1{fill:#e8f4fa;}.cls-2{fill:#c8ffa1;}.cls-2,.cls-5,.cls-6,.cls-7{stroke:#191816;stroke-linejoin:round;}.cls-3{fill:#87898c;}.cls-4{fill:#bdbec0;}.cls-5{fill:none;}.cls-5,.cls-6,.cls-7{stroke-linecap:round;}.cls-6{fill:#ff8a14;}.cls-7{fill:#6dd627;}</style></defs><title>03- cloud-server-network</title><g id="Background"><g id="New_Symbol_1-34" data-name="New Symbol 1"><circle class="cls-1" cx="50" cy="56" r="40"/></g></g><g id="Scene"><path class="cls-2" d="M70.5,72.5h-41a2,2,0,0,1-1.8-2.88l20.5-36a2,2,0,0,1,3.6,0l20.5,36a2,2,0,0,1-1.8,2.88Zm-37.8-4H67.3L50,39.07Z"/><rect class="cls-3" x="15.5" y="60.5" width="27" height="24" rx="2" ry="2"/><path class="cls-4" d="M42.5,63h-27v-.5a2,2,0,0,1,2-2h23a2,2,0,0,1,2,2Z"/><path class="cls-5" d="M40.5,84.5h-23a2,2,0,0,1-2-2v-6h27v6A2,2,0,0,1,40.5,84.5Z"/><line class="cls-5" x1="18.5" y1="80.5" x2="24.5" y2="80.5"/><rect class="cls-5" x="15.5" y="68.5" width="27" height="8"/><line class="cls-5" x1="18.5" y1="72.5" x2="24.5" y2="72.5"/><path class="cls-5" d="M42.5,68.5h-27v-6a2,2,0,0,1,2-2h23a2,2,0,0,1,2,2Z"/><line class="cls-5" x1="18.5" y1="64.5" x2="24.5" y2="64.5"/><circle class="cls-6" cx="39" cy="64.5" r="1.5"/><circle class="cls-7" cx="34" cy="64.5" r="1.5"/><circle class="cls-6" cx="39" cy="72.5" r="1.5"/><circle class="cls-7" cx="34" cy="72.5" r="1.5"/><circle class="cls-6" cx="39" cy="80.5" r="1.5"/><circle class="cls-7" cx="34" cy="80.5" r="1.5"/><rect class="cls-3" x="57.5" y="60.5" width="27" height="24" rx="2" ry="2"/><path class="cls-4" d="M84.5,63h-27v-.5a2,2,0,0,1,2-2h23a2,2,0,0,1,2,2Z"/><path class="cls-5" d="M82.5,84.5h-23a2,2,0,0,1-2-2v-6h27v6A2,2,0,0,1,82.5,84.5Z"/><line class="cls-5" x1="60.5" y1="80.5" x2="66.5" y2="80.5"/><rect class="cls-5" x="57.5" y="68.5" width="27" height="8"/><line class="cls-5" x1="60.5" y1="72.5" x2="66.5" y2="72.5"/><path class="cls-5" d="M84.5,68.5h-27v-6a2,2,0,0,1,2-2h23a2,2,0,0,1,2,2Z"/><line class="cls-5" x1="60.5" y1="64.5" x2="66.5" y2="64.5"/><circle class="cls-6" cx="81" cy="64.5" r="1.5"/><circle class="cls-7" cx="76" cy="64.5" r="1.5"/><circle class="cls-6" cx="81" cy="72.5" r="1.5"/><circle class="cls-7" cx="76" cy="72.5" r="1.5"/><circle class="cls-6" cx="81" cy="80.5" r="1.5"/><circle class="cls-7" cx="76" cy="80.5" r="1.5"/><rect class="cls-3" x="36.5" y="22.5" width="27" height="24" rx="2" ry="2"/><path class="cls-4" d="M63.5,25h-27v-.5a2,2,0,0,1,2-2h23a2,2,0,0,1,2,2Z"/><path class="cls-5" d="M61.5,46.5h-23a2,2,0,0,1-2-2v-6h27v6A2,2,0,0,1,61.5,46.5Z"/><line class="cls-5" x1="39.5" y1="42.5" x2="45.5" y2="42.5"/><rect class="cls-5" x="36.5" y="30.5" width="27" height="8"/><line class="cls-5" x1="39.5" y1="34.5" x2="45.5" y2="34.5"/><path class="cls-5" d="M63.5,30.5h-27v-6a2,2,0,0,1,2-2h23a2,2,0,0,1,2,2Z"/><line class="cls-5" x1="39.5" y1="26.5" x2="45.5" y2="26.5"/><circle class="cls-6" cx="60" cy="26.5" r="1.5"/><circle class="cls-7" cx="55" cy="26.5" r="1.5"/><circle class="cls-6" cx="60" cy="34.5" r="1.5"/><circle class="cls-7" cx="55" cy="34.5" r="1.5"/><circle class="cls-6" cx="60" cy="42.5" r="1.5"/><circle class="cls-7" cx="55" cy="42.5" r="1.5"/></g></svg>