<svg id="Multicolor" xmlns="http://www.w3.org/2000/svg" viewBox="0 0 100 112"><defs><style>.cls-1{fill:#e8f4fa;}.cls-2{fill:#fff;}.cls-3,.cls-8{fill:none;stroke-linecap:round;stroke-linejoin:round;}.cls-3{stroke:#191816;}.cls-4{fill:#ffe500;}.cls-5{fill:#fff48c;}.cls-6{fill:#f0f0f0;}.cls-7{fill:#ff6242;}.cls-8{stroke:#ff6242;}.cls-9{fill:#191816;opacity:0.15;}</style></defs><title>05- high-temperature</title><g id="Background"><g id="New_Symbol_25-3" data-name="New Symbol 25"><path class="cls-1" d="M89.92,56.17a40,40,0,1,0-76.44,16.5H86.35A39.77,39.77,0,0,0,89.92,56.17Z"/><path class="cls-2" d="M13.48,72.67a40,40,0,0,0,72.87,0Z"/><line class="cls-3" x1="10.92" y1="72.67" x2="88.92" y2="72.67"/><line class="cls-3" x1="6.42" y1="72.67" x2="8.92" y2="72.67"/><line class="cls-3" x1="90.92" y1="72.67" x2="93.42" y2="72.67"/></g></g><g id="Scene"><circle class="cls-4" cx="34.3" cy="35.65" r="8.82"/><path class="cls-5" d="M34.3,30A8.82,8.82,0,0,1,43,37.23a9.1,9.1,0,0,0,.15-1.58,8.82,8.82,0,1,0-17.64,0,9.1,9.1,0,0,0,.15,1.58A8.82,8.82,0,0,1,34.3,30Z"/><circle class="cls-3" cx="34.3" cy="35.65" r="8.82"/><line class="cls-3" x1="34.3" y1="24.31" x2="34.3" y2="22.42"/><line class="cls-3" x1="26.28" y1="27.63" x2="24.94" y2="26.3"/><line class="cls-3" x1="22.96" y1="35.65" x2="21.07" y2="35.65"/><line class="cls-3" x1="26.28" y1="43.67" x2="24.94" y2="45.01"/><line class="cls-3" x1="42.95" y1="27.63" x2="44.28" y2="26.3"/><line class="cls-3" x1="46.27" y1="35.65" x2="48.16" y2="35.65"/><line class="cls-3" x1="42.95" y1="43.67" x2="44.28" y2="45.01"/><line class="cls-3" x1="34.3" y1="46.99" x2="34.3" y2="48.88"/><path class="cls-6" d="M67.37,65.94V40.06a5,5,0,0,0-10.08,0V65.94a7.56,7.56,0,1,0,10.08,0Z"/><path class="cls-2" d="M57.29,40.06V65.94a7.55,7.55,0,0,0,5,13.18V35A5,5,0,0,0,57.29,40.06Z"/><path class="cls-7" d="M63.59,69.39V40.69a1.26,1.26,0,0,0-2.52,0v28.7a2.5,2.5,0,0,0-1.26,2.17,2.52,2.52,0,0,0,5,0A2.48,2.48,0,0,0,63.59,69.39Z"/><path class="cls-3" d="M67.37,65.94V40.06a5,5,0,0,0-10.08,0V65.94a7.56,7.56,0,1,0,10.08,0Z"/><line class="cls-8" x1="69.89" y1="60.22" x2="75.56" y2="60.22"/><line class="cls-8" x1="69.89" y1="56.44" x2="73.04" y2="56.44"/><line class="cls-8" x1="69.89" y1="52.66" x2="75.56" y2="52.66"/><line class="cls-8" x1="69.89" y1="48.88" x2="73.04" y2="48.88"/><line class="cls-8" x1="69.89" y1="45.1" x2="75.56" y2="45.1"/><line class="cls-8" x1="69.89" y1="41.32" x2="73.04" y2="41.32"/><path class="cls-6" d="M63.59,49.47V40.69a1.26,1.26,0,0,0-2.52,0v8.78Z"/><path class="cls-3" d="M63.59,69.39V40.69a1.26,1.26,0,0,0-2.52,0v28.7a2.5,2.5,0,0,0-1.26,2.17,2.52,2.52,0,0,0,5,0A2.48,2.48,0,0,0,63.59,69.39Z"/><ellipse class="cls-9" cx="62.96" cy="83.8" rx="10.5" ry="1.58"/></g></svg>