<svg id="Multicolor" xmlns="http://www.w3.org/2000/svg" viewBox="0 0 100 112"><defs><style>.cls-1{fill:#fff;}.cls-2{fill:#e8f4fa;}.cls-3{fill:none;}.cls-10,.cls-14,.cls-19,.cls-3,.cls-7,.cls-8,.cls-9{stroke:#191816;stroke-linecap:round;stroke-linejoin:round;}.cls-4{fill:#191816;opacity:0.15;}.cls-5,.cls-7{fill:#ff866e;}.cls-6{fill:#ffa694;}.cls-8{fill:#dea47a;}.cls-21,.cls-9{fill:#fc9;}.cls-10,.cls-16{fill:#fff48c;}.cls-11{fill:#daedf7;}.cls-12,.cls-14{fill:#adc4d9;}.cls-13{fill:#c0dceb;}.cls-15{fill:#ffe500;}.cls-17{fill:#525252;}.cls-18{fill:#656769;}.cls-19{fill:#87898c;}.cls-20{fill:#ffaa54;}</style></defs><title>05- warehouse-shelf-lift-truck</title><g id="Background"><g id="New_Symbol_30" data-name="New Symbol 30"><path class="cls-1" d="M50,96A39.94,39.94,0,0,0,84.61,76H15.39A39.94,39.94,0,0,0,50,96Z"/><path class="cls-1" d="M13.56,72.5c.55,1.2,1.17,2.36,1.83,3.5H84.61c.66-1.14,1.28-2.3,1.83-3.5Z"/><path class="cls-2" d="M90,56A40,40,0,1,0,13.56,72.5H86.44A39.85,39.85,0,0,0,90,56Z"/><line class="cls-3" x1="11" y1="72.5" x2="89" y2="72.5"/><line class="cls-3" x1="6.5" y1="72.5" x2="9" y2="72.5"/><line class="cls-3" x1="91" y1="72.5" x2="93.5" y2="72.5"/></g></g><g id="Scene"><path class="cls-4" d="M84.62,82.14c0,1.11-6.65,2-14.85,2s-14.84-.89-14.84-2,6.64-2,14.84-2S84.62,81,84.62,82.14Z"/><path class="cls-5" d="M22.15,31.38h0a1.32,1.32,0,0,0-1.32,1.32V74.28h2.64V32.7A1.32,1.32,0,0,0,22.15,31.38Z"/><path class="cls-6" d="M22.15,31.38a1.32,1.32,0,0,0-1.32,1.32v2a1.32,1.32,0,0,1,2.64,0v-2A1.32,1.32,0,0,0,22.15,31.38Z"/><path class="cls-3" d="M22.15,31.38h0a1.32,1.32,0,0,0-1.32,1.32V74.28h2.64V32.7A1.32,1.32,0,0,0,22.15,31.38Z"/><rect class="cls-7" x="37.99" y="37.32" width="2.64" height="36.96"/><rect class="cls-8" x="23.47" y="69" width="14.52" height="2.64"/><rect class="cls-8" x="23.47" y="53.16" width="14.52" height="2.64"/><path class="cls-9" d="M27.11,28.08h8.24a0,0,0,0,1,0,0v9.24a0,0,0,0,1,0,0H26.11a0,0,0,0,1,0,0V29.08A1,1,0,0,1,27.11,28.08Z"/><polyline class="cls-3" points="26.39 28.46 29.41 32.7 26.11 37.32"/><polygon class="cls-9" points="35.35 37.32 32.05 32.7 35.35 28.08 35.35 37.32"/><line class="cls-3" x1="29.41" y1="32.7" x2="32.05" y2="32.7"/><path class="cls-10" d="M44.59,29.4h6.92a1,1,0,0,1,1,1v6.92a0,0,0,0,1,0,0H44.59a0,0,0,0,1,0,0V29.4A0,0,0,0,1,44.59,29.4Z"/><polygon class="cls-10" points="44.59 29.4 47.42 33.36 44.59 37.32 44.59 29.4"/><polyline class="cls-3" points="52.51 37.32 49.68 33.36 52.24 29.78"/><line class="cls-3" x1="47.42" y1="33.36" x2="49.68" y2="33.36"/><path class="cls-10" d="M45.59,45.24h5.92a1,1,0,0,1,1,1v6.92a0,0,0,0,1,0,0H44.59a0,0,0,0,1,0,0V46.24A1,1,0,0,1,45.59,45.24Z"/><polyline class="cls-3" points="44.86 45.62 47.42 49.2 44.59 53.16"/><polyline class="cls-3" points="52.51 53.16 49.68 49.2 52.24 45.62"/><line class="cls-3" x1="47.42" y1="49.2" x2="49.68" y2="49.2"/><rect class="cls-8" x="23.47" y="37.32" width="14.52" height="2.64"/><path class="cls-7" d="M56.47,31.38h0a1.32,1.32,0,0,0-1.32,1.32V74.28h2.64V32.7A1.32,1.32,0,0,0,56.47,31.38Z"/><rect class="cls-8" x="40.63" y="69" width="14.52" height="2.64"/><rect class="cls-8" x="40.63" y="53.16" width="14.52" height="2.64"/><rect class="cls-9" x="35.35" y="31.38" width="9.24" height="5.94"/><polygon class="cls-9" points="35.35 31.38 38.65 34.35 35.35 37.32 35.35 31.38"/><polygon class="cls-9" points="44.59 37.32 41.29 34.35 44.59 31.38 44.59 37.32"/><line class="cls-3" x1="38.65" y1="34.35" x2="41.29" y2="34.35"/><path class="cls-9" d="M36.35,25.44h7.24a1,1,0,0,1,1,1v4.94a0,0,0,0,1,0,0H35.35a0,0,0,0,1,0,0V26.44A1,1,0,0,1,36.35,25.44Z"/><polyline class="cls-3" points="35.69 25.75 38.65 28.41 35.35 31.38"/><polyline class="cls-3" points="44.59 31.38 41.29 28.41 44.25 25.75"/><line class="cls-3" x1="38.65" y1="28.41" x2="41.29" y2="28.41"/><path class="cls-10" d="M27.43,66.36h6.92a1,1,0,0,1,1,1v6.92a0,0,0,0,1,0,0H27.43a0,0,0,0,1,0,0V66.36A0,0,0,0,1,27.43,66.36Z"/><polygon class="cls-10" points="27.43 66.36 30.26 70.32 27.43 74.28 27.43 66.36"/><polyline class="cls-3" points="35.35 74.28 32.52 70.32 35.08 66.74"/><line class="cls-3" x1="30.26" y1="70.32" x2="32.52" y2="70.32"/><rect class="cls-9" x="18.19" y="68.34" width="9.24" height="5.94"/><polygon class="cls-9" points="18.19 68.34 21.49 71.31 18.19 74.28 18.19 68.34"/><polygon class="cls-9" points="27.43 74.28 24.13 71.31 27.43 68.34 27.43 74.28"/><line class="cls-3" x1="21.49" y1="71.31" x2="24.13" y2="71.31"/><path class="cls-9" d="M19.19,62.4h7.24a1,1,0,0,1,1,1v4.94a0,0,0,0,1,0,0H18.19a0,0,0,0,1,0,0V63.4A1,1,0,0,1,19.19,62.4Z"/><polyline class="cls-3" points="18.53 62.71 21.49 65.37 18.19 68.34"/><polyline class="cls-3" points="27.43 68.34 24.13 65.37 27.09 62.71"/><line class="cls-3" x1="21.49" y1="65.37" x2="24.13" y2="65.37"/><path class="cls-9" d="M27.11,47.22h7.24a1,1,0,0,1,1,1v4.94a0,0,0,0,1,0,0H26.11a0,0,0,0,1,0,0V48.22A1,1,0,0,1,27.11,47.22Z"/><polyline class="cls-3" points="26.45 47.53 29.41 50.19 26.11 53.16"/><polyline class="cls-3" points="35.35 53.16 32.05 50.19 35.01 47.53"/><line class="cls-3" x1="29.41" y1="50.19" x2="32.05" y2="50.19"/><rect class="cls-8" x="40.63" y="37.32" width="14.52" height="2.64"/><path class="cls-11" d="M60.41,59.34h2a1,1,0,0,1,1,1V78.1a0,0,0,0,1,0,0h-3a0,0,0,0,1,0,0V59.34A0,0,0,0,1,60.41,59.34Z"/><path class="cls-2" d="M62.31,59.34h-1.9v1.88h1.9a1.1,1.1,0,0,1,1.1,1.1V60.44A1.1,1.1,0,0,0,62.31,59.34Z"/><path class="cls-3" d="M60.41,59.34h2a1,1,0,0,1,1,1V78.1a0,0,0,0,1,0,0h-3a0,0,0,0,1,0,0V59.34A0,0,0,0,1,60.41,59.34Z"/><path class="cls-12" d="M58.41,57.84h1a1,1,0,0,1,1,1V77.35a0,0,0,0,1,0,0h-3a0,0,0,0,1,0,0V58.84a1,1,0,0,1,1-1Z"/><path class="cls-13" d="M59.31,57.84h-.8a1.1,1.1,0,0,0-1.1,1.1V61.4a1.1,1.1,0,0,1,1.1-1.1h.8a1.1,1.1,0,0,1,1.1,1.1V58.94A1.1,1.1,0,0,0,59.31,57.84Z"/><path class="cls-3" d="M58.41,57.84h1a1,1,0,0,1,1,1V77.35a0,0,0,0,1,0,0h-3a0,0,0,0,1,0,0V58.84a1,1,0,0,1,1-1Z"/><path class="cls-14" d="M60.41,75.1h6a0,0,0,0,1,0,0v4.5a0,0,0,0,1,0,0h-5a1,1,0,0,1-1-1V75.1A0,0,0,0,1,60.41,75.1Z"/><path class="cls-9" d="M47.9,66.85h9.51a0,0,0,0,1,0,0V77.35a0,0,0,0,1,0,0H46.9a0,0,0,0,1,0,0V67.85A1,1,0,0,1,47.9,66.85Z"/><polyline class="cls-3" points="47.17 67.23 50.65 72.1 46.9 77.35"/><polygon class="cls-9" points="57.41 77.35 53.65 72.1 57.41 66.85 57.41 77.35"/><line class="cls-3" x1="50.65" y1="72.1" x2="53.65" y2="72.1"/><path class="cls-15" d="M81.34,78.85H67.16L65.24,75a1.49,1.49,0,0,1,1.33-2.16H78.42V69.1h2.15a2.35,2.35,0,0,1,2.36,2.36v5.82A1.57,1.57,0,0,1,81.34,78.85Z"/><path class="cls-16" d="M82.92,71.46a2.35,2.35,0,0,0-2.36-2.36H78.41v1.5h2.14A2.35,2.35,0,0,1,82.92,73Z"/><path class="cls-16" d="M65.28,75.1a1.47,1.47,0,0,1,1.29-.75H76.92a1.5,1.5,0,0,0,1.5-1.5H66.57A1.49,1.49,0,0,0,65.24,75Z"/><path class="cls-3" d="M81.34,78.85H67.16L65.24,75a1.49,1.49,0,0,1,1.33-2.16H78.42V69.1h2.15a2.35,2.35,0,0,1,2.36,2.36v5.82A1.57,1.57,0,0,1,81.34,78.85Z"/><path class="cls-3" d="M76.18,58.59h-2a5.23,5.23,0,0,0-5.06,3.91L66.41,72.85h12v-12A2.24,2.24,0,0,0,76.18,58.59Z"/><path class="cls-17" d="M68.66,79.23A2.63,2.63,0,1,1,66,76.6,2.62,2.62,0,0,1,68.66,79.23Z"/><path class="cls-18" d="M66,78.37a2.63,2.63,0,0,1,2.46,1.74,2.55,2.55,0,0,0,.16-.88,2.63,2.63,0,1,0-5.25,0,2.55,2.55,0,0,0,.16.88A2.64,2.64,0,0,1,66,78.37Z"/><path class="cls-3" d="M68.66,79.23A2.63,2.63,0,1,1,66,76.6,2.62,2.62,0,0,1,68.66,79.23Z"/><path class="cls-17" d="M80.67,79.23A2.63,2.63,0,1,1,78,76.6,2.63,2.63,0,0,1,80.67,79.23Z"/><path class="cls-18" d="M78,78.37a2.61,2.61,0,0,1,2.46,1.74,2.55,2.55,0,0,0,.17-.88,2.63,2.63,0,1,0-5.25,0,2.55,2.55,0,0,0,.16.88A2.61,2.61,0,0,1,78,78.37Z"/><path class="cls-3" d="M80.67,79.23A2.63,2.63,0,1,1,78,76.6,2.63,2.63,0,0,1,80.67,79.23Z"/><line class="cls-3" x1="57.41" y1="77.35" x2="44.65" y2="77.35"/><path class="cls-19" d="M78.42,65.35h0a2.65,2.65,0,0,0-2.62,2.22l-.38,2.28H73.06a1.79,1.79,0,0,0-1.73,1.35h0a1.33,1.33,0,0,0,1.29,1.65h5.8Z"/><line class="cls-3" x1="67.91" y1="69.1" x2="70.54" y2="67.6"/><line class="cls-3" x1="70.16" y1="66.85" x2="70.91" y2="68.35"/><polygon class="cls-3" points="66.41 72.85 69.41 72.85 67.6 68.35 66.41 72.85"/><path class="cls-20" d="M74.71,55.59h.93a1,1,0,0,1,1,1v2a0,0,0,0,1,0,0h-3a0,0,0,0,1,0,0v-2A1,1,0,0,1,74.71,55.59Z"/><path class="cls-21" d="M75.53,55.59h-.72a1.14,1.14,0,0,0-1.14,1.14v1.51a1.14,1.14,0,0,1,1.14-1.15h.72a1.14,1.14,0,0,1,1.14,1.15V56.73A1.14,1.14,0,0,0,75.53,55.59Z"/><path class="cls-3" d="M74.71,55.59h.93a1,1,0,0,1,1,1v2a0,0,0,0,1,0,0h-3a0,0,0,0,1,0,0v-2A1,1,0,0,1,74.71,55.59Z"/></g></svg>