<svg id="Multicolor" xmlns="http://www.w3.org/2000/svg" viewBox="0 0 100 112"><defs><style>.cls-1{fill:#e8f4fa;}.cls-2{fill:#fff;}.cls-10,.cls-3{fill:none;}.cls-12,.cls-3{stroke:#191816;}.cls-10,.cls-12,.cls-3{stroke-linecap:round;stroke-linejoin:round;}.cls-4{fill:#f7e5c6;}.cls-5{fill:#debb7e;}.cls-6{fill:#fff5e3;}.cls-7{fill:#191816;opacity:0.15;}.cls-8{fill:#6dd627;}.cls-9{fill:#9ceb60;}.cls-10{stroke:#f0f0f0;}.cls-11,.cls-12{fill:#f0f0f0;}</style></defs><title>05- sneakers</title><g id="Background"><g id="New_Symbol_28-2" data-name="New Symbol 28"><path class="cls-1" d="M90.5,56A40,40,0,1,0,14.06,72.5H86.94A39.85,39.85,0,0,0,90.5,56Z"/><path class="cls-2" d="M14.06,72.5a40,40,0,0,0,72.88,0Z"/><line class="cls-3" x1="11" y1="72.5" x2="89" y2="72.5"/><line class="cls-3" x1="6.5" y1="72.5" x2="9" y2="72.5"/><line class="cls-3" x1="91" y1="72.5" x2="93.5" y2="72.5"/></g></g><g id="Scene"><rect class="cls-4" x="46.6" y="58.79" width="28.98" height="13.8"/><rect class="cls-4" x="45.22" y="54.65" width="31.74" height="4.14" rx="1.38" ry="1.38"/><rect class="cls-5" x="46.6" y="58.79" width="28.98" height="2.07"/><rect class="cls-3" x="46.6" y="58.79" width="28.98" height="13.8"/><path class="cls-6" d="M77,56a1.38,1.38,0,0,0-1.38-1.38h-29A1.38,1.38,0,0,0,45.22,56v.69H77Z"/><rect class="cls-3" x="45.22" y="54.65" width="31.74" height="4.14" rx="1.38" ry="1.38"/><path class="cls-7" d="M85.24,76.75c0,1-12,1.73-26.91,1.73s-26.91-.77-26.91-1.73S43.47,75,58.33,75,85.24,75.8,85.24,76.75Z"/><path class="cls-8" d="M16.72,70.09a3,3,0,0,1,0-3.39L32.67,44.39a1.35,1.35,0,0,1,1.7-.4c1.27.61,3.81,1.08,7.64-1.58,4.14-2.88,4.32-5.63,4.1-6.94a1.39,1.39,0,0,1,.61-1.37l.29-.21a2.76,2.76,0,0,1,3.84.69l5.52,7.93L16.72,70.09Z"/><path class="cls-9" d="M17.55,69.51,33.66,47a1.4,1.4,0,0,1,1.77-.42c1.33.63,4,1.13,8-1.65,4.32-3,4.51-5.88,4.28-7.25a1.47,1.47,0,0,1,.63-1.44l.31-.21a2.89,2.89,0,0,1,3.12-.1l-.91-1.3A2.76,2.76,0,0,0,47,33.89l-.29.21a1.39,1.39,0,0,0-.61,1.37c.22,1.31,0,4.06-4.1,6.94-3.83,2.66-6.37,2.19-7.64,1.58a1.35,1.35,0,0,0-1.7.4L16.74,66.7a3,3,0,0,0,0,3.39Z"/><line class="cls-10" x1="32.95" y1="48.71" x2="29.97" y2="48.18"/><line class="cls-10" x1="30.34" y1="52.21" x2="27.46" y2="51.69"/><path class="cls-11" d="M51.84,45.66A5.52,5.52,0,0,1,53.22,38l3.15,4.53Z"/><path class="cls-11" d="M16.72,70.09a3,3,0,0,1,0-3.39l7.31-10.24.84,1.22a1.38,1.38,0,0,0,1.92.34l4.54-3.15a4.14,4.14,0,0,1,5.76,1Z"/><path class="cls-12" d="M16.72,70.09,56.37,42.51,58.08,45a1.15,1.15,0,0,1-.29,1.6L20,72.83a1.15,1.15,0,0,1-1.6-.29Z"/><path class="cls-3" d="M16.72,70.09a3,3,0,0,1,0-3.39L32.67,44.39a1.35,1.35,0,0,1,1.7-.4c1.27.61,3.81,1.08,7.64-1.58,4.14-2.88,4.32-5.63,4.1-6.94a1.39,1.39,0,0,1,.61-1.37l.29-.21a2.76,2.76,0,0,1,3.84.69l5.52,7.93L16.72,70.09Z"/><path class="cls-3" d="M51.84,45.66A5.52,5.52,0,0,1,53.22,38l3.15,4.53Z"/><path class="cls-3" d="M16.72,70.09a3,3,0,0,1,0-3.39l7.31-10.24.84,1.22a1.38,1.38,0,0,0,1.92.34l4.54-3.15a4.14,4.14,0,0,1,5.76,1Z"/><path class="cls-8" d="M80.53,68.11,54.71,58.89a1.34,1.34,0,0,0-1.62.63c-.7,1.23-2.52,3.07-7.18,3.07-5,0-6.76-2.15-7.33-3.35a1.41,1.41,0,0,0-1.28-.79h-.36a2.77,2.77,0,0,0-2.76,2.76v9.66h48.3A2.93,2.93,0,0,0,80.53,68.11Z"/><path class="cls-9" d="M36.94,61.21h.36a1.41,1.41,0,0,1,1.28.79c.57,1.2,2.29,3.35,7.33,3.35,4.66,0,6.48-1.84,7.18-3.07a1.34,1.34,0,0,1,1.62-.63l25.82,9.22h2a2.93,2.93,0,0,0-2-2.76L54.71,58.89a1.34,1.34,0,0,0-1.62.63c-.7,1.23-2.52,3.07-7.18,3.07-5,0-6.76-2.15-7.33-3.35a1.41,1.41,0,0,0-1.28-.79h-.36a2.77,2.77,0,0,0-2.76,2.76V64A2.77,2.77,0,0,1,36.94,61.21Z"/><line class="cls-10" x1="56.95" y1="62.59" x2="59.09" y2="60.45"/><line class="cls-10" x1="61.09" y1="63.97" x2="63.16" y2="61.9"/><path class="cls-11" d="M39.7,70.87a5.52,5.52,0,0,0-5.52-5.52v5.52Z"/><path class="cls-11" d="M80.53,68.11,68.68,63.88v1.47a1.38,1.38,0,0,1-1.38,1.38H61.78a4.14,4.14,0,0,0-4.14,4.14H82.48A2.93,2.93,0,0,0,80.53,68.11Z"/><path class="cls-12" d="M34.18,70.87h48.3a0,0,0,0,1,0,0V74a1,1,0,0,1-1,1H35.18a1,1,0,0,1-1-1V70.87a0,0,0,0,1,0,0Z"/><path class="cls-3" d="M80.53,68.11,54.71,58.89a1.34,1.34,0,0,0-1.62.63c-.7,1.23-2.52,3.07-7.18,3.07-5,0-6.76-2.15-7.33-3.35a1.41,1.41,0,0,0-1.28-.79h-.36a2.77,2.77,0,0,0-2.76,2.76v9.66h48.3A2.93,2.93,0,0,0,80.53,68.11Z"/><path class="cls-3" d="M39.7,70.87a5.52,5.52,0,0,0-5.52-5.52v5.52Z"/><path class="cls-3" d="M80.53,68.11,68.68,63.88v1.47a1.38,1.38,0,0,1-1.38,1.38H61.78a4.14,4.14,0,0,0-4.14,4.14H82.48A2.93,2.93,0,0,0,80.53,68.11Z"/></g></svg>