<svg id="Multicolor" xmlns="http://www.w3.org/2000/svg" viewBox="0 0 100 112"><defs><style>.cls-1{fill:#e8f4fa;}.cls-2{fill:#ff6242;}.cls-3{fill:#ff866e;}.cls-4{fill:#e04122;}.cls-16,.cls-5{fill:#fff;}.cls-6{fill:#daedf7;}.cls-10,.cls-11,.cls-12,.cls-7,.cls-9{fill:none;stroke-linecap:round;}.cls-16,.cls-7{stroke:#191816;}.cls-10,.cls-11,.cls-12,.cls-16,.cls-7,.cls-9{stroke-linejoin:round;}.cls-15,.cls-8{fill:#191816;}.cls-8{opacity:0.15;}.cls-9{stroke:#ffb700;}.cls-10{stroke:#ff4064;}.cls-11{stroke:#48cf3e;}.cls-12{stroke:#00aed9;}.cls-13{fill:#00b8f0;}.cls-14{fill:#4acfff;}</style></defs><title>05- sent-gift</title><g id="New_Symbol_1-10" data-name="New Symbol 1"><circle class="cls-1" cx="51" cy="52.96" r="40" transform="translate(-17.82 78.86) rotate(-66.7)"/></g><path class="cls-2" d="M55.35,37l19.13-5.79a1.1,1.1,0,0,1,1.37.73l.65,2.15a1.11,1.11,0,0,1-.74,1.37L56.63,41.29a1.11,1.11,0,0,1-1.37-.74l-.65-2.14A1.1,1.1,0,0,1,55.35,37Z"/><path class="cls-3" d="M54.61,38.42A1.11,1.11,0,0,1,55.35,37l19.12-5.79a1.11,1.11,0,0,1,.64,2.13L56,39.16A1.11,1.11,0,0,1,54.61,38.42Z"/><path class="cls-2" d="M58.3,38.14H77.53a0,0,0,0,1,0,0V49a1,1,0,0,1-1,1H59.3a1,1,0,0,1-1-1V38.14A0,0,0,0,1,58.3,38.14Z" transform="translate(-9.85 21.56) rotate(-16.84)"/><rect class="cls-4" x="56.9" y="38.34" width="19.23" height="2.22" transform="translate(-8.58 20.96) rotate(-16.84)"/><rect class="cls-5" x="65.69" y="38.14" width="4.44" height="11.83" transform="translate(-9.85 21.55) rotate(-16.83)"/><rect class="cls-6" x="64.3" y="38.34" width="4.44" height="2.22" transform="translate(-8.58 20.97) rotate(-16.84)"/><path class="cls-7" d="M60.51,27.92c1.84.89,4.4,6.22,4.4,6.22s-5.76,1.34-7.6.45a3.7,3.7,0,0,1,3.2-6.67Z"/><path class="cls-7" d="M65.12,26.53c-1,1.75-.21,7.61-.21,7.61s5.53-2.08,6.58-3.84a3.7,3.7,0,0,0-6.37-3.77Z"/><path class="cls-7" d="M58.3,38.14H77.53a0,0,0,0,1,0,0V49a1,1,0,0,1-1,1H59.3a1,1,0,0,1-1-1V38.14A0,0,0,0,1,58.3,38.14Z" transform="translate(-9.85 21.56) rotate(-16.84)"/><rect class="cls-7" x="65.69" y="38.14" width="4.44" height="11.83" transform="translate(-9.85 21.55) rotate(-16.83)"/><path class="cls-7" d="M55.35,37l19.13-5.79a1.1,1.1,0,0,1,1.37.73l.65,2.15a1.11,1.11,0,0,1-.74,1.37L56.63,41.29a1.11,1.11,0,0,1-1.37-.74l-.65-2.14A1.1,1.1,0,0,1,55.35,37Z"/><rect class="cls-5" x="63.34" y="34.05" width="4.44" height="4.44" transform="translate(-7.7 20.55) rotate(-16.84)"/><rect class="cls-6" x="63.01" y="34.1" width="4.44" height="2.22" transform="translate(-7.4 20.41) rotate(-16.84)"/><rect class="cls-7" x="63.34" y="34.05" width="4.44" height="4.44" transform="translate(-7.7 20.55) rotate(-16.84)"/><line class="cls-7" x1="51.96" y1="51.95" x2="55.33" y2="50.93"/><line class="cls-7" x1="49.16" y1="52.8" x2="49.72" y2="52.63"/><line class="cls-7" x1="49.92" y1="45.21" x2="53.29" y2="44.19"/><line class="cls-7" x1="47.12" y1="46.06" x2="47.68" y2="45.89"/><line class="cls-7" x1="44.2" y1="50.62" x2="44.77" y2="50.45"/><line class="cls-7" x1="47.01" y1="49.77" x2="53.19" y2="47.9"/><ellipse class="cls-8" cx="32.52" cy="83.36" rx="5.5" ry="1.65"/><path class="cls-9" d="M87.42,38.28a.57.57,0,0,1,.52-.32.58.58,0,0,1,.53.32l.43.89a.6.6,0,0,0,.45.32l1,.14a.59.59,0,0,1,.33,1l-.71.69a.59.59,0,0,0-.17.52l.17,1a.56.56,0,0,1-.24.57.59.59,0,0,1-.61,0L88.21,43a.57.57,0,0,0-.54,0l-.87.46a.6.6,0,0,1-.62,0,.57.57,0,0,1-.23-.57l.16-1a.59.59,0,0,0-.17-.52l-.7-.69a.59.59,0,0,1,.32-1l1-.14a.61.61,0,0,0,.44-.32Z"/><path class="cls-10" d="M73.72,55.33a.58.58,0,0,1,1,0l1.1,2.22a.58.58,0,0,0,.44.33l2.46.35a.59.59,0,0,1,.32,1L77.31,61a.57.57,0,0,0-.16.52l.42,2.44a.62.62,0,0,1-.24.58.6.6,0,0,1-.62,0L74.52,63.4a.59.59,0,0,0-.55,0l-2.2,1.15a.58.58,0,0,1-.61,0,.58.58,0,0,1-.24-.58l.42-2.44a.58.58,0,0,0-.17-.52L69.4,59.23a.59.59,0,0,1,.32-1l2.46-.35a.59.59,0,0,0,.44-.33Z"/><path class="cls-11" d="M45.38,16.24a.58.58,0,0,1,1,0l1.77,3.59a.61.61,0,0,0,.44.32l4,.57a.6.6,0,0,1,.33,1l-2.87,2.79a.59.59,0,0,0-.17.52L50.57,29a.57.57,0,0,1-.23.57.6.6,0,0,1-.62.05l-3.54-1.86a.59.59,0,0,0-.55,0L42.09,29.6a.6.6,0,0,1-.62-.05.57.57,0,0,1-.23-.57L41.91,25a.58.58,0,0,0-.16-.52l-2.87-2.79a.6.6,0,0,1-.15-.61.62.62,0,0,1,.48-.4l4-.57a.61.61,0,0,0,.44-.32Z"/><line class="cls-12" x1="64.52" y1="21.19" x2="64.52" y2="16.5"/><line class="cls-12" x1="62.18" y1="18.85" x2="66.87" y2="18.85"/><line class="cls-12" x1="85.06" y1="31.17" x2="85.06" y2="28.82"/><line class="cls-12" x1="83.89" y1="30" x2="86.24" y2="30"/><line class="cls-12" x1="60.42" y1="61.1" x2="60.42" y2="58.75"/><line class="cls-12" x1="59.24" y1="59.92" x2="61.59" y2="59.92"/><path class="cls-1" d="M47.26,69.08A3.51,3.51,0,0,1,45,73.52L30.53,78.3a3.53,3.53,0,0,1-4.45-2.25L15.43,43.73a3.53,3.53,0,0,1,2.24-4.45l14.49-4.77a3.52,3.52,0,0,1,4.45,2.24Z"/><path class="cls-5" d="M18.21,41.34,33,36.43a3.49,3.49,0,0,1,3.91,1.24l-.3-.92a3.52,3.52,0,0,0-4.45-2.24L17.67,39.28a3.53,3.53,0,0,0-2.24,4.45l.38,1.14A3.48,3.48,0,0,1,18.21,41.34Z"/><rect class="cls-13" x="20.2" y="42.91" width="22.3" height="26.99" transform="translate(-16.08 12.64) rotate(-18.24)"/><polygon class="cls-14" points="20.76 59.92 29.35 42.85 16.53 47.07 20.76 59.92"/><path class="cls-7" d="M47.26,69.08A3.51,3.51,0,0,1,45,73.52L30.53,78.3a3.53,3.53,0,0,1-4.45-2.25L15.43,43.73a3.53,3.53,0,0,1,2.24-4.45l14.49-4.77a3.52,3.52,0,0,1,4.45,2.24Z"/><rect class="cls-7" x="20.2" y="42.91" width="22.3" height="26.99" transform="matrix(0.95, -0.31, 0.31, 0.95, -16.08, 12.64)"/><line class="cls-7" x1="24.9" y1="40.61" x2="30.48" y2="38.77"/><path class="cls-15" d="M22.12,40.94l-.19,0a.59.59,0,0,0-.37.74.58.58,0,0,0,.56.4.57.57,0,0,0,.18,0,.59.59,0,0,0,.38-.74.61.61,0,0,0-.56-.4Z"/><path class="cls-16" d="M37.93,72.15a1.32,1.32,0,1,0-.85,1.67A1.33,1.33,0,0,0,37.93,72.15Z"/></svg>