<svg id="Multicolor" xmlns="http://www.w3.org/2000/svg" viewBox="0 0 100 112"><defs><style>.cls-1{fill:#e8f4fa;}.cls-2{fill:#ffda8f;}.cls-10,.cls-13,.cls-14,.cls-18,.cls-2,.cls-20,.cls-21,.cls-22,.cls-23,.cls-24,.cls-27,.cls-4,.cls-7,.cls-9{stroke:#191816;stroke-linejoin:round;}.cls-10,.cls-13,.cls-14,.cls-18,.cls-2,.cls-20,.cls-21,.cls-27,.cls-4,.cls-7,.cls-9{stroke-linecap:round;}.cls-3{fill:#daedf7;}.cls-23,.cls-4{fill:none;}.cls-5{fill:#ff8a14;}.cls-6{fill:#ffaa54;}.cls-7{fill:#ffcebf;}.cls-11,.cls-8{fill:#191816;}.cls-8{opacity:0.15;}.cls-22,.cls-9{fill:#fff;}.cls-10{fill:#fff5e3;}.cls-12{fill:#ffb59e;}.cls-13{fill:#ffe500;}.cls-14{fill:#fff48c;}.cls-15{fill:#ffbe3d;}.cls-16{fill:#00dba8;}.cls-17{fill:#00ad85;}.cls-18{fill:#debb7e;}.cls-19{fill:#f0f0f0;}.cls-20{fill:#87898c;}.cls-21{fill:#00b8f0;}.cls-24{fill:#c0dceb;}.cls-25{fill:#9f5ae5;}.cls-26,.cls-27{fill:#bf8df2;}</style></defs><title>05- engineer-setting-maintenance</title><g id="Background"><g id="New_Symbol_1" data-name="New Symbol 1"><circle class="cls-1" cx="50" cy="56" r="40"/></g></g><g id="Scene"><path class="cls-2" d="M60.24,66.94a1.81,1.81,0,1,0,3.61,0V56.11H60.24Z"/><path class="cls-3" d="M60.24,54.91a9.63,9.63,0,1,1,19.25,0v1.2H75.88v7.82H62.64V56.11h-2.4Z"/><path class="cls-1" d="M69.86,45.28a9.63,9.63,0,0,0-9.62,9.63v1.2h.18a9.63,9.63,0,0,1,18.89,0h.18v-1.2A9.63,9.63,0,0,0,69.86,45.28Z"/><path class="cls-4" d="M60.24,54.91a9.63,9.63,0,1,1,19.25,0v1.2H75.88v7.82H62.64V56.11h-2.4Z"/><path class="cls-5" d="M72.92,45.78,69.26,53.1l-3.24-7a9.76,9.76,0,0,0-3.38,2.47V63.93H75.88V47.4A9.68,9.68,0,0,0,72.92,45.78Z"/><path class="cls-6" d="M75.88,50.46V47.4a9.68,9.68,0,0,0-3-1.62L71.56,48.5A9.65,9.65,0,0,1,75.88,50.46Z"/><path class="cls-6" d="M67.24,48.72,66,46.08a9.76,9.76,0,0,0-3.38,2.47v3.07A9.61,9.61,0,0,1,67.24,48.72Z"/><path class="cls-7" d="M44.59,65.74c-4,0-8.42-3.86-8.42-9v-.6a1.81,1.81,0,1,1,3.61,0v.6a5.41,5.41,0,0,0,4.81,5.42,1.81,1.81,0,1,1,0,3.61Z"/><ellipse class="cls-8" cx="31.5" cy="83" rx="10" ry="1.5"/><path class="cls-9" d="M49.91,56.41l-5.82-1.54a29.77,29.77,0,0,1-3.69,14l-.08.29c-.21.81.92,1.8,2.52,2.23s3.09.11,3.3-.69l.07-.29A29.78,29.78,0,0,1,49.91,56.41Z"/><path class="cls-10" d="M49.93,56.34c-.22.81-1.69,1.11-3.3.69s-2.73-1.42-2.52-2.23,1.69-1.11,3.29-.68S50.14,55.54,49.93,56.34Z"/><path class="cls-7" d="M45.5,62.83a1.81,1.81,0,0,0-1.2,3.41l1.33.46a1,1,0,0,0,.76,0,1,1,0,0,0,.51-.57l.54-1.52a1,1,0,0,0-.62-1.27Z"/><g id="_Group_" data-name="&lt;Group&gt;"><path class="cls-7" d="M30.75,29a6,6,0,0,0-6,6v1.21c-1.72,0-1.6,3,.3,3h0a6,6,0,0,0,11.73-1.8V35.05A6,6,0,0,0,30.75,29Z"/><path class="cls-11" d="M29.7,35.65a.76.76,0,0,0,0,1.51.76.76,0,0,0,0-1.51Z"/><path class="cls-11" d="M34.21,35.65a.76.76,0,1,0,.76.76.76.76,0,0,0-.76-.76Z"/><path class="cls-12" d="M29,38.81a.6.6,0,0,1-1.2,0,.6.6,0,1,1,1.2,0Z"/><path class="cls-4" d="M30.45,39.81a2.27,2.27,0,0,0,2.66.25,2.8,2.8,0,0,0,.35-.25"/></g><path class="cls-13" d="M38,34.45a7.22,7.22,0,0,0-14.44,0Z"/><path class="cls-14" d="M30.43,26.63a7.21,7.21,0,0,0-3.79,1.27c2.77.42,4.9,3.52,4.9,6.55H35C35,31.21,33.1,27.82,30.43,26.63Z"/><path class="cls-4" d="M28.35,32.65a3.23,3.23,0,0,0-3-3"/><g id="_Group_2" data-name="&lt;Group&gt;"><path class="cls-2" d="M69.25,28.84a6,6,0,0,1,6,6v1.2c1.72,0,1.6,3-.3,3h0a6,6,0,0,1-11.72-1.81v-2.4A6,6,0,0,1,69.25,28.84Z"/><path class="cls-11" d="M70.31,35.46a.75.75,0,1,0,0,1.5.75.75,0,0,0,0-1.5Z"/><path class="cls-11" d="M65.79,35.46a.75.75,0,1,0,.76.75.76.76,0,0,0-.76-.75Z"/><path class="cls-15" d="M71.06,38.62a.6.6,0,1,0,.6-.6A.6.6,0,0,0,71.06,38.62Z"/><path class="cls-4" d="M69.55,39.61a2.24,2.24,0,0,1-2.65.25,2,2,0,0,1-.35-.25"/></g><path class="cls-13" d="M62,34.26a7.22,7.22,0,1,1,14.44,0Z"/><path class="cls-14" d="M69.57,26.43a7.23,7.23,0,0,1,3.8,1.28c-2.77.42-4.9,3.52-4.9,6.55H65C65,31,66.91,27.62,69.57,26.43Z"/><path class="cls-4" d="M71.66,32.45a3.22,3.22,0,0,1,3-3"/><ellipse class="cls-8" cx="68.5" cy="83" rx="10" ry="1.5"/><path class="cls-16" d="M62.64,62.73V80a5.55,5.55,0,0,1,2.17-.42h2.65L68,69.35a1.26,1.26,0,0,1,2.51,0L71.09,80a5.58,5.58,0,0,1,2.14-.41h2.65V62.73Z"/><rect class="cls-17" x="62.64" y="63.93" width="13.24" height="2.41" transform="translate(138.52 130.27) rotate(180)"/><path class="cls-4" d="M62.64,62.73V80a5.55,5.55,0,0,1,2.17-.42h2.65L68,69.35a1.26,1.26,0,0,1,2.51,0L71.09,80a5.58,5.58,0,0,1,2.14-.41h2.65V62.73Z"/><path class="cls-18" d="M60.84,82.58c0-2.15,2.1-3,4-3h2.65v2a1,1,0,0,1-1,1Z"/><path class="cls-18" d="M69.26,82.58c0-2.15,2.11-3,4-3h2.65v2a1,1,0,0,1-1,1Z"/><path class="cls-9" d="M37.37,62.73V80a5.47,5.47,0,0,0-2.16-.42H32.56L32,69.35a1.26,1.26,0,0,0-2.51,0L28.93,80a5.58,5.58,0,0,0-2.14-.41H24.14V62.73Z"/><rect class="cls-19" x="24.14" y="63.93" width="13.24" height="2.41"/><path class="cls-4" d="M37.37,62.73V80a5.47,5.47,0,0,0-2.16-.42H32.56L32,69.35a1.26,1.26,0,0,0-2.51,0L28.93,80a5.58,5.58,0,0,0-2.14-.41H24.14V62.73Z"/><path class="cls-20" d="M39.18,82.58c0-2.15-2.11-3-4-3H32.56v2a1,1,0,0,0,1,1Z"/><path class="cls-20" d="M30.75,82.58c0-2.15-2.1-3-4-3H24.14v2a1,1,0,0,0,1,1Z"/><line class="cls-21" x1="62.64" y1="56.11" x2="62.64" y2="52.5"/><line class="cls-21" x1="75.88" y1="56.11" x2="75.88" y2="52.5"/><path class="cls-2" d="M72.92,45.78a9.61,9.61,0,0,0-6.9.3c.93,2,1.61,2.81,3.24,2.81S72,47.66,72.92,45.78Z"/><path class="cls-22" d="M65.05,4.37A2.41,2.41,0,0,0,62.64,2H42.19a2.41,2.41,0,0,0-2.41,2.41V23a2.41,2.41,0,0,0,2.41,2.41H47.6V29a1,1,0,0,0,1.71.71l4.31-4.31h9A2.41,2.41,0,0,0,65.05,23Z"/><path class="cls-23" d="M72.92,45.78,69.26,53.1l-3.24-7a9.76,9.76,0,0,0-3.38,2.47V63.93H75.88V47.4A9.68,9.68,0,0,0,72.92,45.78Z"/><rect class="cls-14" x="62.64" y="56.11" width="13.24" height="2.41"/><rect class="cls-14" x="62.64" y="61.53" width="13.24" height="2.41"/><path class="cls-2" d="M75.88,56.11v.6a5.41,5.41,0,0,1-4.81,5.42H69.86a1.81,1.81,0,0,0,0,3.61h1.21c4,0,8.42-3.86,8.42-9v-.6Z"/><path class="cls-24" d="M57.83,13.39a5.42,5.42,0,0,0-.29-1.67l.83-.5a1,1,0,0,0,.34-1.37L58.5,9.5A1,1,0,0,0,57.88,9a1,1,0,0,0-.75.12l-.82.49a5.38,5.38,0,0,0-2.69-1.53V7.17a1,1,0,0,0-1-1h-.41a1,1,0,0,0-1,1v.95a5.42,5.42,0,0,0-2.69,1.53l-.82-.49A1,1,0,0,0,47,9a1,1,0,0,0-.62.46l-.21.35a1,1,0,0,0,.34,1.37l.83.5A5.42,5.42,0,0,0,47,13.39a5.48,5.48,0,0,0,.29,1.68l-.83.49a1,1,0,0,0-.34,1.38l.21.35a1,1,0,0,0,.62.45,1,1,0,0,0,.75-.11l.82-.49a5.4,5.4,0,0,0,2.69,1.52v.95a1,1,0,0,0,1,1h.41a1,1,0,0,0,1-1v-.95a5.36,5.36,0,0,0,2.69-1.52l.82.49a1,1,0,0,0,.75.11,1,1,0,0,0,.62-.45l.21-.35a1,1,0,0,0-.34-1.38l-.83-.49A5.48,5.48,0,0,0,57.83,13.39ZM52.42,15.8a2.41,2.41,0,1,1,2.4-2.41A2.41,2.41,0,0,1,52.42,15.8Z"/><path class="cls-25" d="M39.78,54.91a9.63,9.63,0,1,0-19.25,0v1.2h3.61v7.82H37.37V56.11h2.41Z"/><path class="cls-26" d="M30.15,45.28a9.63,9.63,0,0,0-9.62,9.63v1.2h.18a9.63,9.63,0,0,1,18.89,0h.18v-1.2A9.63,9.63,0,0,0,30.15,45.28Z"/><path class="cls-4" d="M39.78,54.91a9.63,9.63,0,1,0-19.25,0v1.2h3.61v7.82H37.37V56.11h2.41Z"/><path class="cls-7" d="M24.14,66.94a1.81,1.81,0,1,1-3.61,0V56.11h3.61Z"/><line class="cls-21" x1="37.37" y1="56.11" x2="37.37" y2="52.5"/><line class="cls-21" x1="24.14" y1="56.11" x2="24.14" y2="52.5"/><path class="cls-7" d="M30.75,49.49s3-3.49,3-3.5a9.56,9.56,0,0,0-3.64-.71,9.77,9.77,0,0,0-2.72.39S30.75,49.49,30.75,49.49Z"/><line class="cls-4" x1="30.75" y1="49.49" x2="30.75" y2="63.93"/><path class="cls-27" d="M35,46.58A10.46,10.46,0,0,0,33.81,46l-3.06,3.49,2.94.84a1,1,0,0,0,.88-.16,1,1,0,0,0,.4-.8Z"/><path class="cls-27" d="M27.42,45.68a9.18,9.18,0,0,0-.88.31v3.38a1,1,0,0,0,.4.8,1,1,0,0,0,.88.16l2.93-.84Z"/></g></svg>