<svg id="Duotone" xmlns="http://www.w3.org/2000/svg" viewBox="0 0 100 112"><defs><style>.cls-1{fill:#f0f2ff;}.cls-2,.cls-5{fill:#fff;}.cls-3,.cls-6{fill:#d6daff;}.cls-4{fill:none;stroke-linecap:round;stroke-linejoin:round;}.cls-4,.cls-5,.cls-6{stroke:#4550e5;}.cls-5,.cls-6{stroke-miterlimit:10;}</style></defs><title>05- credit-card</title><g id="Icons"><g id="Background"><circle class="cls-1" cx="49.98" cy="56.23" r="40"/></g><g id="_Layer_" data-name="&lt;Layer&gt;"><path class="cls-2" d="M24.85,37.05H75.11a2.64,2.64,0,0,1,2.64,2.64V69.32A2.64,2.64,0,0,1,75.11,72H24.85a2.65,2.65,0,0,1-2.65-2.65V39.7a2.65,2.65,0,0,1,2.65-2.65Z"/><path class="cls-3" d="M39.66,62.45a1.59,1.59,0,0,1-1.58-1.59,1.59,1.59,0,0,0-1.59-1.59H34.9a3.18,3.18,0,0,1,0-6.35h1.59a1.59,1.59,0,0,0,1.59-1.58,1.59,1.59,0,0,1,1.58-1.59h1.59a1.59,1.59,0,0,0,1.59-1.59V43.4a1.59,1.59,0,0,0-1.59-1.59,4.78,4.78,0,0,1-4.76-4.76H24.85a2.65,2.65,0,0,0-2.64,2.65V52.92a3.17,3.17,0,0,0,3.17,3.18A1.59,1.59,0,0,1,27,57.68v3.18a1.59,1.59,0,0,0,1.59,1.59A1.58,1.58,0,0,1,30.14,64v1.59a3.17,3.17,0,0,0,3.18,3.17A3.17,3.17,0,0,1,36.49,72H46V68.79A6.34,6.34,0,0,0,39.66,62.45Z"/><path class="cls-3" d="M75.11,37.05h-10a1.59,1.59,0,0,0-1.59,1.59,4,4,0,0,1-4,4A2.38,2.38,0,0,0,57.12,45a6.35,6.35,0,0,0,6.35,6.35,1.59,1.59,0,0,1,1.59,1.58v.8a2.38,2.38,0,0,0,2.38,2.38,2.38,2.38,0,0,1,2.38,2.38,4,4,0,0,0,4,4h4V39.7A2.65,2.65,0,0,0,75.11,37.05Z"/><path class="cls-3" d="M61.88,72h0a4.76,4.76,0,0,0-4.76-4.76h0a1.59,1.59,0,0,1-1.59-1.59h0a4.77,4.77,0,0,1,4.77-4.76h1.34a8.19,8.19,0,0,1,6.66,3.42h0A8.19,8.19,0,0,1,69.82,69V72Z"/><path class="cls-4" d="M24.85,37.05H75.11a2.64,2.64,0,0,1,2.64,2.64V69.32A2.64,2.64,0,0,1,75.11,72H24.85a2.65,2.65,0,0,1-2.65-2.65V39.7a2.65,2.65,0,0,1,2.65-2.65Z"/><rect class="cls-3" x="28.56" y="51.34" width="9.52" height="6.35" rx="1.32" ry="1.32"/><path class="cls-2" d="M29.88,57.68h.51l6.34-6.34H29.88a1.32,1.32,0,0,0-1.32,1.32v3.7A1.32,1.32,0,0,0,29.88,57.68Z"/><rect class="cls-4" x="28.56" y="51.34" width="9.52" height="6.35" rx="1.32" ry="1.32"/><rect class="cls-2" x="28.56" y="41.81" width="30.15" height="6.35" rx="1.32" ry="1.32"/><line class="cls-4" x1="30.14" y1="64.03" x2="30.14" y2="67.21"/><line class="cls-4" x1="33.32" y1="64.03" x2="33.32" y2="67.21"/><line class="cls-4" x1="36.49" y1="64.03" x2="36.49" y2="67.21"/><line class="cls-4" x1="39.66" y1="64.03" x2="39.66" y2="67.21"/><line class="cls-4" x1="46.01" y1="64.03" x2="46.01" y2="67.21"/><line class="cls-4" x1="49.19" y1="64.03" x2="49.19" y2="67.21"/><line class="cls-4" x1="52.36" y1="64.03" x2="52.36" y2="67.21"/><line class="cls-4" x1="55.53" y1="64.03" x2="55.53" y2="67.21"/><line class="cls-4" x1="61.88" y1="64.03" x2="61.88" y2="67.21"/><line class="cls-4" x1="65.06" y1="64.03" x2="65.06" y2="67.21"/><line class="cls-4" x1="68.23" y1="64.03" x2="68.23" y2="67.21"/><line class="cls-4" x1="71.4" y1="64.03" x2="71.4" y2="67.21"/><rect class="cls-4" x="28.56" y="41.81" width="30.15" height="6.35" rx="1.32" ry="1.32"/><circle class="cls-5" cx="69.82" cy="54.51" r="3.97"/><circle class="cls-6" cx="65.06" cy="54.51" r="3.97"/><line class="cls-4" x1="63.47" y1="54.51" x2="71.4" y2="54.51"/><ellipse class="cls-3" cx="49.98" cy="84.66" rx="21.16" ry="1.98"/></g></g></svg>