<svg id="Multicolor" xmlns="http://www.w3.org/2000/svg" viewBox="0 0 100 112"><defs><style>.cls-1{fill:#e8f4fa;}.cls-2{fill:#fff;}.cls-3,.cls-9{fill:none;}.cls-10,.cls-11,.cls-3,.cls-9{stroke:#191816;stroke-linejoin:round;}.cls-3{stroke-linecap:round;}.cls-4{fill:#ffe500;}.cls-5{fill:#ff6242;}.cls-6{fill:#ff866e;}.cls-7{fill:#191816;opacity:0.15;}.cls-8{fill:#fff48c;}.cls-10{fill:#46b000;}.cls-11{fill:#6dd627;}.cls-12{fill:#c8ffa1;}</style></defs><title>06- shopping-bag-money</title><g id="Background"><g id="New_Symbol_28" data-name="New Symbol 28"><path class="cls-1" d="M90.5,56A40,40,0,1,0,14.06,72.5H86.94A39.85,39.85,0,0,0,90.5,56Z"/><path class="cls-2" d="M14.06,72.5a40,40,0,0,0,72.88,0Z"/><line class="cls-3" x1="11" y1="72.5" x2="89" y2="72.5"/><line class="cls-3" x1="6.5" y1="72.5" x2="9" y2="72.5"/><line class="cls-3" x1="91" y1="72.5" x2="93.5" y2="72.5"/></g></g><g id="Scene"><path class="cls-4" d="M75.47,71.88a2.76,2.76,0,0,1-2.74,3H38.11a2.76,2.76,0,0,1-2.75-3l3.25-33.12a2.76,2.76,0,0,1,2.75-2.49H69.47a2.76,2.76,0,0,1,2.75,2.49Z"/><path class="cls-3" d="M58.52,36.27V32.13a5.52,5.52,0,0,0-11,0v4.14"/><path class="cls-3" d="M53.74,29.37A5.47,5.47,0,0,0,53,32.13v4.14"/><path class="cls-3" d="M64,36.27V32.13a5.52,5.52,0,0,0-5.52-5.52"/><line class="cls-3" x1="62.66" y1="36.27" x2="62.66" y2="43.86"/><path class="cls-5" d="M65.65,61.11h-6A1.16,1.16,0,0,1,58.52,60V47.85a1.16,1.16,0,0,1,.41-.89l3.73-3.1L66.39,47a1.16,1.16,0,0,1,.41.89V60A1.15,1.15,0,0,1,65.65,61.11Z"/><path class="cls-6" d="M59.67,61.11h3V43.86L58.93,47a1.16,1.16,0,0,0-.41.89V60A1.16,1.16,0,0,0,59.67,61.11Z"/><path class="cls-3" d="M65.65,61.11h-6A1.16,1.16,0,0,1,58.52,60V47.85a1.16,1.16,0,0,1,.41-.89l3.73-3.1L66.39,47a1.16,1.16,0,0,1,.41.89V60A1.15,1.15,0,0,1,65.65,61.11Z"/><path class="cls-7" d="M55.07,84.57c0,1.14-8,2.07-17.94,2.07s-17.94-.93-17.94-2.07,8-2.07,17.94-2.07S55.07,83.42,55.07,84.57Z"/><path class="cls-8" d="M36.93,55.86l19.6-19.59H41.36a2.76,2.76,0,0,0-2.75,2.49Z"/><path class="cls-9" d="M75.47,71.88a2.76,2.76,0,0,1-2.74,3H38.11a2.76,2.76,0,0,1-2.75-3l3.25-33.12a2.76,2.76,0,0,1,2.75-2.49H69.47a2.76,2.76,0,0,1,2.75,2.49Z"/><path class="cls-10" d="M33.68,70.07V73.3a1.48,1.48,0,0,0,1.24,1.46,37.48,37.48,0,0,0,12.37,0,1.48,1.48,0,0,0,1.24-1.46V70.07"/><path class="cls-10" d="M33.68,67.1v3.22a1.48,1.48,0,0,0,1.24,1.47,37.48,37.48,0,0,0,12.37,0,1.48,1.48,0,0,0,1.24-1.47V67.1"/><path class="cls-10" d="M33.68,64.13v3.22a1.48,1.48,0,0,0,1.24,1.47,37.48,37.48,0,0,0,12.37,0,1.48,1.48,0,0,0,1.24-1.47V64.13"/><path class="cls-11" d="M48.53,61.9a1.49,1.49,0,0,0-1.71-1.47,37.34,37.34,0,0,1-11.43,0,1.49,1.49,0,0,0-1.71,1.47v2.48a1.48,1.48,0,0,0,1.24,1.47,37.76,37.76,0,0,0,12.37,0,1.48,1.48,0,0,0,1.24-1.47V61.9Z"/><path class="cls-12" d="M42.59,63.76c0,.62-.67,1.11-1.49,1.11s-1.48-.49-1.48-1.11.66-1.11,1.48-1.11S42.59,63.14,42.59,63.76Z"/><path class="cls-10" d="M24,78.05v3.23a1.48,1.48,0,0,0,1.24,1.46,37.48,37.48,0,0,0,12.37,0,1.48,1.48,0,0,0,1.24-1.46V78.05"/><path class="cls-10" d="M24,75.08v3.23a1.48,1.48,0,0,0,1.24,1.46,37.48,37.48,0,0,0,12.37,0,1.48,1.48,0,0,0,1.24-1.46V75.08"/><path class="cls-10" d="M24,72.11v3.22a1.48,1.48,0,0,0,1.24,1.47,37.48,37.48,0,0,0,12.37,0,1.48,1.48,0,0,0,1.24-1.47V72.11"/><path class="cls-11" d="M38.89,69.88a1.5,1.5,0,0,0-.51-1.13,1.53,1.53,0,0,0-1.2-.34,37.34,37.34,0,0,1-11.43,0A1.5,1.5,0,0,0,24,69.88v2.48a1.48,1.48,0,0,0,1.24,1.47,37.76,37.76,0,0,0,12.37,0,1.48,1.48,0,0,0,1.24-1.47V69.88Z"/><path class="cls-12" d="M33,71.74c0,.62-.66,1.11-1.48,1.11S30,72.36,30,71.74s.67-1.11,1.49-1.11S33,71.12,33,71.74Z"/><path class="cls-11" d="M50.9,78.11a1.46,1.46,0,0,0-.29-1.21,1.51,1.51,0,0,0-1.11-.56,37.13,37.13,0,0,1-11.22-2.17,1.46,1.46,0,0,0-1.24.11,1.48,1.48,0,0,0-.72,1l-.23,1.17-.61,3.17a1.48,1.48,0,0,0,.94,1.67,37.7,37.7,0,0,0,6,1.68,37.31,37.31,0,0,0,6.17.67,1.48,1.48,0,0,0,1.49-1.2l.62-3.16Z"/><path class="cls-12" d="M44.56,79.62a1.49,1.49,0,1,1-1.18-1.75A1.49,1.49,0,0,1,44.56,79.62Z"/></g></svg>