<svg id="Duotone" xmlns="http://www.w3.org/2000/svg" viewBox="0 0 100 112"><defs><style>.cls-1{fill:#d6daff;}.cls-2{fill:#fff;}.cls-3,.cls-4{fill:none;stroke:#4550e5;stroke-linejoin:round;}.cls-3{stroke-linecap:round;}</style></defs><title>06- cloud-download</title><g id="Icons"><ellipse class="cls-1" cx="50" cy="81" rx="7" ry="1.5"/><path class="cls-2" d="M69.82,40.73a7.09,7.09,0,0,0,.21-1.6,7,7,0,0,0-7-7,6.88,6.88,0,0,0-4.19,1.43,13.89,13.89,0,0,0-24.48,9v.09a6.25,6.25,0,0,0-.87-.09,6.95,6.95,0,1,0,0,13.9H64.81a8.68,8.68,0,0,0,5-15.77Z"/><path class="cls-3" d="M69.82,40.73a7.09,7.09,0,0,0,.21-1.6,7,7,0,0,0-7-7,6.88,6.88,0,0,0-4.19,1.43,13.89,13.89,0,0,0-24.48,9v.09a6.25,6.25,0,0,0-.87-.09,6.95,6.95,0,1,0,0,13.9H64.81a8.68,8.68,0,0,0,5-15.77Z"/><path class="cls-1" d="M58.41,63.09a2,2,0,0,0-2.82,0L52.5,66.17V48a2.5,2.5,0,0,0-5,0V66.17l-3.09-3.08a2,2,0,0,0-2.82,2.82l7,7a2,2,0,0,0,2.82,0l7-7A2,2,0,0,0,58.41,63.09Z"/><path class="cls-4" d="M58.41,63.09a2,2,0,0,0-2.82,0L52.5,66.17V48a2.5,2.5,0,0,0-5,0V66.17l-3.09-3.08a2,2,0,0,0-2.82,2.82l7,7a2,2,0,0,0,2.82,0l7-7A2,2,0,0,0,58.41,63.09Z"/></g></svg>