<svg viewBox="0 0 100 112" xmlns="http://www.w3.org/2000/svg"><circle cx="50" cy="56" fill="#e8f4fa" r="40"/><path d="m74.77 47.19a1.45 1.45 0 0 0 -1.44-1.33h-23.43a1.45 1.45 0 0 0 -1.44 1.33l-2.67 30.69a1.21 1.21 0 0 0 1.21 1.31h29.24a1.21 1.21 0 0 0 1.2-1.31z" fill="#ffe500"/><path d="m47.06 63.22 17.36-17.36h-14.52a1.45 1.45 0 0 0 -1.44 1.33z" fill="#fff48c"/><g stroke="#191816" stroke-linejoin="round"><path d="m74.77 47.19a1.45 1.45 0 0 0 -1.44-1.33h-23.43a1.45 1.45 0 0 0 -1.44 1.33l-2.67 30.69a1.21 1.21 0 0 0 1.21 1.31h29.24a1.21 1.21 0 0 0 1.2-1.31z" fill="none"/><path d="m54.37 50.21v-8.69a7.25 7.25 0 1 1 14.49 0v8.69" fill="none" stroke-linecap="round"/><path d="m65.96 45.86v7.97" fill="none" stroke-linecap="round"/><path d="m68.86 64.94a1.21 1.21 0 0 1 -1.21 1.21h-3.38a1.21 1.21 0 0 1 -1.21-1.21v-8.94a1.2 1.2 0 0 1 .67-1l2.27-1.17 2.19 1.17a1.2 1.2 0 0 1 .67 1z" fill="#ff6242" stroke-linecap="round"/><path d="m45.76 35.63a1.45 1.45 0 0 0 -1.45-1.36h-13.21a1.45 1.45 0 0 0 -1.45 1.36l-1.36 21.83h18.83zm-4.43 4.44h-7.25a1.45 1.45 0 1 1 0-2.9h7.25a1.45 1.45 0 1 1 0 2.9z" fill="#6dd627"/><path d="m35.95 57.45 10.52-10.51-.31-4.88-15.4 15.39z" fill="#c8ffa1"/><path d="m28.61 52.22 12.16-12.15h-5.19l-6.62 6.62z" fill="#c8ffa1"/><path d="m41.33 37.17a1.46 1.46 0 0 1 1.37 1l3-3a1.45 1.45 0 0 0 -1.35-.91h-2.97l-2.9 2.9z" fill="#c8ffa1"/></g><path d="m49.3 63.25h-23.19v14.75a1.21 1.21 0 0 0 1.21 1.21h20.77a1.21 1.21 0 0 0 1.21-1.21z" fill="#4acfff"/><path d="m26.11 63.25h23.18v2.9h-23.18z" fill="#00b8f0"/><path d="m49.3 63.25h-23.19v14.75a1.21 1.21 0 0 0 1.21 1.21h20.77a1.21 1.21 0 0 0 1.21-1.21z" fill="none" stroke="#191816" stroke-linejoin="round"/><rect fill="#4acfff" height="5.8" rx="1" stroke="#191816" stroke-linejoin="round" width="26.08" x="24.66" y="57.46"/></svg>