<svg id="Multicolor" xmlns="http://www.w3.org/2000/svg" viewBox="0 0 100 112"><defs><style>.cls-1{fill:#e8f4fa;}.cls-2{fill:#ffe500;}.cls-3{fill:#fff48c;}.cls-4,.cls-5{fill:none;}.cls-11,.cls-4,.cls-5,.cls-6,.cls-7,.cls-8{stroke:#191816;stroke-linejoin:round;}.cls-5,.cls-6{stroke-linecap:round;}.cls-6{fill:#ff6242;}.cls-7{fill:#6dd627;}.cls-8{fill:#c8ffa1;}.cls-11,.cls-9{fill:#4acfff;}.cls-10{fill:#00b8f0;}</style></defs><title>07- shopping-bag-box</title><g id="Background"><g id="New_Symbol_1" data-name="New Symbol 1"><circle class="cls-1" cx="50" cy="56" r="40"/></g></g><g id="Scene"><path class="cls-2" d="M74.77,47.19a1.45,1.45,0,0,0-1.44-1.33H49.9a1.45,1.45,0,0,0-1.44,1.33L45.79,77.88A1.21,1.21,0,0,0,47,79.19H76.24a1.21,1.21,0,0,0,1.2-1.31Z"/><path class="cls-3" d="M47.06,63.22,64.42,45.86H49.9a1.45,1.45,0,0,0-1.44,1.33Z"/><path class="cls-4" d="M74.77,47.19a1.45,1.45,0,0,0-1.44-1.33H49.9a1.45,1.45,0,0,0-1.44,1.33L45.79,77.88A1.21,1.21,0,0,0,47,79.19H76.24a1.21,1.21,0,0,0,1.2-1.31Z"/><path class="cls-5" d="M54.37,50.21V41.52a7.25,7.25,0,1,1,14.49,0v8.69"/><line class="cls-5" x1="65.96" y1="45.86" x2="65.96" y2="53.83"/><path class="cls-6" d="M68.86,64.94a1.21,1.21,0,0,1-1.21,1.21H64.27a1.21,1.21,0,0,1-1.21-1.21V56A1.2,1.2,0,0,1,63.73,55L66,53.83,68.19,55A1.2,1.2,0,0,1,68.86,56Z"/><path class="cls-7" d="M45.76,35.63a1.45,1.45,0,0,0-1.45-1.36H31.1a1.45,1.45,0,0,0-1.45,1.36L28.29,57.46H47.12Zm-4.43,4.44H34.08a1.45,1.45,0,1,1,0-2.9h7.25a1.45,1.45,0,1,1,0,2.9Z"/><polygon class="cls-8" points="35.95 57.45 46.47 46.94 46.16 42.06 30.76 57.45 35.95 57.45"/><polygon class="cls-8" points="28.61 52.22 40.77 40.07 35.58 40.07 28.96 46.69 28.61 52.22"/><path class="cls-8" d="M41.33,37.17a1.46,1.46,0,0,1,1.37,1l3-3a1.45,1.45,0,0,0-1.35-.91H41.38l-2.9,2.9Z"/><path class="cls-9" d="M49.3,63.25H26.11V78a1.21,1.21,0,0,0,1.21,1.21H48.09A1.21,1.21,0,0,0,49.3,78Z"/><rect class="cls-10" x="26.11" y="63.25" width="23.18" height="2.9"/><path class="cls-4" d="M49.3,63.25H26.11V78a1.21,1.21,0,0,0,1.21,1.21H48.09A1.21,1.21,0,0,0,49.3,78Z"/><rect class="cls-11" x="24.66" y="57.46" width="26.08" height="5.8" rx="1" ry="1"/></g></svg>