<svg viewBox="0 0 100 112" xmlns="http://www.w3.org/2000/svg"><path d="m90 56a40 40 0 1 0 -76.44 16.5h72.88a39.85 39.85 0 0 0 3.56-16.5z" fill="#e8f4fa"/><path d="m13.56 72.5a40 40 0 0 0 72.88 0z" fill="#fff"/><g stroke="#191816" stroke-linejoin="round"><path d="m10.5 72.5h78" fill="none" stroke-linecap="round"/><path d="m6 72.5h2.5" fill="none" stroke-linecap="round"/><path d="m90.5 72.5h2.5" fill="none" stroke-linecap="round"/><path d="m43.56 30.58a2.45 2.45 0 0 0 -.9.18 4.19 4.19 0 0 0 -8.27 0 2.46 2.46 0 0 0 -.91-.18 2.52 2.52 0 0 0 0 5h10.08a2.52 2.52 0 0 0 0-5z" fill="#fff"/><path d="m43.56 30.58a2.45 2.45 0 0 0 -.9.18 4.19 4.19 0 0 0 -8.27 0 2.46 2.46 0 0 0 -.91-.18 2.52 2.52 0 0 0 0 5h10.08a2.52 2.52 0 0 0 0-5z" fill="#fff"/><path d="m75.75 58.23h7.82a0 0 0 0 1 0 0v12.6a0 0 0 0 1 0 0h-4.82a4 4 0 0 1 -4-4v-7.6a1 1 0 0 1 1-1z" fill="#fff" transform="matrix(-1 0 0 -1 158.32 129.06)"/></g><path d="m55.85 55.71h17.9a1 1 0 0 1 1 1v13.12a1 1 0 0 1 -1 1h-16.9a1 1 0 0 1 -1-1v-14.12a0 0 0 0 1 0 0z" fill="#ff6242" transform="matrix(-1 0 0 -1 130.6 126.54)"/><path d="m55.85 55.71h18.9a0 0 0 0 1 0 0v1.52a1 1 0 0 1 -1 1h-16.9a1 1 0 0 1 -1-1v-1.52a0 0 0 0 1 0 0z" fill="#ff866e" transform="matrix(-1 0 0 -1 130.6 113.94)"/><path d="m55.85 55.71h17.9a1 1 0 0 1 1 1v13.12a1 1 0 0 1 -1 1h-16.9a1 1 0 0 1 -1-1v-14.12a0 0 0 0 1 0 0z" fill="none" stroke="#191816" stroke-linejoin="round" transform="matrix(-1 0 0 -1 130.6 126.54)"/><path d="m55.85 68.31h17.9a1 1 0 0 1 1 1v1.52a0 0 0 0 1 0 0h-18.9a0 0 0 0 1 0 0v-2.52a0 0 0 0 1 0 0z" fill="#e0e0e0" stroke="#191816" stroke-linejoin="round" transform="matrix(-1 0 0 -1 130.6 139.14)"/><path d="m58.37 70.83a2.52 2.52 0 1 0 2.52-2.52 2.52 2.52 0 0 0 -2.52 2.52z" fill="#525252"/><path d="m60.89 69.92a2.53 2.53 0 0 1 2.39 1.71 2.63 2.63 0 0 0 .13-.8 2.52 2.52 0 0 0 -5 0 2.63 2.63 0 0 0 .13.8 2.53 2.53 0 0 1 2.35-1.71z" fill="#656769"/><path d="m58.37 70.83a2.52 2.52 0 1 0 2.52-2.52 2.52 2.52 0 0 0 -2.52 2.52z" fill="none" stroke="#191816" stroke-linejoin="round"/><path d="m72.23 70.83a2.52 2.52 0 1 0 2.52-2.52 2.52 2.52 0 0 0 -2.52 2.52z" fill="#525252"/><path d="m74.75 69.92a2.53 2.53 0 0 1 2.39 1.71 2.63 2.63 0 0 0 .13-.8 2.52 2.52 0 1 0 -5 0 2.63 2.63 0 0 0 .13.8 2.53 2.53 0 0 1 2.35-1.71z" fill="#656769"/><path d="m72.23 70.83a2.52 2.52 0 1 0 2.52-2.52 2.52 2.52 0 0 0 -2.52 2.52z" fill="none" stroke="#191816" stroke-linejoin="round"/><path d="m78.27 60.75h1.78a1 1 0 0 1 1 1v1.78a1 1 0 0 1 -1 1h-.78a2 2 0 0 1 -2-2v-.78a1 1 0 0 1 1-1z" fill="#00b8f0" transform="matrix(-1 0 0 -1 158.32 125.28)"/><path d="m79 60.75h-.63a1 1 0 0 0 -1 1v1.68a1 1 0 0 0 .31.74l2.85-2.86a2.08 2.08 0 0 0 -1.53-.56z" fill="#4acfff"/><path d="m78.27 60.75h1.78a1 1 0 0 1 1 1v1.78a1 1 0 0 1 -1 1h-.78a2 2 0 0 1 -2-2v-.78a1 1 0 0 1 1-1z" fill="none" stroke="#191816" stroke-linejoin="round" transform="matrix(-1 0 0 -1 158.32 125.28)"/><path d="m82.05 67.68h1.52a0 0 0 0 1 0 0v2.15a1 1 0 0 1 -1 1h-1.52a0 0 0 0 1 0 0v-2.15a1 1 0 0 1 1-1z" fill="#ff8a14" stroke="#191816" stroke-linejoin="round" transform="matrix(-1 0 0 -1 164.62 138.51)"/><ellipse cx="36.63" cy="81.82" fill="#191816" opacity=".15" rx="14.7" ry="1.57"/><rect fill="#f0d5a8" height="31.5" rx="1" width="30.24" x="21.83" y="49.27"/><path d="m51 49.27h-28.12a1 1 0 0 0 -1.05 1v3.29a1 1 0 0 1 1.05-1h28.12a1 1 0 0 1 1 1v-3.24a1 1 0 0 0 -1-1.05z" fill="#fff5e3" opacity=".7"/><rect fill="none" height="31.5" rx="1" stroke="#191816" stroke-linecap="round" stroke-linejoin="round" width="30.24" x="21.83" y="49.27"/><path d="m33.17 49.27h7.56a0 0 0 0 1 0 0v11.6a1 1 0 0 1 -1 1h-5.56a1 1 0 0 1 -1-1v-11.6a0 0 0 0 1 0 0z" fill="#fff" stroke="#191816" stroke-linecap="round" stroke-linejoin="round"/><path d="m28.13 71.95v5.67" fill="none" stroke="#191816" stroke-linecap="round" stroke-linejoin="round"/><path d="m25.61 74.47 2.52-2.52 2.52 2.52" fill="none" stroke="#191816" stroke-linecap="round" stroke-linejoin="round"/><path d="m35.69 71.95v5.67" fill="none" stroke="#191816" stroke-linecap="round" stroke-linejoin="round"/><path d="m33.17 74.47 2.52-2.52 2.52 2.52" fill="none" stroke="#191816" stroke-linecap="round" stroke-linejoin="round"/></svg>