<svg id="Multicolor" xmlns="http://www.w3.org/2000/svg" viewBox="0 0 100 112"><defs><style>.cls-1{fill:#e8f4fa;}.cls-17,.cls-2,.cls-4{fill:#fff;}.cls-3,.cls-7{fill:none;}.cls-13,.cls-17,.cls-3,.cls-4,.cls-7,.cls-8{stroke:#191816;stroke-linejoin:round;}.cls-17,.cls-3{stroke-linecap:round;}.cls-5{fill:#ff6242;}.cls-6{fill:#ff866e;}.cls-8{fill:#e0e0e0;}.cls-9{fill:#525252;}.cls-10{fill:#656769;}.cls-11{fill:#00b8f0;}.cls-12{fill:#4acfff;}.cls-13{fill:#ff8a14;}.cls-14{fill:#191816;opacity:0.15;}.cls-15{fill:#f0d5a8;}.cls-16{fill:#fff5e3;opacity:0.7;}</style></defs><title>07- container-package-logistic-truck</title><g id="Background"><g id="New_Symbol_28-6" data-name="New Symbol 28"><path class="cls-1" d="M90,56A40,40,0,1,0,13.56,72.5H86.44A39.85,39.85,0,0,0,90,56Z"/><path class="cls-2" d="M13.56,72.5a40,40,0,0,0,72.88,0Z"/><line class="cls-3" x1="10.5" y1="72.5" x2="88.5" y2="72.5"/><line class="cls-3" x1="6" y1="72.5" x2="8.5" y2="72.5"/><line class="cls-3" x1="90.5" y1="72.5" x2="93" y2="72.5"/></g></g><g id="Scene"><path class="cls-4" d="M43.56,30.58a2.45,2.45,0,0,0-.9.18,4.19,4.19,0,0,0-8.27,0,2.46,2.46,0,0,0-.91-.18,2.52,2.52,0,0,0,0,5H43.56a2.52,2.52,0,0,0,0-5Z"/><path class="cls-4" d="M43.56,30.58a2.45,2.45,0,0,0-.9.18,4.19,4.19,0,0,0-8.27,0,2.46,2.46,0,0,0-.91-.18,2.52,2.52,0,0,0,0,5H43.56a2.52,2.52,0,0,0,0-5Z"/><path class="cls-4" d="M75.75,58.23h7.82a0,0,0,0,1,0,0v12.6a0,0,0,0,1,0,0H78.75a4,4,0,0,1-4-4v-7.6A1,1,0,0,1,75.75,58.23Z" transform="translate(158.32 129.06) rotate(180)"/><path class="cls-5" d="M55.85,55.71h17.9a1,1,0,0,1,1,1V69.83a1,1,0,0,1-1,1H56.85a1,1,0,0,1-1-1V55.71A0,0,0,0,1,55.85,55.71Z" transform="translate(130.6 126.54) rotate(180)"/><path class="cls-6" d="M55.85,55.71h18.9a0,0,0,0,1,0,0v1.52a1,1,0,0,1-1,1H56.85a1,1,0,0,1-1-1V55.71A0,0,0,0,1,55.85,55.71Z" transform="translate(130.6 113.94) rotate(180)"/><path class="cls-7" d="M55.85,55.71h17.9a1,1,0,0,1,1,1V69.83a1,1,0,0,1-1,1H56.85a1,1,0,0,1-1-1V55.71A0,0,0,0,1,55.85,55.71Z" transform="translate(130.6 126.54) rotate(180)"/><path class="cls-8" d="M55.85,68.31h17.9a1,1,0,0,1,1,1v1.52a0,0,0,0,1,0,0H55.85a0,0,0,0,1,0,0V68.31a0,0,0,0,1,0,0Z" transform="translate(130.6 139.14) rotate(180)"/><path class="cls-9" d="M58.37,70.83a2.52,2.52,0,1,0,2.52-2.52A2.52,2.52,0,0,0,58.37,70.83Z"/><path class="cls-10" d="M60.89,69.92a2.53,2.53,0,0,1,2.39,1.71,2.63,2.63,0,0,0,.13-.8,2.52,2.52,0,0,0-5,0,2.63,2.63,0,0,0,.13.8A2.53,2.53,0,0,1,60.89,69.92Z"/><path class="cls-7" d="M58.37,70.83a2.52,2.52,0,1,0,2.52-2.52A2.52,2.52,0,0,0,58.37,70.83Z"/><path class="cls-9" d="M72.23,70.83a2.52,2.52,0,1,0,2.52-2.52A2.52,2.52,0,0,0,72.23,70.83Z"/><path class="cls-10" d="M74.75,69.92a2.53,2.53,0,0,1,2.39,1.71,2.63,2.63,0,0,0,.13-.8,2.52,2.52,0,1,0-5,0,2.63,2.63,0,0,0,.13.8A2.53,2.53,0,0,1,74.75,69.92Z"/><path class="cls-7" d="M72.23,70.83a2.52,2.52,0,1,0,2.52-2.52A2.52,2.52,0,0,0,72.23,70.83Z"/><path class="cls-11" d="M78.27,60.75h1.78a1,1,0,0,1,1,1v1.78a1,1,0,0,1-1,1h-.78a2,2,0,0,1-2-2v-.78A1,1,0,0,1,78.27,60.75Z" transform="translate(158.32 125.28) rotate(180)"/><path class="cls-12" d="M79,60.75h-.63a1,1,0,0,0-1,1v1.68a1,1,0,0,0,.31.74l2.85-2.86A2.08,2.08,0,0,0,79,60.75Z"/><path class="cls-7" d="M78.27,60.75h1.78a1,1,0,0,1,1,1v1.78a1,1,0,0,1-1,1h-.78a2,2,0,0,1-2-2v-.78A1,1,0,0,1,78.27,60.75Z" transform="translate(158.32 125.28) rotate(180)"/><path class="cls-13" d="M82.05,67.68h1.52a0,0,0,0,1,0,0v2.15a1,1,0,0,1-1,1H81.05a0,0,0,0,1,0,0V68.68A1,1,0,0,1,82.05,67.68Z" transform="translate(164.62 138.51) rotate(180)"/><ellipse class="cls-14" cx="36.63" cy="81.82" rx="14.7" ry="1.57"/><rect class="cls-15" x="21.83" y="49.27" width="30.24" height="31.5" rx="1" ry="1"/><path class="cls-16" d="M51,49.27H22.88a1,1,0,0,0-1.05,1v3.29a1,1,0,0,1,1.05-1H51a1,1,0,0,1,1,1V50.32A1,1,0,0,0,51,49.27Z"/><rect class="cls-3" x="21.83" y="49.27" width="30.24" height="31.5" rx="1" ry="1"/><path class="cls-17" d="M33.17,49.27h7.56a0,0,0,0,1,0,0v11.6a1,1,0,0,1-1,1H34.17a1,1,0,0,1-1-1V49.27A0,0,0,0,1,33.17,49.27Z"/><line class="cls-3" x1="28.13" y1="71.95" x2="28.13" y2="77.62"/><polyline class="cls-3" points="25.61 74.47 28.13 71.95 30.65 74.47"/><line class="cls-3" x1="35.69" y1="71.95" x2="35.69" y2="77.62"/><polyline class="cls-3" points="33.17 74.47 35.69 71.95 38.21 74.47"/></g></svg>