<svg id="Multicolor" xmlns="http://www.w3.org/2000/svg" viewBox="0 0 100 112"><defs><style>.cls-1,.cls-11{fill:#e8f4fa;}.cls-2{fill:#fff;}.cls-3,.cls-4{fill:none;}.cls-10,.cls-11,.cls-12,.cls-3,.cls-9{stroke:#191816;stroke-linejoin:round;}.cls-10,.cls-11,.cls-12,.cls-3,.cls-4,.cls-9{stroke-linecap:round;}.cls-4{stroke:#e0e0e0;stroke-miterlimit:10;}.cls-5{fill:#00b8f0;}.cls-6{fill:#4acfff;}.cls-7{fill:#adc4d9;}.cls-8{fill:#8ca4b8;}.cls-9{fill:#fff48c;}.cls-10{fill:#daedf7;}.cls-12{fill:#ffe500;}</style></defs><title>07- advertisement-banner</title><g id="Background"><g id="New_Symbol_26" data-name="New Symbol 26"><path class="cls-1" d="M90,56A40,40,0,1,0,13.56,72.5H86.44A39.85,39.85,0,0,0,90,56Z"/><path class="cls-2" d="M13.56,72.5a40,40,0,0,0,72.88,0Z"/><line class="cls-3" x1="11" y1="72.5" x2="89" y2="72.5"/><line class="cls-3" x1="6.5" y1="72.5" x2="9" y2="72.5"/><line class="cls-3" x1="91" y1="72.5" x2="93.5" y2="72.5"/><line class="cls-4" x1="64" y1="83" x2="71.16" y2="83"/><line class="cls-4" x1="59.83" y1="83" x2="61.61" y2="83"/><line class="cls-4" x1="56.84" y1="83" x2="57.44" y2="83"/><line class="cls-4" x1="34.16" y1="79.5" x2="41.31" y2="79.5"/><line class="cls-4" x1="29.98" y1="79.5" x2="31.77" y2="79.5"/><line class="cls-4" x1="27" y1="79.5" x2="27.6" y2="79.5"/><line class="cls-4" x1="45.34" y1="90.5" x2="52.5" y2="90.5"/><line class="cls-4" x1="41.17" y1="90.5" x2="42.96" y2="90.5"/><line class="cls-4" x1="38.19" y1="90.5" x2="38.78" y2="90.5"/></g></g><g id="Scene"><path class="cls-5" d="M26.23,30.54H74.55a1.2,1.2,0,0,1,1.2,1.2V58.52a1,1,0,0,1-1,1H26a1,1,0,0,1-1-1V31.74A1.2,1.2,0,0,1,26.23,30.54Z"/><path class="cls-6" d="M46.77,56.62c0,1,0,1.94-.07,2.9H26.24A1.21,1.21,0,0,1,25,58.31V56.62C25,42.21,29.9,30.54,35.9,30.54S46.77,42.21,46.77,56.62Z"/><path class="cls-6" d="M54,56.62c0,1,0,1.94.07,2.9H74.54a1.21,1.21,0,0,0,1.21-1.21V56.62c0-14.41-4.87-26.08-10.87-26.08S54,42.21,54,56.62Z"/><path class="cls-6" d="M39.52,56.62c0,1,0,1.94.07,2.9h21.6c0-1,.07-1.92.07-2.9,0-14.41-4.87-26.08-10.87-26.08S39.52,42.21,39.52,56.62Z"/><path class="cls-3" d="M26.23,30.54H74.55a1.2,1.2,0,0,1,1.2,1.2V58.52a1,1,0,0,1-1,1H26a1,1,0,0,1-1-1V31.74A1.2,1.2,0,0,1,26.23,30.54Z"/><rect class="cls-7" x="29.38" y="59.52" width="4.35" height="13.04"/><rect class="cls-8" x="29.38" y="59.52" width="4.35" height="3.62"/><rect class="cls-3" x="29.38" y="59.52" width="4.35" height="13.04"/><rect class="cls-7" x="48.22" y="59.52" width="4.35" height="13.04"/><rect class="cls-8" x="48.22" y="59.52" width="4.35" height="3.62"/><rect class="cls-3" x="48.22" y="59.52" width="4.35" height="13.04"/><rect class="cls-7" x="67.05" y="59.52" width="4.35" height="13.04"/><rect class="cls-8" x="67.05" y="59.52" width="4.35" height="3.62"/><rect class="cls-3" x="67.05" y="59.52" width="4.35" height="13.04"/><path class="cls-3" d="M39.52,30.54v-5.8a2.9,2.9,0,1,0-5.79,0"/><path class="cls-9" d="M35.63,27.64H31.82a1.21,1.21,0,0,1-.92-2,2.92,2.92,0,0,1,2.1-.9h1.45a2.91,2.91,0,0,1,2.1.9A1.21,1.21,0,0,1,35.63,27.64Z"/><path class="cls-3" d="M55.46,30.54v-5.8a2.9,2.9,0,1,0-5.79,0"/><path class="cls-9" d="M51.57,27.64H47.76a1.21,1.21,0,0,1-.92-2,2.91,2.91,0,0,1,2.1-.9h1.45a2.91,2.91,0,0,1,2.1.9A1.21,1.21,0,0,1,51.57,27.64Z"/><path class="cls-3" d="M70,30.54v-5.8a2.9,2.9,0,1,0-5.79,0"/><path class="cls-9" d="M66.06,27.64H62.25a1.21,1.21,0,0,1-.92-2,2.91,2.91,0,0,1,2.1-.9h1.45a2.91,2.91,0,0,1,2.1.9A1.21,1.21,0,0,1,66.06,27.64Z"/><path class="cls-10" d="M33.28,36.33h9.59a1,1,0,0,1,1,1V59.52a0,0,0,0,1,0,0H32.28a0,0,0,0,1,0,0V37.33a1,1,0,0,1,1-1Z"/><path class="cls-11" d="M42,43.58h8.14a1,1,0,0,1,1,1V59.52a0,0,0,0,1,0,0H41a0,0,0,0,1,0,0V44.58A1,1,0,0,1,42,43.58Z"/><line class="cls-3" x1="35.18" y1="39.23" x2="40.97" y2="39.23"/><line class="cls-3" x1="35.18" y1="42.13" x2="40.97" y2="42.13"/><line class="cls-3" x1="35.18" y1="45.03" x2="40.97" y2="45.03"/><line class="cls-3" x1="35.18" y1="47.92" x2="40.97" y2="47.92"/><line class="cls-3" x1="35.18" y1="50.82" x2="40.97" y2="50.82"/><line class="cls-3" x1="35.18" y1="53.72" x2="40.97" y2="53.72"/><line class="cls-3" x1="43.14" y1="46.48" x2="48.94" y2="46.48"/><line class="cls-3" x1="43.14" y1="49.37" x2="48.94" y2="49.37"/><line class="cls-3" x1="43.14" y1="52.27" x2="48.94" y2="52.27"/><line class="cls-3" x1="33.73" y1="60.24" x2="48.22" y2="68.21"/><line class="cls-3" x1="48.22" y1="60.24" x2="33.73" y2="68.21"/><line class="cls-3" x1="52.56" y1="60.24" x2="67.05" y2="68.21"/><line class="cls-3" x1="67.05" y1="60.24" x2="52.56" y2="68.21"/><path class="cls-12" d="M66.08,36.3l.56,3.76a1,1,0,0,0,.52.7l3.41,1.67a.93.93,0,0,1,0,1.67l-3.41,1.69a.93.93,0,0,0-.5.7l-.54,3.77a.93.93,0,0,1-1.58.52l-2.66-2.71a1,1,0,0,0-.83-.27l-3.74.66a.94.94,0,0,1-1-1.35l1.76-3.37a1,1,0,0,0,0-.87l-1.78-3.35a.93.93,0,0,1,1-1.36l3.75.63a.93.93,0,0,0,.82-.27l2.65-2.73A.93.93,0,0,1,66.08,36.3Z"/></g></svg>