<svg viewBox="0 0 100 112" xmlns="http://www.w3.org/2000/svg"><path d="m90 56a40 40 0 1 0 -76.44 16.5h72.88a39.85 39.85 0 0 0 3.56-16.5z" fill="#e8f4fa"/><path d="m13.56 72.5a40 40 0 0 0 72.88 0z" fill="#fff"/><path d="m10.5 72.5h78" fill="none" stroke="#191816" stroke-linecap="round" stroke-linejoin="round"/><path d="m6 72.5h2.5" fill="none" stroke="#191816" stroke-linecap="round" stroke-linejoin="round"/><path d="m90.5 72.5h2.5" fill="none" stroke="#191816" stroke-linecap="round" stroke-linejoin="round"/><path d="m54.87 58.54h8.82a0 0 0 0 1 0 0v7.82a1 1 0 0 1 -1 1h-6.82a1 1 0 0 1 -1-1v-7.82a0 0 0 0 1 0 0z" fill="#fff" stroke="#191816" stroke-linecap="round" stroke-linejoin="round" transform="matrix(-1 0 0 -1 118.55 125.91)"/><path d="m73.75 67.36a1.05 1.05 0 0 0 .94-.58l.68-1.36a1 1 0 0 1 .93-.58h5.22a1.06 1.06 0 0 1 .94 1.52l-2.33 4.64a2.53 2.53 0 0 1 -2.25 1.39h-20.83a2.53 2.53 0 0 1 -2.25-1.39l-1.06-2.13a1 1 0 0 1 0-1 1 1 0 0 1 .89-.5z" fill="#ff6242"/><path d="m75.16 69.25a1 1 0 0 0 .94-.58l.68-1.36a1.06 1.06 0 0 1 .94-.58h4.55l.19-.37a1.06 1.06 0 0 0 -.94-1.52h-5.22a1 1 0 0 0 -.93.58l-.68 1.36a1.05 1.05 0 0 1 -.94.58h-19.08a1.06 1.06 0 0 0 -.94 1.52l.19.37z" fill="#ff866e"/><path d="m73.75 67.36a1.05 1.05 0 0 0 .94-.58l.68-1.36a1 1 0 0 1 .93-.58h5.22a1.06 1.06 0 0 1 .94 1.52l-2.33 4.64a2.53 2.53 0 0 1 -2.25 1.39h-20.83a2.53 2.53 0 0 1 -2.25-1.39l-1.06-2.13a1 1 0 0 1 0-1 1 1 0 0 1 .89-.5z" fill="none" stroke="#191816" stroke-linecap="round" stroke-linejoin="round"/><path d="m56.13 54.76h2.52a0 0 0 0 1 0 0v2.78a1 1 0 0 1 -1 1h-.52a1 1 0 0 1 -1-1v-2.78a0 0 0 0 1 0 0z" fill="#656769" stroke="#191816" stroke-linecap="round" stroke-linejoin="round" transform="matrix(-1 0 0 -1 114.77 113.31)"/><path d="m58.65 61.06h4.54a.5.5 0 0 1 .5.5v1.52a.5.5 0 0 1 -.5.5h-4.54a0 0 0 0 1 0 0v-2.52a0 0 0 0 1 0 0z" fill="#00b8f0" transform="matrix(-1 0 0 -1 122.33 124.65)"/><path d="m59.17 61.06a.52.52 0 0 0 -.52.53v1.47a.52.52 0 0 0 .52.52h.22l2.52-2.52z" fill="#4acfff"/><path d="m58.65 61.06h4.54a.5.5 0 0 1 .5.5v1.52a.5.5 0 0 1 -.5.5h-4.54a0 0 0 0 1 0 0v-2.52a0 0 0 0 1 0 0z" fill="none" stroke="#191816" stroke-linejoin="round" transform="matrix(-1 0 0 -1 122.33 124.65)"/><path d="m57.39 54.76v-3.78" fill="none" stroke="#191816" stroke-linecap="round" stroke-linejoin="round"/><ellipse cx="35.02" cy="80.8" fill="#191816" opacity=".15" rx="14.7" ry="1.58"/><rect fill="#f0d5a8" height="31.5" rx="1" width="30.24" x="20.22" y="48.25"/><path d="m49.41 48.25h-28.14a1 1 0 0 0 -1.05 1v3.29a1 1 0 0 1 1.05-1.05h28.14a1 1 0 0 1 1.05 1.05v-3.24a1 1 0 0 0 -1.05-1.05z" fill="#fff5e3" opacity=".7"/><g stroke="#191816" stroke-linejoin="round"><rect fill="none" height="31.5" rx="1" stroke-linecap="round" width="30.24" x="20.22" y="48.25"/><path d="m31.56 48.25h7.56a0 0 0 0 1 0 0v11.6a1 1 0 0 1 -1 1h-5.56a1 1 0 0 1 -1-1v-11.6a0 0 0 0 1 0 0z" fill="#fff" stroke-linecap="round"/><path d="m26.52 70.93v5.67" fill="none" stroke-linecap="round"/><path d="m24 73.45 2.52-2.52 2.52 2.52" fill="none" stroke-linecap="round"/><path d="m34.08 70.93v5.67" fill="none" stroke-linecap="round"/><path d="m31.55 73.45 2.53-2.52 2.51 2.52" fill="none" stroke-linecap="round"/><path d="m44.26 30.61a2.54 2.54 0 0 0 -.91.18 4.18 4.18 0 0 0 -8.26 0 2.52 2.52 0 1 0 -.91 4.86h10.08a2.52 2.52 0 0 0 0-5z" fill="#fff"/><path d="m44.26 30.61a2.54 2.54 0 0 0 -.91.18 4.18 4.18 0 0 0 -8.26 0 2.52 2.52 0 1 0 -.91 4.86h10.08a2.52 2.52 0 0 0 0-5z" fill="#fff"/></g></svg>