<svg id="Multicolor" xmlns="http://www.w3.org/2000/svg" viewBox="0 0 100 112"><defs><style>.cls-1{fill:#e8f4fa;}.cls-14,.cls-2,.cls-4{fill:#fff;}.cls-10,.cls-3{fill:none;}.cls-10,.cls-14,.cls-3,.cls-4,.cls-7{stroke:#191816;stroke-linejoin:round;}.cls-3,.cls-4,.cls-7{stroke-linecap:round;}.cls-5{fill:#ff6242;}.cls-6{fill:#ff866e;}.cls-7{fill:#656769;}.cls-8{fill:#00b8f0;}.cls-9{fill:#4acfff;}.cls-11{fill:#191816;opacity:0.15;}.cls-12{fill:#f0d5a8;}.cls-13{fill:#fff5e3;opacity:0.7;}</style></defs><title>08- package-logistic-ship-boat</title><g id="Background"><g id="New_Symbol_28-5" data-name="New Symbol 28"><path class="cls-1" d="M90,56A40,40,0,1,0,13.56,72.5H86.44A39.85,39.85,0,0,0,90,56Z"/><path class="cls-2" d="M13.56,72.5a40,40,0,0,0,72.88,0Z"/><line class="cls-3" x1="10.5" y1="72.5" x2="88.5" y2="72.5"/><line class="cls-3" x1="6" y1="72.5" x2="8.5" y2="72.5"/><line class="cls-3" x1="90.5" y1="72.5" x2="93" y2="72.5"/></g></g><g id="Scene"><path class="cls-4" d="M54.87,58.54h8.82a0,0,0,0,1,0,0v7.82a1,1,0,0,1-1,1H55.87a1,1,0,0,1-1-1V58.54A0,0,0,0,1,54.87,58.54Z" transform="translate(118.55 125.91) rotate(180)"/><path class="cls-5" d="M73.75,67.36a1.05,1.05,0,0,0,.94-.58l.68-1.36a1,1,0,0,1,.93-.58h5.22a1.06,1.06,0,0,1,.94,1.52L80.13,71a2.53,2.53,0,0,1-2.25,1.39H57.05A2.53,2.53,0,0,1,54.8,71l-1.06-2.13a1,1,0,0,1,0-1,1,1,0,0,1,.89-.5Z"/><path class="cls-6" d="M75.16,69.25a1,1,0,0,0,.94-.58l.68-1.36a1.06,1.06,0,0,1,.94-.58h4.55l.19-.37a1.06,1.06,0,0,0-.94-1.52H76.3a1,1,0,0,0-.93.58l-.68,1.36a1.05,1.05,0,0,1-.94.58H54.67a1.06,1.06,0,0,0-.94,1.52l.19.37Z"/><path class="cls-3" d="M73.75,67.36a1.05,1.05,0,0,0,.94-.58l.68-1.36a1,1,0,0,1,.93-.58h5.22a1.06,1.06,0,0,1,.94,1.52L80.13,71a2.53,2.53,0,0,1-2.25,1.39H57.05A2.53,2.53,0,0,1,54.8,71l-1.06-2.13a1,1,0,0,1,0-1,1,1,0,0,1,.89-.5Z"/><path class="cls-7" d="M56.13,54.76h2.52a0,0,0,0,1,0,0v2.78a1,1,0,0,1-1,1h-.52a1,1,0,0,1-1-1V54.76A0,0,0,0,1,56.13,54.76Z" transform="translate(114.77 113.31) rotate(180)"/><path class="cls-8" d="M58.65,61.06h4.54a.5.5,0,0,1,.5.5v1.52a.5.5,0,0,1-.5.5H58.65a0,0,0,0,1,0,0V61.06A0,0,0,0,1,58.65,61.06Z" transform="translate(122.33 124.65) rotate(180)"/><path class="cls-9" d="M59.17,61.06a.52.52,0,0,0-.52.53v1.47a.52.52,0,0,0,.52.52h.22l2.52-2.52Z"/><path class="cls-10" d="M58.65,61.06h4.54a.5.5,0,0,1,.5.5v1.52a.5.5,0,0,1-.5.5H58.65a0,0,0,0,1,0,0V61.06A0,0,0,0,1,58.65,61.06Z" transform="translate(122.33 124.65) rotate(180)"/><line class="cls-3" x1="57.39" y1="54.76" x2="57.39" y2="50.98"/><ellipse class="cls-11" cx="35.02" cy="80.8" rx="14.7" ry="1.58"/><rect class="cls-12" x="20.22" y="48.25" width="30.24" height="31.5" rx="1" ry="1"/><path class="cls-13" d="M49.41,48.25H21.27a1,1,0,0,0-1.05,1v3.29a1,1,0,0,1,1.05-1.05H49.41a1,1,0,0,1,1.05,1.05V49.3A1,1,0,0,0,49.41,48.25Z"/><rect class="cls-3" x="20.22" y="48.25" width="30.24" height="31.5" rx="1" ry="1"/><path class="cls-4" d="M31.56,48.25h7.56a0,0,0,0,1,0,0v11.6a1,1,0,0,1-1,1H32.56a1,1,0,0,1-1-1V48.25A0,0,0,0,1,31.56,48.25Z"/><line class="cls-3" x1="26.52" y1="70.93" x2="26.52" y2="76.6"/><polyline class="cls-3" points="24 73.45 26.52 70.93 29.04 73.45"/><line class="cls-3" x1="34.08" y1="70.93" x2="34.08" y2="76.6"/><polyline class="cls-3" points="31.55 73.45 34.08 70.93 36.59 73.45"/><path class="cls-14" d="M44.26,30.61a2.54,2.54,0,0,0-.91.18,4.18,4.18,0,0,0-8.26,0,2.52,2.52,0,1,0-.91,4.86H44.26a2.52,2.52,0,0,0,0-5Z"/><path class="cls-14" d="M44.26,30.61a2.54,2.54,0,0,0-.91.18,4.18,4.18,0,0,0-8.26,0,2.52,2.52,0,1,0-.91,4.86H44.26a2.52,2.52,0,0,0,0-5Z"/></g></svg>