<svg viewBox="0 0 100 112" xmlns="http://www.w3.org/2000/svg"><circle cx="50" cy="56" fill="#e8f4fa" r="40"/><ellipse cx="51.82" cy="84.08" fill="#191816" opacity=".15" rx="17.25" ry="1.72"/><path d="m46.69 60.78-2.69.33a1.37 1.37 0 0 1 -1.53-1.21l-3.78-30a1.37 1.37 0 0 1 1.21-1.53l2.69-.37a1.37 1.37 0 0 1 1.53 1.2l3.78 30a1.38 1.38 0 0 1 -1.21 1.58z" fill="#6dd627" stroke="#191816" stroke-linecap="round" stroke-linejoin="round"/><path d="m39.32 35.24 5.48-.59-.34-2.77-5.49.59z" fill="#e4ffd1" stroke="#191816" stroke-linecap="round" stroke-linejoin="round"/><path d="m61 48.7h-15.14a1.15 1.15 0 0 1 -1.13-1.38l2.27-11.5a1.15 1.15 0 0 1 1.13-.92h10.56a1.15 1.15 0 0 1 1.13.92l2.3 11.5a1.15 1.15 0 0 1 -1.12 1.38z" fill="#ffe500"/><path d="m60.33 38.35-.51-2.53a1.15 1.15 0 0 0 -1.13-.92h-10.53a1.15 1.15 0 0 0 -1.13.92l-.5 2.53z" fill="#fff48c"/><circle cx="38.59" cy="46.28" fill="#00b8f0" r="5.18" stroke="#191816" stroke-linecap="round" stroke-linejoin="round"/><path d="m61 48.7h-15.14a1.15 1.15 0 0 1 -1.13-1.38l2.27-11.5a1.15 1.15 0 0 1 1.13-.92h10.56a1.15 1.15 0 0 1 1.13.92l2.3 11.5a1.15 1.15 0 0 1 -1.12 1.38z" fill="none" stroke="#191816" stroke-linecap="round" stroke-linejoin="round"/><path d="m50.67 36.28v-3.45a2.76 2.76 0 0 1 5.52 0v3.45" fill="none" stroke="#191816" stroke-linecap="round" stroke-linejoin="round"/><path d="m32.32 44.56a2.76 2.76 0 0 0 -2.64 3.57l3.83 12.42a2.75 2.75 0 0 0 2.63 2h25.58a1 1 0 0 1 0-.29l3.78-17.7z" fill="#ff6242"/><path d="m29.67 46.63h35.39l.44-2.07h-33.18a2.74 2.74 0 0 0 -2.65 2.07z" fill="#ff866e"/><path d="m42.39 73.54a2.76 2.76 0 1 1 -2.76-2.76 2.77 2.77 0 0 1 2.76 2.76z" fill="#8ca4b8" stroke="#191816" stroke-miterlimit="10"/><path d="m65.85 73.54a2.76 2.76 0 1 1 -2.76-2.76 2.77 2.77 0 0 1 2.76 2.76z" fill="#8ca4b8" stroke="#191816" stroke-miterlimit="10"/><path d="m32.32 44.56a2.76 2.76 0 0 0 -2.64 3.57l3.83 12.42a2.75 2.75 0 0 0 2.63 2h25.58a1 1 0 0 1 0-.29l3.78-17.7z" fill="none" stroke="#191816" stroke-linejoin="round"/><path d="m67.23 36.28h7.59a2.07 2.07 0 1 0 0-4.14h-4.82a2.75 2.75 0 0 0 -2.76 2.76z" fill="#ff6242"/><path d="m74.82 32.14h-4.82a2.76 2.76 0 0 0 -2.67 2.07h9.57a2.07 2.07 0 0 0 -2.08-2.07z" fill="#ff866e"/><g stroke="#191816"><path d="m66.46 63.36-1.84-1.42 5.47-25.66h-2.82l-5.53 25.93a1.36 1.36 0 0 0 .51 1.38l2.53 2a1.33 1.33 0 0 1 .47 1.53 1.35 1.35 0 0 1 -1.31.94h-28.45a1.38 1.38 0 0 0 0 2.76h28.45a4.14 4.14 0 0 0 2.52-7.42z" fill="#c0dceb" stroke-linejoin="round"/><path d="m67.23 36.28h7.59a2.07 2.07 0 1 0 0-4.14h-4.82a2.75 2.75 0 0 0 -2.76 2.76z" fill="none" stroke-linejoin="round"/><path d="m58.26 58.36h-21.39" fill="none" stroke-linecap="round" stroke-linejoin="round"/><path d="m59.29 54.22h-23.8" fill="none" stroke-linecap="round" stroke-linejoin="round"/><path d="m60.33 50.08h-26.22" fill="none" stroke-linecap="round" stroke-linejoin="round"/></g></svg>