<svg id="Multicolor" xmlns="http://www.w3.org/2000/svg" xmlns:xlink="http://www.w3.org/1999/xlink" viewBox="0 0 111 112"><defs><style>.cls-1,.cls-15,.cls-6,.cls-7{fill:none;}.cls-2{fill:#e8f4fa;}.cls-3{clip-path:url(#clip-path);}.cls-4{fill:#f0f0f0;}.cls-18,.cls-5{fill:#fff;}.cls-6{stroke:#656769;}.cls-10,.cls-11,.cls-6,.cls-7{stroke-linecap:round;}.cls-10,.cls-11,.cls-15,.cls-18,.cls-22,.cls-6,.cls-7{stroke-linejoin:round;}.cls-10,.cls-11,.cls-15,.cls-18,.cls-22,.cls-7{stroke:#191816;}.cls-10,.cls-8{fill:#ffda8f;}.cls-9{fill:#ffbe3d;}.cls-11{fill:#915e3a;}.cls-12{fill:#ffe9bd;}.cls-13{fill:#00b8f0;}.cls-14{fill:#4acfff;}.cls-16{fill:#724f3d;}.cls-17{fill:#a86c4d;}.cls-19{font-size:7.04px;fill:#ff8a14;font-family:VAGRoundedStd-Bold, VAG Rounded Std;font-weight:700;}.cls-20{fill:#ff6196;}.cls-21{fill:#ff6242;}.cls-22{fill:#c0dceb;}</style><clipPath id="clip-path"><circle class="cls-1" cx="50.34" cy="56" r="40"/></clipPath></defs><title>08- java-script-developer</title><g id="Background"><g id="New_Symbol_51-7" data-name="New Symbol 51"><circle class="cls-2" cx="50.34" cy="56" r="40"/></g></g><g id="Scene"><g class="cls-3"><path class="cls-4" d="M74.34,89a15.5,15.5,0,0,0-31,0v2.5h6v5h19v-5h6Z"/><path class="cls-5" d="M58.84,73.5A15.5,15.5,0,0,0,43.34,89v2.5h.07a15.5,15.5,0,0,1,30.86,0h.07V89A15.5,15.5,0,0,0,58.84,73.5Z"/><line class="cls-6" x1="49.34" y1="94.5" x2="68.34" y2="94.5"/><line class="cls-6" x1="43.34" y1="91.5" x2="74.34" y2="91.5"/><line class="cls-6" x1="43.34" y1="88.5" x2="74.34" y2="88.5"/><line class="cls-6" x1="43.74" y1="85.5" x2="73.94" y2="85.5"/><line class="cls-6" x1="44.76" y1="82.5" x2="72.91" y2="82.5"/><line class="cls-6" x1="46.59" y1="79.5" x2="71.09" y2="79.5"/><line class="cls-6" x1="49.68" y1="76.5" x2="68" y2="76.5"/><path class="cls-7" d="M74.34,89a15.5,15.5,0,0,0-31,0v2.5h6v5h19v-5h6Z"/><line class="cls-7" x1="49.34" y1="87.5" x2="49.34" y2="91.5"/><line class="cls-7" x1="68.34" y1="87.5" x2="68.34" y2="91.5"/><path class="cls-8" d="M55.34,74a3.5,3.5,0,0,0,7,0V70.5h-7Z"/><path class="cls-9" d="M55.34,74a12.26,12.26,0,0,0,7,0V70.5h-7Z"/><path class="cls-7" d="M55.34,74V70.5h7V74a3.5,3.5,0,0,1-7,0Z"/><rect class="cls-10" x="68.34" y="91.5" width="5" height="5"/><path class="cls-11" d="M49.34,95.5v1h5C57.88,93.66,66.69,83,69.26,77.89A1,1,0,0,0,69,76.68a15.92,15.92,0,0,0-2.61-1.76,1,1,0,0,0-1.44.56C63.64,79.89,59.14,87.74,49.34,95.5Z"/><path class="cls-8" d="M68.84,60V57.5a10,10,0,0,0-20,0V60a2,2,0,0,0,0,4H49a10,10,0,0,0,19.76,0h.12a2,2,0,0,0,0-4Z"/><path class="cls-12" d="M58.84,50.5a10.39,10.39,0,0,1,10,7.57V57.5a10,10,0,0,0-20,0v.57A10.39,10.39,0,0,1,58.84,50.5Z"/><path class="cls-7" d="M68.84,60V57.5a10,10,0,0,0-20,0V60a2,2,0,0,0,0,4H49a10,10,0,0,0,19.76,0h.12a2,2,0,0,0,0-4Z"/><circle class="cls-9" cx="53.09" cy="64.25" r="1.25"/><circle class="cls-9" cx="64.59" cy="64.25" r="1.25"/><path class="cls-7" d="M55.84,66.79a4.38,4.38,0,0,0,6,0"/><line class="cls-7" x1="61.84" y1="72.04" x2="61.84" y2="70"/><line class="cls-7" x1="55.84" y1="72.04" x2="55.84" y2="70"/><line class="cls-7" x1="63.34" y1="71.43" x2="63.34" y2="69.5"/><line class="cls-7" x1="54.34" y1="71.43" x2="54.34" y2="69.5"/><line class="cls-7" x1="64.84" y1="70.5" x2="64.84" y2="68.5"/><line class="cls-7" x1="52.84" y1="70.5" x2="52.84" y2="68.5"/><line class="cls-7" x1="66.34" y1="69.1" x2="66.34" y2="67.5"/><line class="cls-7" x1="51.34" y1="69.1" x2="51.34" y2="67.5"/><line class="cls-7" x1="57.84" y1="59.5" x2="59.84" y2="59.5"/><line class="cls-7" x1="66.84" y1="60" x2="68.84" y2="60"/><line class="cls-7" x1="48.84" y1="60" x2="50.84" y2="60"/><path class="cls-10" d="M46.34,91.5a2,2,0,0,1-2-2V84l.89-.45a2,2,0,0,0,1.11-1.79V81.5a2,2,0,0,0-2-2V74a1.5,1.5,0,0,0-3,0v5.5h-3v2.79c0,1,.5,1.21.5,1.21a1.7,1.7,0,0,1,.5,1.21v7.57a5.16,5.16,0,0,0,4.5,5.2,5,5,0,0,0,5.5-5v-1Z"/><path class="cls-8" d="M40.19,83.69l2.58-.64A1.91,1.91,0,0,0,44,80.68l-.24-1a1.9,1.9,0,0,0-2.21-1.51L39,78.84a1.9,1.9,0,0,0-1.24,2.37l.25,1A1.89,1.89,0,0,0,40.19,83.69Z"/><path class="cls-12" d="M37.87,81.7a2.07,2.07,0,0,1,1.4-1.17l3-.75a2.09,2.09,0,0,1,1.56.21l-.07-.28a1.9,1.9,0,0,0-2.21-1.51L39,78.84a1.89,1.89,0,0,0-1.23,2.37Z"/><path class="cls-7" d="M40.19,83.69l2.58-.64A1.91,1.91,0,0,0,44,80.68l-.24-1a1.9,1.9,0,0,0-2.21-1.51L39,78.84a1.9,1.9,0,0,0-1.24,2.37l.25,1A1.89,1.89,0,0,0,40.19,83.69Z"/><path class="cls-13" d="M51.34,58.5h6a.5.5,0,0,1,.5.5v2a2,2,0,0,1-2,2h-4a1,1,0,0,1-1-1V59A.5.5,0,0,1,51.34,58.5Z"/><path class="cls-14" d="M56.41,58.5,51.91,63h-.07a1,1,0,0,1-1-1V59a.5.5,0,0,1,.5-.5Z"/><path class="cls-13" d="M66.84,59v3a1,1,0,0,1-1,1h-4a1.92,1.92,0,0,1-.72-.14A2,2,0,0,1,59.84,61V59a.5.5,0,0,1,.5-.5h6A.5.5,0,0,1,66.84,59Z"/><path class="cls-14" d="M65.48,58.5l-4.36,4.36A2,2,0,0,1,59.84,61V59a.5.5,0,0,1,.5-.5Z"/><path class="cls-7" d="M51.34,58.5h6a.5.5,0,0,1,.5.5v2a2,2,0,0,1-2,2h-4a1,1,0,0,1-1-1V59A.5.5,0,0,1,51.34,58.5Z"/><path class="cls-7" d="M60.84,58.5h4a2,2,0,0,1,2,2v2a.5.5,0,0,1-.5.5h-6a.5.5,0,0,1-.5-.5v-3A1,1,0,0,1,60.84,58.5Z" transform="translate(126.68 121.5) rotate(180)"/><path class="cls-7" d="M55.85,61a1.63,1.63,0,0,0-3,0"/><path class="cls-7" d="M64.84,61a1.63,1.63,0,0,0-3,0"/></g><path class="cls-5" d="M20.36,32.17A2.17,2.17,0,0,1,22.53,30H46.38a2.17,2.17,0,0,1,2.16,2.17V49a2.17,2.17,0,0,1-2.16,2.17H38.79v2.39A1.25,1.25,0,0,1,38,54.69a1.23,1.23,0,0,1-1.36-.27l-3.28-3.28H22.53A2.17,2.17,0,0,1,20.36,49Z"/><path class="cls-15" d="M20.36,32.17A2.17,2.17,0,0,1,22.53,30H46.38a2.17,2.17,0,0,1,2.16,2.17V49a2.17,2.17,0,0,1-2.16,2.17H38.79v2.39A1.25,1.25,0,0,1,38,54.69a1.23,1.23,0,0,1-1.36-.27l-3.28-3.28H22.53A2.17,2.17,0,0,1,20.36,49Z"/><path class="cls-16" d="M67.84,47h-1.5V44a6.1,6.1,0,0,1-3.5,1.5c-1.85,0-4.78-.59-8,1a8.06,8.06,0,0,0-4,5h0a10,10,0,0,1,3-2.64C54,50.05,56.39,51,59.34,51c2.51,0,4.62-.69,5.28-1.63a10.18,10.18,0,0,1,3.19,3.73.29.29,0,0,0,0-.1,22.38,22.38,0,0,0-.5-3.5Z"/><path class="cls-17" d="M66.34,47v.63a.87.87,0,0,0,.86.87h.34l.3-1.5Z"/><path class="cls-17" d="M52.64,49.7a7.16,7.16,0,0,1,2.2-1.7c3.22-1.59,6.15-1,8-1a6.1,6.1,0,0,0,3.5-1.5V44a6.1,6.1,0,0,1-3.5,1.5c-1.85,0-4.78-.59-8,1a8.06,8.06,0,0,0-4,5h0A9.54,9.54,0,0,1,52.64,49.7Z"/><path class="cls-7" d="M67.82,53.1a25.83,25.83,0,0,0-.48-3.6l.5-2.5h-1.5V44a6.1,6.1,0,0,1-3.5,1.5c-1.85,0-4.78-.59-8,1a8.06,8.06,0,0,0-4,5A10.05,10.05,0,0,1,53,49.42a1,1,0,0,1,1.25.16C55,50.41,57,51,59.34,51a8.63,8.63,0,0,0,4.83-1.18.91.91,0,0,1,1.12.07A10,10,0,0,1,67.82,53.1Z"/><path class="cls-18" d="M104,24.52A3.53,3.53,0,0,0,100.48,21H67.36a3.52,3.52,0,0,0-3.52,3.52V43.75a3.52,3.52,0,0,0,3.52,3.52h7.92v5.27a1.46,1.46,0,0,0,2.49,1l6.3-6.3h16.41A3.53,3.53,0,0,0,104,43.75Z"/><text class="cls-19" transform="translate(69 28.5)">&lt;scr ipt&gt;<tspan class="cls-20"><tspan x="0" y="7.18">var i = 10;</tspan></tspan><tspan class="cls-21"><tspan x="0" y="14.36">&lt;/script&gt;</tspan></tspan></text><path class="cls-22" d="M39.87,40.51a5.48,5.48,0,0,0-.29-1.68l.82-.49A1,1,0,0,0,40.75,37l-.21-.35a1,1,0,0,0-.62-.45,1.06,1.06,0,0,0-.76.11l-.81.49a5.39,5.39,0,0,0-2.7-1.52v-1a1,1,0,0,0-1-1h-.4a1,1,0,0,0-1,1v1a5.39,5.39,0,0,0-2.7,1.52l-.81-.49a1.06,1.06,0,0,0-.76-.11,1,1,0,0,0-.61.45l-.21.35a1,1,0,0,0,.34,1.38l.83.49A5.2,5.2,0,0,0,29,40.51a5.14,5.14,0,0,0,.29,1.67l-.83.5a1,1,0,0,0-.34,1.37l.21.35a1,1,0,0,0,1.37.34l.81-.49a5.41,5.41,0,0,0,2.7,1.53v.95a1,1,0,0,0,1,1h.4a1,1,0,0,0,1-1v-.95a5.41,5.41,0,0,0,2.7-1.53l.81.49a1,1,0,0,0,.76.12,1,1,0,0,0,.62-.46l.21-.35a1,1,0,0,0-.35-1.37l-.82-.5A5.42,5.42,0,0,0,39.87,40.51Zm-5.42,2.4a2.41,2.41,0,1,1,2.41-2.4A2.39,2.39,0,0,1,34.45,42.91Z"/></g></svg>