<svg id="Multicolor" xmlns="http://www.w3.org/2000/svg" viewBox="0 0 100 112"><defs><style>.cls-1{fill:#e8f4fa;}.cls-2{fill:#191816;opacity:0.15;}.cls-3{fill:#6dd627;}.cls-11,.cls-12,.cls-13,.cls-3,.cls-4,.cls-7,.cls-8{stroke:#191816;}.cls-3,.cls-4,.cls-7,.cls-8{stroke-linecap:round;}.cls-12,.cls-13,.cls-3,.cls-4,.cls-7,.cls-8{stroke-linejoin:round;}.cls-4{fill:#e4ffd1;}.cls-5{fill:#ffe500;}.cls-6{fill:#fff48c;}.cls-7{fill:#00b8f0;}.cls-12,.cls-8{fill:none;}.cls-9{fill:#ff6242;}.cls-10{fill:#ff866e;}.cls-11{fill:#8ca4b8;stroke-miterlimit:10;}.cls-13{fill:#c0dceb;}</style></defs><title>08- shopping-cart-full</title><g id="Background"><g id="New_Symbol_2" data-name="New Symbol 2"><circle class="cls-1" cx="50" cy="56" r="40"/></g></g><g id="Scene"><ellipse class="cls-2" cx="51.82" cy="84.08" rx="17.25" ry="1.72"/><path class="cls-3" d="M46.69,60.78,44,61.11a1.37,1.37,0,0,1-1.53-1.21l-3.78-30a1.37,1.37,0,0,1,1.21-1.53L42.59,28a1.37,1.37,0,0,1,1.53,1.2l3.78,30A1.38,1.38,0,0,1,46.69,60.78Z"/><polygon class="cls-4" points="39.32 35.24 44.8 34.65 44.46 31.88 38.97 32.47 39.32 35.24"/><path class="cls-5" d="M61,48.7H45.86a1.15,1.15,0,0,1-1.13-1.38L47,35.82a1.15,1.15,0,0,1,1.13-.92H58.69a1.15,1.15,0,0,1,1.13.92l2.3,11.5A1.15,1.15,0,0,1,61,48.7Z"/><path class="cls-6" d="M60.33,38.35l-.51-2.53a1.15,1.15,0,0,0-1.13-.92H48.16a1.15,1.15,0,0,0-1.13.92l-.5,2.53Z"/><circle class="cls-7" cx="38.59" cy="46.28" r="5.18"/><path class="cls-8" d="M61,48.7H45.86a1.15,1.15,0,0,1-1.13-1.38L47,35.82a1.15,1.15,0,0,1,1.13-.92H58.69a1.15,1.15,0,0,1,1.13.92l2.3,11.5A1.15,1.15,0,0,1,61,48.7Z"/><path class="cls-8" d="M50.67,36.28V32.83a2.76,2.76,0,0,1,5.52,0v3.45"/><path class="cls-9" d="M32.32,44.56a2.76,2.76,0,0,0-2.64,3.57l3.83,12.42a2.75,2.75,0,0,0,2.63,2H61.72a1,1,0,0,1,0-.29L65.5,44.56Z"/><path class="cls-10" d="M29.67,46.63H65.06l.44-2.07H32.32A2.74,2.74,0,0,0,29.67,46.63Z"/><path class="cls-11" d="M42.39,73.54a2.76,2.76,0,1,1-2.76-2.76A2.77,2.77,0,0,1,42.39,73.54Z"/><path class="cls-11" d="M65.85,73.54a2.76,2.76,0,1,1-2.76-2.76A2.77,2.77,0,0,1,65.85,73.54Z"/><path class="cls-12" d="M32.32,44.56a2.76,2.76,0,0,0-2.64,3.57l3.83,12.42a2.75,2.75,0,0,0,2.63,2H61.72a1,1,0,0,1,0-.29L65.5,44.56Z"/><path class="cls-9" d="M67.23,36.28h7.59a2.07,2.07,0,1,0,0-4.14H70a2.75,2.75,0,0,0-2.76,2.76Z"/><path class="cls-10" d="M74.82,32.14H70a2.76,2.76,0,0,0-2.67,2.07h9.57A2.07,2.07,0,0,0,74.82,32.14Z"/><path class="cls-13" d="M66.46,63.36l-1.84-1.42,5.47-25.66H67.27L61.74,62.21a1.36,1.36,0,0,0,.51,1.38l2.53,2a1.33,1.33,0,0,1,.47,1.53,1.35,1.35,0,0,1-1.31.94H35.49a1.38,1.38,0,0,0,0,2.76H63.94a4.14,4.14,0,0,0,2.52-7.42Z"/><path class="cls-12" d="M67.23,36.28h7.59a2.07,2.07,0,1,0,0-4.14H70a2.75,2.75,0,0,0-2.76,2.76Z"/><line class="cls-8" x1="58.26" y1="58.36" x2="36.87" y2="58.36"/><line class="cls-8" x1="59.29" y1="54.22" x2="35.49" y2="54.22"/><line class="cls-8" x1="60.33" y1="50.08" x2="34.11" y2="50.08"/></g></svg>