<svg viewBox="0 0 100 112" xmlns="http://www.w3.org/2000/svg"><path d="m90 56.06a40 40 0 1 0 -76.43 16.5h72.87a39.92 39.92 0 0 0 3.56-16.5z" fill="#e8f4fa"/><path d="m13.57 72.56a40 40 0 0 0 72.87 0z" fill="#fff"/><path d="m11 72.56h78" fill="none" stroke="#191816" stroke-linecap="round" stroke-linejoin="round"/><path d="m6.5 72.56h2.5" fill="none" stroke="#191816" stroke-linecap="round" stroke-linejoin="round"/><path d="m91 72.56h2.5" fill="none" stroke="#191816" stroke-linecap="round" stroke-linejoin="round"/><ellipse cx="35.64" cy="81.4" fill="#191816" opacity=".15" rx="14.7" ry="1.58"/><path d="m75.85 45.91a2.54 2.54 0 0 0 -.91.18 4.18 4.18 0 0 0 -8.26 0 2.52 2.52 0 1 0 -.91 4.91h10.08a2.52 2.52 0 1 0 0-5z" fill="#fff" stroke="#191816" stroke-linejoin="round"/><path d="m75.85 45.91a2.54 2.54 0 0 0 -.91.18 4.18 4.18 0 0 0 -8.26 0 2.52 2.52 0 1 0 -.91 4.91h10.08a2.52 2.52 0 1 0 0-5z" fill="#fff" stroke="#191816" stroke-linejoin="round"/><path d="m44.67 33.86a1 1 0 0 0 -.52.51 1 1 0 0 0 0 .73l.29.68a15.25 15.25 0 0 0 12.31.22l16-6.64a2.3 2.3 0 0 0 1.25-3 2.2 2.2 0 0 0 -.7-.92 6.23 6.23 0 0 0 -6.3-.87l-17.23 7.17a1 1 0 0 1 -1.13-.21l-2.74-2.64a1.05 1.05 0 0 0 -1.13-.22l-1 .4a1 1 0 0 0 -.56 1.37z" fill="#ff6242"/><path d="m44.67 33.86a1 1 0 0 0 -.52.51 1 1 0 0 0 0 .73l.29.68a15.25 15.25 0 0 0 12.31.22l16-6.64a2.3 2.3 0 0 0 1.25-3 2.2 2.2 0 0 0 -.7-.92 6.23 6.23 0 0 0 -6.3-.87l-17.23 7.17a1 1 0 0 1 -1.13-.21l-2.74-2.64a1.05 1.05 0 0 0 -1.13-.22l-1 .4a1 1 0 0 0 -.56 1.37z" fill="#ff6242"/><path d="m67 24.57-17.23 7.17a1 1 0 0 1 -1.13-.21l-2.74-2.64a1.05 1.05 0 0 0 -1.13-.22l-1 .4a1 1 0 0 0 -.56 1.37l1.42 3.42a1 1 0 0 0 -.52.51 1 1 0 0 0 0 .73l.21.5 27-11.18a6.22 6.22 0 0 0 -4.32.15z" fill="#ff866e"/><path d="m71.16 30.06-14.41 5.94a15.24 15.24 0 0 1 -8.43.93l17.46-7.24a6.2 6.2 0 0 1 5.38.37z" fill="#fff" stroke="#191816" stroke-linecap="round" stroke-linejoin="round"/><path d="m54.8 29.65-5.23-3.22a1.05 1.05 0 0 1 .15-1.87l1.65-.68a1 1 0 0 1 .8 0l8.29 3.42z" fill="#f0f0f0" stroke="#191816" stroke-linecap="round" stroke-linejoin="round"/><path d="m44.67 33.86a1 1 0 0 0 -.52.51 1 1 0 0 0 0 .73l.29.68a15.25 15.25 0 0 0 12.31.22l16-6.64a2.3 2.3 0 0 0 1.25-3 2.2 2.2 0 0 0 -.7-.92 6.23 6.23 0 0 0 -6.3-.87l-17.23 7.17a1 1 0 0 1 -1.13-.21l-2.74-2.64a1.05 1.05 0 0 0 -1.13-.22l-1 .4a1 1 0 0 0 -.56 1.37z" fill="none" stroke="#191816" stroke-linecap="round" stroke-linejoin="round"/><path d="m55.14 41.6a1 1 0 0 0 .34 1 1 1 0 0 0 1.08.17l1.65-.68a1.06 1.06 0 0 0 .57-.57l4.45-10.77-6.14 2.55z" fill="#f0f0f0" stroke="#191816" stroke-linecap="round" stroke-linejoin="round"/><path d="m69.36 26.75a2.89 2.89 0 0 1 -3.77-1.58l.58-.24 1-.38a6.18 6.18 0 0 1 5.88.72z" fill="#00b8f0"/><path d="m67.12 24.55-1 .38-.58.24a2.86 2.86 0 0 0 1.56 1.57c.09 0 .19.06.28.09l2.67-2.67a6 6 0 0 0 -2.93.39z" fill="#4acfff"/><path d="m69.36 26.75a2.89 2.89 0 0 1 -3.77-1.58l.58-.24 1-.38a6.18 6.18 0 0 1 5.88.72z" fill="none" stroke="#191816" stroke-linecap="round" stroke-linejoin="round"/><rect fill="#f0d5a8" height="31.5" rx="1" width="30.24" x="20.83" y="48.85"/><path d="m50 48.85h-28.12a1 1 0 0 0 -1.05 1v3.29a1 1 0 0 1 1.05-1h28.12a1 1 0 0 1 1 1v-3.24a1 1 0 0 0 -1-1.05z" fill="#fff5e3" opacity=".7"/><g stroke="#191816" stroke-linecap="round" stroke-linejoin="round"><rect fill="none" height="31.5" rx="1" width="30.24" x="20.83" y="48.85"/><path d="m32.17 48.85h7.56a0 0 0 0 1 0 0v11.6a1 1 0 0 1 -1 1h-5.56a1 1 0 0 1 -1-1v-11.6a0 0 0 0 1 0 0z" fill="#fff"/><path d="m27.13 71.53v5.67" fill="none"/><path d="m24.61 74.05 2.52-2.52 2.52 2.52" fill="none"/><path d="m34.69 71.53v5.67" fill="none"/><path d="m32.17 74.05 2.52-2.52 2.52 2.52" fill="none"/></g></svg>