<svg id="Multicolor" xmlns="http://www.w3.org/2000/svg" xmlns:xlink="http://www.w3.org/1999/xlink" viewBox="0 0 100 112"><defs><style>.cls-1,.cls-20,.cls-28,.cls-6{fill:none;}.cls-2{fill:#e8f4fa;}.cls-3{fill:#bdbec0;}.cls-23,.cls-4{fill:#191816;}.cls-4{opacity:0.15;}.cls-5{fill:#e0e0e0;}.cls-10,.cls-11,.cls-12,.cls-13,.cls-14,.cls-17,.cls-20,.cls-25,.cls-27,.cls-29,.cls-6,.cls-7{stroke:#191816;}.cls-10,.cls-11,.cls-12,.cls-13,.cls-14,.cls-17,.cls-20,.cls-27,.cls-28,.cls-29,.cls-6,.cls-7{stroke-linejoin:round;}.cls-7{fill:#87898c;}.cls-29,.cls-8{fill:#6dd627;}.cls-9{fill:#9ceb60;}.cls-10,.cls-16,.cls-27{fill:#fff;}.cls-11{fill:#ff6242;}.cls-12{fill:#ffe500;}.cls-13{fill:#00dba8;}.cls-14{fill:#627b8c;}.cls-15,.cls-17{fill:#fffef2;}.cls-18{clip-path:url(#clip-path);}.cls-19,.cls-25{fill:#ffcebf;}.cls-20,.cls-27,.cls-28,.cls-29{stroke-linecap:round;}.cls-21{fill:#00b8f0;}.cls-22{fill:#4acfff;}.cls-24{fill:#ffdcd1;}.cls-25{stroke-miterlimit:10;}.cls-26{fill:#009fd9;}.cls-28{stroke:#00aed9;}</style><clipPath id="clip-path"><circle class="cls-1" cx="50.31" cy="56" r="40"/></clipPath></defs><title>09- smartphone-payment</title><g id="Background"><g id="New_Symbol_1-8" data-name="New Symbol 1"><circle class="cls-2" cx="50.31" cy="56" r="40"/></g></g><g id="Scene"><rect class="cls-3" x="24.81" y="26.5" width="22" height="34.5" rx="4" ry="4"/><rect class="cls-4" x="24.81" y="26.5" width="22" height="36.5" rx="4" ry="4"/><path class="cls-5" d="M42.81,26.5h-14a4,4,0,0,0-4,4V34a4,4,0,0,1,4-4h14a4,4,0,0,1,4,4V30.5A4,4,0,0,0,42.81,26.5Z"/><rect class="cls-6" x="24.81" y="26.5" width="22" height="34.5" rx="4" ry="4"/><path class="cls-7" d="M26.81,40.5h18a0,0,0,0,1,0,0V59a2,2,0,0,1-2,2h-14a2,2,0,0,1-2-2V40.5A0,0,0,0,1,26.81,40.5Z"/><rect class="cls-8" x="26.81" y="35" width="18" height="7" rx="2" ry="2"/><path class="cls-9" d="M28.81,35a2,2,0,0,0-2,2v3a2,2,0,0,0,2,2H31l7-7Z"/><path class="cls-10" d="M42.81,45a1,1,0,0,1-1,1h-12a1,1,0,0,1,0-2h12A1,1,0,0,1,42.81,45Z"/><path class="cls-11" d="M33.31,58.5h-2.5a2,2,0,0,1-2-2V56h4.5Z"/><rect class="cls-12" x="33.31" y="56" width="5" height="2.5"/><path class="cls-13" d="M42.81,56.5a2,2,0,0,1-2,2h-2.5V56h4.5Z"/><rect class="cls-6" x="26.81" y="35" width="18" height="7" rx="2" ry="2"/><rect class="cls-14" x="27.81" y="29" width="16" height="3" rx="1" ry="1"/><path class="cls-15" d="M41.81,32H30.31V22.5a3,3,0,0,1,3-3h11a2.5,2.5,0,0,0-2.5,2.5Z"/><path class="cls-16" d="M33.31,22h8.5a2.5,2.5,0,0,1,2.5-2.5h-11a3,3,0,0,0-3,3v2C30.31,22.84,31.65,22,33.31,22Z"/><path class="cls-6" d="M41.81,32H30.31V22.5a3,3,0,0,1,3-3h11a2.5,2.5,0,0,0-2.5,2.5Z"/><path class="cls-17" d="M41.81,22a2.5,2.5,0,0,1,2.76-2.49,2.6,2.6,0,0,1,2.24,2.63V23a1,1,0,0,1-1,1h-4Z"/><rect class="cls-6" x="33.31" y="44" width="5" height="2"/><path class="cls-10" d="M42.81,49a1,1,0,0,1-1,1h-12a1,1,0,0,1,0-2h12A1,1,0,0,1,42.81,49Z"/><rect class="cls-6" x="33.31" y="48" width="5" height="2"/><path class="cls-10" d="M42.81,53a1,1,0,0,1-1,1h-12a1,1,0,0,1,0-2h12A1,1,0,0,1,42.81,53Z"/><rect class="cls-6" x="33.31" y="52" width="5" height="2"/><g class="cls-18"><path class="cls-19" d="M60.15,58.22a2.25,2.25,0,1,0-1.77,4.13l1.79.75a2.25,2.25,0,0,0-1.78,4.13l1.55.66A2.25,2.25,0,1,0,58.17,72l2.58,1.11A2.25,2.25,0,1,0,59,77.26l6.7,2.88c5.32,2.28,7.14.62,10.17,1.92l7.23,3.1L88.17,73.3l-3.58-1.54c-4.21-1.81-1.8-6.07-3.07-8.05-.76-1.2-4.36-5.86-4.36-5.86a2.24,2.24,0,1,0-3.6,2.68l2.67,3.59-.36.84Z"/><path class="cls-20" d="M60.15,58.22a2.25,2.25,0,1,0-1.77,4.13l1.79.75a2.25,2.25,0,0,0-1.78,4.13l1.55.66A2.25,2.25,0,1,0,58.17,72l2.58,1.11A2.25,2.25,0,1,0,59,77.26l6.7,2.88c5.32,2.28,7.14.62,10.17,1.92l7.23,3.1L88.17,73.3l-3.58-1.54c-4.21-1.81-1.8-6.07-3.07-8.05-.76-1.2-4.36-5.86-4.36-5.86a2.24,2.24,0,1,0-3.6,2.68l2.67,3.59-.36.84Z"/><rect class="cls-16" x="59.4" y="45.07" width="17.05" height="32.83" rx="2.27" ry="2.27" transform="translate(0.65 -0.72) rotate(0.61)"/><rect class="cls-21" x="59.4" y="50.15" width="17.05" height="22.66" transform="translate(0.65 -0.72) rotate(0.61)"/><polygon class="cls-22" points="59.42 59.35 69.29 50.17 59.52 50.06 59.42 59.35"/><rect class="cls-6" x="59.4" y="45.07" width="17.05" height="32.83" rx="2.27" ry="2.27" transform="translate(0.65 -0.72) rotate(0.61)"/><rect class="cls-6" x="59.4" y="50.15" width="17.05" height="22.66" transform="translate(0.65 -0.72) rotate(0.61)"/><line class="cls-20" x1="67.22" y1="47.6" x2="71.48" y2="47.65"/><path class="cls-23" d="M65.1,47.15a.43.43,0,0,0,0,.85h0a.42.42,0,0,0,.42-.42.42.42,0,0,0-.42-.43Z"/><path class="cls-19" d="M78.6,74.51A7.85,7.85,0,0,1,75.87,65l.36-.84-2.67-3.59a2.24,2.24,0,1,1,3.6-2.68s3.6,4.66,4.36,5.86c1.27,2-1.14,6.24,3.07,8.05l3.58,1.54-2.51,5.84"/><path class="cls-24" d="M78.5,74.43a1.6,1.6,0,0,0,.94-1,1.61,1.61,0,0,0-.18-1.37c-1.68-2.62-1.48-5.06-.49-7.61a1.13,1.13,0,0,0-.15-1.08l-2.29-3.08a2.25,2.25,0,0,1,.26-3,2.24,2.24,0,0,0-3,3.21l2.67,3.59-.36.84A7.85,7.85,0,0,0,78.5,74.43Z"/><path class="cls-20" d="M78.6,74.51A7.85,7.85,0,0,1,75.87,65l.36-.84-2.67-3.59a2.24,2.24,0,1,1,3.6-2.68s3.6,4.66,4.36,5.86c1.27,2-1.14,6.24,3.07,8.05l3.58,1.54-2.51,5.84"/><path class="cls-25" d="M64.44,67.38a2.25,2.25,0,0,1-2.95,1.18l-3.1-1.33a2.25,2.25,0,0,1,1.78-4.13l3.09,1.33A2.25,2.25,0,0,1,64.44,67.38Z"/><path class="cls-25" d="M64.21,72.17a2.24,2.24,0,0,1-2.95,1.18L58.17,72a2.25,2.25,0,1,1,1.77-4.13L63,69.22A2.24,2.24,0,0,1,64.21,72.17Z"/><path class="cls-25" d="M63.47,76.74a2.25,2.25,0,0,1-2.95,1.18L59,77.26a2.25,2.25,0,1,1,1.77-4.13l1.55.66A2.24,2.24,0,0,1,63.47,76.74Z"/><path class="cls-25" d="M63.37,62a2.25,2.25,0,0,1-2.95,1.18l-2-.87a2.25,2.25,0,1,1,1.77-4.13l2,.87A2.25,2.25,0,0,1,63.37,62Z"/><path class="cls-26" d="M82.71,86a1.12,1.12,0,0,0,.59,1.47l7,3.11A1.11,1.11,0,0,0,91.78,90l6-13.93a1.12,1.12,0,0,0-.59-1.47l-7-3.11a1.13,1.13,0,0,0-1.48.59Z"/><path class="cls-21" d="M88.69,72.09a1.13,1.13,0,0,1,1.48-.59l7,3.11a1.12,1.12,0,0,1,.59,1.47l-.67,1.55-9.07-4Z"/><path class="cls-6" d="M82.71,86a1.12,1.12,0,0,0,.59,1.47l7,3.11A1.11,1.11,0,0,0,91.78,90l6-13.93a1.12,1.12,0,0,0-.59-1.47l-7-3.11a1.13,1.13,0,0,0-1.48.59Z"/><path class="cls-27" d="M83.47,70.81h2.37a0,0,0,0,1,0,0V86a0,0,0,0,1,0,0H83.47a1,1,0,0,1-1-1V71.81a1,1,0,0,1,1-1Z" transform="translate(37.77 -26.85) rotate(23.24)"/><path class="cls-28" d="M73.81,36.83a8.47,8.47,0,0,0-12,0"/><path class="cls-28" d="M71.72,38.91a5.53,5.53,0,0,0-7.82,0"/><path class="cls-28" d="M69.64,41A2.58,2.58,0,0,0,66,41"/><polyline class="cls-20" points="35.81 64 35.81 79 54.31 79"/><path class="cls-16" d="M48.81,78.25A9.25,9.25,0,1,1,39.56,69,9.25,9.25,0,0,1,48.81,78.25Z"/><path class="cls-20" d="M48.81,78.25A9.25,9.25,0,1,1,39.56,69,9.25,9.25,0,0,1,48.81,78.25Z"/><path class="cls-29" d="M38.31,82.4a1.73,1.73,0,0,1-1.23-.51l-2.32-2.32a1.74,1.74,0,1,1,2.46-2.45l1.09,1.09,3.84-3.85a1.74,1.74,0,0,1,2.46,2.45l-5.08,5.08A1.72,1.72,0,0,1,38.31,82.4Z"/></g></g></svg>