<svg id="Multicolor" xmlns="http://www.w3.org/2000/svg" viewBox="0 0 100 112"><defs><style>.cls-1{fill:#e8f4fa;}.cls-2,.cls-9{fill:#ffe500;}.cls-3{fill:#ebcb00;}.cls-4,.cls-8{fill:none;stroke-linejoin:round;}.cls-4,.cls-8,.cls-9{stroke:#191816;}.cls-5{fill:#191816;opacity:0.15;}.cls-6{fill:#ff6242;}.cls-7{fill:#ff866e;}.cls-8{stroke-linecap:round;}.cls-9{stroke-miterlimit:10;}</style></defs><title>09- price-tag</title><g id="Background"><g id="New_Symbol_1-2" data-name="New Symbol 1"><circle class="cls-1" cx="50" cy="56" r="40"/></g></g><g id="Scene"><path class="cls-2" d="M41.29,32.25a1.39,1.39,0,0,0-1.38,1.39V49.25a1.38,1.38,0,0,0,.4,1L61,70.94a3.18,3.18,0,0,0,4.55,0L78.94,57.63a2.76,2.76,0,0,0,0-4l-21-21a1.43,1.43,0,0,0-1-.41ZM49.67,42a4.14,4.14,0,1,1,0-5.85A4.14,4.14,0,0,1,49.67,42Z"/><path class="cls-3" d="M65.58,71l7-7L50.11,41.48a4.42,4.42,0,0,1-.44.53,4.14,4.14,0,0,1-5.86-5.85,3.71,3.71,0,0,1,.54-.44L41,32.32a1.37,1.37,0,0,0-1,1.32V49.25a1.38,1.38,0,0,0,.4,1L61,70.94A3.18,3.18,0,0,0,65.58,71Z"/><path class="cls-4" d="M41.29,32.25a1.39,1.39,0,0,0-1.38,1.39V49.25a1.38,1.38,0,0,0,.4,1L61,70.94a3.18,3.18,0,0,0,4.55,0L78.94,57.63a2.76,2.76,0,0,0,0-4l-21-21a1.43,1.43,0,0,0-1-.41ZM49.67,42a4.14,4.14,0,1,1,0-5.85A4.14,4.14,0,0,1,49.67,42Z"/><ellipse class="cls-5" cx="48.45" cy="83.55" rx="17.25" ry="1.73"/><path class="cls-6" d="M47.71,30.4a1.38,1.38,0,0,0-2,0l-11,11a1.38,1.38,0,0,0-.4,1V71.71A3.18,3.18,0,0,0,37.5,75H56.4a2.76,2.76,0,0,0,2.76-2.82V42.42a1.39,1.39,0,0,0-.41-1Zm-1,12.82a4.14,4.14,0,1,1,4.14-4.14A4.14,4.14,0,0,1,46.74,43.22Z"/><path class="cls-7" d="M47.36,43.16a4.2,4.2,0,0,1-.62.06,4.14,4.14,0,1,1,0-8.28,4.2,4.2,0,0,1,.62.07V30.17a1.37,1.37,0,0,0-1.6.23l-11,11a1.38,1.38,0,0,0-.4,1V71.71A3.18,3.18,0,0,0,37.5,75h9.86Z"/><path class="cls-8" d="M41.31,29.75a3.25,3.25,0,0,0-5.14-1,3.26,3.26,0,0,0,.6,5.22l10,5.08Z"/><path class="cls-4" d="M47.71,30.4a1.38,1.38,0,0,0-2,0l-11,11a1.38,1.38,0,0,0-.4,1V71.71A3.18,3.18,0,0,0,37.5,75H56.4a2.76,2.76,0,0,0,2.76-2.82V42.42a1.39,1.39,0,0,0-.41-1Zm-1,12.82a4.14,4.14,0,1,1,4.14-4.14A4.14,4.14,0,0,1,46.74,43.22Z"/><path class="cls-9" d="M46.74,68.67a1.59,1.59,0,0,1-1.59-1.59v-.86a4.84,4.84,0,0,1-3.24-4.54,1.59,1.59,0,1,1,3.18,0A1.65,1.65,0,1,0,46.73,60a4.82,4.82,0,0,1-1.58-9.37v-.85a1.56,1.56,0,0,1,.46-1.13,1.58,1.58,0,0,1,1.12-.47,1.61,1.61,0,0,1,1.6,1.59v.86a4.7,4.7,0,0,1,1.82,1.13,4.8,4.8,0,0,1,1.42,3.41,1.59,1.59,0,1,1-3.18,0,1.67,1.67,0,0,0-1.65-1.65,1.65,1.65,0,0,0-1.65,1.65,1.64,1.64,0,0,0,1.64,1.65,4.81,4.81,0,0,1,1.6,9.37v.86a1.59,1.59,0,0,1-1.59,1.59Z"/></g></svg>