<svg id="Multicolor" xmlns="http://www.w3.org/2000/svg" viewBox="0 0 100 112"><defs><style>.cls-1{fill:#e8f4fa;}.cls-2,.cls-5,.cls-8{fill:#fff;}.cls-3{fill:none;}.cls-3,.cls-5,.cls-8,.cls-9{stroke:#191816;stroke-linejoin:round;}.cls-3,.cls-8,.cls-9{stroke-linecap:round;}.cls-4{fill:#191816;opacity:0.15;}.cls-6{fill:#ff6242;}.cls-7{fill:#ff866e;}.cls-9{fill:#f0f0f0;}.cls-10{fill:#00b8f0;}.cls-11{fill:#4acfff;}.cls-12{fill:#f0d5a8;}.cls-13{fill:#fff5e3;opacity:0.7;}</style></defs><title>09- package-logistic-airplane</title><g id="Background"><g id="New_Symbol_29" data-name="New Symbol 29"><path class="cls-1" d="M90,56.06a40,40,0,1,0-76.43,16.5H86.44A39.92,39.92,0,0,0,90,56.06Z"/><path class="cls-2" d="M13.57,72.56a40,40,0,0,0,72.87,0Z"/><line class="cls-3" x1="11" y1="72.56" x2="89" y2="72.56"/><line class="cls-3" x1="6.5" y1="72.56" x2="9" y2="72.56"/><line class="cls-3" x1="91" y1="72.56" x2="93.5" y2="72.56"/></g></g><g id="Scene"><ellipse class="cls-4" cx="35.64" cy="81.4" rx="14.7" ry="1.58"/><path class="cls-5" d="M75.85,45.91a2.54,2.54,0,0,0-.91.18,4.18,4.18,0,0,0-8.26,0A2.52,2.52,0,1,0,65.77,51H75.85a2.52,2.52,0,1,0,0-5Z"/><path class="cls-5" d="M75.85,45.91a2.54,2.54,0,0,0-.91.18,4.18,4.18,0,0,0-8.26,0A2.52,2.52,0,1,0,65.77,51H75.85a2.52,2.52,0,1,0,0-5Z"/><path class="cls-6" d="M44.67,33.86a1,1,0,0,0-.52.51,1,1,0,0,0,0,.73l.29.68A15.25,15.25,0,0,0,56.75,36l16-6.64a2.3,2.3,0,0,0,1.25-3,2.2,2.2,0,0,0-.7-.92A6.23,6.23,0,0,0,67,24.57L49.77,31.74a1,1,0,0,1-1.13-.21L45.9,28.89a1.05,1.05,0,0,0-1.13-.22l-1,.4a1,1,0,0,0-.56,1.37Z"/><path class="cls-6" d="M44.67,33.86a1,1,0,0,0-.52.51,1,1,0,0,0,0,.73l.29.68A15.25,15.25,0,0,0,56.75,36l16-6.64a2.3,2.3,0,0,0,1.25-3,2.2,2.2,0,0,0-.7-.92A6.23,6.23,0,0,0,67,24.57L49.77,31.74a1,1,0,0,1-1.13-.21L45.9,28.89a1.05,1.05,0,0,0-1.13-.22l-1,.4a1,1,0,0,0-.56,1.37Z"/><path class="cls-7" d="M67,24.57,49.77,31.74a1,1,0,0,1-1.13-.21L45.9,28.89a1.05,1.05,0,0,0-1.13-.22l-1,.4a1,1,0,0,0-.56,1.37l1.42,3.42a1,1,0,0,0-.52.51,1,1,0,0,0,0,.73l.21.5,27-11.18A6.22,6.22,0,0,0,67,24.57Z"/><path class="cls-8" d="M71.16,30.06,56.75,36a15.24,15.24,0,0,1-8.43.93l17.46-7.24A6.2,6.2,0,0,1,71.16,30.06Z"/><path class="cls-9" d="M54.8,29.65l-5.23-3.22a1.05,1.05,0,0,1,.15-1.87l1.65-.68a1,1,0,0,1,.8,0l8.29,3.42Z"/><path class="cls-3" d="M44.67,33.86a1,1,0,0,0-.52.51,1,1,0,0,0,0,.73l.29.68A15.25,15.25,0,0,0,56.75,36l16-6.64a2.3,2.3,0,0,0,1.25-3,2.2,2.2,0,0,0-.7-.92A6.23,6.23,0,0,0,67,24.57L49.77,31.74a1,1,0,0,1-1.13-.21L45.9,28.89a1.05,1.05,0,0,0-1.13-.22l-1,.4a1,1,0,0,0-.56,1.37Z"/><path class="cls-9" d="M55.14,41.6a1,1,0,0,0,.34,1,1,1,0,0,0,1.08.17l1.65-.68a1.06,1.06,0,0,0,.57-.57l4.45-10.77-6.14,2.55Z"/><path class="cls-10" d="M69.36,26.75a2.89,2.89,0,0,1-3.77-1.58l.58-.24,1-.38a6.18,6.18,0,0,1,5.88.72Z"/><path class="cls-11" d="M67.12,24.55l-1,.38-.58.24a2.86,2.86,0,0,0,1.56,1.57c.09,0,.19.06.28.09l2.67-2.67A6,6,0,0,0,67.12,24.55Z"/><path class="cls-3" d="M69.36,26.75a2.89,2.89,0,0,1-3.77-1.58l.58-.24,1-.38a6.18,6.18,0,0,1,5.88.72Z"/><rect class="cls-12" x="20.83" y="48.85" width="30.24" height="31.5" rx="1" ry="1"/><path class="cls-13" d="M50,48.85H21.88a1,1,0,0,0-1.05,1v3.29a1,1,0,0,1,1.05-1H50a1,1,0,0,1,1,1V49.9A1,1,0,0,0,50,48.85Z"/><rect class="cls-3" x="20.83" y="48.85" width="30.24" height="31.5" rx="1" ry="1"/><path class="cls-8" d="M32.17,48.85h7.56a0,0,0,0,1,0,0v11.6a1,1,0,0,1-1,1H33.17a1,1,0,0,1-1-1V48.85A0,0,0,0,1,32.17,48.85Z"/><line class="cls-3" x1="27.13" y1="71.53" x2="27.13" y2="77.2"/><polyline class="cls-3" points="24.61 74.05 27.13 71.53 29.65 74.05"/><line class="cls-3" x1="34.69" y1="71.53" x2="34.69" y2="77.2"/><polyline class="cls-3" points="32.17 74.05 34.69 71.53 37.21 74.05"/></g></svg>