<svg id="Multicolor" xmlns="http://www.w3.org/2000/svg" viewBox="0 0 100 112"><defs><style>.cls-1{fill:#e8f4fa;}.cls-2{fill:#00b8f0;}.cls-3{fill:#4acfff;}.cls-14,.cls-4{fill:none;}.cls-10,.cls-11,.cls-13,.cls-14,.cls-17,.cls-18,.cls-19,.cls-4,.cls-7,.cls-8,.cls-9{stroke:#191816;}.cls-10,.cls-11,.cls-13,.cls-4,.cls-7,.cls-8,.cls-9{stroke-linecap:round;}.cls-10,.cls-11,.cls-13,.cls-17,.cls-18,.cls-19,.cls-4,.cls-7,.cls-8,.cls-9{stroke-linejoin:round;}.cls-5{fill:#adc4d9;}.cls-6{fill:#c0dceb;}.cls-17,.cls-7{fill:#ff6242;}.cls-18,.cls-8{fill:#ffe500;}.cls-19,.cls-9{fill:#6dd627;}.cls-10{fill:#e0e0e0;}.cls-11{fill:#fff;}.cls-12{fill:#191816;opacity:0.15;}.cls-13{fill:#f0f0f0;}.cls-14{stroke-miterlimit:10;}.cls-15{fill:#dea47a;}.cls-16{fill:#f0c2a1;}</style></defs><title>107- graph-webpage-landing-page</title><g id="Background"><g id="New_Symbol_53-4" data-name="New Symbol 53"><circle class="cls-1" cx="50.17" cy="56.17" r="40"/></g></g><g id="Scene"><path class="cls-2" d="M16.53,43.39H65.41a0,0,0,0,1,0,0V70.82a1.89,1.89,0,0,1-1.89,1.89H18.42a1.89,1.89,0,0,1-1.89-1.89V43.39A0,0,0,0,1,16.53,43.39Z"/><path class="cls-3" d="M50.45,43.39l-27,29.33h-4.6a2.32,2.32,0,0,1-2.3-2.35v-27Z"/><path class="cls-4" d="M16.53,43.39H65.41a0,0,0,0,1,0,0V70.82a1.89,1.89,0,0,1-1.89,1.89H18.42a1.89,1.89,0,0,1-1.89-1.89V43.39A0,0,0,0,1,16.53,43.39Z"/><path class="cls-5" d="M18.62,36.49h44.7a2.09,2.09,0,0,1,2.09,2.09v4.81a0,0,0,0,1,0,0H16.53a0,0,0,0,1,0,0V38.58A2.09,2.09,0,0,1,18.62,36.49Z"/><path class="cls-6" d="M63,36.49H18.93a2.41,2.41,0,0,0-2.4,2.4v2.88a2.4,2.4,0,0,1,2.4-2.4H63a2.4,2.4,0,0,1,2.41,2.4V38.89A2.41,2.41,0,0,0,63,36.49Z"/><path class="cls-4" d="M18.62,36.49h44.7a2.09,2.09,0,0,1,2.09,2.09v4.81a0,0,0,0,1,0,0H16.53a0,0,0,0,1,0,0V38.58A2.09,2.09,0,0,1,18.62,36.49Z"/><circle class="cls-7" cx="19.98" cy="39.94" r="1.15"/><circle class="cls-8" cx="24.58" cy="39.94" r="1.15"/><circle class="cls-9" cx="29.18" cy="39.94" r="1.15"/><rect class="cls-10" x="21.13" y="48.57" width="17.82" height="3.45" rx="1" ry="1"/><rect class="cls-10" x="21.13" y="54.89" width="17.82" height="3.45" rx="1" ry="1"/><rect class="cls-11" x="21.13" y="62.37" width="40.25" height="6.9" rx="1" ry="1"/><path class="cls-12" d="M63,36.49H34a22.29,22.29,0,0,0-.39,4A22,22,0,0,0,65.41,60.21V38.89A2.41,2.41,0,0,0,63,36.49Z"/><rect class="cls-13" x="68.11" y="50.32" width="4.77" height="8.35" transform="translate(-17.88 65.81) rotate(-45)"/><circle class="cls-13" cx="55.74" cy="40.58" r="17.89" transform="translate(-13.19 39.19) rotate(-34.9)"/><circle class="cls-2" cx="55.74" cy="40.58" r="14.31" transform="translate(-11.29 24.42) rotate(-22.5)"/><path class="cls-3" d="M65.87,30.47A14.31,14.31,0,1,0,45.63,50.71Z"/><path class="cls-14" d="M65.86,30.46a14.31,14.31,0,1,1-20.24,0A14.33,14.33,0,0,1,65.86,30.46Z"/><path class="cls-15" d="M79,53.72h1.13a3,3,0,0,1,3,3V72.39a1,1,0,0,1-1,1H77a1,1,0,0,1-1-1V56.73a3,3,0,0,1,3-3Z" transform="translate(180.75 52.2) rotate(134.98)"/><path class="cls-16" d="M74.32,54.88l-1.73,1.73,13.9,13.92.11-.1a3.47,3.47,0,0,0,0-4.9L76,54.88A1.15,1.15,0,0,0,74.32,54.88Z"/><path class="cls-14" d="M77,53.72h5.15a1,1,0,0,1,1,1V70.38a3,3,0,0,1-3,3H79a3,3,0,0,1-3-3V54.72A1,1,0,0,1,77,53.72Z" transform="translate(-21.64 74.83) rotate(-44.97)"/><path class="cls-17" d="M60.81,54a14.59,14.59,0,0,0,3.45-1.88V35.34H60.81Z"/><path class="cls-18" d="M53.91,54.77a13.83,13.83,0,0,0,1.83.12,14.39,14.39,0,0,0,1.62-.09V40.52H53.91Z"/><path class="cls-19" d="M47,51.91a14.16,14.16,0,0,0,3.45,2V45.12H47Z"/><ellipse class="cls-12" cx="52.18" cy="82.49" rx="27.6" ry="1.73"/></g></svg>