<svg viewBox="0 0 100 112" xmlns="http://www.w3.org/2000/svg"><path d="m90 56a40 40 0 1 0 -76.44 16.5h72.88a39.85 39.85 0 0 0 3.56-16.5z" fill="#e8f4fa"/><path d="m13.56 72.5a40 40 0 0 0 72.88 0z" fill="#fff"/><path d="m10.5 72.5h78" fill="none" stroke="#191816" stroke-linecap="round" stroke-linejoin="round"/><path d="m6 72.5h2.5" fill="none" stroke="#191816" stroke-linecap="round" stroke-linejoin="round"/><path d="m90.5 72.5h2.5" fill="none" stroke="#191816" stroke-linecap="round" stroke-linejoin="round"/><path d="m29.18 51.68h20.73a0 0 0 0 1 0 0v18.84a0 0 0 0 1 0 0h-21.73a0 0 0 0 1 0 0v-17.84a1 1 0 0 1 1-1z" fill="#f0d5a8"/><path d="m49.91 51.68h20.74a1 1 0 0 1 1 1v17.84a0 0 0 0 1 0 0h-21.74a0 0 0 0 1 0 0v-18.84a0 0 0 0 1 0 0z" fill="#f0d5a8"/><path d="m49.91 55.3v-3.62h-20.53a1.21 1.21 0 0 0 -1.2 1.21v3.62a1.21 1.21 0 0 1 1.2-1.21z" fill="#fff5e3" opacity=".7"/><path d="m70.44 51.68h-20.53v3.62h20.53a1.21 1.21 0 0 1 1.21 1.21v-3.62a1.21 1.21 0 0 0 -1.21-1.21z" fill="#fff5e3" opacity=".7"/><path d="m65.85 73.41h7.24v5.8h-7.24z" fill="#dea47a" transform="matrix(-1 0 0 -1 138.95 152.62)"/><path d="m65.85 73.41h7.24v2.17h-7.24z" fill="#bf8256"/><path d="m45.57 73.41h7.24v5.8h-7.24z" fill="#dea47a" transform="matrix(-1 0 0 -1 98.38 152.62)"/><path d="m45.57 73.41h7.24v2.17h-7.24z" fill="#bf8256"/><path d="m65.85 73.41h7.24v5.8h-7.24z" fill="none" stroke="#191816" stroke-linecap="round" stroke-linejoin="round" transform="matrix(-1 0 0 -1 138.95 152.62)"/><path d="m45.57 73.41h7.24v5.8h-7.24z" fill="none" stroke="#191816" stroke-linecap="round" stroke-linejoin="round" transform="matrix(-1 0 0 -1 98.38 152.62)"/><path d="m25.28 73.41h7.24v5.8h-7.24z" fill="#dea47a" transform="matrix(-1 0 0 -1 57.8 152.62)"/><path d="m25.28 73.41h7.24v2.17h-7.24z" fill="#bf8256"/><path d="m42.67 51.68v1.37a2.24 2.24 0 0 0 2.24 2.25h17.25a2.24 2.24 0 0 0 2.24-2.25v-1.37z" fill="#debb7e"/><path d="m36.87 51.68h4.35a0 0 0 0 1 0 0v9.64a.5.5 0 0 1 -.5.5h-3.35a.5.5 0 0 1 -.5-.5v-9.64a0 0 0 0 1 0 0z" fill="#fff"/><path d="m58.61 51.68h4.39a0 0 0 0 1 0 0v9.64a.5.5 0 0 1 -.5.5h-3.39a.5.5 0 0 1 -.5-.5v-9.64a0 0 0 0 1 0 0z" fill="#fff"/><path d="m62.16 55.3a2.31 2.31 0 0 0 .79-.15v-3.47h-4.34v3.62z" fill="#e0e0e0"/><g fill="none" stroke="#191816" stroke-linecap="round" stroke-linejoin="round"><path d="m58.61 51.68h4.39a0 0 0 0 1 0 0v9.64a.5.5 0 0 1 -.5.5h-3.39a.5.5 0 0 1 -.5-.5v-9.64a0 0 0 0 1 0 0z"/><path d="m29.18 51.68h20.73a0 0 0 0 1 0 0v18.84a0 0 0 0 1 0 0h-21.73a0 0 0 0 1 0 0v-17.84a1 1 0 0 1 1-1z"/><path d="m36.87 51.68h4.35a0 0 0 0 1 0 0v9.64a.5.5 0 0 1 -.5.5h-3.35a.5.5 0 0 1 -.5-.5v-9.64a0 0 0 0 1 0 0z"/><path d="m58.61 51.68h4.39a0 0 0 0 1 0 0v9.64a.5.5 0 0 1 -.5.5h-3.39a.5.5 0 0 1 -.5-.5v-9.64a0 0 0 0 1 0 0z"/><path d="m49.91 51.68h20.74a1 1 0 0 1 1 1v17.84a0 0 0 0 1 0 0h-21.74a0 0 0 0 1 0 0v-18.84a0 0 0 0 1 0 0z"/><path d="m25.28 73.41h7.24v5.8h-7.24z" transform="matrix(-1 0 0 -1 57.8 152.62)"/></g><path d="m43.67 31.39h19.73a1 1 0 0 1 1 1v19.29a0 0 0 0 1 0 0h-21.73a0 0 0 0 1 0 0v-19.29a1 1 0 0 1 1-1z" fill="#f0d5a8"/><path d="m63.19 31.39h-19.32a1.21 1.21 0 0 0 -1.2 1.21v3.62a1.2 1.2 0 0 1 1.2-1.2h19.32a1.21 1.21 0 0 1 1.21 1.2v-3.62a1.21 1.21 0 0 0 -1.21-1.21z" fill="#fff5e3" opacity=".7"/><path d="m51.36 31.39h4.35a0 0 0 0 1 0 0v9.61a.5.5 0 0 1 -.5.5h-3.35a.5.5 0 0 1 -.5-.5v-9.61a0 0 0 0 1 0 0z" fill="#fff"/><path d="m51.36 31.39h4.35a0 0 0 0 1 0 0v9.61a.5.5 0 0 1 -.5.5h-3.35a.5.5 0 0 1 -.5-.5v-9.61a0 0 0 0 1 0 0z" fill="none" stroke="#191816" stroke-linecap="round" stroke-linejoin="round"/><path d="m43.67 31.39h19.73a1 1 0 0 1 1 1v19.29a0 0 0 0 1 0 0h-21.73a0 0 0 0 1 0 0v-19.29a1 1 0 0 1 1-1z" fill="none" stroke="#191816" stroke-linecap="round" stroke-linejoin="round"/><path d="m74.55 70.52h-50.72a1.45 1.45 0 1 0 0 2.89h50.72a1.45 1.45 0 0 0 0-2.89z" fill="#dea47a"/><path d="m23.83 72h50.72a1.41 1.41 0 0 1 1.22.73 1.41 1.41 0 0 0 -1.22-2.17h-50.72a1.44 1.44 0 0 0 -1.45 1.44 1.52 1.52 0 0 0 .22.73 1.43 1.43 0 0 1 1.23-.73z" fill="#f0c2a1"/><path d="m74.55 70.52h-50.72a1.45 1.45 0 1 0 0 2.89h50.72a1.45 1.45 0 0 0 0-2.89z" fill="none" stroke="#191816" stroke-miterlimit="10"/><path d="m74.55 79.21h-50.72a1.45 1.45 0 1 0 0 2.9h50.72a1.45 1.45 0 0 0 0-2.9z" fill="#dea47a"/><path d="m23.83 80.66h50.72a1.42 1.42 0 0 1 1.22.72 1.36 1.36 0 0 0 .22-.72 1.44 1.44 0 0 0 -1.44-1.45h-50.72a1.41 1.41 0 0 0 -1.23 2.17 1.44 1.44 0 0 1 1.23-.72z" fill="#f0c2a1"/><path d="m74.55 79.21h-50.72a1.45 1.45 0 1 0 0 2.9h50.72a1.45 1.45 0 0 0 0-2.9z" fill="none" stroke="#191816" stroke-linecap="round" stroke-linejoin="round"/></svg>