<svg id="Multicolor" xmlns="http://www.w3.org/2000/svg" viewBox="0 0 100 112"><defs><style>.cls-1{fill:#e8f4fa;}.cls-2{fill:#009fd9;}.cls-10,.cls-11,.cls-12,.cls-14,.cls-15,.cls-16,.cls-2,.cls-20,.cls-23,.cls-24,.cls-29,.cls-3,.cls-31,.cls-34,.cls-4,.cls-8,.cls-9{stroke:#191816;stroke-linejoin:round;}.cls-10,.cls-11,.cls-12,.cls-15,.cls-16,.cls-2,.cls-20,.cls-29,.cls-3,.cls-31,.cls-34,.cls-4,.cls-8,.cls-9{stroke-linecap:round;}.cls-3,.cls-32{fill:#b89558;}.cls-4{fill:#ffcebf;}.cls-13,.cls-5{fill:#191816;}.cls-5{opacity:0.15;}.cls-11,.cls-6{fill:#00b8f0;}.cls-7{fill:#4acfff;}.cls-23,.cls-8{fill:none;}.cls-9{fill:#ff6242;}.cls-10,.cls-14,.cls-17{fill:#fff;}.cls-12{fill:#ffda8f;}.cls-15{fill:#525252;}.cls-16,.cls-19{fill:#c0dceb;}.cls-18{fill:#daedf7;}.cls-20{fill:#adc4d9;}.cls-21,.cls-24{fill:#6dd627;}.cls-22{fill:#9ceb60;}.cls-25{fill:#c8ffa1;}.cls-26{fill:#00dba8;}.cls-27{fill:#00ad85;}.cls-28{fill:#ffbe3d;}.cls-29{fill:#614b44;}.cls-30{fill:#947063;}.cls-31{fill:#656769;}.cls-33{fill:#debb7e;}.cls-34{fill:#ffc44d;}.cls-35{fill:#ffb59e;}</style></defs><title>11- digital-cash-payment</title><g id="Background"><g id="New_Symbol_2-4" data-name="New Symbol 2"><circle class="cls-1" cx="50" cy="64" r="40"/></g></g><g id="Scene"><polygon class="cls-2" points="72.73 88.33 73.02 82.14 67.92 82.14 67.92 88.33 72.73 88.33"/><polygon class="cls-2" points="81.16 88.33 81.16 82.14 76.05 82.14 76.33 88.33 81.16 88.33"/><path class="cls-3" d="M66.2,89.33c0-2.16,2.1-3,4-3h2.65v2a1,1,0,0,1-1,1Z"/><path class="cls-3" d="M74.54,89.33c0-2.16,2.1-3,4-3h2.65v2a1,1,0,0,1-1,1Z"/><path class="cls-4" d="M69.12,73.68a1.81,1.81,0,1,1-3.61,0V62.85h3.61Z"/><ellipse class="cls-5" cx="66.5" cy="90.5" rx="16.5" ry="1.5"/><path class="cls-6" d="M84.77,61.65v1.2H81.16v7.83H67.92V62.85H65.51v-1.2a9.63,9.63,0,1,1,19.26,0Z"/><path class="cls-4" d="M81.16,73.68a1.81,1.81,0,1,0,3.61,0V62.85H81.16Z"/><path class="cls-7" d="M75.14,52a9.63,9.63,0,0,0-9.63,9.63v1.2h.24a9.62,9.62,0,0,1,18.78,0h.24v-1.2A9.63,9.63,0,0,0,75.14,52Z"/><path class="cls-8" d="M84.77,61.65v1.2H81.16v7.83H67.92V62.85H65.51v-1.2a9.63,9.63,0,1,1,19.26,0Z"/><path class="cls-9" d="M82.24,81a1,1,0,0,1-.25.77,1,1,0,0,1-.74.33H67.83a1,1,0,0,1-.75-.33,1,1,0,0,1-.25-.77l1-10a5.17,5.17,0,0,0,0-.68v-6.3a4.38,4.38,0,0,0,2.41-4.18l-.61-3,1.81-.6,1,3.44a1.06,1.06,0,0,0,1,.77h2a1,1,0,0,0,1-.77l1-3.44,1.8.6-.6,3a4.38,4.38,0,0,0,2.41,4.18v6.3c0,.23,0,.45,0,.68Z"/><path class="cls-10" d="M76.74,62.25h4.42a0,0,0,0,1,0,0v2.41a0,0,0,0,1,0,0H76.74a1,1,0,0,1-1-1v-.41A1,1,0,0,1,76.74,62.25Z"/><line class="cls-11" x1="67.92" y1="62.85" x2="67.92" y2="59.24"/><line class="cls-11" x1="81.15" y1="62.85" x2="81.15" y2="59.24"/><path class="cls-10" d="M69.72,56.84l.13-3.23a9.63,9.63,0,0,1,2.26-1.09L74.54,58l-3-1.8Z"/><path class="cls-10" d="M74.54,58l2.58-5.81a9.26,9.26,0,0,1,2.08.7l.15,3.91-1.8-.6Z"/><path class="cls-12" d="M41.23,68.27a5.41,5.41,0,0,0,4.85-3l1.41-2.82A1.81,1.81,0,0,0,46.68,60a1.74,1.74,0,0,0-.8-.19,1.81,1.81,0,0,0-1.62,1l-1.41,2.82a1.8,1.8,0,0,1-1.62,1h-.17a1.81,1.81,0,0,1-1.81-1.81,1.81,1.81,0,0,0-3.61,0,5.42,5.42,0,0,0,5.42,5.42Z"/><rect class="cls-10" x="42.26" y="55.03" width="5.41" height="9.63" rx="1" ry="1"/><path class="cls-12" d="M45.57,64a1.81,1.81,0,1,1,.61-3.56l1.38.24a1,1,0,0,1,.82,1.15l-.27,1.59a1,1,0,0,1-.41.65,1,1,0,0,1-.74.17Z"/><path class="cls-13" d="M45.87,56.34a.5.5,0,0,0-.5.5.51.51,0,0,0,.5.5.5.5,0,0,0,.5-.5.5.5,0,0,0-.5-.5Z"/><path class="cls-14" d="M64.91,11.11A2.41,2.41,0,0,0,62.5,8.7H42.05a2.41,2.41,0,0,0-2.41,2.41V29.76a2.41,2.41,0,0,0,2.41,2.41h4.41a1,1,0,0,1,1,1v5l5.73-5.73a1,1,0,0,1,.7-.29H62.5a2.41,2.41,0,0,0,2.41-2.41Z"/><rect class="cls-14" x="46.26" y="12.91" width="9.63" height="15.04" rx="1.2" ry="1.2"/><rect class="cls-6" x="46.26" y="15.32" width="9.63" height="10.23"/><polygon class="cls-7" points="46.26 21.85 52.79 15.32 46.26 15.32 46.26 21.85"/><path class="cls-1" d="M60.7,64.66H52.88v-5a1,1,0,0,1,1-1h2.78a2.41,2.41,0,0,1,2.24,1.52Z"/><rect class="cls-15" x="49.87" y="68.27" width="22.86" height="3.01" rx="1" ry="1"/><path class="cls-16" d="M65.51,68.27H51.67V65.66a1,1,0,0,1,1-1H64.31a1.2,1.2,0,0,1,1.2,1.2Z"/><path class="cls-17" d="M57.87,61.05h-5V59.64a1,1,0,0,1,1-1h2.78a2.41,2.41,0,0,1,2.24,1.52l.64,1.6A2.4,2.4,0,0,0,57.87,61.05Z"/><path class="cls-8" d="M60.7,64.66H52.88v-5a1,1,0,0,1,1-1h2.78a2.41,2.41,0,0,1,2.24,1.52Z"/><path class="cls-18" d="M71.53,71.28H51.07l2.29,17.18a1,1,0,0,0,1,.87h13.9a1,1,0,0,0,1-.87Z"/><polygon class="cls-19" points="71.21 73.69 71.53 71.28 51.07 71.28 51.39 73.69 71.21 73.69"/><path class="cls-20" d="M52.92,85.12l.44,3.34a1,1,0,0,0,1,.87H68.25a1,1,0,0,0,1-.87l.44-3.34Z"/><path class="cls-8" d="M71.53,71.28H51.07l2.29,17.18a1,1,0,0,0,1,.87h13.9a1,1,0,0,0,1-.87Z"/><line class="cls-8" x1="54.68" y1="55.03" x2="54.68" y2="58.64"/><rect class="cls-21" x="49.87" y="50.22" width="10.23" height="4.81" rx="1" ry="1"/><path class="cls-22" d="M50.87,50.22a1,1,0,0,0-1,1V54a1,1,0,0,0,1,1h.61l4.81-4.81Z"/><rect class="cls-8" x="49.87" y="50.22" width="10.23" height="4.81" rx="1" ry="1"/><rect class="cls-23" x="46.26" y="15.32" width="9.63" height="10.23"/><path class="cls-24" d="M61.29,22.08A1,1,0,0,0,60,21.42a25.66,25.66,0,0,1-3.62,1.22,24.66,24.66,0,0,1-3.76.65,1,1,0,0,0-.71.42.94.94,0,0,0-.15.81l.19.77.53,2.08a1,1,0,0,0,1,.75,25.46,25.46,0,0,0,8-2A1,1,0,0,0,62,24.94l-.53-2.08Z"/><path class="cls-25" d="M57.9,24.79a1,1,0,1,1-1.2-.71A1,1,0,0,1,57.9,24.79Z"/><path class="cls-26" d="M23.61,71.28v17l4.76,0L29,76.09a1.25,1.25,0,0,1,1.25-1.2,1.26,1.26,0,0,1,1.26,1.2L32,88.33l4.81,0v-17Z"/><path class="cls-10" d="M20,61.65v1.2h3.61v7.83H36.85V62.85h2.41v-1.2a9.63,9.63,0,0,0-19.26,0Z"/><path class="cls-12" d="M23.61,73.68a1.81,1.81,0,1,1-3.61,0V62.85h3.61Z"/><path class="cls-5" d="M40.8,90c0,.83-4.48,1.5-10,1.5s-10-.67-10-1.5,4.48-1.5,10-1.5S40.8,89.17,40.8,90Z"/><rect class="cls-27" x="23.61" y="71.28" width="13.24" height="2.41"/><path class="cls-12" d="M30.24,35.58a6,6,0,0,0-6,6v1.2c-1.72,0-1.6,3,.3,3h0A6,6,0,0,0,36.26,44V41.6A6,6,0,0,0,30.24,35.58Z"/><path class="cls-28" d="M28.43,45.36a.6.6,0,1,1-.6-.6A.6.6,0,0,1,28.43,45.36Z"/><path class="cls-8" d="M29.94,46.36a2.27,2.27,0,0,0,2.65.25,3.9,3.9,0,0,0,.36-.25"/><path class="cls-8" d="M28.43,43.05a.85.85,0,0,1,1.2,0"/><path class="cls-8" d="M33.24,43.05a.85.85,0,0,1,1.2,0"/><path class="cls-29" d="M26.92,39.18c2.64,2.56,7.19,2.14,9.93,1.21a6.62,6.62,0,0,0-13.24,0v2.09s3.31-.83,3.31-3.31"/><path class="cls-30" d="M30.23,36.7a6.62,6.62,0,0,1,6,3.87l.61-.18a6.62,6.62,0,0,0-13.24,0v2.09l.09,0A6.59,6.59,0,0,1,30.23,36.7Z"/><path class="cls-8" d="M26.92,39.18c2.64,2.56,7.19,2.14,9.93,1.21a6.62,6.62,0,0,0-13.24,0v2.09s3.31-.83,3.31-3.31"/><path class="cls-8" d="M26.92,39.18c-.3-.3-.35-.25-.6-.63"/><path class="cls-8" d="M23.61,71.28v17l4.76,0L29,76.09a1.25,1.25,0,0,1,1.25-1.2,1.26,1.26,0,0,1,1.26,1.2L32,88.33l4.81,0v-17Z"/><path class="cls-15" d="M38.56,89.33c0-2.16-2.11-3-4-3H31.94v2a1,1,0,0,0,1,1Z"/><path class="cls-15" d="M30.23,89.33c0-2.16-2.1-3-4-3H23.61v2a1,1,0,0,0,1,1Z"/><line class="cls-2" x1="36.85" y1="68.87" x2="23.61" y2="68.87"/><rect class="cls-31" x="23.61" y="68.87" width="13.24" height="2.41" transform="translate(60.46 140.15) rotate(180)"/><path class="cls-32" d="M22.11,55.64a9.55,9.55,0,0,1,8.12-3.59V70.68H23.61v-9Z"/><path class="cls-32" d="M30.23,52.05A9.62,9.62,0,0,1,38,57l-1.17,4.7v9H30.23Z"/><path class="cls-33" d="M30.23,52.05a9.55,9.55,0,0,0-8.12,3.59l.44,1.78a10.36,10.36,0,0,1,7.1-2.88,5.65,5.65,0,0,1,.58,0,10.54,10.54,0,0,1,7.43,3.81L38,57A9.62,9.62,0,0,0,30.23,52.05Z"/><path class="cls-8" d="M30.23,52.05A9.62,9.62,0,0,1,38,57l-1.17,4.7v9H30.23Z"/><path class="cls-8" d="M22.11,55.64a9.55,9.55,0,0,1,8.12-3.59V70.68H23.61v-9Z"/><line class="cls-8" x1="27.82" y1="61.05" x2="25.41" y2="61.05"/><line class="cls-8" x1="35.04" y1="61.05" x2="32.64" y2="61.05"/><line class="cls-8" x1="27.82" y1="65.26" x2="25.41" y2="65.26"/><line class="cls-8" x1="35.04" y1="65.26" x2="32.64" y2="65.26"/><path class="cls-10" d="M29.63,52a9.69,9.69,0,0,0-3.7.74l4.3,8.29,4.14-7.77A9.5,9.5,0,0,0,29.63,52Z"/><path class="cls-12" d="M33.75,54.43l.62-1.15A9.5,9.5,0,0,0,29.63,52a9.69,9.69,0,0,0-3.7.74l.93,1.79a5.56,5.56,0,0,0,3.37,1.08A5.48,5.48,0,0,0,33.75,54.43Z"/><path class="cls-34" d="M68.52,39.16v-.78c0-2.47.19-4.73,3-5.84l1.2,1.81a4.39,4.39,0,0,1,3.61-1.81v1.81c2.08-1.73,6,0,6,0-1.33,2.1-1.2,2.65-1.2,4.81Z"/><path class="cls-4" d="M74.54,35.58a6,6,0,0,1,6,6v1.2c1.72,0,1.61,3-.3,3h0A6,6,0,0,1,68.52,44V41.6A6,6,0,0,1,74.54,35.58Z"/><path class="cls-13" d="M75.59,42.2a.76.76,0,1,0,.75.76.75.75,0,0,0-.75-.76Z"/><path class="cls-13" d="M71.08,42.2a.76.76,0,1,0,.75.76.75.75,0,0,0-.75-.76Z"/><path class="cls-35" d="M76.34,45.36a.61.61,0,1,0,.6-.6A.6.6,0,0,0,76.34,45.36Z"/><path class="cls-8" d="M74.84,46.36a2.28,2.28,0,0,1-2.66.25,2.8,2.8,0,0,1-.35-.25"/><path class="cls-34" d="M81.16,43a1.77,1.77,0,0,0-2.41,1V39.16h2.41Z"/><path class="cls-9" d="M74.54,35.52c-2.2,0-6.62,0-6.62,4.24H81.16C81.16,35.52,77.05,35.52,74.54,35.52Z"/><path class="cls-11" d="M81.16,39.16l-.88,1.09a3.61,3.61,0,0,1-3.69,1.25A15.92,15.92,0,0,0,72.73,41a21.82,21.82,0,0,0-5.17.78c-.73.19-1.51-1.1.36-2.59,0,0,.6-.6,6-.6S81.16,39.16,81.16,39.16Z"/><path class="cls-4" d="M74.54,58l2.58-5.81a9.24,9.24,0,0,0-2-.21,9.88,9.88,0,0,0-3,.49Z"/></g></svg>