<svg id="Multicolor" xmlns="http://www.w3.org/2000/svg" viewBox="0 0 100 112"><defs><style>.cls-1{fill:#e8f4fa;}.cls-2,.cls-8{fill:#fff;}.cls-3,.cls-6{fill:none;}.cls-10,.cls-11,.cls-12,.cls-15,.cls-16,.cls-22,.cls-3,.cls-6,.cls-7,.cls-8,.cls-9{stroke:#191816;}.cls-10,.cls-11,.cls-12,.cls-22,.cls-3,.cls-7,.cls-8,.cls-9{stroke-linecap:round;}.cls-10,.cls-11,.cls-12,.cls-15,.cls-16,.cls-22,.cls-3,.cls-7,.cls-8,.cls-9{stroke-linejoin:round;}.cls-12,.cls-4{fill:#d18660;}.cls-5{fill:#bd704a;}.cls-6{stroke-miterlimit:10;}.cls-20,.cls-7{fill:#daedf7;}.cls-9{fill:#ff6242;}.cls-10{fill:#ffe500;opacity:0.99;}.cls-11{fill:#6dd627;}.cls-13{fill:#724f3d;}.cls-14{fill:#a86c4d;}.cls-15{fill:#00b8f0;}.cls-16{fill:#b89558;}.cls-17,.cls-21{fill:#191816;}.cls-17{opacity:0.15;}.cls-18{fill:#bf8df2;}.cls-19{fill:#dabff5;}.cls-22,.cls-23{fill:#f0f0f0;}</style></defs><title>110- online-website-shopping-male-african-american</title><g id="Background"><g id="New_Symbol_49-17" data-name="New Symbol 49"><path class="cls-1" d="M90,56A40,40,0,1,0,13.56,72.5H86.44A39.85,39.85,0,0,0,90,56Z"/><path class="cls-2" d="M13.56,72.5a40,40,0,0,0,72.88,0Z"/><line class="cls-3" x1="11" y1="72.5" x2="89" y2="72.5"/><line class="cls-3" x1="6.5" y1="72.5" x2="9" y2="72.5"/><line class="cls-3" x1="91" y1="72.5" x2="93.5" y2="72.5"/></g></g><g id="Scene"><path class="cls-4" d="M75.5,72.5V65a14.5,14.5,0,0,0-11-14.06V46.5h-7v4.44A14.5,14.5,0,0,0,46.5,65v7.5Z"/><path class="cls-5" d="M57.5,51a12.26,12.26,0,0,0,7,0V47.5h-7Z"/><path class="cls-6" d="M75.5,72.5V65a14.5,14.5,0,0,0-11-14.06V46.5h-7v4.44A14.5,14.5,0,0,0,46.5,65v7.5Z"/><path class="cls-7" d="M46,54.1a2.41,2.41,0,0,1-2.4,2.4H39.5v5.6a1,1,0,0,1-1.7.71L31.45,56.5h-18A2.41,2.41,0,0,1,11,54.1V33.5H46Z"/><path class="cls-8" d="M13.4,27H43.6A2.4,2.4,0,0,1,46,29.4v4.1a0,0,0,0,1,0,0H11a0,0,0,0,1,0,0V29.4A2.4,2.4,0,0,1,13.4,27Z"/><circle class="cls-9" cx="14.75" cy="30.25" r="1.25"/><circle class="cls-10" cx="19.25" cy="30.25" r="1.25"/><circle class="cls-11" cx="23.75" cy="30.25" r="1.25"/><polyline class="cls-3" points="41 43.9 43 45.4 41 46.9"/><polyline class="cls-3" points="16 43.9 14 45.4 16 46.9"/><path class="cls-12" d="M71,37V34.5a10,10,0,0,0-20,0V37a2,2,0,0,0,0,4h.12a10,10,0,0,0,19.76,0H71a2,2,0,0,0,0-4Z"/><circle class="cls-5" cx="55.25" cy="40.76" r="1.25"/><circle class="cls-5" cx="66.75" cy="40.76" r="1.25"/><path class="cls-3" d="M58,43.3a4.38,4.38,0,0,0,6,0"/><path class="cls-3" d="M58.5,37.51a1.63,1.63,0,0,0-3,0"/><path class="cls-3" d="M66.51,37.51a1.63,1.63,0,0,0-3,0"/><path class="cls-13" d="M72.2,33.37a1.09,1.09,0,0,0-.5-.06l-.06-.07A1.78,1.78,0,0,0,72.9,32.1a1.79,1.79,0,0,0-2.27-2.3l-.09-.29a2.4,2.4,0,0,0-2.81-3.88l-.13-.13-.07,0a2.52,2.52,0,0,0,.07-.56,2.4,2.4,0,0,0-2.4-2.4,2.37,2.37,0,0,0-1.83.87A2.4,2.4,0,0,0,61,21.3h0a2.4,2.4,0,0,0-2.37,2.07,2.37,2.37,0,0,0-1.83-.87,2.39,2.39,0,0,0-2.4,2.4,2.52,2.52,0,0,0,.07.56l-.07,0-.13.13a2.4,2.4,0,0,0-2.81,3.88l-.09.29a1.79,1.79,0,0,0-2.27,2.3,1.78,1.78,0,0,0,1.26,1.14l-.06.07a1.09,1.09,0,0,0-.5.06,1.2,1.2,0,0,0-.12,2.21c.39,1.33,2.32,1.3,2.32,2.92,0-8.43,3.93-10,6.6-8.75a6.26,6.26,0,0,0,2.4.41h0a6.26,6.26,0,0,0,2.4-.41c2.67-1.23,6.6.32,6.6,8.75,0-1.62,1.93-1.59,2.32-2.92a1.2,1.2,0,0,0-.12-2.21Z"/><path class="cls-14" d="M71.5,30.6a2.4,2.4,0,0,1-1,1.91l.09.29a1.72,1.72,0,0,1,1.56.2,1.82,1.82,0,0,0,.71-.9,1.8,1.8,0,0,0-1.1-2.3,2,2,0,0,0-.47-.09A2.35,2.35,0,0,1,71.5,30.6Z"/><path class="cls-14" d="M49.81,33a1.72,1.72,0,0,1,1.56-.2l.09-.29a2.4,2.4,0,0,1-1-1.91,2.35,2.35,0,0,1,.17-.89,2,2,0,0,0-.47.09,1.8,1.8,0,0,0-1.1,2.3A1.82,1.82,0,0,0,49.81,33Z"/><path class="cls-14" d="M52.9,28.2a2.4,2.4,0,0,1,1.37.43l.13-.13.07,0a2.52,2.52,0,0,1-.07-.56,2.39,2.39,0,0,1,2.4-2.4,2.37,2.37,0,0,1,1.83.87A2.4,2.4,0,0,1,61,24.3h0a2.4,2.4,0,0,1,2.37,2.07,2.37,2.37,0,0,1,1.83-.87,2.4,2.4,0,0,1,2.4,2.4,2.52,2.52,0,0,1-.07.56l.07,0,.13.13a2.4,2.4,0,0,1,3.24.46,2.33,2.33,0,0,0,.53-1.49,2.4,2.4,0,0,0-3.77-2l-.13-.13-.07,0a2.52,2.52,0,0,0,.07-.56,2.4,2.4,0,0,0-2.4-2.4,2.37,2.37,0,0,0-1.83.87A2.4,2.4,0,0,0,61,21.3h0a2.4,2.4,0,0,0-2.37,2.07,2.37,2.37,0,0,0-1.83-.87,2.39,2.39,0,0,0-2.4,2.4,2.52,2.52,0,0,0,.07.56l-.07,0-.13.13a2.4,2.4,0,0,0-3.77,2A2.33,2.33,0,0,0,51,29.09,2.4,2.4,0,0,1,52.9,28.2Z"/><path class="cls-3" d="M72.2,33.37a1.09,1.09,0,0,0-.5-.06l-.06-.07A1.78,1.78,0,0,0,72.9,32.1a1.79,1.79,0,0,0-2.27-2.3l-.09-.29a2.4,2.4,0,0,0-2.81-3.88l-.13-.13-.07,0a2.52,2.52,0,0,0,.07-.56,2.4,2.4,0,0,0-2.4-2.4,2.37,2.37,0,0,0-1.83.87A2.4,2.4,0,0,0,61,21.3h0a2.4,2.4,0,0,0-2.37,2.07,2.37,2.37,0,0,0-1.83-.87,2.39,2.39,0,0,0-2.4,2.4,2.52,2.52,0,0,0,.07.56l-.07,0-.13.13a2.4,2.4,0,0,0-2.81,3.88l-.09.29a1.79,1.79,0,0,0-2.27,2.3,1.78,1.78,0,0,0,1.26,1.14l-.06.07a1.09,1.09,0,0,0-.5.06,1.2,1.2,0,0,0-.12,2.21c.39,1.33,2.32,1.3,2.32,2.92,0-8.43,3.93-10,6.6-8.75a6.26,6.26,0,0,0,2.4.41h0a6.26,6.26,0,0,0,2.4-.41c2.67-1.23,6.6.32,6.6,8.75,0-1.62,1.93-1.59,2.32-2.92a1.2,1.2,0,0,0-.12-2.21Z"/><path class="cls-12" d="M51.5,72.5v1.07a1.93,1.93,0,0,0,3.61,1l2.72-4.77A2.5,2.5,0,0,1,60,68.5a2.5,2.5,0,0,1,2.17,3.74L59.45,77a6.93,6.93,0,0,1-13-3.44V72.5Z"/><path class="cls-15" d="M34.24,51.43,33.75,39.5H23.25l-.49,11.93a1,1,0,0,0,1,1.07h2.49a1,1,0,0,0,1-.93l1.25-9.19,1.25,9.19a1,1,0,0,0,1,.93h2.49A1,1,0,0,0,34.24,51.43Z"/><path class="cls-16" d="M24.25,37.5h8.5a1,1,0,0,1,1,1v1a0,0,0,0,1,0,0H23.25a0,0,0,0,1,0,0v-1A1,1,0,0,1,24.25,37.5Z"/><ellipse class="cls-17" cx="61" cy="83.5" rx="7.5" ry="1.5"/><path class="cls-18" d="M66.15,51.46a6.49,6.49,0,0,1-10.3,0C50.39,53.54,45.5,58.81,45.5,65l-.43,6.44a1,1,0,0,0,1,1.06H75.93a1,1,0,0,0,1-1.07L76.5,65C76.5,58.81,71.61,53.54,66.15,51.46Z"/><path class="cls-19" d="M45.5,69a12.73,12.73,0,0,1,2.07-6.84,14.84,14.84,0,0,1,12.6-6.7h1.66a14.84,14.84,0,0,1,12.6,6.7A12.73,12.73,0,0,1,76.5,69l.21,3.09a1,1,0,0,0,.22-.7L76.5,65c0-6.19-4.89-11.46-10.35-13.54a6.49,6.49,0,0,1-10.3,0C50.39,53.54,45.5,58.81,45.5,65l-.43,6.44a1,1,0,0,0,.22.69Z"/><path class="cls-3" d="M66.15,51.46a6.49,6.49,0,0,1-10.3,0C50.39,53.54,45.5,58.81,45.5,65l-.43,6.44a1,1,0,0,0,1,1.06H75.93a1,1,0,0,0,1-1.07L76.5,65C76.5,58.81,71.61,53.54,66.15,51.46Z"/><rect class="cls-20" x="55" y="66" width="12" height="16.5" rx="2" ry="2"/><path class="cls-2" d="M65,66H57a2,2,0,0,0-2,2v2a2,2,0,0,1,2-2h8a2,2,0,0,1,2,2V68A2,2,0,0,0,65,66Z"/><circle class="cls-20" cx="57.75" cy="68.75" r="0.25"/><path class="cls-21" d="M57.75,68a.75.75,0,1,0,.75.75.76.76,0,0,0-.75-.75Z"/><rect class="cls-3" x="55" y="66" width="12" height="16.5" rx="2" ry="2"/><path class="cls-22" d="M61,56.06a10.37,10.37,0,0,0,7.68-3.38,16.8,16.8,0,0,0-2.53-1.22,6.49,6.49,0,0,1-10.3,0,16.8,16.8,0,0,0-2.53,1.22A10.37,10.37,0,0,0,61,56.06Z"/><path class="cls-23" d="M51.5,53.9c-3.46,2.65-6,6.64-6,11.1l-.43,6.44A1,1,0,0,0,46,72.5H51.5Z"/><path class="cls-2" d="M51.5,53.9c-3.46,2.65-6,6.64-6,11.1l-.43,6.44a1,1,0,0,0,.22.69L45.5,69a12.73,12.73,0,0,1,2.07-6.84,13.84,13.84,0,0,1,3.93-4.06Z"/><path class="cls-23" d="M70.5,53.9c3.46,2.65,6,6.64,6,11.1l.43,6.44A1,1,0,0,1,76,72.5H70.5Z"/><path class="cls-2" d="M76.93,71.44,76.5,65c0-4.46-2.54-8.45-6-11.1v4.24a13.84,13.84,0,0,1,3.93,4.06A12.73,12.73,0,0,1,76.5,69l.21,3.09h0A1,1,0,0,0,76.93,71.44Z"/><path class="cls-6" d="M51.5,53.9c-3.46,2.65-6,6.64-6,11.1l-.43,6.44A1,1,0,0,0,46,72.5H51.5Z"/><path class="cls-6" d="M70.5,53.9c3.46,2.65,6,6.64,6,11.1l.43,6.44A1,1,0,0,1,76,72.5H70.5Z"/><line class="cls-3" x1="61" y1="54" x2="61" y2="62.5"/><path class="cls-21" d="M62.5,57.5a.5.5,0,1,0,.5.5.5.5,0,0,0-.5-.5Z"/><path class="cls-21" d="M62.5,60a.5.5,0,1,0,.5.5.5.5,0,0,0-.5-.5Z"/><path class="cls-12" d="M70.48,72.5a5.52,5.52,0,0,1-5.48,5H64a2.5,2.5,0,0,0,0,5h1a10.51,10.51,0,0,0,10.49-10Z"/></g></svg>