<svg id="Multicolor" xmlns="http://www.w3.org/2000/svg" viewBox="0 0 100 112"><defs><style>.cls-1{fill:#e8f4fa;}.cls-2,.cls-4{fill:#191816;}.cls-2,.cls-3{opacity:0.15;}.cls-5{fill:#f0f0f0;}.cls-6{fill:#fff;}.cls-7{fill:none;stroke:#191816;stroke-linecap:round;stroke-linejoin:round;}.cls-8{fill:#ffe500;}.cls-9{fill:#fff48c;}.cls-10{fill:#6dd627;}.cls-11{fill:#9ceb60;}.cls-12{fill:#daedf7;}.cls-13{fill:#f7e5c6;}.cls-14{fill:#fff5e3;}.cls-15{fill:#ff6242;}.cls-16{fill:#ff866e;}.cls-17{fill:#debb7e;}.cls-18{fill:#00b8f0;}.cls-19{fill:#4acfff;}.cls-20{fill:#f0d5a8;}.cls-21{fill:#656769;}.cls-22{fill:#87898c;}</style></defs><title>12- stationary-1</title><g id="Background"><g id="New_Symbol_61-5" data-name="New Symbol 61"><circle class="cls-1" cx="49.52" cy="56" r="40"/></g></g><g id="Scene"><path class="cls-2" d="M72,77.2A1.21,1.21,0,0,0,70.81,76H28.71a1.15,1.15,0,0,0-.65.22,1.19,1.19,0,0,0-.54,1v5.1a1.19,1.19,0,0,0,1.19,1.2h42.1A1.2,1.2,0,0,0,72,82.3V79.7h0Z"/><g class="cls-3"><path class="cls-4" d="M71.21,67.39l0,0a1.31,1.31,0,0,0-.27-.19,1,1,0,0,0-.38-.08L44.14,65.74a19.41,19.41,0,0,0-4.31.18l-3.56.55-.75.12v3l2.89.44,1.44.22h0a18.4,18.4,0,0,0,4.26.19l26.4-1.3a1,1,0,0,0,1-1A1,1,0,0,0,71.21,67.39Z"/><path class="cls-4" d="M33,65.09c-2.63,0-3.34,2.29-5.82,2.2a5.5,5.5,0,0,1-1.18-.2c1.38,4.11,7.46,5,9.5,2.5v-3a2.6,2.6,0,0,0-2.5-1.5Z"/></g><path class="cls-2" d="M50,58.5l17.51-.92A1.57,1.57,0,0,0,69,56a1.63,1.63,0,0,0,0-.31,1.58,1.58,0,0,0-1.46-1.27L50,53.5h-9.5a1.5,1.5,0,1,1-3,0H34c-1,1.9-5,2.5-5,2.5s3.95.6,5,2.5h3.49a1.51,1.51,0,0,1,3,0H50"/><path class="cls-2" d="M64,43.2a2.45,2.45,0,0,0-1-.2H36.51l-6,2.5,6,2.5H63a2.5,2.5,0,0,0,1-4.8Z"/><path class="cls-2" d="M63,31.5H36L30,34l6,2.5H63a2.5,2.5,0,1,0,0-5Z"/><path class="cls-5" d="M39,55a1.51,1.51,0,0,1,1.51,1.5H43v-5h-2.5a1.5,1.5,0,1,1-3,0H34c-1,1.9-5,2.5-5,2.5s3.95.6,5,2.5h3.5A1.5,1.5,0,0,1,39,55Z"/><path class="cls-6" d="M43,51.5h-2.5a1.5,1.5,0,1,1-3,0H34c-1,1.9-5,2.5-5,2.5H43Z"/><path class="cls-7" d="M39,55a1.51,1.51,0,0,1,1.51,1.5H43v-5h-2.5a1.5,1.5,0,1,1-3,0H34c-1,1.9-5,2.5-5,2.5s3.95.6,5,2.5h3.5A1.5,1.5,0,0,1,39,55Z"/><rect class="cls-8" x="43.01" y="51.5" width="7" height="5"/><rect class="cls-9" x="43.01" y="51.5" width="7" height="2.5"/><rect class="cls-7" x="43.01" y="51.5" width="7" height="5"/><line class="cls-7" x1="29.01" y1="54" x2="35.51" y2="54"/><path class="cls-10" d="M67.52,55.58a1.58,1.58,0,0,0,0-3.16L50,51.5v5Z"/><path class="cls-11" d="M69,54a1.58,1.58,0,0,0-1.49-1.58L50,51.5V54Z"/><path class="cls-7" d="M67.52,55.58a1.58,1.58,0,0,0,0-3.16L50,51.5v5Z"/><rect class="cls-12" x="57.76" y="30.75" width="5" height="2.5" transform="translate(92.26 -28.26) rotate(90)"/><rect class="cls-1" x="59.01" y="29.5" width="2.5" height="2.5"/><rect class="cls-8" x="45.01" y="20.5" width="5" height="23" transform="translate(79.51 -15.51) rotate(90)"/><rect class="cls-9" x="36.01" y="29.5" width="23" height="2.5"/><polygon class="cls-13" points="36.02 29.5 30.02 32 36.02 34.5 36.02 29.5"/><polygon class="cls-14" points="36.02 29.5 30.02 32 36.02 32 36.02 29.5"/><path class="cls-15" d="M63,29.5a2.5,2.5,0,1,1,0,5h-1.5v-5Z"/><path class="cls-16" d="M65.51,32A2.49,2.49,0,0,0,63,29.5h-1.5V32Z"/><path class="cls-7" d="M63,29.5a2.5,2.5,0,1,1,0,5h-1.5v-5Z"/><rect class="cls-7" x="57.76" y="30.75" width="5" height="2.5" transform="translate(92.26 -28.26) rotate(90)"/><rect class="cls-7" x="45.01" y="20.5" width="5" height="23" transform="translate(79.51 -15.51) rotate(90)"/><polygon class="cls-7" points="36.02 29.5 30.02 32 36.02 34.5 36.02 29.5"/><path class="cls-1" d="M28.71,81.5a1.19,1.19,0,0,1-1.19-1.2V75.2a1.2,1.2,0,0,1,1.2-1.2H70.81A1.21,1.21,0,0,1,72,75.2v5.1a1.2,1.2,0,0,1-1.2,1.2Z"/><path class="cls-6" d="M27.52,77.7a1.2,1.2,0,0,1,1.2-1.2H70.81A1.21,1.21,0,0,1,72,77.7V75.2A1.21,1.21,0,0,0,70.81,74H28.72a1.2,1.2,0,0,0-1.2,1.2Z"/><path class="cls-7" d="M28.71,81.5a1.19,1.19,0,0,1-1.19-1.2V75.2a1.2,1.2,0,0,1,1.2-1.2H70.81A1.21,1.21,0,0,1,72,75.2v5.1a1.2,1.2,0,0,1-1.2,1.2Z"/><line class="cls-7" x1="34.01" y1="74" x2="34.01" y2="77"/><line class="cls-7" x1="30.51" y1="74" x2="30.51" y2="77.5"/><line class="cls-7" x1="41.01" y1="74" x2="41.01" y2="77"/><line class="cls-7" x1="37.51" y1="74" x2="37.51" y2="77.5"/><line class="cls-7" x1="48.01" y1="74" x2="48.01" y2="77"/><line class="cls-7" x1="55.02" y1="74" x2="55.02" y2="77"/><line class="cls-7" x1="44.51" y1="74" x2="44.51" y2="77.5"/><line class="cls-7" x1="51.51" y1="74" x2="51.51" y2="77.5"/><line class="cls-7" x1="62.02" y1="74" x2="62.02" y2="77"/><line class="cls-7" x1="58.51" y1="74" x2="58.51" y2="77.5"/><line class="cls-7" x1="69.02" y1="74" x2="69.02" y2="77"/><line class="cls-7" x1="65.51" y1="74" x2="65.51" y2="77.5"/><path class="cls-17" d="M35.52,64.5A2.63,2.63,0,0,0,33,63c-3,0-3.5,3-7,2,1.41,4.21,7.5,5,9.5,2.5Z"/><path class="cls-18" d="M35.52,67.5v-3l4.31-.66a18.83,18.83,0,0,1,4.31-.19L70.52,65a1,1,0,0,1,0,2l-26.4,1.31a19.69,19.69,0,0,1-4.27-.19Z"/><path class="cls-19" d="M70.52,65,44.14,63.65a18.83,18.83,0,0,0-4.31.19l-4.31.66V66h36A1,1,0,0,0,70.52,65Z"/><path class="cls-8" d="M40.52,63.75c-.23,0-.46,0-.69.09l-4.31.66v3l4.33.67.67.08Z"/><path class="cls-9" d="M35.52,64.5V66h5V63.75c-.23,0-.46,0-.69.09Z"/><path class="cls-7" d="M35.52,67.5v-3l4.31-.66a18.83,18.83,0,0,1,4.31-.19L70.52,65a1,1,0,0,1,0,2l-26.4,1.31a19.69,19.69,0,0,1-4.27-.19Z"/><path class="cls-20" d="M33,63c-3,0-3.5,3-7,2a5.18,5.18,0,0,0,1.42,2.19c2.29-.06,3-2.19,5.58-2.19a2.63,2.63,0,0,1,2.5,1.5v-2A2.63,2.63,0,0,0,33,63Z"/><path class="cls-7" d="M35.52,64.5A2.63,2.63,0,0,0,33,63c-3,0-3.5,3-7,2,1.41,4.21,7.5,5,9.5,2.5Z"/><path class="cls-7" d="M40.52,63.75c-.23,0-.46,0-.69.09l-4.31.66v3l4.33.67.67.08Z"/><polygon class="cls-8" points="36.51 41 30.52 43.5 36.51 46 36.51 41"/><path class="cls-21" d="M56.51,46V41H63a2.5,2.5,0,1,1,0,5Z"/><path class="cls-22" d="M65.51,43.5A2.49,2.49,0,0,0,63,41h-6.5v2.5Z"/><path class="cls-7" d="M56.51,46V41H63a2.5,2.5,0,1,1,0,5Z"/><rect class="cls-21" x="44.01" y="33.5" width="5" height="20" transform="translate(90.01 -3.01) rotate(90)"/><rect class="cls-22" x="45.26" y="32.25" width="2.5" height="20" transform="translate(88.76 -4.26) rotate(90)"/><rect class="cls-7" x="44.01" y="33.5" width="5" height="20" transform="translate(90.01 -3.01) rotate(90)"/><polygon class="cls-9" points="30.52 43.5 36.51 43.5 36.51 41 30.52 43.5 30.52 43.5"/><polygon class="cls-7" points="36.51 41 30.52 43.5 36.51 46 36.51 41"/><path class="cls-7" d="M61.52,41A2.5,2.5,0,0,0,59,38.5h-6.5"/></g></svg>