<svg id="Multicolor" xmlns="http://www.w3.org/2000/svg" viewBox="0 0 100 112"><defs><style>.cls-1{fill:#e8f4fa;}.cls-2{fill:#f7e5c6;}.cls-3{fill:#fff5e3;}.cls-4{fill:#f0c2a1;}.cls-5,.cls-7,.cls-8{fill:none;}.cls-14,.cls-15,.cls-19,.cls-5,.cls-7{stroke:#191816;}.cls-14,.cls-15,.cls-19,.cls-5,.cls-7,.cls-8{stroke-linecap:round;stroke-linejoin:round;}.cls-6{fill:#ffe3cf;}.cls-7{stroke-dasharray:0.99 1.48;}.cls-8{stroke:#e04122;}.cls-9{fill:#ffe500;}.cls-10{fill:#fff48c;}.cls-11{fill:#00b8f0;}.cls-12{fill:#4acfff;}.cls-13{fill:#ff6242;}.cls-14{fill:#dea47a;}.cls-15{fill:#fff;}.cls-16{fill:#ff866e;}.cls-17,.cls-19{fill:#adc4d9;}.cls-18{fill:#daedf7;}.cls-20{fill:#191816;}</style></defs><title>13 navigator-business-compass-map</title><g id="New_Symbol_53-42" data-name="New Symbol 53"><circle class="cls-1" cx="50" cy="56" r="40"/></g><path class="cls-2" d="M17.51,46.49,67.68,33.33a1.26,1.26,0,0,1,1.54.9l8.93,34L29.7,81A3,3,0,0,1,26,78.8Z"/><path class="cls-3" d="M17.51,46.49,60.09,35.32l-26,44.49L29.7,81A3,3,0,0,1,26,78.8Z"/><path class="cls-4" d="M21.75,62.64l4.4-1.15a3,3,0,0,1,3.71,2.16h0a1.52,1.52,0,0,0,1.86,1.09h0a1.51,1.51,0,0,1,1.85,1.08L34,67.29a1.53,1.53,0,0,0,1.86,1.08L37.28,68a1.53,1.53,0,0,0,1.08-1.86h0a1.51,1.51,0,0,1,1.08-1.85l.74-.19A2.27,2.27,0,0,1,43,65.71h0a2.28,2.28,0,0,0,2.78,1.63l.73-.2A4.56,4.56,0,0,1,52,70.39l1.16,4.41L29.7,81A3,3,0,0,1,26,78.8Z"/><path class="cls-5" d="M17.51,46.49,67.68,33.33a1.26,1.26,0,0,1,1.54.9l8.93,34L29.7,81A3,3,0,0,1,26,78.8Z"/><path class="cls-4" d="M61.08,57a3,3,0,0,0,4.19,2,3.15,3.15,0,0,0,1.64-3.7l-1.5-5.71a1.53,1.53,0,0,1,1.09-1.86h0a1.51,1.51,0,0,0,1.08-1.85L66.81,43a1.51,1.51,0,0,1,1.08-1.85h0a3.05,3.05,0,0,0,2.17-3.71l-.84-3.18a1.26,1.26,0,0,0-1.54-.9L49.81,38a4.56,4.56,0,0,0-3.25,5.56l.77,2.93a4.55,4.55,0,0,0,5.57,3.25l1.46-.38a1.52,1.52,0,0,1,1.86,1.08L57,53.4a1.51,1.51,0,0,0,1.85,1.08h0a1.53,1.53,0,0,1,1.86,1.08Z"/><path class="cls-6" d="M49.81,38a4.56,4.56,0,0,0-3.25,5.56l.77,2.93a4.56,4.56,0,0,0,4.25,3.38l8.51-14.57Z"/><path class="cls-6" d="M40.18,64.09l-.74.19a1.51,1.51,0,0,0-1.08,1.85A1.53,1.53,0,0,1,37.28,68l-1.47.38A1.53,1.53,0,0,1,34,67.29l-.38-1.47a1.51,1.51,0,0,0-1.85-1.08,1.52,1.52,0,0,1-1.86-1.09,3,3,0,0,0-3.71-2.16l-4.4,1.15L26,78.8A3,3,0,0,0,29.7,81l4.4-1.15,8.59-14.7A2.26,2.26,0,0,0,40.18,64.09Z"/><path class="cls-5" d="M61.08,57a3,3,0,0,0,4.19,2,3.15,3.15,0,0,0,1.64-3.7l-1.5-5.71a1.53,1.53,0,0,1,1.09-1.86h0a1.51,1.51,0,0,0,1.08-1.85L66.81,43a1.51,1.51,0,0,1,1.08-1.85h0a3.05,3.05,0,0,0,2.17-3.71l-.84-3.18a1.26,1.26,0,0,0-1.54-.9L49.81,38a4.56,4.56,0,0,0-3.25,5.56l.77,2.93a4.55,4.55,0,0,0,5.57,3.25l1.46-.38a1.52,1.52,0,0,1,1.86,1.08L57,53.4a1.51,1.51,0,0,0,1.85,1.08h0a1.53,1.53,0,0,1,1.86,1.08Z"/><path class="cls-6" d="M40.07,54.7l.77,2.94a3,3,0,0,0,5.87-1.55l-.77-2.93a3,3,0,1,0-5.87,1.54Z"/><path class="cls-5" d="M40.07,54.7l.77,2.94a3,3,0,0,0,5.87-1.55l-.77-2.93a3,3,0,1,0-5.87,1.54Z"/><path class="cls-5" d="M35.59,49.6a3,3,0,1,1-3.71-2.17A3,3,0,0,1,35.59,49.6Z"/><line class="cls-5" x1="31.5" y1="45.96" x2="33.81" y2="54.77"/><line class="cls-5" x1="28.25" y1="51.52" x2="37.06" y2="49.21"/><path class="cls-5" d="M21.75,62.64l4.4-1.15a3,3,0,0,1,3.71,2.16h0a1.52,1.52,0,0,0,1.86,1.09h0a1.51,1.51,0,0,1,1.85,1.08L34,67.29a1.53,1.53,0,0,0,1.86,1.08L37.28,68a1.53,1.53,0,0,0,1.08-1.86h0a1.51,1.51,0,0,1,1.08-1.85l.74-.19A2.27,2.27,0,0,1,43,65.71h0a2.28,2.28,0,0,0,2.78,1.63l.73-.2A4.56,4.56,0,0,1,52,70.39l1.16,4.41L29.7,81A3,3,0,0,1,26,78.8Z"/><path class="cls-5" d="M29.7,81A3,3,0,0,1,26,78.8"/><path class="cls-2" d="M26,78.8a3,3,0,0,1,2.16-3.71,3.07,3.07,0,0,1,2.58.49.38.38,0,0,0,.58-.41L23,43.65a3.16,3.16,0,0,0-3.44-2.4A3,3,0,0,0,17.13,45Z"/><path class="cls-3" d="M19.29,41.32A3,3,0,0,0,17.13,45L26,78.8a3,3,0,0,1,2.16-3.71Z"/><path class="cls-5" d="M26,78.8a3,3,0,0,1,2.16-3.71,3.07,3.07,0,0,1,2.58.49.38.38,0,0,0,.58-.41L23,43.65a3.16,3.16,0,0,0-3.44-2.4A3,3,0,0,0,17.13,45Z"/><line class="cls-5" x1="62.02" y1="42.66" x2="62.14" y2="43.14"/><path class="cls-7" d="M62.4,44.6a6.08,6.08,0,0,1-4.52,6.21L52,52.35a3,3,0,0,0-2.17,3.71L50.61,59a3,3,0,0,0,3.71,2.17A3,3,0,0,1,58,63.33a4.57,4.57,0,0,0,5.57,3.25l2.93-.78a4.57,4.57,0,0,1,5.42,2.79"/><line class="cls-5" x1="72.15" y1="69.3" x2="72.28" y2="69.79"/><line class="cls-8" x1="59.24" y1="41.04" x2="64.8" y2="44.28"/><line class="cls-8" x1="63.64" y1="39.88" x2="60.39" y2="45.44"/><circle class="cls-5" cx="78.67" cy="55.16" r="3.79" transform="translate(-15.45 35.84) rotate(-23.43)"/><path class="cls-9" d="M77.85,61.37,75,60.25,76,57.9a1.26,1.26,0,0,1,1.64-.71l.47.18A1.26,1.26,0,0,1,78.78,59Z"/><path class="cls-5" d="M77.85,61.37,75,60.25,76,57.9a1.26,1.26,0,0,1,1.64-.71l.47.18A1.26,1.26,0,0,1,78.78,59Z"/><path class="cls-9" d="M81.42,70.94a8.35,8.35,0,1,1-4.7-10.84A8.35,8.35,0,0,1,81.42,70.94Z"/><path class="cls-10" d="M66,71.19a8.35,8.35,0,1,1,15.32-6.64Z"/><path class="cls-11" d="M78.59,69.82a5.31,5.31,0,1,1-3-6.89A5.31,5.31,0,0,1,78.59,69.82Z"/><path class="cls-12" d="M68.78,70a5.31,5.31,0,1,1,9.75-4.22Z"/><path class="cls-5" d="M81.42,70.94a8.35,8.35,0,1,1-4.7-10.84A8.35,8.35,0,0,1,81.42,70.94Z"/><path class="cls-5" d="M78.59,69.82a5.31,5.31,0,1,1-3-6.89A5.31,5.31,0,0,1,78.59,69.82Z"/><line class="cls-8" x1="74.49" y1="65.75" x2="73.65" y2="67.87"/><line class="cls-5" x1="73.65" y1="67.87" x2="72.82" y2="69.99"/><rect class="cls-13" x="32.83" y="29.52" width="21.25" height="4.55" transform="translate(-9.55 22.3) rotate(-26.03)"/><polygon class="cls-14" points="57.77 24.8 52 25.09 54 29.18 57.77 24.8"/><line class="cls-5" x1="57.77" y1="24.8" x2="59.14" y2="24.14"/><path class="cls-15" d="M32,40a1.25,1.25,0,0,1-1.69-.58l-.89-1.82A1.26,1.26,0,0,1,30,35.86l3-1.44,2,4.09Z"/><rect class="cls-16" x="32.37" y="29.63" width="21.25" height="2.45" transform="translate(-9.18 22) rotate(-26.03)"/><rect class="cls-5" x="32.83" y="29.52" width="21.25" height="4.55" transform="translate(-9.55 22.3) rotate(-26.03)"/><rect class="cls-17" x="38.68" y="82.58" width="25.81" height="4.55"/><rect class="cls-18" x="38.68" y="82.58" width="25.81" height="2.28"/><line class="cls-5" x1="34.13" y1="84.86" x2="31.09" y2="84.86"/><rect class="cls-5" x="38.68" y="82.58" width="25.81" height="4.55"/><polygon class="cls-19" points="34.13 84.86 38.68 87.13 38.68 82.58 34.13 84.86"/><path class="cls-17" d="M39.51,76.08l20.57,5.35a4.55,4.55,0,1,0,5.55-3.26l-25-6.5Z"/><path class="cls-18" d="M40.09,73.87l22,5.74a4.52,4.52,0,0,1,2.15,7.52,4.56,4.56,0,0,0,1.36-9l-25-6.5Z"/><line class="cls-5" x1="35.68" y1="72.73" x2="32.74" y2="71.96"/><path class="cls-5" d="M39.51,76.08l20.57,5.35a4.55,4.55,0,1,0,5.55-3.26l-25-6.5Z"/><polygon class="cls-19" points="35.68 72.73 39.51 76.08 40.66 71.67 35.68 72.73"/><path class="cls-20" d="M64.49,82.32h.06a.27.27,0,0,1,.19.33.26.26,0,0,1-.25.2h-.07a.26.26,0,0,1,.07-.52m0-1a1.26,1.26,0,0,0-.32,2.48,1.13,1.13,0,0,0,.32,0,1.27,1.27,0,0,0,.32-2.49,1.22,1.22,0,0,0-.32,0Z"/></svg>