<svg id="Multicolor" xmlns="http://www.w3.org/2000/svg" viewBox="0 0 100 112"><defs><style>.cls-1{fill:#e8f4fa;}.cls-2{fill:#191816;opacity:0.15;}.cls-11,.cls-3,.cls-7{fill:#fff;}.cls-3,.cls-6,.cls-7{stroke:#191816;}.cls-10,.cls-3,.cls-6{stroke-linecap:round;}.cls-10,.cls-3,.cls-6,.cls-7{stroke-linejoin:round;}.cls-4{fill:#00b8f0;}.cls-5{fill:#4acfff;}.cls-10,.cls-6{fill:none;}.cls-8{fill:#ff6242;}.cls-9{fill:#ff866e;}.cls-10{stroke:#fff;stroke-width:2px;}</style></defs><title>14- iphone-message-notification</title><g id="Background"><g id="New_Symbol_51-2" data-name="New Symbol 51"><circle class="cls-1" cx="50" cy="56" r="40"/></g></g><g id="Scene"><ellipse class="cls-2" cx="55.29" cy="87.55" rx="15.32" ry="1.81"/><rect class="cls-3" x="38.55" y="49.17" width="40.29" height="21.26" rx="3.04" ry="3.04" transform="translate(-21.97 82.5) rotate(-61.26)"/><rect class="cls-4" x="44.63" y="49.17" width="28.13" height="21.26" transform="translate(-21.97 82.5) rotate(-61.25)"/><polygon class="cls-5" points="44.09 64.3 74.05 52.18 56.13 42.36 44.09 64.3"/><rect class="cls-6" x="44.63" y="49.17" width="28.13" height="21.26" transform="translate(-21.97 82.5) rotate(-61.25)"/><line class="cls-6" x1="69.59" y1="46.27" x2="70.26" y2="46.64"/><line class="cls-6" x1="63.33" y1="42.87" x2="67.62" y2="45.29"/><path class="cls-7" d="M22.88,31.07A2.1,2.1,0,0,1,25,29H48a2.09,2.09,0,0,1,2.09,2.09v16.2A2.08,2.08,0,0,1,48,49.36H40.65v2.31a1.22,1.22,0,0,1-.75,1.12,1.2,1.2,0,0,1-1.31-.27l-3.17-3.16H25a2.09,2.09,0,0,1-2.09-2.09Z"/><circle class="cls-8" cx="46.43" cy="28.98" r="7.24"/><path class="cls-9" d="M46.43,24.76a7.24,7.24,0,0,1,7.08,5.73A6.79,6.79,0,0,0,53.67,29a7.25,7.25,0,0,0-14.49,0,7.43,7.43,0,0,0,.16,1.51A7.26,7.26,0,0,1,46.43,24.76Z"/><circle class="cls-6" cx="46.43" cy="28.98" r="7.24"/><line class="cls-10" x1="46.43" y1="24.76" x2="46.43" y2="28.38"/><path class="cls-11" d="M46.43,32.1a.21.21,0,1,1,0,.41.2.2,0,0,1-.21-.2.21.21,0,0,1,.21-.21m0-1a1.21,1.21,0,1,0,1.21,1.21,1.21,1.21,0,0,0-1.21-1.21Z"/><line class="cls-6" x1="27.71" y1="36.23" x2="39.18" y2="36.23"/><line class="cls-6" x1="27.71" y1="39.85" x2="43.41" y2="39.85"/><line class="cls-6" x1="27.71" y1="43.47" x2="43.41" y2="43.47"/><circle class="cls-7" cx="50.47" cy="74.8" r="0.6"/></g></svg>