<svg id="Multicolor" xmlns="http://www.w3.org/2000/svg" viewBox="0 0 100 112"><defs><style>.cls-1{fill:#e8f4fa;}.cls-14,.cls-2{fill:#fff;}.cls-11,.cls-12,.cls-3{fill:none;}.cls-11,.cls-12,.cls-13,.cls-14,.cls-17,.cls-18,.cls-19,.cls-20,.cls-21,.cls-23,.cls-26,.cls-29,.cls-3,.cls-4,.cls-7{stroke:#45413c;stroke-linejoin:round;}.cls-12,.cls-13,.cls-14,.cls-17,.cls-18,.cls-19,.cls-20,.cls-21,.cls-23,.cls-26,.cls-29,.cls-3,.cls-4,.cls-7{stroke-linecap:round;}.cls-4{fill:#8ca4b8;}.cls-11,.cls-12,.cls-13,.cls-14,.cls-17,.cls-18,.cls-19,.cls-20,.cls-21,.cls-4,.cls-7{stroke-width:1.2px;}.cls-5{fill:#6dd627;}.cls-6{fill:#9ceb60;}.cls-15,.cls-26,.cls-7{fill:#d18660;}.cls-8{fill:#45413c;opacity:0.15;}.cls-29,.cls-9{fill:#00b8f0;}.cls-10{fill:#4acfff;}.cls-13,.cls-27{fill:#ff6242;}.cls-16{fill:#bd704a;}.cls-17{fill:#adc4d9;}.cls-18{fill:#87898c;}.cls-19{fill:#ffe500;}.cls-20{fill:#bdbec0;}.cls-21{fill:#46b000;}.cls-22{fill:#e09f7e;}.cls-23,.cls-24{fill:#724f3d;}.cls-25{fill:#a86c4d;}.cls-28{fill:#ff866e;}</style></defs><title>15- cashier-store-clerk-female-african-american-1</title><g id="Background"><g id="New_Symbol_54-2" data-name="New Symbol 54"><path class="cls-1" d="M90,56.3A40,40,0,1,0,13.56,72.8H86.44A39.92,39.92,0,0,0,90,56.3Z"/><path class="cls-2" d="M13.56,72.8a40,40,0,0,0,72.88,0Z"/><line class="cls-3" x1="10.5" y1="72.8" x2="88.5" y2="72.8"/><line class="cls-3" x1="6" y1="72.8" x2="8.5" y2="72.8"/><line class="cls-3" x1="90.5" y1="72.8" x2="93" y2="72.8"/></g></g><g id="Scene"><path class="cls-4" d="M36.1,78.81H15.7l2.22-14a1.2,1.2,0,0,1,1.18-1H32.7a1.21,1.21,0,0,1,1.18,1Z"/><polygon class="cls-5" points="17.09 69.81 34.71 69.81 34.11 66.21 17.68 66.21 17.09 69.81"/><polygon class="cls-6" points="17.68 66.21 17.09 69.81 20.44 69.81 24.04 66.21 17.68 66.21"/><path class="cls-7" d="M76.9,80.61a2.09,2.09,0,0,1-.43,0l-5.32-1a2,2,0,0,1-.33-.09A8.65,8.65,0,0,1,64.9,71.3V68a2.4,2.4,0,0,1,4.8,0V71.3a3.87,3.87,0,0,0,2.54,3.63l5.09.92a2.4,2.4,0,0,1-.43,4.76Z"/><ellipse class="cls-8" cx="25.6" cy="82.71" rx="12.9" ry="2.7"/><path class="cls-9" d="M63.9,75.81a1,1,0,0,0,.71-.29,1,1,0,0,0,.29-.71v-4.4h5a1,1,0,0,0,1-1V68.2a15.6,15.6,0,0,0-31.2,0v1.21a1,1,0,0,0,1,1h5v4.4a1,1,0,0,0,1,1Z"/><path class="cls-10" d="M55.3,52.6A15.63,15.63,0,0,0,39.7,68.2v1.21a1,1,0,0,0,.28.69,15.59,15.59,0,0,1,30.64,0,1,1,0,0,0,.28-.69V68.2A15.6,15.6,0,0,0,55.3,52.6Z"/><path class="cls-11" d="M46.7,75.81a1,1,0,0,1-1-1v-4.4h-5a1,1,0,0,1-1-1V68.2a15.6,15.6,0,0,1,31.2,0v1.21a1,1,0,0,1-1,1h-5v4.4a1,1,0,0,1-.29.71,1,1,0,0,1-.71.29Z"/><line class="cls-12" x1="64.9" y1="68.62" x2="64.9" y2="66.62"/><path class="cls-13" d="M62.5,63.21V59.39l-3-.38v6.2a1,1,0,0,1-1,1H52.1a1,1,0,0,1-1-1V59l-3,.38v3.82c0,2.43,0,9-2.4,9v2.6a1,1,0,0,0,1,1H63.9a1,1,0,0,0,1-1v-2.6C62.47,72.21,62.5,65.61,62.5,63.21Z"/><path class="cls-14" d="M48.7,54.21l-2.4,5.4,4.8-.6v1.8L55.3,62V53l-1.82-.3c-.6.07-1.2-1-1.78-.9h0A5,5,0,0,0,48.7,54.21Z"/><path class="cls-14" d="M61.9,54.21l2.4,5.4L59.5,59v1.8L55.3,62V53l1.81-.3c.61.07,1.21-1,1.79-.9h0A5.06,5.06,0,0,1,61.9,54.21Z"/><line class="cls-12" x1="45.7" y1="70.41" x2="45.7" y2="66.62"/><path class="cls-15" d="M58.63,55.75,55.3,62,52,55.75a2.36,2.36,0,0,1-.26-1.08V49.84h7.2v4.83A2.37,2.37,0,0,1,58.63,55.75Z"/><path class="cls-16" d="M51.7,53a9.23,9.23,0,0,0,7.2,0v-3.2H51.7Z"/><path class="cls-12" d="M58.63,55.75,55.3,62,52,55.75a2.36,2.36,0,0,1-.26-1.08V49.84h7.2v4.83A2.37,2.37,0,0,1,58.63,55.75Z"/><path class="cls-14" d="M59.3,68.61h5.6a0,0,0,0,1,0,0v3.6a0,0,0,0,1,0,0H59.3a1,1,0,0,1-1-1v-1.6A1,1,0,0,1,59.3,68.61Z"/><path class="cls-17" d="M15.7,78.81H36.1a0,0,0,0,1,0,0v2.4a1.2,1.2,0,0,1-1.2,1.2h-18a1.2,1.2,0,0,1-1.2-1.2v-2.4a0,0,0,0,1,0,0Z"/><path class="cls-18" d="M31.3,63.81H20.5l.37-1.49A1.2,1.2,0,0,1,22,61.41h7.73a1.2,1.2,0,0,1,1.16.91Z"/><path class="cls-14" d="M30.1,54.81H25.3a2.4,2.4,0,0,0-2.4,2.4v4.2h5.4v-4.8A1.8,1.8,0,0,1,30.1,54.81Z"/><path class="cls-14" d="M28.3,58.41h2.6a1,1,0,0,0,1-1v-.8a1.8,1.8,0,0,0-3.6,0Z"/><polygon class="cls-12" points="17.09 69.81 34.71 69.81 34.11 66.21 17.68 66.21 17.09 69.81"/><path class="cls-19" d="M27.1,76.11a.9.9,0,0,1-.9.9h-.6a.9.9,0,1,1,0-1.8h.6A.9.9,0,0,1,27.1,76.11Z"/><path class="cls-20" d="M27.1,72.51a.9.9,0,0,1-.9.9h-.6a.9.9,0,0,1,0-1.8h.6A.9.9,0,0,1,27.1,72.51Z"/><path class="cls-20" d="M31.9,72.51a.9.9,0,0,1-.9.9h-.6a.9.9,0,1,1,0-1.8H31A.9.9,0,0,1,31.9,72.51Z"/><path class="cls-21" d="M32.5,76.11a.9.9,0,0,1-.9.9H31a.9.9,0,0,1,0-1.8h.6A.9.9,0,0,1,32.5,76.11Z"/><path class="cls-20" d="M22.3,72.51a.9.9,0,0,1-.9.9h-.6a.9.9,0,0,1,0-1.8h.6A.9.9,0,0,1,22.3,72.51Z"/><path class="cls-13" d="M21.7,76.11a.9.9,0,0,1-.9.9h-.6a.9.9,0,0,1,0-1.8h.6A.9.9,0,0,1,21.7,76.11Z"/><rect class="cls-14" x="73.15" y="63.99" width="9.6" height="19.02" rx="1.2" ry="1.2"/><rect class="cls-9" x="73.15" y="68.01" width="9.6" height="11.4"/><polygon class="cls-10" points="73.14 75.53 80.66 68.01 73.14 68.01 73.14 75.53"/><rect class="cls-12" x="73.15" y="68.01" width="9.6" height="11.4"/><path class="cls-15" d="M83.55,79.34a1.21,1.21,0,0,1-1.15.87H79.62a2.87,2.87,0,0,1-2.87-2.88V75.89A2.87,2.87,0,0,1,79.62,73H82.4a1.2,1.2,0,0,1,1.15.86A9.61,9.61,0,0,1,83.55,79.34Z"/><path class="cls-22" d="M78.09,79.08V77.64A2.88,2.88,0,0,1,81,74.76h2.77a6.71,6.71,0,0,0-.19-.89A1.2,1.2,0,0,0,82.4,73H79.62a2.87,2.87,0,0,0-2.87,2.88v1.44a2.85,2.85,0,0,0,1.45,2.48A2.53,2.53,0,0,1,78.09,79.08Z"/><path class="cls-12" d="M83.55,79.34a1.21,1.21,0,0,1-1.15.87H79.62a2.87,2.87,0,0,1-2.87-2.88V75.89A2.87,2.87,0,0,1,79.62,73H82.4a1.2,1.2,0,0,1,1.15.86A9.61,9.61,0,0,1,83.55,79.34Z"/><line class="cls-12" x1="76.15" y1="66" x2="79.75" y2="66"/><path class="cls-7" d="M45.7,70.41v3.35a4.15,4.15,0,0,0,7.61,2.3l.54-.81a2.1,2.1,0,1,1,3.49,2.33l-.54.81a8.35,8.35,0,0,1-15.3-4.63V70.41Z"/><path class="cls-23" d="M61.69,58.07c-.14-1.64.64-3,1.73-3.14s2.1,1.16,2.24,2.8-.63,3.05-1.72,3.15S61.84,59.72,61.69,58.07Z"/><path class="cls-23" d="M61.35,54.11c-.14-1.65.63-3.06,1.73-3.15s2.1,1.16,2.24,2.8-.63,3.06-1.73,3.15S61.49,55.75,61.35,54.11Z"/><path class="cls-23" d="M61,50.14c-.14-1.65.63-3,1.73-3.15S64.83,48.15,65,49.8s-.63,3.05-1.73,3.14S61.15,51.78,61,50.14Z"/><path class="cls-23" d="M67.17,63.59c.14,1.65-2.55,5.22-2.55,5.22s-3.26-3.06-3.4-4.7a3,3,0,0,1,6-.52Z"/><path class="cls-23" d="M48.65,58.07c.14-1.64-.63-3-1.73-3.14s-2.1,1.16-2.24,2.8.63,3.05,1.73,3.15S48.51,59.72,48.65,58.07Z"/><path class="cls-23" d="M49,54.11c.14-1.65-.63-3.06-1.73-3.15s-2.1,1.16-2.24,2.8.63,3.06,1.73,3.15S48.85,55.75,49,54.11Z"/><path class="cls-23" d="M49.33,50.14c.14-1.65-.63-3-1.72-3.15s-2.1,1.16-2.24,2.81.63,3.05,1.72,3.14S49.19,51.78,49.33,50.14Z"/><path class="cls-23" d="M43.17,63.59c-.14,1.65,2.55,5.22,2.55,5.22s3.26-3.06,3.4-4.7a3,3,0,0,0-5.95-.52Z"/><path class="cls-24" d="M69.63,36.82c.94-.56,1-2.16.19-3.58a3.9,3.9,0,0,0-1.49-1.48A1.62,1.62,0,0,0,69.57,31c.53-1-.22-2.39-1.67-3.18a3.41,3.41,0,0,0-2.68-.33l-.43-.5A1.79,1.79,0,0,0,66,25.71c.19-1.09-1-2.2-2.6-2.48a3.32,3.32,0,0,0-2.84.66l0,0a1.61,1.61,0,0,0,.6-1.18c0-1.1-1.34-2-3-2s-3,.89-3,2c0-1.1-1.33-2-3-2s-3,.89-3,2a1.63,1.63,0,0,0,.59,1.18l0,0a3.31,3.31,0,0,0-2.84-.66c-1.62.28-2.79,1.39-2.6,2.48A1.78,1.78,0,0,0,45.56,27c-.15.16-.3.33-.44.5a3.39,3.39,0,0,0-2.67.33C41,28.61,40.25,30,40.77,31a1.64,1.64,0,0,0,1.25.76,3.86,3.86,0,0,0-1.5,1.48c-.84,1.42-.75,3,.2,3.58a1.55,1.55,0,0,0,1.15.14,3.18,3.18,0,0,0-.72,3c.31,1.62,1.45,2.76,2.53,2.55a1.43,1.43,0,0,0,.43-.17,12.91,12.91,0,0,0,22.13,0,1.33,1.33,0,0,0,.43.17c1.08.21,2.21-.93,2.53-2.55a3.2,3.2,0,0,0-.72-3A1.56,1.56,0,0,0,69.63,36.82Z"/><path class="cls-25" d="M69.82,33.24a3.9,3.9,0,0,0-1.49-1.48A1.62,1.62,0,0,0,69.57,31c.53-1-.22-2.39-1.67-3.18a3.41,3.41,0,0,0-2.68-.33l-.43-.5A1.79,1.79,0,0,0,66,25.71c.19-1.09-1-2.2-2.6-2.48a3.32,3.32,0,0,0-2.84.66l0,0a1.61,1.61,0,0,0,.6-1.18c0-1.1-1.34-2-3-2s-3,.89-3,2c0-1.1-1.33-2-3-2s-3,.89-3,2a1.63,1.63,0,0,0,.59,1.18l0,0a3.31,3.31,0,0,0-2.84-.66c-1.62.28-2.79,1.39-2.6,2.48A1.78,1.78,0,0,0,45.56,27c-.15.16-.3.33-.44.5a3.39,3.39,0,0,0-2.67.33C41,28.61,40.25,30,40.77,31a1.64,1.64,0,0,0,1.25.76,3.86,3.86,0,0,0-1.5,1.48c-.84,1.42-.75,3,.2,3.58a1.49,1.49,0,0,0,1.12.14,3.23,3.23,0,0,1,.47-2.05,3.41,3.41,0,0,1,1.32-1.3,1.43,1.43,0,0,1-1.1-.67c-.46-.85.19-2.09,1.47-2.78a2.93,2.93,0,0,1,2.35-.3c.12-.15.25-.29.38-.44a1.57,1.57,0,0,1-1.09-1.12c-.17-1,.85-1.93,2.28-2.18a2.91,2.91,0,0,1,2.5.58l0,0a1.4,1.4,0,0,1-.52-1c0-1,1.17-1.75,2.62-1.75s2.62.78,2.62,1.75c0-1,1.18-1.75,2.62-1.75s2.63.78,2.63,1.75a1.4,1.4,0,0,1-.52,1l0,0a2.91,2.91,0,0,1,2.5-.58c1.42.25,2.44,1.22,2.28,2.18a1.57,1.57,0,0,1-1.09,1.12c.12.15.26.29.38.44a2.94,2.94,0,0,1,2.35.3c1.27.69,1.93,1.93,1.47,2.78a1.47,1.47,0,0,1-1.1.67A3.48,3.48,0,0,1,68,34.91,3.23,3.23,0,0,1,68.51,37a1.49,1.49,0,0,0,1.12-.14C70.57,36.26,70.66,34.66,69.82,33.24Z"/><path class="cls-3" d="M69.63,36.82c.94-.56,1-2.16.19-3.58a3.9,3.9,0,0,0-1.49-1.48A1.62,1.62,0,0,0,69.57,31c.53-1-.22-2.39-1.67-3.18a3.41,3.41,0,0,0-2.68-.33l-.43-.5A1.79,1.79,0,0,0,66,25.71c.19-1.09-1-2.2-2.6-2.48a3.32,3.32,0,0,0-2.84.66l0,0a1.61,1.61,0,0,0,.6-1.18c0-1.1-1.34-2-3-2s-3,.89-3,2c0-1.1-1.33-2-3-2s-3,.89-3,2a1.63,1.63,0,0,0,.59,1.18l0,0a3.31,3.31,0,0,0-2.84-.66c-1.62.28-2.79,1.39-2.6,2.48A1.78,1.78,0,0,0,45.56,27c-.15.16-.3.33-.44.5a3.39,3.39,0,0,0-2.67.33C41,28.61,40.25,30,40.77,31a1.64,1.64,0,0,0,1.25.76,3.86,3.86,0,0,0-1.5,1.48c-.84,1.42-.75,3,.2,3.58a1.55,1.55,0,0,0,1.15.14,3.18,3.18,0,0,0-.72,3c.31,1.62,1.45,2.76,2.53,2.55a1.43,1.43,0,0,0,.43-.17,12.91,12.91,0,0,0,22.13,0,1.33,1.33,0,0,0,.43.17c1.08.21,2.21-.93,2.53-2.55a3.2,3.2,0,0,0-.72-3A1.56,1.56,0,0,0,69.63,36.82Z"/><path class="cls-26" d="M65.37,39.3V37.57a10.71,10.71,0,0,1-2.5-3,2.38,2.38,0,0,0-2.87-1,14.47,14.47,0,0,1-4.83,1.13,14.42,14.42,0,0,1-4.82-1.13,2.38,2.38,0,0,0-2.87,1,10.9,10.9,0,0,1-2.51,3V39.3a1.8,1.8,0,0,0-1.8,1.8v.6A1.81,1.81,0,0,0,45,43.5l.17,0a10.19,10.19,0,0,0,20.07,0l.16,0a1.8,1.8,0,0,0,1.8-1.8v-.6A1.79,1.79,0,0,0,65.37,39.3Z"/><path class="cls-16" d="M50.37,43.5a1.2,1.2,0,1,1-1.2-1.2A1.2,1.2,0,0,1,50.37,43.5Z"/><path class="cls-16" d="M62.37,43.5a1.2,1.2,0,1,1-1.2-1.2A1.2,1.2,0,0,1,62.37,43.5Z"/><path class="cls-3" d="M52.17,45.9a4.35,4.35,0,0,0,6,0"/><path class="cls-3" d="M60.57,40.5a1.62,1.62,0,0,0-3,0"/><path class="cls-3" d="M52.77,40.3a1.63,1.63,0,0,0-3,0"/><path class="cls-27" d="M43.23,32.6v2.19H66.09V32.6C66.09,24.71,43.23,24.74,43.23,32.6Z"/><path class="cls-28" d="M43.23,32.6v2.19h.05c1.1-7.07,21.67-7.09,22.76,0h0V32.6C66.09,24.71,43.23,24.74,43.23,32.6Z"/><path class="cls-3" d="M43.23,32.6v2.19H66.09V32.6C66.09,24.71,43.23,24.74,43.23,32.6Z"/><path class="cls-29" d="M41.42,35.39h0a3.61,3.61,0,0,0,4.45,2.19,5.37,5.37,0,0,0,.56-.21,19.79,19.79,0,0,1,16.45,0,5.2,5.2,0,0,0,.55.21A3.63,3.63,0,0,0,67.9,35.4h0S60.24,32,54.66,32,41.42,35.39,41.42,35.39Z"/></g></svg>