<svg viewBox="0 0 100 112" xmlns="http://www.w3.org/2000/svg"><path d="m90.34 56a40 40 0 1 0 -76.44 16.5h72.87a39.7 39.7 0 0 0 3.57-16.5z" fill="#e8f4fa"/><path d="m13.9 72.5a40 40 0 0 0 72.87 0z" fill="#fff"/><path d="m11.34 72.5h78" fill="none" stroke="#4f4a45" stroke-linecap="round" stroke-linejoin="round"/><path d="m6.84 72.5h2.5" fill="none" stroke="#4f4a45" stroke-linecap="round" stroke-linejoin="round"/><path d="m91.34 72.5h2.5" fill="none" stroke="#4f4a45" stroke-linecap="round" stroke-linejoin="round"/><path d="m18.49 44.36h47.88a0 0 0 0 1 0 0v26.29a1.87 1.87 0 0 1 -1.87 1.87h-44.13a1.87 1.87 0 0 1 -1.87-1.87v-26.29a0 0 0 0 1 -.01 0z" fill="#fff" stroke="#191816" stroke-linecap="round" stroke-linejoin="round"/><path d="m20.58 37.6h43.7a2.09 2.09 0 0 1 2.09 2.09v4.67a0 0 0 0 1 0 0h-47.88a0 0 0 0 1 0 0v-4.67a2.09 2.09 0 0 1 2.09-2.09z" fill="#adc4d9"/><path d="m64 37.6h-43.15a2.36 2.36 0 0 0 -2.36 2.4v2.82a2.36 2.36 0 0 1 2.36-2.35h43.15a2.35 2.35 0 0 1 2.35 2.35v-2.82a2.35 2.35 0 0 0 -2.35-2.4z" fill="#c0dceb"/><g stroke-linecap="round" stroke-linejoin="round"><path d="m20.58 37.6h43.7a2.09 2.09 0 0 1 2.09 2.09v4.67a0 0 0 0 1 0 0h-47.88a0 0 0 0 1 0 0v-4.67a2.09 2.09 0 0 1 2.09-2.09z" fill="none" stroke="#191816"/><circle cx="21.87" cy="40.98" fill="#ff6242" r="1.13" stroke="#191816"/><circle cx="26.38" cy="40.98" fill="#ffe500" r="1.13" stroke="#191816"/><circle cx="30.89" cy="40.98" fill="#6dd627" r="1.13" stroke="#191816"/><path d="m81.85 79.28h-6.16a1.12 1.12 0 0 1 -1-1.7l2.36-3.93v-3.38h3.38v3.38l2.35 3.93a1.12 1.12 0 0 1 -.93 1.7z" fill="#00b8f0" stroke="#191816"/><path d="m74.72 77.58a1.12 1.12 0 0 0 1 1.7h6.16a1.12 1.12 0 0 0 1-1.7l-1-1.68h-6.16z" fill="#ff87af" stroke="#191816"/><rect fill="#ffe500" height="17.46" rx="1" stroke="#191816" width="3.38" x="22.44" y="50.56"/><path d="m37.58 59.57h2.42a.5.5 0 0 1 .5.5v6.93a1 1 0 0 1 -1 1h-1.42a1 1 0 0 1 -1-1v-6.93a.5.5 0 0 1 .5-.5z" fill="#ffe500" stroke="#191816"/><path d="m30.26 55.63h2.38a.5.5 0 0 1 .5.5v10.87a1 1 0 0 1 -1 1h-1.38a1 1 0 0 1 -1-1v-10.87a.5.5 0 0 1 .5-.5z" fill="#ffe500" stroke="#191816"/><path d="m80.46 70.27h-3.38a1.12 1.12 0 0 1 -1.08-1.13 1.12 1.12 0 0 1 1.08-1.14h3.38a1.12 1.12 0 0 1 1.12 1.12 1.12 1.12 0 0 1 -1.12 1.15z" fill="#bdbec0" stroke="#191816"/><path d="m67.5 65.76h9.83a1.45 1.45 0 0 1 1.44 1.44v.8" fill="none" stroke="#191816"/><rect fill="#bdbec0" height="2.82" rx="1" stroke="#191816" width="3.94" x="60.74" y="53.37"/><circle cx="48.35" cy="49.43" fill="#00b8f0" r="2.82" stroke="#191816"/><path d="m45.53 49.43a2.82 2.82 0 1 0 5.63 0 3.43 3.43 0 0 0 0-.56h-5.57a2.6 2.6 0 0 0 -.06.56z" fill="#ffe500" stroke="#191816"/><path d="m38.77 59.57v-7.89a2.26 2.26 0 0 1 2.23-2.25h4.5" fill="none" stroke="#191816"/><path d="m51.16 49.43h9a2.25 2.25 0 0 1 2.25 2.25v1.69" fill="none" stroke="#191816"/><rect fill="#ff6242" height="11.27" rx="1" stroke="#191816" width="17.46" x="44.97" y="56.75"/><path d="m64.12 62.06v-5.87h-2.82v5.87a4.79 4.79 0 1 0 2.82 0z" fill="#00b8f0" stroke="#191816"/><path d="m57.92 66.61a4.79 4.79 0 0 0 9.58 0 4.72 4.72 0 0 0 -.22-1.41h-9.13a4.73 4.73 0 0 0 -.23 1.41z" fill="#6dd627" stroke="#191816"/><path d="m43.84 49.43h-10.14a2.25 2.25 0 0 0 -2.25 2.25v4" fill="none" stroke="#191816"/><path d="m58.49 49.43h-2.26a2.25 2.25 0 0 0 -2.23 2.25v5.07" fill="none" stroke="#191816"/><path d="m68.63 68a1.13 1.13 0 0 1 -1.13-1.13v-1.11a1.12 1.12 0 0 1 1.13-1.12 1.12 1.12 0 0 1 1.12 1.12v1.13a1.13 1.13 0 0 1 -1.12 1.11z" fill="#bdbec0" stroke="#191816"/><path d="m70.5 72.89a3.37 3.37 0 0 0 -3.37-3.18h-8.84a3.38 3.38 0 0 0 -3.37 3.18l-.38 6.39h2.82l.39-4.69a2.26 2.26 0 0 1 2.25-2.07h5.43a2.25 2.25 0 0 1 2.24 2.07l.39 4.69h2.82z" fill="#daedf7" stroke="#191816"/><path d="m64.68 77.31a2 2 0 0 1 -3.94 0c0-1.65.88-3.1 2-3.1-.03 0-1.12 3.1 1.94 3.1z" fill="#ff8a14" stroke="#191816"/><path d="m59.61 79.28h6.2" fill="none" stroke="#191816"/></g><ellipse cx="69.19" cy="80.41" fill="#191816" opacity=".15" rx="16.9" ry="1.69"/></svg>