<svg id="Duotone" xmlns="http://www.w3.org/2000/svg" xmlns:xlink="http://www.w3.org/1999/xlink" viewBox="0 0 100 112"><defs><style>.cls-1,.cls-5,.cls-7{fill:none;}.cls-2{fill:#f0f2ff;}.cls-3,.cls-8,.cls-9{fill:#d6daff;}.cls-12,.cls-4,.cls-6{fill:#fff;}.cls-12,.cls-4,.cls-5,.cls-7,.cls-8,.cls-9{stroke:#4550e5;}.cls-4,.cls-5,.cls-9{stroke-linecap:round;}.cls-4,.cls-5,.cls-7,.cls-8,.cls-9{stroke-linejoin:round;}.cls-10{fill:#4550e5;}.cls-11{clip-path:url(#clip-path);}.cls-12{stroke-miterlimit:10;}</style><clipPath id="clip-path"><circle class="cls-1" cx="49.49" cy="55.99" r="40"/></clipPath></defs><title>17- sketch-idea</title><g id="Icons"><g id="Background"><g id="New_Symbol_69-18" data-name="New Symbol 69"><circle class="cls-2" cx="49.48" cy="55.99" r="40"/></g></g><g id="Scene"><circle class="cls-3" cx="33.49" cy="37.99" r="7"/><path class="cls-3" d="M79.24,34.36l1.42,4.27A1,1,0,0,1,80,39.9l-9.49,3.15a1,1,0,0,1-1.26-.64l-1.73-5.22a1,1,0,0,1,.63-1.26l8.54-2.84A2,2,0,0,1,79.24,34.36Z"/><path class="cls-3" d="M70.76,45.86,65,45.12V41a1.07,1.07,0,0,0-1.12-1H34.11A1.07,1.07,0,0,0,33,41v3.48l-6,.65a1,1,0,0,0-1,1.11L30.31,78a1.1,1.1,0,0,0,1.25.87l3.33-.36a1.12,1.12,0,0,0,.48.18l29.44,3.79a1.12,1.12,0,0,0,1.28-.84L71.71,47A1,1,0,0,0,70.76,45.86Z"/><rect class="cls-4" x="38.12" y="41.78" width="28.5" height="37" rx="1" ry="1" transform="translate(9.16 -6.87) rotate(8.22)"/><rect class="cls-4" x="30.08" y="41.49" width="27" height="34" rx="1" ry="1" transform="translate(-6.72 5.67) rotate(-6.91)"/><rect class="cls-4" x="34.49" y="37.99" width="28.5" height="37" rx="1" ry="1"/><path class="cls-4" d="M27.91,42.42a1.51,1.51,0,0,1-2.12,0,1.49,1.49,0,0,1,0-2.12l2.47-2.48,2.12,2.12Z"/><path class="cls-4" d="M28.62,39.59a6.5,6.5,0,1,0,0-9.19A6.49,6.49,0,0,0,28.62,39.59Z"/><circle class="cls-3" cx="33.21" cy="34.99" r="4.5"/><circle class="cls-5" cx="33.21" cy="34.99" r="4.5"/><path class="cls-6" d="M53,53.49a4.5,4.5,0,1,0-8,2.9A4,4,0,0,1,46,59v.52h5V59a4,4,0,0,1,.94-2.58A4.47,4.47,0,0,0,53,53.49Z"/><path class="cls-7" d="M53,53.49a4.5,4.5,0,1,0-8,2.9A4,4,0,0,1,46,59v.52h5V59a4,4,0,0,1,.94-2.58A4.47,4.47,0,0,0,53,53.49Z"/><path class="cls-8" d="M50,61.49H47a1,1,0,0,1-1-1v-1h5v1A1,1,0,0,1,50,61.49Z"/><path class="cls-8" d="M50,62a1.5,1.5,0,0,1-3,0v-.5h3Z"/><line class="cls-5" x1="48.49" y1="46.99" x2="48.49" y2="45.99"/><line class="cls-5" x1="53.08" y1="48.9" x2="53.79" y2="48.19"/><line class="cls-5" x1="54.99" y1="53.49" x2="55.99" y2="53.49"/><line class="cls-5" x1="43.89" y1="48.9" x2="43.18" y2="48.19"/><line class="cls-5" x1="41.99" y1="53.49" x2="40.99" y2="53.49"/><rect class="cls-3" x="22.25" y="61.55" width="20.4" height="3.6" transform="translate(-38.29 71.22) rotate(-69.23)"/><line class="cls-5" x1="27.56" y1="76.25" x2="26.71" y2="78.49"/><rect class="cls-5" x="22.25" y="61.55" width="20.4" height="3.6" transform="translate(-38.29 71.22) rotate(-69.23)"/><polygon class="cls-9" points="27.56 76.25 30.52 73.52 27.15 72.24 27.56 76.25"/><path class="cls-3" d="M22.58,69.81l9.72-13.7a3.6,3.6,0,1,0-.85-5L19.64,67.72Z"/><line class="cls-5" x1="19.03" y1="71.7" x2="17.64" y2="73.66"/><path class="cls-5" d="M22.58,69.81l9.72-13.7a3.6,3.6,0,1,0-.85-5L19.64,67.72Z"/><polygon class="cls-9" points="19.03 71.7 22.58 69.81 19.64 67.72 19.03 71.7"/><path class="cls-10" d="M34.39,52.17A1,1,0,0,0,33.81,54a1,1,0,0,0,.57.18A1,1,0,0,0,35,52.35a1,1,0,0,0-.57-.18Z"/><g class="cls-11"><path class="cls-12" d="M64.56,68.19a1.69,1.69,0,0,1,1.35,2l-1,5.4a1.69,1.69,0,0,1-3.33-.63l1-5.41A1.69,1.69,0,0,1,64.56,68.19Z"/><path class="cls-12" d="M62.9,67.43a1.68,1.68,0,0,1,.38,2.36l-2.53,3.63a1.69,1.69,0,0,1-2.75-2l2.53-3.63A1.7,1.7,0,0,1,62.9,67.43Z"/><path class="cls-6" d="M67.72,75.53a14.3,14.3,0,0,1,5,3.89l1.49,1.72,8.37-6.38-1.5-1.6C78.85,71,79,66.44,74.77,63.43c-5.37-3.8-12.62-4-20,2.95a1.69,1.69,0,0,0,2.32,2.46c.49-.46,1-.88,1.45-1.27a21.78,21.78,0,0,1,2.94-2,9.48,9.48,0,0,1,7.11-1.13c1.91.51,2.12,2.29,1.33,3.18a3.76,3.76,0,0,1-4.8.25l-3.64-2.3h0a21.78,21.78,0,0,0-2.94,2h0a1.65,1.65,0,0,0,.47.44C65,73.88,66.19,74.69,67.72,75.53Z"/><path class="cls-7" d="M70,67.61a3.76,3.76,0,0,1-4.8.25l-3.64-2.3a9.48,9.48,0,0,1,7.11-1.13C70.54,64.94,70.75,66.72,70,67.61Z"/><path class="cls-5" d="M67.72,75.53a14.3,14.3,0,0,1,5,3.89l1.49,1.72,8.37-6.38-1.5-1.6C78.85,71,79,66.44,74.77,63.43c-5.37-3.8-12.62-4-20,2.95a1.69,1.69,0,0,0,2.32,2.46c.49-.46,1-.88,1.45-1.27a21.78,21.78,0,0,1,2.94-2,9.48,9.48,0,0,1,7.11-1.13c1.91.51,2.12,2.29,1.33,3.18a3.76,3.76,0,0,1-4.8.25l-3.64-2.3h0a21.78,21.78,0,0,0-2.94,2h0a1.65,1.65,0,0,0,.47.44C65,73.88,66.19,74.69,67.72,75.53Z"/><polygon class="cls-6" points="58.41 71.54 56.95 67.75 76.44 60.4 77.9 64.2 58.41 71.54"/><path class="cls-6" d="M57,67.75c-.09,0-4,3.71-4,3.71l5.48.08Z"/><polygon class="cls-5" points="58.41 71.54 56.95 67.75 76.44 60.4 77.9 64.2 58.41 71.54"/><rect class="cls-3" x="76.09" y="60.92" width="4.06" height="2.03" transform="translate(107.99 -33.18) rotate(69.03)"/><rect class="cls-5" x="76.09" y="60.92" width="4.06" height="2.03" transform="translate(107.99 -33.18) rotate(69.03)"/><path class="cls-6" d="M81.22,62.92a2,2,0,1,0-1.46-3.79l-1.42.54,1.46,3.8Z"/><path class="cls-5" d="M81.22,62.92a2,2,0,1,0-1.46-3.79l-1.42.54,1.46,3.8Z"/><line class="cls-5" x1="52.93" y1="71.46" x2="51.99" y2="71.82"/><path class="cls-5" d="M57,67.75c-.09,0-4,3.71-4,3.71l5.48.08Z"/><rect class="cls-3" x="76.78" y="74.59" width="7.8" height="13.13" rx="1" ry="1" transform="translate(65.02 194.52) rotate(-127.31)"/><rect class="cls-7" x="76.78" y="74.59" width="7.8" height="13.13" rx="1" ry="1" transform="translate(65.02 194.52) rotate(-127.31)"/><path class="cls-4" d="M77.27,71.33h1.54a0,0,0,0,1,0,0V82.76a0,0,0,0,1,0,0H77.27a1,1,0,0,1-1-1V72.33A1,1,0,0,1,77.27,71.33Z" transform="translate(91.84 -31.33) rotate(52.7)"/><path class="cls-6" d="M70,67.61a3.76,3.76,0,0,1-4.8.25l-4.3-2.71A1.69,1.69,0,1,0,59.05,68c5.9,5.87,7.14,6.68,8.67,7.52"/><path class="cls-5" d="M70,67.61a3.76,3.76,0,0,1-4.8.25l-4.3-2.71A1.69,1.69,0,1,0,59.05,68c5.9,5.87,7.14,6.68,8.67,7.52"/><path class="cls-5" d="M70,67.61a3.76,3.76,0,0,1-4.8.25l-4.3-2.71A1.69,1.69,0,1,0,59.05,68c5.9,5.87,7.14,6.68,8.67,7.52"/></g><path class="cls-4" d="M79.24,32.26l1.42,4.27A1,1,0,0,1,80,37.79l-9.49,3.15a1,1,0,0,1-1.26-.63l-1.73-5.22a1,1,0,0,1,.63-1.27L76.71,31A2,2,0,0,1,79.24,32.26Z"/><path class="cls-3" d="M74.81,31.62l2.37,7.12-6.65,2.2a1,1,0,0,1-1.26-.63l-1.73-5.22a1,1,0,0,1,.63-1.27Z"/><path class="cls-5" d="M74.81,31.62l2.37,7.12-6.65,2.2a1,1,0,0,1-1.26-.63l-1.73-5.22a1,1,0,0,1,.63-1.27Z"/></g></g></svg>