<svg id="Multicolor" xmlns="http://www.w3.org/2000/svg" viewBox="0 0 100 112"><defs><style>.cls-1{fill:#e8f4fa;}.cls-2,.cls-5{fill:#ff6242;}.cls-3{fill:#e04122;}.cls-12,.cls-4,.cls-8{fill:none;}.cls-10,.cls-11,.cls-12,.cls-13,.cls-4,.cls-5,.cls-8,.cls-9{stroke:#191816;}.cls-4,.cls-5{stroke-miterlimit:10;}.cls-6{fill:#231f20;opacity:0.15;}.cls-7{fill:#fff;}.cls-10,.cls-11,.cls-12,.cls-13,.cls-8,.cls-9{stroke-linejoin:round;}.cls-9{fill:#4acfff;}.cls-12,.cls-9{stroke-linecap:round;}.cls-10{fill:#ffe500;}.cls-11{fill:#daedf7;}.cls-13{fill:#b8ecff;}</style></defs><title>17- employee-smart-tag</title><g id="Background"><g id="New_Symbol_1-9" data-name="New Symbol 1"><circle class="cls-1" cx="50" cy="56.01" r="40" transform="translate(-21.22 79.78) rotate(-66.7)"/></g></g><g id="Scene"><path class="cls-2" d="M25,45.54H21.52v-10a12.53,12.53,0,0,1,25.06,0v1.75H43.13V35.51a9.08,9.08,0,0,0-18.16,0Z"/><path class="cls-3" d="M43.13,35.51v1.75h3.45V35.51c0-.36,0-.72-.06-1.08H43.06A9.79,9.79,0,0,1,43.13,35.51Z"/><rect class="cls-3" x="21.52" y="42.46" width="3.45" height="3.08"/><path class="cls-4" d="M25,45.54H21.52v-10a12.53,12.53,0,0,1,25.06,0v1.75H43.13V35.51a9.08,9.08,0,0,0-18.16,0Z"/><path class="cls-5" d="M70.73,61.36H60a11.65,11.65,0,1,1,0-23.29H70.73a11.65,11.65,0,0,1,0,23.29ZM60,41.52a8.2,8.2,0,1,0,0,16.39H70.73a8.2,8.2,0,0,0,0-16.39Z"/><ellipse class="cls-6" cx="42.12" cy="84.12" rx="21.05" ry="1.73"/><rect class="cls-7" x="17.63" y="45.54" width="48.3" height="28.98" rx="2.4" ry="2.4" transform="translate(83.56 120.05) rotate(180)"/><path class="cls-1" d="M20.39,74.52H63.17a2.77,2.77,0,0,0,2.76-2.76V67.62a2.77,2.77,0,0,1-2.76,2.76H20.39a2.76,2.76,0,0,1-2.76-2.76v4.14A2.76,2.76,0,0,0,20.39,74.52Z"/><rect class="cls-8" x="17.63" y="45.54" width="48.3" height="28.98" rx="2.4" ry="2.4"/><rect class="cls-9" x="21.77" y="49.68" width="15.18" height="20.7" rx="1" ry="1"/><rect class="cls-10" x="52.13" y="52.44" width="11.04" height="8.28" rx="1.2" ry="1.2"/><rect class="cls-10" x="55.58" y="52.44" width="4.14" height="8.28"/><line class="cls-8" x1="59.72" y1="55.89" x2="63.17" y2="55.89"/><line class="cls-8" x1="52.13" y1="57.27" x2="55.58" y2="57.27"/><path class="cls-11" d="M49.52,42.83l-.4-3.35a2.76,2.76,0,0,0-2.71-2.22H37.14a2.76,2.76,0,0,0-2.71,2.22l-.39,2c-.32,1.57-1.7,4.09-3.3,4.09H52.82A3.36,3.36,0,0,1,49.52,42.83Zm-5.67,0H39.71a1.38,1.38,0,1,1,0-2.76h4.14a1.38,1.38,0,0,1,0,2.76Z"/><line class="cls-12" x1="39.71" y1="51.06" x2="46.4" y2="51.06"/><line class="cls-12" x1="39.71" y1="53.82" x2="46.4" y2="53.82"/><line class="cls-12" x1="39.71" y1="67.62" x2="46.4" y2="67.62"/><line class="cls-12" x1="39.71" y1="70.38" x2="46.4" y2="70.38"/><line class="cls-12" x1="53.51" y1="67.62" x2="61.1" y2="67.62"/><line class="cls-12" x1="53.51" y1="70.38" x2="61.1" y2="70.38"/><line class="cls-12" x1="39.71" y1="57.96" x2="48.68" y2="57.96"/><line class="cls-12" x1="39.71" y1="60.72" x2="48.68" y2="60.72"/><circle class="cls-13" cx="29.36" cy="57.96" r="4.14"/><path class="cls-13" d="M36.93,69.32a7.58,7.58,0,0,0-15.14,0,1.14,1.14,0,0,0,1.13,1.06H35.8A1.14,1.14,0,0,0,36.93,69.32Z"/><path class="cls-5" d="M31.39,45.54H27.94V39.41a7.81,7.81,0,0,1,15.62,0,1.68,1.68,0,0,1-1.68,1.68h-.09a1.68,1.68,0,0,1-1.68-1.68,4.36,4.36,0,0,0-8.72,0Z"/></g></svg>