<svg id="Multicolor" xmlns="http://www.w3.org/2000/svg" viewBox="0 0 100 112"><defs><style>.cls-1{fill:#e8f4fa;}.cls-2{fill:#fff;}.cls-3{fill:none;stroke-linecap:round;}.cls-10,.cls-3{stroke:#191816;stroke-linejoin:round;}.cls-4{fill:#00b8f0;}.cls-5{fill:#4acfff;}.cls-6{fill:#fff48c;}.cls-7{fill:#fffacf;}.cls-8{fill:#191816;opacity:0.15;}.cls-9{fill:#ffe500;}.cls-10{fill:#6dd627;}.cls-11{fill:#c8ffa1;}.cls-12{fill:#9ceb60;}</style></defs><title>21- money-investment</title><g id="Background"><g id="New_Symbol_28-4" data-name="New Symbol 28"><path class="cls-1" d="M90,56A40,40,0,1,0,13.56,72.5H86.44A39.85,39.85,0,0,0,90,56Z"/><path class="cls-2" d="M13.56,72.5a40,40,0,0,0,72.88,0Z"/><line class="cls-3" x1="10.5" y1="72.5" x2="88.5" y2="72.5"/><line class="cls-3" x1="6" y1="72.5" x2="8.5" y2="72.5"/><line class="cls-3" x1="90.5" y1="72.5" x2="93" y2="72.5"/></g></g><g id="Scene"><path class="cls-4" d="M52.68,78H42.52a5,5,0,0,1-5-5V61.84a4,4,0,0,1,4-4H53.68a4,4,0,0,1,4,4V73A5,5,0,0,1,52.68,78Z"/><path class="cls-5" d="M56.73,59.27a4,4,0,0,0-3-1.43H41.52a4,4,0,0,0-4,4V73a5,5,0,0,0,1.73,3.75Z"/><path class="cls-4" d="M52.84,55H42.36a1,1,0,0,0-1,1v1.88H53.84V56A1,1,0,0,0,52.84,55Z"/><path class="cls-5" d="M52.84,55H42.36a1,1,0,0,0-1,1v.44H53.84V56A1,1,0,0,0,52.84,55Z"/><path class="cls-3" d="M52.68,78H42.52a5,5,0,0,1-5-5V61.84a4,4,0,0,1,4-4H53.68a4,4,0,0,1,4,4V73A5,5,0,0,1,52.68,78Z"/><path class="cls-3" d="M52.84,55H42.36a1,1,0,0,0-1,1v1.88H53.84V56A1,1,0,0,0,52.84,55Z"/><path class="cls-6" d="M54.8,74.64a1.43,1.43,0,0,0-1.44-1.44h-4.8a1.44,1.44,0,0,0,0,2.88h4.8A1.43,1.43,0,0,0,54.8,74.64Z"/><path class="cls-3" d="M54.8,74.64a1.43,1.43,0,0,0-1.44-1.44h-4.8a1.44,1.44,0,0,0,0,2.88h4.8A1.43,1.43,0,0,0,54.8,74.64Z"/><path class="cls-6" d="M55.76,71.76a1.43,1.43,0,0,0-1.44-1.44h-4.8a1.44,1.44,0,0,0,0,2.88h4.8A1.43,1.43,0,0,0,55.76,71.76Z"/><path class="cls-3" d="M55.76,71.76a1.43,1.43,0,0,0-1.44-1.44h-4.8a1.44,1.44,0,0,0,0,2.88h4.8A1.43,1.43,0,0,0,55.76,71.76Z"/><path class="cls-6" d="M55.76,63.12a1.44,1.44,0,0,0-1.44-1.44h-4.8a1.44,1.44,0,1,0,0,2.88h4.8A1.44,1.44,0,0,0,55.76,63.12Z"/><path class="cls-7" d="M51.44,64.56l2.88-2.88h-4.8a1.44,1.44,0,1,0,0,2.88Z"/><path class="cls-3" d="M55.76,63.12a1.44,1.44,0,0,0-1.44-1.44h-4.8a1.44,1.44,0,1,0,0,2.88h4.8A1.44,1.44,0,0,0,55.76,63.12Z"/><path class="cls-6" d="M53.36,66a1.44,1.44,0,0,0-1.44-1.44h-4.8a1.44,1.44,0,0,0,0,2.88h4.8A1.44,1.44,0,0,0,53.36,66Z"/><path class="cls-7" d="M47.12,64.56a1.44,1.44,0,0,0,0,2.88h1.44L50,66l1.44-1.44Z"/><path class="cls-3" d="M53.36,66a1.44,1.44,0,0,0-1.44-1.44h-4.8a1.44,1.44,0,0,0,0,2.88h4.8A1.44,1.44,0,0,0,53.36,66Z"/><path class="cls-7" d="M46.45,62.7a1.46,1.46,0,0,0-1.94-.64l-4.28,2.18a1.44,1.44,0,0,0,1.3,2.56l4.29-2.17A1.44,1.44,0,0,0,46.45,62.7Z"/><path class="cls-3" d="M46.45,62.7a1.46,1.46,0,0,0-1.94-.64l-4.28,2.18a1.44,1.44,0,0,0,1.3,2.56l4.29-2.17A1.44,1.44,0,0,0,46.45,62.7Z"/><path class="cls-6" d="M48.08,74.64a1.43,1.43,0,0,0-1.44-1.44h-4.8a1.44,1.44,0,0,0,0,2.88h4.8A1.43,1.43,0,0,0,48.08,74.64Z"/><path class="cls-7" d="M41.84,73.2a1.44,1.44,0,0,0-1.44,1.44,1.4,1.4,0,0,0,.22.75l.74-.75L42.8,73.2Z"/><path class="cls-3" d="M48.08,74.64a1.43,1.43,0,0,0-1.44-1.44h-4.8a1.44,1.44,0,0,0,0,2.88h4.8A1.43,1.43,0,0,0,48.08,74.64Z"/><path class="cls-6" d="M47.12,71.76a1.43,1.43,0,0,0-1.44-1.44h-4.8a1.44,1.44,0,0,0,0,2.88h4.8A1.43,1.43,0,0,0,47.12,71.76Z"/><path class="cls-7" d="M41.84,70.32h-1a1.44,1.44,0,0,0,0,2.88H42.8l1.44-1.44,1.44-1.44Z"/><path class="cls-3" d="M47.12,71.76a1.43,1.43,0,0,0-1.44-1.44h-4.8a1.44,1.44,0,0,0,0,2.88h4.8A1.43,1.43,0,0,0,47.12,71.76Z"/><path class="cls-6" d="M48.08,68.88a1.44,1.44,0,0,0-1.44-1.44h-4.8a1.44,1.44,0,0,0,0,2.88h4.8A1.44,1.44,0,0,0,48.08,68.88Z"/><path class="cls-7" d="M46.64,67.44h-4.8a1.44,1.44,0,0,0,0,2.88h3.84l1.44-1.44.75-.75A1.45,1.45,0,0,0,46.64,67.44Z"/><path class="cls-3" d="M48.08,68.88a1.44,1.44,0,0,0-1.44-1.44h-4.8a1.44,1.44,0,0,0,0,2.88h4.8A1.44,1.44,0,0,0,48.08,68.88Z"/><path class="cls-6" d="M54.8,68.88a1.44,1.44,0,0,0-1.44-1.44h-4.8a1.44,1.44,0,0,0,0,2.88h4.8A1.44,1.44,0,0,0,54.8,68.88Z"/><path class="cls-3" d="M54.8,68.88a1.44,1.44,0,0,0-1.44-1.44h-4.8a1.44,1.44,0,0,0,0,2.88h4.8A1.44,1.44,0,0,0,54.8,68.88Z"/><path class="cls-8" d="M61.4,78.6c0,1-6.18,1.8-13.8,1.8s-13.8-.81-13.8-1.8S40,76.8,47.6,76.8,61.4,77.61,61.4,78.6Z"/><path class="cls-8" d="M42.8,83.54c0,1-4.56,1.8-10.2,1.8s-10.2-.8-10.2-1.8,4.57-1.8,10.2-1.8S42.8,82.55,42.8,83.54Z"/><ellipse class="cls-8" cx="65" cy="82.2" rx="15" ry="1.8"/><path class="cls-9" d="M66.2,72.6a1.8,1.8,0,0,0-1.8-1.8h-6a1.8,1.8,0,1,0,0,3.6h6A1.8,1.8,0,0,0,66.2,72.6Z"/><path class="cls-7" d="M58.4,72.38h6a1.8,1.8,0,0,1,1.62,1,1.76,1.76,0,0,0,.18-.79,1.8,1.8,0,0,0-1.8-1.8h-6a1.81,1.81,0,0,0-1.8,1.8,1.91,1.91,0,0,0,.18.79A1.81,1.81,0,0,1,58.4,72.38Z"/><path class="cls-3" d="M66.2,72.6a1.8,1.8,0,0,0-1.8-1.8h-6a1.8,1.8,0,1,0,0,3.6h6A1.8,1.8,0,0,0,66.2,72.6Z"/><path class="cls-9" d="M72.2,76.2a1.8,1.8,0,0,0-1.8-1.8h-6a1.8,1.8,0,0,0,0,3.6h6A1.8,1.8,0,0,0,72.2,76.2Z"/><path class="cls-7" d="M64.4,76h6A1.8,1.8,0,0,1,72,77a1.76,1.76,0,0,0,.18-.79,1.8,1.8,0,0,0-1.8-1.8h-6a1.81,1.81,0,0,0-1.8,1.8,1.91,1.91,0,0,0,.18.79A1.81,1.81,0,0,1,64.4,76Z"/><path class="cls-3" d="M72.2,76.2a1.8,1.8,0,0,0-1.8-1.8h-6a1.8,1.8,0,0,0,0,3.6h6A1.8,1.8,0,0,0,72.2,76.2Z"/><path class="cls-9" d="M62.6,76.2a1.8,1.8,0,0,0-1.8-1.8h-6a1.8,1.8,0,0,0,0,3.6h6A1.8,1.8,0,0,0,62.6,76.2Z"/><path class="cls-7" d="M54.8,76h6a1.8,1.8,0,0,1,1.62,1,1.76,1.76,0,0,0,.18-.79,1.8,1.8,0,0,0-1.8-1.8h-6A1.81,1.81,0,0,0,53,76.2a1.91,1.91,0,0,0,.18.79A1.81,1.81,0,0,1,54.8,76Z"/><path class="cls-3" d="M62.6,76.2a1.8,1.8,0,0,0-1.8-1.8h-6a1.8,1.8,0,0,0,0,3.6h6A1.8,1.8,0,0,0,62.6,76.2Z"/><path class="cls-9" d="M60.2,79.8A1.8,1.8,0,0,0,58.4,78h-6a1.8,1.8,0,1,0,0,3.6h6A1.8,1.8,0,0,0,60.2,79.8Z"/><path class="cls-7" d="M52.4,79.58h6a1.8,1.8,0,0,1,1.62,1,1.76,1.76,0,0,0,.18-.79A1.8,1.8,0,0,0,58.4,78h-6a1.81,1.81,0,0,0-1.8,1.8,1.91,1.91,0,0,0,.18.79A1.81,1.81,0,0,1,52.4,79.58Z"/><path class="cls-3" d="M60.2,79.8A1.8,1.8,0,0,0,58.4,78h-6a1.8,1.8,0,1,0,0,3.6h6A1.8,1.8,0,0,0,60.2,79.8Z"/><path class="cls-9" d="M42.2,81.27a1.79,1.79,0,0,0-1.8-1.8h-6a1.8,1.8,0,1,0,0,3.6h6A1.8,1.8,0,0,0,42.2,81.27Z"/><path class="cls-7" d="M34.4,81.05h6a1.8,1.8,0,0,1,1.62,1,1.76,1.76,0,0,0,.18-.79,1.79,1.79,0,0,0-1.8-1.8h-6a1.8,1.8,0,0,0-1.8,1.8,1.91,1.91,0,0,0,.18.79A1.81,1.81,0,0,1,34.4,81.05Z"/><path class="cls-3" d="M42.2,81.27a1.79,1.79,0,0,0-1.8-1.8h-6a1.8,1.8,0,1,0,0,3.6h6A1.8,1.8,0,0,0,42.2,81.27Z"/><path class="cls-9" d="M32.6,81.27a1.79,1.79,0,0,0-1.8-1.8h-6a1.8,1.8,0,0,0,0,3.6h6A1.8,1.8,0,0,0,32.6,81.27Z"/><path class="cls-7" d="M24.8,81.05h6a1.8,1.8,0,0,1,1.62,1,1.76,1.76,0,0,0,.18-.79,1.79,1.79,0,0,0-1.8-1.8h-6a1.8,1.8,0,0,0-1.8,1.8,1.91,1.91,0,0,0,.18.79A1.81,1.81,0,0,1,24.8,81.05Z"/><path class="cls-3" d="M32.6,81.27a1.79,1.79,0,0,0-1.8-1.8h-6a1.8,1.8,0,0,0,0,3.6h6A1.8,1.8,0,0,0,32.6,81.27Z"/><path class="cls-9" d="M39.8,77.67a1.8,1.8,0,0,0-1.8-1.8H32a1.8,1.8,0,0,0,0,3.6h6A1.8,1.8,0,0,0,39.8,77.67Z"/><path class="cls-7" d="M32,77.45h6a1.8,1.8,0,0,1,1.62,1,1.76,1.76,0,0,0,.18-.79,1.8,1.8,0,0,0-1.8-1.8H32a1.81,1.81,0,0,0-1.8,1.8,1.91,1.91,0,0,0,.18.79A1.81,1.81,0,0,1,32,77.45Z"/><path class="cls-3" d="M39.8,77.67a1.8,1.8,0,0,0-1.8-1.8H32a1.8,1.8,0,0,0,0,3.6h6A1.8,1.8,0,0,0,39.8,77.67Z"/><path class="cls-9" d="M69.8,79.8A1.8,1.8,0,0,0,68,78H62a1.8,1.8,0,1,0,0,3.6h6A1.8,1.8,0,0,0,69.8,79.8Z"/><path class="cls-7" d="M62,79.58h6a1.8,1.8,0,0,1,1.62,1,1.76,1.76,0,0,0,.18-.79A1.8,1.8,0,0,0,68,78H62a1.81,1.81,0,0,0-1.8,1.8,1.91,1.91,0,0,0,.18.79A1.81,1.81,0,0,1,62,79.58Z"/><path class="cls-3" d="M69.8,79.8A1.8,1.8,0,0,0,68,78H62a1.8,1.8,0,1,0,0,3.6h6A1.8,1.8,0,0,0,69.8,79.8Z"/><path class="cls-9" d="M79.4,79.8A1.8,1.8,0,0,0,77.6,78h-6a1.8,1.8,0,1,0,0,3.6h6A1.8,1.8,0,0,0,79.4,79.8Z"/><path class="cls-7" d="M71.6,79.58h6a1.8,1.8,0,0,1,1.62,1,1.76,1.76,0,0,0,.18-.79A1.8,1.8,0,0,0,77.6,78h-6a1.81,1.81,0,0,0-1.8,1.8,1.91,1.91,0,0,0,.18.79A1.81,1.81,0,0,1,71.6,79.58Z"/><path class="cls-3" d="M79.4,79.8A1.8,1.8,0,0,0,77.6,78h-6a1.8,1.8,0,1,0,0,3.6h6A1.8,1.8,0,0,0,79.4,79.8Z"/><path class="cls-10" d="M33.28,48a1.65,1.65,0,0,0-2.68-.55A15.58,15.58,0,0,1,22,51.55a1.64,1.64,0,0,0-1.37,2.24L21.87,57a1.64,1.64,0,0,0,1.76,1,24.13,24.13,0,0,0,9.67-4,2.87,2.87,0,0,0,1-3.4Z"/><path class="cls-11" d="M28.91,53.18A1.24,1.24,0,1,1,27.68,52,1.23,1.23,0,0,1,28.91,53.18Z"/><path class="cls-10" d="M65.92,43.5A1.66,1.66,0,0,0,65.55,45a1.62,1.62,0,0,0,1.06,1.14,15.52,15.52,0,0,1,7.45,5.91,1.67,1.67,0,0,0,1.25.78,1.64,1.64,0,0,0,1.37-.53L79,49.78a1.63,1.63,0,0,0,.13-2,24.14,24.14,0,0,0-7.85-6.9,2.88,2.88,0,0,0-3.5.62Z"/><path class="cls-11" d="M72.46,45.14a1.23,1.23,0,0,1,1.65.56,1.22,1.22,0,0,1-.55,1.65,1.23,1.23,0,0,1-1.65-.56A1.22,1.22,0,0,1,72.46,45.14Z"/><path class="cls-3" d="M48,55c-4.56-9.18,4.93-12.6.6-18.72"/><path class="cls-10" d="M35.85,28.65a1.65,1.65,0,0,0,1,2.55c3.73.71,8.46,4.55,11.72,5,.64-3.55-1.1-8.89-7.79-10.89a3,3,0,0,0-3.38,1Z"/><path class="cls-12" d="M40.8,25.35a3,3,0,0,0-3.38,1l-1.57,2.26a1.66,1.66,0,0,0-.28,1.08l.89-1.27a3,3,0,0,1,3.37-1.05C45.19,29,47.37,32.76,47.7,36a6.49,6.49,0,0,0,.89.23C49.23,32.69,47.49,27.35,40.8,25.35Z"/><path class="cls-11" d="M42.55,29.47a1.23,1.23,0,1,1-.35,1.71A1.25,1.25,0,0,1,42.55,29.47Z"/><path class="cls-3" d="M35.85,28.65a1.65,1.65,0,0,0,1,2.55c3.73.71,8.46,4.55,11.72,5,.64-3.55-1.1-8.89-7.79-10.89a3,3,0,0,0-3.38,1Z"/><path class="cls-10" d="M63,31.82a1.61,1.61,0,0,1,0,1.55,1.63,1.63,0,0,1-1.29.87c-3.78.31-8.9,3.61-12.2,3.74-.25-3.6,2.06-8.71,8.92-10a3,3,0,0,1,3.25,1.4Z"/><path class="cls-12" d="M58.41,28a3,3,0,0,1,3.25,1.4L63,31.82a1.57,1.57,0,0,1,.16,1.1l-.73-1.36a3,3,0,0,0-3.25-1.41c-5.49,1-8.07,4.51-8.74,7.7a6.35,6.35,0,0,1-.92.13C49.24,34.38,51.55,29.27,58.41,28Z"/><path class="cls-11" d="M56.23,31.91a1.23,1.23,0,1,0-1.57,1.9,1.23,1.23,0,0,0,1.57-1.9Z"/><path class="cls-3" d="M63,31.82a1.61,1.61,0,0,1,0,1.55,1.63,1.63,0,0,1-1.29.87c-3.78.31-8.9,3.61-12.2,3.74-.25-3.6,2.06-8.71,8.92-10a3,3,0,0,1,3.25,1.4Z"/><path class="cls-10" d="M58.16,48.16a1.29,1.29,0,0,1-.33,1.17,1.24,1.24,0,0,1-1.15.37c-2.91-.57-7.46.82-10,.22.58-2.76,3.41-6.11,8.83-5.61a2.34,2.34,0,0,1,2.14,1.75Z"/><path class="cls-12" d="M55.54,44.31a2.34,2.34,0,0,1,2.14,1.75l.48,2.1A1.28,1.28,0,0,1,58,49l-.26-1.18a2.35,2.35,0,0,0-2.14-1.75c-4.35-.4-7,1.67-8.21,3.93-.25,0-.5-.05-.72-.1C47.29,47.16,50.12,43.81,55.54,44.31Z"/><path class="cls-11" d="M53.07,46.79a1,1,0,0,0-1.59,1.09,1,1,0,0,0,1.59-1.09Z"/><path class="cls-3" d="M58.16,48.16a1.29,1.29,0,0,1-.33,1.17,1.24,1.24,0,0,1-1.15.37c-2.91-.57-7.46.82-10,.22.58-2.76,3.41-6.11,8.83-5.61a2.34,2.34,0,0,1,2.14,1.75Z"/><path class="cls-10" d="M37.21,40.67a1.32,1.32,0,0,0,0,1.22,1.28,1.28,0,0,0,1,.63c3,.1,7.08,2.49,9.66,2.48.06-2.82-1.93-6.73-7.32-7.47a2.35,2.35,0,0,0-2.49,1.21Z"/><path class="cls-12" d="M40.63,37.53a2.35,2.35,0,0,0-2.49,1.21l-.93,1.93a1.25,1.25,0,0,0-.09.87l.53-1.08a2.33,2.33,0,0,1,2.48-1.22c4.32.59,6.45,3.22,7.1,5.69A6,6,0,0,0,48,45C48,42.18,46,38.27,40.63,37.53Z"/><path class="cls-11" d="M42.47,40.5a1,1,0,0,1,1.3,1.43,1,1,0,0,1-1.3-1.43Z"/><path class="cls-3" d="M37.21,40.67a1.32,1.32,0,0,0,0,1.22,1.28,1.28,0,0,0,1,.63c3,.1,7.08,2.49,9.66,2.48.06-2.82-1.93-6.73-7.32-7.47a2.35,2.35,0,0,0-2.49,1.21Z"/></g></svg>