<svg viewBox="0 0 100 112" xmlns="http://www.w3.org/2000/svg"><circle cx="50" cy="56" fill="#e8f4fa" r="40" transform="matrix(.3955455 -.91844638 .91844638 .3955455 -21.21 79.78)"/><path d="m50 27.5 19.49 6.8a3 3 0 0 1 2 2.83v20.87c.01 14.5-21.49 22.5-21.49 22.5s-21.5-8-21.5-22.5v-20.87a3 3 0 0 1 2-2.83z" fill="#6dd627"/><path d="m50 80.5s-21.5-8-21.5-22.5v-20.87a3 3 0 0 1 2-2.83l19.5-6.8z" fill="#9ceb60"/><path d="m50 27.5 19.49 6.8a3 3 0 0 1 2 2.83v20.87c.01 14.5-21.49 22.5-21.49 22.5s-21.5-8-21.5-22.5v-20.87a3 3 0 0 1 2-2.83z" fill="none" stroke="#191816" stroke-linecap="round" stroke-linejoin="round"/><circle cx="50" cy="53" fill="#f0f0f0" r="14.5"/><path d="m50 45a14.5 14.5 0 0 1 14.12 11.25 14.5 14.5 0 1 0 -28.24 0 14.5 14.5 0 0 1 14.12-11.25z" fill="#fff"/><circle cx="50" cy="53" fill="none" r="14.5" stroke="#191816" stroke-linecap="round" stroke-linejoin="round"/><rect fill="#ffe500" height="12" rx="1" width="13" x="43.5" y="50.5"/><path d="m55.5 48a5.5 5.5 0 0 0 -11 0v2.5h3v-2.5a2.5 2.5 0 0 1 5 0v2.5h3z" fill="#e8f4fa" stroke="#191816" stroke-linecap="round" stroke-linejoin="round"/><path d="m55.5 50.5h-11a1 1 0 0 0 -1 1v2.5a1 1 0 0 1 1-1h11a1 1 0 0 1 1 1v-2.5a1 1 0 0 0 -1-1z" fill="#fff48c"/><rect fill="none" height="12" rx="1" stroke="#191816" stroke-linecap="round" stroke-linejoin="round" width="13" x="43.5" y="50.5"/><path d="m51.5 56a1.5 1.5 0 1 0 -2.5 1.11v1.39a1 1 0 0 0 2 0v-1.39a1.5 1.5 0 0 0 .5-1.11z" fill="#87898c" stroke="#191816" stroke-linecap="round" stroke-linejoin="round"/><ellipse cx="50" cy="85.9" fill="#231f20" opacity=".15" rx="12" ry="1.5"/></svg>