<svg viewBox="0 0 100 112" xmlns="http://www.w3.org/2000/svg"><circle cx="50.34" cy="56" fill="#e8f4fa" r="40"/><path d="m73.24 56.14-2.76-22.48a1 1 0 0 0 -1.31-.83 17.83 17.83 0 0 1 -12.77-.56 18.59 18.59 0 0 0 -11.4-.94l-10.5 2.46 2.84 24.54 10.66-2.5a18.59 18.59 0 0 1 11.43.94 18.68 18.68 0 0 0 13.05.47h.11a1 1 0 0 0 .65-1.1z" fill="#656769"/><path d="m70.48 33.66a1 1 0 0 0 -1.31-.83 17.84 17.84 0 0 1 -12.77-.56 18.59 18.59 0 0 0 -11.4-.94l-10.5 2.46.73 6.35 10.3-2.31a20.45 20.45 0 0 1 12 .94 20.23 20.23 0 0 0 13.64.55z" fill="#87898c"/><g stroke="#191816" stroke-linecap="round" stroke-linejoin="round"><path d="m73.24 56.14-2.76-22.48a1 1 0 0 0 -1.31-.83 17.83 17.83 0 0 1 -12.77-.56 18.59 18.59 0 0 0 -11.4-.94l-10.5 2.46 2.84 24.54 10.66-2.5a18.59 18.59 0 0 1 11.43.94 18.68 18.68 0 0 0 13.05.47h.11a1 1 0 0 0 .65-1.1z" fill="none"/><path d="m38.67 85a1.75 1.75 0 0 1 -1.94-1.53l-5.88-50.72a1.75 1.75 0 0 1 1.54-1.94 1.74 1.74 0 0 1 1.94 1.53l5.87 50.66a1.75 1.75 0 0 1 -1.53 2z" fill="#debb7e"/><path d="m44.92 43.73 3.08-3.07a1.2 1.2 0 0 0 0-1.66 1.2 1.2 0 0 0 -1.68 0l-3.63 3.63a2.39 2.39 0 0 0 0 3.36l3.63 3.63a1.2 1.2 0 0 0 1.68 0 1.2 1.2 0 0 0 0-1.68l-3.07-3.07a.79.79 0 0 1 -.01-1.14z" fill="#6dd627"/><path d="m62.26 44.05-3.07-3.05a1.18 1.18 0 0 1 0-1.68 1.18 1.18 0 0 1 1.67 0l3.64 3.64a2.38 2.38 0 0 1 0 3.35l-3.64 3.63a1.17 1.17 0 0 1 -1.67 0 1.17 1.17 0 0 1 0-1.67l3.07-3.08a.78.78 0 0 0 0-1.14z" fill="#6dd627"/><path d="m51.66 51.17a1.24 1.24 0 0 1 -.8-1.57l4-12.29a1.25 1.25 0 0 1 1.58-.8 1.26 1.26 0 0 1 .8 1.58l-4 12.29a1.25 1.25 0 0 1 -1.58.79z" fill="#6dd627"/></g><ellipse cx="50.84" cy="88.45" fill="#191816" opacity=".15" rx="17" ry="1.5"/></svg>