<svg id="Multicolor" xmlns="http://www.w3.org/2000/svg" xmlns:xlink="http://www.w3.org/1999/xlink" viewBox="0 0 100 112"><defs><style>.cls-1,.cls-10,.cls-15,.cls-4{fill:none;}.cls-2,.cls-25{fill:#e8f4fa;}.cls-3{fill:#fff;}.cls-10,.cls-15,.cls-24,.cls-25,.cls-26,.cls-28,.cls-34,.cls-4{stroke:#191816;}.cls-24,.cls-25,.cls-26,.cls-28,.cls-34,.cls-4{stroke-linecap:round;}.cls-15,.cls-24,.cls-25,.cls-26,.cls-28,.cls-34,.cls-4{stroke-linejoin:round;}.cls-5{clip-path:url(#clip-path);}.cls-6{fill:#f0f0f0;}.cls-7{fill:#adc4d9;}.cls-8{fill:#ff6242;}.cls-9{fill:#ff866e;}.cls-10{stroke-miterlimit:10;}.cls-11{fill:#ffe500;}.cls-12{fill:#fff48c;}.cls-13{fill:#bdbec0;}.cls-14{fill:#e0e0e0;}.cls-16{fill:#525252;}.cls-17{fill:#656769;}.cls-18{fill:#00b8f0;}.cls-19{fill:#4acfff;}.cls-20{font-size:6.95px;font-family:VAGRoundedStd-Bold, VAG Rounded Std;font-weight:700;}.cls-20,.cls-23,.cls-27{fill:#191816;}.cls-21,.cls-26{fill:#ffcebf;}.cls-22{fill:#ffb59e;}.cls-23{opacity:0.15;}.cls-24{fill:#b89558;}.cls-28,.cls-29{fill:#ffc44d;}.cls-30{fill:#ffdb94;}.cls-31{fill:#00dfeb;}.cls-32{fill:#debb7e;}.cls-33{fill:#f0d5a8;}.cls-34{fill:#fff5e3;}</style><clipPath id="clip-path"><circle class="cls-1" cx="50" cy="56" r="40"/></clipPath></defs><title>27- online-shopping-package-arrive-female-caucasian</title><g id="Background"><g id="New_Symbol_49-9" data-name="New Symbol 49"><path class="cls-2" d="M90,56A40,40,0,1,0,13.56,72.5H86.44A39.85,39.85,0,0,0,90,56Z"/><path class="cls-3" d="M13.56,72.5a40,40,0,0,0,72.88,0Z"/><line class="cls-4" x1="11" y1="72.5" x2="89" y2="72.5"/><line class="cls-4" x1="6.5" y1="72.5" x2="9" y2="72.5"/><line class="cls-4" x1="91" y1="72.5" x2="93.5" y2="72.5"/></g></g><g id="Scene"><g class="cls-5"><path class="cls-6" d="M56.5,43.5h28a1,1,0,0,1,1,1v22a1,1,0,0,1-1,1h-27a1,1,0,0,1-1-1v-23A0,0,0,0,1,56.5,43.5Z" transform="translate(142 111) rotate(180)"/><path class="cls-2" d="M56.5,64h28a1,1,0,0,1,1,1v2.5a0,0,0,0,1,0,0h-29a0,0,0,0,1,0,0V64A0,0,0,0,1,56.5,64Z" transform="translate(142 131.5) rotate(180)"/><rect class="cls-7" x="56.5" y="64" width="29" height="1.5"/><path class="cls-3" d="M56.5,47.39h29V44.5a1,1,0,0,0-1-1h-27a1,1,0,0,0-1,1Z"/><path class="cls-8" d="M85.5,67.5v-18h6.91a5.23,5.23,0,0,1,4.64,3.76l1.29,4.83a4.69,4.69,0,0,1,.16,1.24v7a1.2,1.2,0,0,1-1.2,1.2Z"/><path class="cls-9" d="M85.5,52.5H96.78a5.3,5.3,0,0,0-4.37-3H85.5Z"/><path class="cls-4" d="M85.5,67.5v-18h6.91a5.23,5.23,0,0,1,4.64,3.76l1.29,4.83a4.69,4.69,0,0,1,.16,1.24v7a1.2,1.2,0,0,1-1.2,1.2Z"/><path class="cls-10" d="M56.5,43.5h28a1,1,0,0,1,1,1v22a1,1,0,0,1-1,1h-27a1,1,0,0,1-1-1v-23A0,0,0,0,1,56.5,43.5Z" transform="translate(142 111) rotate(180)"/><path class="cls-10" d="M56.5,64h28a1,1,0,0,1,1,1v2.5a0,0,0,0,1,0,0h-29a0,0,0,0,1,0,0V64A0,0,0,0,1,56.5,64Z" transform="translate(142 131.5) rotate(180)"/><path class="cls-11" d="M96.1,67.5h1.2a1.2,1.2,0,0,0,1.2-1.2V62.9a2.39,2.39,0,0,0-2.4,2.4Z"/><path class="cls-12" d="M98.5,62.9v1.86A2.24,2.24,0,0,0,96.1,67V65.3A2.39,2.39,0,0,1,98.5,62.9Z"/><path class="cls-13" d="M87.3,64.1a4,4,0,0,1,4.16,3.4h2.41a6.43,6.43,0,0,0-6.57-5.8,6.63,6.63,0,0,0-1.8.25V64.5A4.2,4.2,0,0,1,87.3,64.1Z"/><path class="cls-14" d="M87.3,62.8a5.42,5.42,0,0,0-1.8.33V62a6.63,6.63,0,0,1,1.8-.25,6.43,6.43,0,0,1,6.57,5.8H92.65A5.22,5.22,0,0,0,87.3,62.8Z"/><path class="cls-15" d="M96.1,67.5h1.2a1.2,1.2,0,0,0,1.2-1.2V62.9a2.39,2.39,0,0,0-2.4,2.4Z"/><path class="cls-15" d="M87.3,64.1a4,4,0,0,1,4.16,3.4h2.41a6.43,6.43,0,0,0-6.57-5.8,6.63,6.63,0,0,0-1.8.25V64.5A4.2,4.2,0,0,1,87.3,64.1Z"/><path class="cls-16" d="M83.1,68.3a4.2,4.2,0,1,0,4.2-4.2A4.2,4.2,0,0,0,83.1,68.3Z"/><path class="cls-17" d="M87.3,65.71a4.21,4.21,0,0,0-4.12,3.39,4.26,4.26,0,0,1-.08-.8,4.2,4.2,0,0,1,8.4,0,4.26,4.26,0,0,1-.08.8A4.21,4.21,0,0,0,87.3,65.71Z"/><path class="cls-13" d="M86.1,68.3a1.2,1.2,0,1,0,1.2-1.2A1.2,1.2,0,0,0,86.1,68.3Z"/><path class="cls-14" d="M87.3,68.1a1.19,1.19,0,0,0-1.08.7,1.23,1.23,0,0,1-.12-.5,1.2,1.2,0,0,1,2.4,0,1.23,1.23,0,0,1-.12.5A1.19,1.19,0,0,0,87.3,68.1Z"/><path class="cls-15" d="M83.1,68.3a4.2,4.2,0,1,0,4.2-4.2A4.2,4.2,0,0,0,83.1,68.3Z"/><path class="cls-15" d="M86.1,68.3a1.2,1.2,0,1,0,1.2-1.2A1.2,1.2,0,0,0,86.1,68.3Z"/><path class="cls-16" d="M60.1,68.3a4.2,4.2,0,1,0,4.2-4.2A4.2,4.2,0,0,0,60.1,68.3Z"/><path class="cls-17" d="M64.3,65.71a4.21,4.21,0,0,0-4.12,3.39,4.26,4.26,0,0,1-.08-.8,4.2,4.2,0,1,1,8.4,0,4.26,4.26,0,0,1-.08.8A4.21,4.21,0,0,0,64.3,65.71Z"/><path class="cls-13" d="M63.1,68.3a1.2,1.2,0,1,0,1.2-1.2A1.2,1.2,0,0,0,63.1,68.3Z"/><path class="cls-14" d="M64.3,68.1a1.19,1.19,0,0,0-1.08.7,1.23,1.23,0,0,1-.12-.5,1.2,1.2,0,1,1,2.4,0,1.23,1.23,0,0,1-.12.5A1.19,1.19,0,0,0,64.3,68.1Z"/><path class="cls-15" d="M60.1,68.3a4.2,4.2,0,1,0,4.2-4.2A4.2,4.2,0,0,0,60.1,68.3Z"/><path class="cls-15" d="M63.1,68.3a1.2,1.2,0,1,0,1.2-1.2A1.2,1.2,0,0,0,63.1,68.3Z"/><path class="cls-18" d="M93.58,58.6a1.35,1.35,0,0,0,1.16-.46A1.32,1.32,0,0,0,95,56.92L93.94,53a1.2,1.2,0,0,0-1.16-.88H88.9a1.2,1.2,0,0,0-1.2,1.2v2.27a1.35,1.35,0,0,0,.62,1.14A11.08,11.08,0,0,0,93.58,58.6Z"/><path class="cls-19" d="M88.9,52.1h3.88a1.2,1.2,0,0,1,1.16.88L95,56.92a1.32,1.32,0,0,1-.27,1.22,1.24,1.24,0,0,1-.21.19L88.4,52.21A1.22,1.22,0,0,1,88.9,52.1Z"/><path class="cls-15" d="M93.58,58.6a1.35,1.35,0,0,0,1.16-.46A1.32,1.32,0,0,0,95,56.92L93.94,53a1.2,1.2,0,0,0-1.16-.88H88.9a1.2,1.2,0,0,0-1.2,1.2v2.27a1.35,1.35,0,0,0,.62,1.14A11.08,11.08,0,0,0,93.58,58.6Z"/><line class="cls-4" x1="60" y1="51.5" x2="70" y2="51.5"/><line class="cls-4" x1="62" y1="53.5" x2="70" y2="53.5"/><line class="cls-4" x1="64" y1="55.5" x2="70" y2="55.5"/><line class="cls-4" x1="66" y1="57.5" x2="70" y2="57.5"/><text class="cls-20" transform="translate(71.5 55.88)">24</text><polyline class="cls-4" points="77.5 57.53 75 59.53 77.5 61.53"/><path class="cls-4" d="M71,49.56a6,6,0,1,1,4.5,10,4.1,4.1,0,0,1-.5,0"/></g><path class="cls-21" d="M34.85,43.57A10.35,10.35,0,0,0,24.5,53.92v3.45a1.66,1.66,0,0,1-1.73,1.73,3.91,3.91,0,0,1-3.08-2L18.49,55A2,2,0,0,0,15,56.91l1.2,2.16a7.44,7.44,0,0,0,6.6,4c2.3,0,5.18-1.72,5.75-3.45v1.15H41.17V68a2,2,0,0,0,4,0V53.92A10.36,10.36,0,0,0,34.85,43.57Z"/><path class="cls-22" d="M45.2,53.92a10.48,10.48,0,0,0-.41-2.87H24.9a10.47,10.47,0,0,0-.4,2.87v.58H45.2Z"/><path class="cls-4" d="M34.85,43.57A10.35,10.35,0,0,0,24.5,53.92v3.45a1.66,1.66,0,0,1-1.73,1.73,3.91,3.91,0,0,1-3.08-2L18.49,55A2,2,0,0,0,15,56.91l1.2,2.16a7.44,7.44,0,0,0,6.6,4c2.3,0,5.18-1.72,5.75-3.45v1.15H41.17V68a2,2,0,0,0,4,0V53.92A10.36,10.36,0,0,0,34.85,43.57Z"/><polygon class="cls-21" points="30.86 77.5 31.21 83.25 38.48 83.25 38.83 77.5 30.86 77.5"/><polygon class="cls-22" points="38.73 79.22 38.83 77.5 30.86 77.5 30.96 79.22 38.73 79.22"/><polygon class="cls-4" points="30.86 77.5 31.21 83.25 38.48 83.25 38.83 77.5 30.86 77.5"/><ellipse class="cls-23" cx="52.13" cy="87.27" rx="24.73" ry="1.73"/><line class="cls-4" x1="34.85" y1="77.5" x2="34.85" y2="81.52"/><path class="cls-24" d="M29.73,84.61,31,80.37l.07,1.15a1.63,1.63,0,0,0,1.6,1.73c1.28,0,2.17-.45,2.17-1.73V85a1.14,1.14,0,0,1-1.15,1.15H30.82a1.14,1.14,0,0,1-1.09-1.51Z"/><path class="cls-24" d="M40,84.61l-1.27-4.24-.07,1.15A1.63,1.63,0,0,1,37,83.25c-1.28,0-2.17-.45-2.17-1.73V85A1.14,1.14,0,0,0,36,86.12h2.87A1.14,1.14,0,0,0,40,84.61Z"/><rect class="cls-25" x="15.33" y="48.75" width="5.75" height="10.35" rx="1" ry="1"/><path class="cls-26" d="M16.83,53.25a2,2,0,0,1-.12,4l-.88,0a1.16,1.16,0,0,1-1.11-1.2l.08-1.72A1.14,1.14,0,0,1,16,53.23Z"/><path class="cls-26" d="M42.9,34.37A1.4,1.4,0,0,0,41.75,33v-.93a6.9,6.9,0,0,0-13.8,0V33a1.39,1.39,0,0,0-1.15,1.37,1.42,1.42,0,0,0,1.29,1.41,6.9,6.9,0,0,0,13.51,0A1.42,1.42,0,0,0,42.9,34.37Z"/><circle class="cls-22" cx="31.11" cy="35.24" r="0.86"/><circle class="cls-22" cx="38.58" cy="35.24" r="0.86"/><path class="cls-4" d="M36.57,37.25a2.9,2.9,0,0,1-3.45,0"/><path class="cls-27" d="M32.26,32.07a.87.87,0,1,0,.86.87.86.86,0,0,0-.86-.87Z"/><path class="cls-27" d="M37.43,32.07a.87.87,0,1,0,.87.87.87.87,0,0,0-.87-.87Z"/><path class="cls-28" d="M33.34,23.6a8.68,8.68,0,0,1,1.26-.15,8.54,8.54,0,0,1,1.76.14,2.88,2.88,0,0,0-1.51-5.32,2.88,2.88,0,0,0-1.51,5.33Z"/><path class="cls-29" d="M34.6,23.45a8.28,8.28,0,0,0-7.8,8.39V38.4A5.77,5.77,0,0,0,28.07,42a.56.56,0,0,0,.64.18.57.57,0,0,0,.39-.54V36a4.73,4.73,0,0,1,1.81-3.75,15.23,15.23,0,0,0,2.89-2.84,1.18,1.18,0,0,1,1.42-.4c2.55,1.11,3.82,3,5,4.27a.56.56,0,0,0,.66.12,1.27,1.27,0,0,1,.58-.14,1.32,1.32,0,0,1,1.43,1.3v-3A8.06,8.06,0,0,0,34.6,23.45Z"/><path class="cls-30" d="M34.6,25.85a8.05,8.05,0,0,1,8.29,7.77V31.5a8.06,8.06,0,0,0-8.3-8,8.29,8.29,0,0,0-7.81,8.39v2.39A8.28,8.28,0,0,1,34.6,25.85Z"/><path class="cls-4" d="M34.6,23.45a8.28,8.28,0,0,0-7.8,8.39V38.4A5.77,5.77,0,0,0,28.07,42a.56.56,0,0,0,.64.18.57.57,0,0,0,.39-.54V36a4.73,4.73,0,0,1,1.81-3.75,15.23,15.23,0,0,0,2.89-2.84,1.18,1.18,0,0,1,1.42-.4c2.55,1.11,3.82,3,5,4.27a.56.56,0,0,0,.66.12,1.27,1.27,0,0,1,.58-.14,1.32,1.32,0,0,1,1.43,1.3v-3A8.06,8.06,0,0,0,34.6,23.45Z"/><path class="cls-31" d="M41.17,56.8a2.87,2.87,0,0,1,.57-2.14,2.16,2.16,0,0,0,.42-1.89h3A10.26,10.26,0,0,0,43,47.6H26.65a10.26,10.26,0,0,0-2.09,5.17h3A2.16,2.16,0,0,0,28,54.66a2.87,2.87,0,0,1,.57,2.14v4s-1,2.72-1.08,15.52a1.18,1.18,0,0,0,.33.82,1.15,1.15,0,0,0,.82.34H41.1a1.15,1.15,0,0,0,.82-.34,1.18,1.18,0,0,0,.33-.82c-.06-12.8-1.08-15.52-1.08-15.52Z"/><rect class="cls-9" x="30.25" y="47.6" width="1.73" height="29.9"/><rect class="cls-9" x="33.7" y="47.6" width="2.3" height="29.9"/><rect class="cls-9" x="37.72" y="47.6" width="1.73" height="29.9"/><path class="cls-4" d="M41.17,56.8a2.87,2.87,0,0,1,.57-2.14,2.16,2.16,0,0,0,.42-1.89h3A10.26,10.26,0,0,0,43,47.6H26.65a10.26,10.26,0,0,0-2.09,5.17h3A2.16,2.16,0,0,0,28,54.66a2.87,2.87,0,0,1,.57,2.14v4s-1,2.72-1.08,15.52a1.18,1.18,0,0,0,.33.82,1.15,1.15,0,0,0,.82.34H41.1a1.15,1.15,0,0,0,.82-.34,1.18,1.18,0,0,0,.33-.82c-.06-12.8-1.08-15.52-1.08-15.52Z"/><rect class="cls-32" x="45.77" y="74.62" width="19.55" height="11.5" rx="1" ry="1"/><rect class="cls-32" x="48.65" y="63.7" width="11.5" height="10.35" rx="1" ry="1" transform="translate(123.27 14.48) rotate(90)"/><path class="cls-33" d="M64.17,74.62H46.92a1.16,1.16,0,0,0-1.15,1.15v2.3a1.16,1.16,0,0,1,1.15-1.15H64.17a1.15,1.15,0,0,1,1.15,1.15v-2.3A1.15,1.15,0,0,0,64.17,74.62Z"/><rect class="cls-4" x="45.77" y="74.62" width="19.55" height="11.5" rx="1" ry="1"/><polyline class="cls-4" points="46.17 74.91 55.55 81.53 64.92 74.91"/><line class="cls-4" x1="46.12" y1="85.8" x2="52.67" y2="79.8"/><line class="cls-4" x1="64.97" y1="85.8" x2="58.42" y2="79.8"/><path class="cls-33" d="M58.42,63.12H50.37a1.16,1.16,0,0,0-1.15,1.15v2.3a1.16,1.16,0,0,1,1.15-1.15h8.05a1.15,1.15,0,0,1,1.15,1.15v-2.3A1.15,1.15,0,0,0,58.42,63.12Z"/><rect class="cls-4" x="48.65" y="63.7" width="11.5" height="10.35" rx="1" ry="1" transform="translate(123.27 14.48) rotate(90)"/><line class="cls-4" x1="59.57" y1="68.3" x2="49.22" y2="68.3"/><line class="cls-4" x1="54.4" y1="63.12" x2="54.4" y2="74.62"/><path class="cls-34" d="M62.63,79.22l.74-.87a1.14,1.14,0,0,0-.12-1.62L58.88,73l-2.44.19.19,2.43L61,79.35A1.15,1.15,0,0,0,62.63,79.22Z"/><path class="cls-4" d="M54.5,68.3a5.06,5.06,0,0,0,1.94,4.88"/><rect class="cls-32" x="61.3" y="70.6" width="19.55" height="11.5" rx="1" ry="1" transform="translate(147.42 5.28) rotate(90)"/><path class="cls-33" d="M75.67,66.57h-9.2a1.16,1.16,0,0,0-1.15,1.15V70a1.16,1.16,0,0,1,1.15-1.15h9.2A1.15,1.15,0,0,1,76.82,70v-2.3A1.15,1.15,0,0,0,75.67,66.57Z"/><rect class="cls-4" x="61.3" y="70.6" width="19.55" height="11.5" rx="1" ry="1" transform="translate(147.42 5.28) rotate(90)"/><line class="cls-4" x1="71.07" y1="66.57" x2="71.07" y2="86.12"/><path class="cls-34" d="M78.94,78.48l.93-.68a1.15,1.15,0,0,0,.25-1.61l-3.39-4.64-2.41-.38L74,73.59l3.39,4.64A1.15,1.15,0,0,0,78.94,78.48Z"/><path class="cls-4" d="M72.08,66.57c.17,2.1.76,3.54,2.24,4.6"/></g></svg>