<svg id="Multicolor" xmlns="http://www.w3.org/2000/svg" viewBox="0 0 100 112"><defs><style>.cls-1{fill:#e8f4fa;}.cls-2{fill:#fff;}.cls-11,.cls-3{fill:none;}.cls-3{stroke:#4f4a45;}.cls-11,.cls-12,.cls-13,.cls-17,.cls-20,.cls-23,.cls-29,.cls-3,.cls-4{stroke-linecap:round;}.cls-11,.cls-12,.cls-13,.cls-17,.cls-20,.cls-23,.cls-29,.cls-3,.cls-30,.cls-4{stroke-linejoin:round;}.cls-4{fill:#fff5e3;}.cls-11,.cls-12,.cls-13,.cls-17,.cls-20,.cls-23,.cls-29,.cls-30,.cls-4{stroke:#191816;}.cls-5{fill:#ffb700;}.cls-6{fill:#ff4064;}.cls-7{fill:#00aed9;}.cls-8{fill:#48cf3e;}.cls-9{fill:#9f5ae5;}.cls-10{fill:#bf8df2;}.cls-12{fill:#ffda8f;}.cls-13,.cls-15{fill:#614b44;}.cls-14{fill:#ffbe3d;}.cls-16{fill:#947063;}.cls-17,.cls-18{fill:#ff6242;}.cls-19{fill:#ff866e;}.cls-20{fill:#ebcb00;}.cls-21{fill:#191816;opacity:0.15;}.cls-22,.cls-23{fill:#daedf7;}.cls-24{fill:#dea47a;}.cls-25,.cls-29{fill:#bf8256;}.cls-26{fill:#f0d5a8;}.cls-27{fill:#debb7e;}.cls-28{fill:#915e3a;}.cls-30{fill:#656769;}</style></defs><title>29- graphic-designer-workspace-female-asian</title><g id="Background"><g id="New_Symbol_60-8" data-name="New Symbol 60"><path class="cls-1" d="M90,56A40,40,0,1,0,13.57,72.5H86.44A39.89,39.89,0,0,0,90,56Z"/><path class="cls-2" d="M13.57,72.5a40,40,0,0,0,72.87,0Z"/><line class="cls-3" x1="11.01" y1="72.5" x2="89.01" y2="72.5"/><line class="cls-3" x1="6.51" y1="72.5" x2="9.01" y2="72.5"/><line class="cls-3" x1="91.01" y1="72.5" x2="93.51" y2="72.5"/></g></g><g id="Scene"><rect class="cls-4" x="16.51" y="25.5" width="19" height="25" rx="1" ry="1"/><circle class="cls-5" cx="29.01" cy="34" r="2"/><circle class="cls-6" cx="30.01" cy="37.5" r="2"/><circle class="cls-7" cx="24.01" cy="37.5" r="2.5"/><circle class="cls-5" cx="26.51" cy="39.5" r="2.5"/><circle class="cls-6" cx="23.51" cy="34.5" r="2.5"/><circle class="cls-7" cx="26.51" cy="33" r="2"/><circle class="cls-8" cx="27.51" cy="37" r="2.5"/><circle class="cls-7" cx="22.01" cy="28.5" r="1"/><circle class="cls-8" cx="22.51" cy="42" r="1"/><circle class="cls-5" cx="20.01" cy="31.5" r="0.5"/><circle class="cls-5" cx="31.51" cy="41" r="0.5"/><circle class="cls-8" cx="27.01" cy="29.5" r="0.5"/><circle class="cls-8" cx="30.01" cy="44" r="0.5"/><circle class="cls-8" cx="19.51" cy="36.5" r="0.5"/><circle class="cls-7" cx="33.01" cy="29.5" r="0.5"/><circle class="cls-7" cx="19.01" cy="40" r="0.5"/><circle class="cls-7" cx="32.51" cy="35.5" r="0.5"/><circle class="cls-6" cx="19.01" cy="28.5" r="0.5"/><circle class="cls-6" cx="23.01" cy="46" r="0.5"/><circle class="cls-5" cx="25.01" cy="27.5" r="0.5"/><circle class="cls-6" cx="30.01" cy="30" r="1"/><circle class="cls-6" cx="25.51" cy="44.5" r="1"/><path class="cls-9" d="M68,43.5A8.46,8.46,0,0,0,62,46V60.5H73V45.13A8.49,8.49,0,0,0,68,43.5Z"/><path class="cls-10" d="M68,43.5A8.46,8.46,0,0,0,62,46v2.5a8.49,8.49,0,0,1,11-.85v-2.5A8.49,8.49,0,0,0,68,43.5Z"/><path class="cls-11" d="M68,43.5A8.46,8.46,0,0,0,62,46V60.5H73V45.13A8.49,8.49,0,0,0,68,43.5Z"/><path class="cls-12" d="M70.48,43.87l-2.18,3a1,1,0,0,1-1.61,0l-2-2.72A8.52,8.52,0,0,1,68,43.5,8.39,8.39,0,0,1,70.48,43.87Z"/><path class="cls-12" d="M53.28,55H56a3.5,3.5,0,0,0,3.5-3.5h0A8.49,8.49,0,0,1,62,46v9.09a7.58,7.58,0,0,1-1,1.29,7.5,7.5,0,0,1-1,.86,7,7,0,0,1-4,1.26H53.28a1.75,1.75,0,0,1,0-3.5Z"/><path class="cls-12" d="M73,56.75a1.75,1.75,0,0,0,3.5,0l0-5c0-.26,0-.52,0-.77A8.47,8.47,0,0,0,73,45.15Z"/><circle class="cls-13" cx="73.53" cy="39.1" r="3"/><path class="cls-12" d="M67.55,27.06a6,6,0,0,1,6,6v1.21c1.72,0,1.6,3-.3,3h0a6,6,0,0,1-11.73-1.81V33.07A6,6,0,0,1,67.55,27.06Z"/><path class="cls-14" d="M69.35,36.84a.61.61,0,1,0,.6-.61A.6.6,0,0,0,69.35,36.84Z"/><path class="cls-11" d="M68,38a2.25,2.25,0,0,1-2.65.25A2.8,2.8,0,0,1,65,38"/><path class="cls-11" d="M69.51,34.5a.86.86,0,0,0-1.21,0"/><path class="cls-11" d="M65,34.5a.86.86,0,0,0-1.21,0"/><path class="cls-15" d="M67.61,25.13a8.09,8.09,0,0,1,1,.08,6.62,6.62,0,0,1,5.62,6.52v2.94s-4.7-1.67-4.7-4.91a32.88,32.88,0,0,0-8.5,4v-2A6.6,6.6,0,0,1,67.61,25.13Z"/><path class="cls-16" d="M73.48,28.73a6.61,6.61,0,0,0-4.9-3.52,7.77,7.77,0,0,0-1-.08,6.6,6.6,0,0,0-6.6,6.6v2l.06,0A6.61,6.61,0,0,1,67.61,28a6.24,6.24,0,0,1,1,.08,6.61,6.61,0,0,1,5.63,6.52V31.73A6.58,6.58,0,0,0,73.48,28.73Z"/><path class="cls-11" d="M67.61,25.13a8.09,8.09,0,0,1,1,.08,6.62,6.62,0,0,1,5.62,6.52v2.94s-4.7-1.67-4.7-4.91a32.88,32.88,0,0,0-8.5,4v-2A6.6,6.6,0,0,1,67.61,25.13Z"/><polyline class="cls-11" points="32.99 55.54 30.01 50 34.38 45.23"/><path class="cls-17" d="M30.51,58.5a3,3,0,0,1,6,0Z"/><path class="cls-18" d="M39.36,44.07c-1.56-1.57-3.62-2-4.6-1.06s-.5,3,1.06,4.59l.36.36a1,1,0,0,0,1.41,0l2.12-2.13a1,1,0,0,0,0-1.41Z"/><path class="cls-19" d="M34.76,44.76c1-1,3-.51,4.6,1.06l.19.18.16-.17a1,1,0,0,0,0-1.41l-.35-.35c-1.56-1.57-3.62-2-4.6-1.06a2.27,2.27,0,0,0-.36,2.3A1.46,1.46,0,0,1,34.76,44.76Z"/><path class="cls-11" d="M39.36,44.07c-1.56-1.57-3.62-2-4.6-1.06s-.5,3,1.06,4.59l.36.36a1,1,0,0,0,1.41,0l2.12-2.13a1,1,0,0,0,0-1.41Z"/><circle class="cls-20" cx="30.01" cy="50" r="1.5"/><ellipse class="cls-21" cx="56.01" cy="80.5" rx="29" ry="1.5"/><line class="cls-11" x1="48.01" y1="58.5" x2="58.01" y2="58.5"/><rect class="cls-22" x="41.51" y="39.5" width="23" height="16" rx="2" ry="2"/><path class="cls-2" d="M62.51,39.5h-19a2,2,0,0,0-2,2V44a2,2,0,0,1,2-2h19a2,2,0,0,1,2,2V41.5A2,2,0,0,0,62.51,39.5Z"/><rect class="cls-11" x="41.51" y="39.5" width="23" height="16" rx="2" ry="2"/><line class="cls-11" x1="44.51" y1="41.5" x2="61.51" y2="41.5"/><path class="cls-23" d="M56.51,58.5h-7l.84-10.17a2,2,0,0,1,2-1.83h1.32a2,2,0,0,1,2,1.83Z"/><line class="cls-11" x1="44.51" y1="51.5" x2="44.51" y2="52.5"/><line class="cls-11" x1="46.51" y1="51.5" x2="46.51" y2="52.5"/><line class="cls-11" x1="48.51" y1="51.5" x2="48.51" y2="52.5"/><path class="cls-24" d="M82.51,60.5h-53v17a2,2,0,0,0,2,2h49a2,2,0,0,0,2-2Z"/><rect class="cls-25" x="29.51" y="60.5" width="53" height="2.5"/><path class="cls-11" d="M82.51,60.5h-53v17a2,2,0,0,0,2,2h49a2,2,0,0,0,2-2Z"/><rect class="cls-26" x="35.51" y="60.5" width="41" height="19"/><rect class="cls-27" x="35.51" y="60.5" width="41" height="2.5"/><rect class="cls-11" x="35.51" y="60.5" width="41" height="19"/><rect class="cls-25" x="38.51" y="63.5" width="35" height="13" rx="3" ry="3"/><path class="cls-28" d="M70.51,63.5h-29a3,3,0,0,0-3,3V69a3,3,0,0,1,3-3h29a3,3,0,0,1,3,3V66.5A3,3,0,0,0,70.51,63.5Z"/><rect class="cls-11" x="38.51" y="63.5" width="35" height="13" rx="3" ry="3"/><path class="cls-29" d="M82.51,60.5a1,1,0,0,0,0-2h-53a1,1,0,0,0,0,2Z"/><path class="cls-30" d="M77.51,56.5h-10a1,1,0,0,0-1,1v1h12v-1A1,1,0,0,0,77.51,56.5Z"/><path class="cls-30" d="M75.33,54.94l-1.82,1.29,0-2.23,3.06-5.74a.51.51,0,0,1,.68-.2l.88.47a.49.49,0,0,1,.21.67Z"/><path class="cls-12" d="M77.51,55a2.51,2.51,0,0,0-2.76-2.49,2.6,2.6,0,0,0-2.24,2.63v.36a1,1,0,0,0,1,1h3a1,1,0,0,0,1-1Z"/></g></svg>