<svg id="Multicolor" xmlns="http://www.w3.org/2000/svg" viewBox="0 0 100 112"><defs><style>.cls-1{fill:#e8f4fa;}.cls-2,.cls-8{fill:#fff;}.cls-3,.cls-7{fill:none;}.cls-11,.cls-13,.cls-14,.cls-15,.cls-16,.cls-18,.cls-20,.cls-23,.cls-3,.cls-7,.cls-8{stroke:#191816;stroke-linejoin:round;}.cls-11,.cls-13,.cls-14,.cls-15,.cls-16,.cls-18,.cls-20,.cls-23,.cls-3,.cls-8{stroke-linecap:round;}.cls-4{fill:#debb7e;}.cls-14,.cls-5{fill:#bf8256;}.cls-11,.cls-6{fill:#dea47a;}.cls-13,.cls-9{fill:#ffcebf;}.cls-10{fill:#ffb59e;}.cls-12{fill:#191816;opacity:0.15;}.cls-15{fill:#ffe500;}.cls-16{fill:#ffdf3d;}.cls-17{fill:#915e3a;}.cls-18{fill:#c0dceb;}.cls-19,.cls-20{fill:#fffbe5;}.cls-21{fill:#ffdcd1;}.cls-22{fill:#f0d5a8;}.cls-23{fill:#f7e5c6;}</style></defs><title>30- mailman-male-caucasian</title><g id="Background"><g id="New_Symbol_28-20" data-name="New Symbol 28"><path class="cls-1" d="M90,56A40,40,0,1,0,13.57,72.5H86.44A39.85,39.85,0,0,0,90,56Z"/><path class="cls-2" d="M13.57,72.5a40,40,0,0,0,72.87,0Z"/><line class="cls-3" x1="10.5" y1="72.5" x2="88.5" y2="72.5"/><line class="cls-3" x1="6" y1="72.5" x2="8.5" y2="72.5"/><line class="cls-3" x1="90.5" y1="72.5" x2="93" y2="72.5"/></g></g><g id="Scene"><path class="cls-4" d="M27.8,48.83H43.25a1,1,0,0,1,1,1V64.47a0,0,0,0,1,0,0H26.8a0,0,0,0,1,0,0V49.83A1,1,0,0,1,27.8,48.83Z"/><path class="cls-5" d="M72.53,72.5V67.05h6V64.87a15.65,15.65,0,0,0-31.29,0v2.18h6V72.5Z"/><path class="cls-6" d="M62.91,49.23A15.65,15.65,0,0,0,47.26,64.87v2.18h.18a15.65,15.65,0,0,1,30.93,0h.18V64.87A15.64,15.64,0,0,0,62.91,49.23Z"/><path class="cls-7" d="M72.53,72.5V67.05h6V64.87a15.65,15.65,0,0,0-31.29,0v2.18h6V72.5Z"/><line class="cls-3" x1="72.53" y1="63.88" x2="72.53" y2="63.28"/><line class="cls-3" x1="53.28" y1="67.05" x2="53.28" y2="63.28"/><line class="cls-3" x1="72.53" y1="67.05" x2="72.53" y2="63.28"/><path class="cls-8" d="M67.42,51.89c-.3,0-.6,0-.9,0H59.3c-.31,0-.61,0-.91,0l-.3,2.36,4.82,5.58,4.81-5.58Z"/><path class="cls-9" d="M66.52,51.85a4.31,4.31,0,0,1-7.23,0V46.43h7.23Z"/><path class="cls-10" d="M59.29,49.63a9.26,9.26,0,0,0,7.23,0v-3.2H59.29Z"/><path class="cls-3" d="M66.52,51.85a4.31,4.31,0,0,1-7.23,0V46.43h7.23Z"/><path class="cls-11" d="M62.91,59.83l-2.29-2.29a6.15,6.15,0,0,0-2.13-1.43,8.76,8.76,0,0,0-3.41-.49h0s1.4-5.55,3.61-6h.6v.61a4.36,4.36,0,0,0,.33,1.64Z"/><path class="cls-11" d="M62.91,59.83l2.28-2.29a6.15,6.15,0,0,1,2.13-1.43,8.76,8.76,0,0,1,3.41-.49h0s-1.4-5.55-3.61-6h-.6v.61a4.36,4.36,0,0,1-.33,1.64Z"/><path class="cls-12" d="M52,84.11c0,.82-6.39,1.5-14.27,1.5s-14.27-.68-14.27-1.5,6.39-1.5,14.27-1.5S52,83.28,52,84.11Z"/><line class="cls-3" x1="62.91" y1="59.83" x2="62.91" y2="63.44"/><path class="cls-13" d="M73.13,35.8V33.39a10.23,10.23,0,1,0-20.45,0V35.8a1.8,1.8,0,0,0-1.81,1.8v.6A1.81,1.81,0,0,0,52.68,40l.16,0A10.22,10.22,0,0,0,73,40l.16,0a1.81,1.81,0,0,0,1.81-1.81v-.6A1.8,1.8,0,0,0,73.13,35.8Z"/><path class="cls-10" d="M70.12,40a1.2,1.2,0,1,1-1.2-1.21A1.2,1.2,0,0,1,70.12,40Z"/><path class="cls-10" d="M58.09,40a1.2,1.2,0,1,1-1.2-1.21A1.2,1.2,0,0,1,58.09,40Z"/><path class="cls-3" d="M59.9,42.41a4.34,4.34,0,0,0,6,0"/><path class="cls-3" d="M68.32,36.8a1.63,1.63,0,0,0-3,0"/><path class="cls-3" d="M60.5,36.8a1.63,1.63,0,0,0-3,0"/><rect class="cls-13" x="48.46" y="67.05" width="4.81" height="5.45"/><rect class="cls-13" x="72.53" y="67.05" width="4.81" height="5.45"/><path class="cls-14" d="M70.12,63.44l-2.4,1.81-2.41-1.81v-3a5.06,5.06,0,0,1,4.81,0Z"/><path class="cls-15" d="M68.92,61.64a6.69,6.69,0,0,1,1.2.11V60.44a5.06,5.06,0,0,0-4.81,0v2.31A6.38,6.38,0,0,1,68.92,61.64Z"/><line class="cls-3" x1="55.69" y1="64.05" x2="60.5" y2="64.05"/><path class="cls-16" d="M67.72,28.58c.92,3.22,2.3,5,5.41,7.22V28.58S67.76,28.54,67.72,28.58Z"/><path class="cls-16" d="M58.09,28.58c-.92,3.22-2.3,5-5.41,7.22V28.58S58.05,28.54,58.09,28.58Z"/><path class="cls-17" d="M59.9,20.72h6a7.22,7.22,0,0,1,7.22,7.22v6c0-6.44-20.45-6.4-20.45,0v-6A7.22,7.22,0,0,1,59.9,20.72Z"/><path class="cls-5" d="M65.91,20.72h-6a7.22,7.22,0,0,0-7.22,7.22v3a7.22,7.22,0,0,1,7.22-7.22h6A7.22,7.22,0,0,1,73.13,31v-3A7.22,7.22,0,0,0,65.91,20.72Z"/><path class="cls-3" d="M59.9,20.72h6a7.22,7.22,0,0,1,7.22,7.22v6c0-6.44-20.45-6.4-20.45,0v-6A7.22,7.22,0,0,1,59.9,20.72Z"/><path class="cls-14" d="M65.31,26.14l-2.4,1.8-2.41-1.8v-3a5.12,5.12,0,0,1,4.81,0Z"/><path class="cls-15" d="M64.11,24.33a6.78,6.78,0,0,1,1.2.11V23.13a5.12,5.12,0,0,0-4.81,0v2.31A6.45,6.45,0,0,1,64.11,24.33Z"/><path class="cls-3" d="M65.31,20.72s4.21,2.64,4.21,9.63"/><path class="cls-3" d="M60.5,20.72s-4.21,2.64-4.21,9.63"/><path class="cls-14" d="M62.91,29.15c-3.44,0-6.87.73-8.76,2.18l1,2.44a1,1,0,0,0,.67.59,1,1,0,0,0,.88-.19,10.64,10.64,0,0,1,12.45,0,1,1,0,0,0,.88.19,1,1,0,0,0,.68-.59l1-2.44C69.49,29.64,65.64,29.15,62.91,29.15Z"/><rect class="cls-18" x="69.21" y="56.67" width="13.24" height="16.85" rx="2" ry="2" transform="translate(15.59 -14.64) rotate(12.28)"/><path class="cls-19" d="M83.45,61.21a2.41,2.41,0,1,0,1-4.7L73.89,54.2l-1,4.7Z"/><path class="cls-2" d="M74.47,56.55l10.58,2.31a2.34,2.34,0,0,1,1.21.67l.06-.16a2.41,2.41,0,0,0-1.84-2.86L73.89,54.2l-1,4.7,1,.23Z"/><path class="cls-3" d="M83.45,61.21a2.41,2.41,0,1,0,1-4.7L73.89,54.2l-1,4.7Z"/><path class="cls-20" d="M75.73,57.06a2.4,2.4,0,1,1-1.84-2.86A2.39,2.39,0,0,1,75.73,57.06Z"/><path class="cls-9" d="M83.86,69.67a1.21,1.21,0,0,1-1.29.64l-2.74-.5a2.88,2.88,0,0,1-2.32-3.36L77.77,65a2.88,2.88,0,0,1,3.36-2.32l2.73.5a1.18,1.18,0,0,1,1,1.06A9.71,9.71,0,0,1,83.86,69.67Z"/><path class="cls-21" d="M78.38,68.45,78.64,67A2.88,2.88,0,0,1,82,64.71l2.74.5.16,0a7.93,7.93,0,0,0-.06-1,1.18,1.18,0,0,0-1-1.06l-2.73-.5A2.88,2.88,0,0,0,77.77,65l-.26,1.42A2.87,2.87,0,0,0,78.34,69,3,3,0,0,1,78.38,68.45Z"/><path class="cls-3" d="M83.86,69.67a1.21,1.21,0,0,1-1.29.64l-2.74-.5a2.88,2.88,0,0,1-2.32-3.36L77.77,65a2.88,2.88,0,0,1,3.36-2.32l2.73.5a1.18,1.18,0,0,1,1,1.06A9.71,9.71,0,0,1,83.86,69.67Z"/><path class="cls-22" d="M44.25,49.83a1,1,0,0,0-1-1H27.8a1,1,0,0,0-1,1V53A1.21,1.21,0,0,1,28,51.83h15A1.21,1.21,0,0,1,44.25,53Z"/><path class="cls-3" d="M27.8,48.83H43.25a1,1,0,0,1,1,1V64.47a0,0,0,0,1,0,0H26.8a0,0,0,0,1,0,0V49.83A1,1,0,0,1,27.8,48.83Z"/><path class="cls-23" d="M32.82,48.83h5.41a0,0,0,0,1,0,0v7.32a.5.5,0,0,1-.5.5H33.32a.5.5,0,0,1-.5-.5V48.83A0,0,0,0,1,32.82,48.83Z"/><rect class="cls-4" x="25" y="64.47" width="25.27" height="18.65" rx="1" ry="1"/><path class="cls-22" d="M50.27,65.47a1,1,0,0,0-1-1H26a1,1,0,0,0-1,1v3.81a1.2,1.2,0,0,1,1.2-1.2H49.07a1.2,1.2,0,0,1,1.2,1.2Z"/><rect class="cls-3" x="25" y="64.47" width="25.27" height="18.65" rx="1" ry="1"/><path class="cls-23" d="M34.63,64.47h6a0,0,0,0,1,0,0V73.6a.5.5,0,0,1-.5.5h-5a.5.5,0,0,1-.5-.5V64.47A0,0,0,0,1,34.63,64.47Z"/></g></svg>