<svg id="Duotone" xmlns="http://www.w3.org/2000/svg" viewBox="0 0 100 112"><defs><style>.cls-1{fill:#f0f2ff;}.cls-2{fill:none;}.cls-2,.cls-4,.cls-5{stroke:#4550e5;stroke-linecap:round;stroke-linejoin:round;}.cls-3,.cls-4{fill:#fff;}.cls-5{fill:#d6daff;}</style></defs><title>31- idea-document-design</title><g id="Icons"><path class="cls-1" d="M90,56A40,40,0,1,0,13.56,72.5H86.44A39.85,39.85,0,0,0,90,56Z"/><line class="cls-2" x1="11" y1="72.5" x2="89" y2="72.5"/><line class="cls-2" x1="6.5" y1="72.5" x2="9" y2="72.5"/><line class="cls-2" x1="91" y1="72.5" x2="93.5" y2="72.5"/><path class="cls-3" d="M60.6,43.9a3,3,0,0,1,3-3H41.4a3.6,3.6,0,0,0-3.6,3.6V78.1H57.6a3,3,0,0,0,3-3V43.9Z"/><ellipse class="cls-1" cx="46.19" cy="78.7" rx="17.69" ry="1.5"/><path class="cls-2" d="M60.6,43.9a3,3,0,0,1,3-3H41.4a3.6,3.6,0,0,0-3.6,3.6V78.1H57.6a3,3,0,0,0,3-3V43.9Z"/><path class="cls-4" d="M66.6,43.9A3,3,0,0,0,63,41a3.06,3.06,0,0,0-2.41,3V46.9h5a1,1,0,0,0,1-1Z"/><path class="cls-5" d="M39.69,52.9a1.2,1.2,0,0,1-1.2,1.2h-6a1.2,1.2,0,1,1,0-2.4h6A1.2,1.2,0,0,1,39.69,52.9Z"/><path class="cls-5" d="M39.69,55.3a1.2,1.2,0,0,1-1.2,1.2h-6a1.2,1.2,0,1,1,0-2.4h6A1.2,1.2,0,0,1,39.69,55.3Z"/><path class="cls-5" d="M38.49,56.5a3,3,0,0,1-6,0Z"/><path class="cls-5" d="M49.65,57,66.08,73.93a1,1,0,0,0,1.72-.7V56.3a1,1,0,0,0-1-1H50.36A1,1,0,0,0,49.65,57ZM64.8,67.57l-9-9.27h9Z"/><path class="cls-4" d="M55.15,72.1a.5.5,0,0,1,.33.88A3,3,0,0,0,57.6,78.1H34.91a3.06,3.06,0,0,1-3-2.41A3,3,0,0,1,34.8,72.1Z"/><path class="cls-3" d="M42.6,40.9a6.79,6.79,0,0,0-7.11-7.2A7,7,0,0,0,28.2,41c0,3.74,4.2,7.71,4.2,10.71h6C38.4,49.56,42.6,44.92,42.6,40.9Z"/><path class="cls-2" d="M42.6,40.9a6.79,6.79,0,0,0-7.11-7.2A7,7,0,0,0,28.2,41c0,3.74,4.2,7.71,4.2,10.71h6C38.4,49.56,42.6,44.92,42.6,40.9Z"/><path class="cls-2" d="M34.8,51.7l-2.67-8a1.38,1.38,0,0,1,.54-1.57,1.36,1.36,0,0,1,1.72.17,1.42,1.42,0,0,0,2,0,1.36,1.36,0,0,1,1.72-.17,1.38,1.38,0,0,1,.54,1.57L36,51.7"/><line class="cls-2" x1="76.8" y1="35.2" x2="76.8" y2="34.3"/><line class="cls-2" x1="78.71" y1="35.99" x2="79.35" y2="35.35"/><line class="cls-2" x1="79.5" y1="37.9" x2="80.4" y2="37.9"/><line class="cls-2" x1="78.71" y1="39.81" x2="79.35" y2="40.45"/><line class="cls-2" x1="76.8" y1="40.6" x2="76.8" y2="41.5"/><line class="cls-2" x1="74.89" y1="39.81" x2="74.25" y2="40.45"/><line class="cls-2" x1="74.1" y1="37.9" x2="73.2" y2="37.9"/><line class="cls-2" x1="74.89" y1="35.99" x2="74.25" y2="35.35"/><line class="cls-2" x1="38.1" y1="30.3" x2="38.1" y2="25.5"/><line class="cls-2" x1="35.7" y1="27.9" x2="40.5" y2="27.9"/><line class="cls-2" x1="24" y1="38.5" x2="24" y2="36.1"/><line class="cls-2" x1="22.8" y1="37.3" x2="25.2" y2="37.3"/><line class="cls-2" x1="64.2" y1="37" x2="64.2" y2="34.6"/><line class="cls-2" x1="63" y1="35.8" x2="65.4" y2="35.8"/><path class="cls-2" d="M17.47,51.15a.58.58,0,0,0,0,.57A.59.59,0,0,0,18,52h4.84a.59.59,0,0,0,.5-.28.58.58,0,0,0,0-.57l-2.42-4.54a.57.57,0,0,0-1,0Z"/><path class="cls-2" d="M52.87,37.31A10.36,10.36,0,0,1,45.94,24.4a8.28,8.28,0,0,1,10.33-5.54,6.62,6.62,0,0,1,4.44,8.26,5.31,5.31,0,0,1-6.61,3.55,4.24,4.24,0,0,1-2.84-5.29,3.39,3.39,0,0,1,4.23-2.27,2.71,2.71,0,0,1,1.82,3.38A2.18,2.18,0,0,1,54.6,28"/><path class="cls-2" d="M73.22,55.9V54.8a1.2,1.2,0,0,1,1.2-1.2h1a1.2,1.2,0,0,0,1.2-1.2v-1a1.2,1.2,0,0,1,1.2-1.2h1A1.2,1.2,0,0,0,80,49V48a1.2,1.2,0,0,1,1.2-1.2h1a1.2,1.2,0,0,0,1.2-1.2v-1"/><line class="cls-2" x1="45" y1="48.1" x2="56.4" y2="48.1"/><line class="cls-2" x1="42.6" y1="51.7" x2="56.4" y2="51.7"/><line class="cls-2" x1="41.4" y1="58.9" x2="46.8" y2="58.9"/><line class="cls-2" x1="41.4" y1="62.5" x2="50.4" y2="62.5"/><line class="cls-2" x1="41.4" y1="66.1" x2="54.6" y2="66.1"/></g></svg>