<svg id="Multicolor" xmlns="http://www.w3.org/2000/svg" viewBox="0 0 100 112"><defs><style>.cls-1{fill:#e8f4fa;}.cls-2{fill:#fff;}.cls-3,.cls-9{fill:none;}.cls-12,.cls-13,.cls-14,.cls-3,.cls-4,.cls-8,.cls-9{stroke:#191816;}.cls-12,.cls-13,.cls-14,.cls-3,.cls-4,.cls-8{stroke-linecap:round;stroke-linejoin:round;}.cls-4{fill:#f0f0f0;}.cls-5{fill:#00b8f0;}.cls-6{fill:#4acfff;}.cls-7{fill:#191816;opacity:0.15;}.cls-8{fill:#bdbec0;}.cls-9{stroke-miterlimit:10;}.cls-10{fill:#bf8256;}.cls-11{fill:#dea47a;}.cls-12{fill:#9ceb60;}.cls-13{fill:#87898c;}.cls-14{fill:#ffe500;}</style></defs><title>31- programming-search-for-setting</title><g id="Background"><g id="New_Symbol_37-5" data-name="New Symbol 37"><path class="cls-1" d="M90.34,56A40,40,0,1,0,13.9,72.5H86.77A39.7,39.7,0,0,0,90.34,56Z"/><path class="cls-2" d="M13.9,72.5a40,40,0,0,0,72.87,0Z"/><line class="cls-3" x1="10.84" y1="72.5" x2="88.84" y2="72.5"/><line class="cls-3" x1="6.34" y1="72.5" x2="8.84" y2="72.5"/><line class="cls-3" x1="90.84" y1="72.5" x2="93.34" y2="72.5"/></g></g><g id="Scene"><path class="cls-4" d="M20.19,47.92H65.06a2,2,0,0,1,2,2V79a0,0,0,0,1,0,0H18.19a0,0,0,0,1,0,0v-29A2,2,0,0,1,20.19,47.92Z"/><path class="cls-5" d="M22.69,51.37H62.61a1,1,0,0,1,1,1V79a0,0,0,0,1,0,0H21.69a0,0,0,0,1,0,0V52.37A1,1,0,0,1,22.69,51.37Z"/><path class="cls-6" d="M53.22,51.37,23.6,79H21.69V52.52a1.15,1.15,0,0,1,1.15-1.15Z"/><path class="cls-3" d="M22.69,51.37H62.61a1,1,0,0,1,1,1V79a0,0,0,0,1,0,0H21.69a0,0,0,0,1,0,0V52.37A1,1,0,0,1,22.69,51.37Z"/><ellipse class="cls-7" cx="43.78" cy="85.85" rx="27.6" ry="1.72"/><path class="cls-4" d="M14.88,79h55.5a1,1,0,0,1,1,1V82.4a0,0,0,0,1,0,0H13.88a0,0,0,0,1,0,0V80a1,1,0,0,1,1-1Z"/><path class="cls-8" d="M71.38,82.4A59.64,59.64,0,0,1,55,84.7H30.3a59.57,59.57,0,0,1-16.42-2.3h57.5Z"/><path class="cls-7" d="M64.76,47.92H35A21.88,21.88,0,0,0,67.06,66.15V50.22A2.3,2.3,0,0,0,64.76,47.92Z"/><rect class="cls-4" x="69.37" y="56.51" width="4.77" height="8.35" transform="translate(-21.89 68.51) rotate(-45)"/><circle class="cls-4" cx="57" cy="46.77" r="17.89" transform="translate(-16.03 36.63) rotate(-31.46)"/><circle class="cls-5" cx="57" cy="46.77" r="14.31"/><path class="cls-6" d="M67.13,36.67A14.31,14.31,0,1,0,46.89,56.9Z"/><path class="cls-9" d="M67.12,36.65a14.31,14.31,0,1,1-20.24,0A14.33,14.33,0,0,1,67.12,36.65Z"/><path class="cls-10" d="M87.86,76.63l-.17.16a3.48,3.48,0,0,1-4.89,0L72.15,66.14a1.15,1.15,0,0,1,0-1.63l3.42-3.43a1.16,1.16,0,0,1,1.64,0L87.86,71.73A3.47,3.47,0,0,1,87.86,76.63Z"/><path class="cls-11" d="M87.86,76.63l-.08.08L73.87,62.78l1.7-1.7a1.16,1.16,0,0,1,1.64,0L87.86,71.73A3.47,3.47,0,0,1,87.86,76.63Z"/><path class="cls-9" d="M87.86,76.63l-.17.16a3.48,3.48,0,0,1-4.89,0L72.15,66.14a1.15,1.15,0,0,1,0-1.63l3.42-3.43a1.16,1.16,0,0,1,1.64,0L87.86,71.73A3.47,3.47,0,0,1,87.86,76.63Z"/><path class="cls-12" d="M59.62,46.42v-1.9h-2a4.29,4.29,0,0,0-.55-1.32l1.43-1.44-1.35-1.34L55.7,41.85a3.94,3.94,0,0,0-1.32-.55v-2H52.47v2a3.85,3.85,0,0,0-1.32.55l-1.43-1.43-1.35,1.34L49.8,43.2a4.29,4.29,0,0,0-.55,1.32h-2v1.9h2a4.35,4.35,0,0,0,.55,1.33l-1.43,1.43,1.35,1.35,1.43-1.43a4.29,4.29,0,0,0,1.32.55v2h1.91v-2a4.39,4.39,0,0,0,1.32-.55l1.43,1.43,1.35-1.35-1.43-1.43a4.35,4.35,0,0,0,.55-1.33Z"/><circle class="cls-13" cx="53.42" cy="45.47" r="1.91"/><path class="cls-14" d="M65.34,49.76a2.3,2.3,0,0,0,0-.26l1.42-.82-1-1.65-1.42.82a2.07,2.07,0,0,0-.45-.27V46H62v1.63a2.07,2.07,0,0,0-.45.27L60.13,47l-1,1.65,1.42.82a2.3,2.3,0,0,0,0,.26,2.06,2.06,0,0,0,0,.26l-1.42.82,1,1.65,1.42-.81a2.51,2.51,0,0,0,.45.26v1.63h1.91V51.94a2.51,2.51,0,0,0,.45-.26l1.42.81,1-1.65L65.31,50A2.06,2.06,0,0,0,65.34,49.76Z"/><path class="cls-3" d="M63.43,49.76a.48.48,0,1,1-.47-.48A.48.48,0,0,1,63.43,49.76Z"/></g></svg>