<svg id="Multicolor" xmlns="http://www.w3.org/2000/svg" viewBox="0 0 100 112"><defs><style>.cls-1{fill:#e8f4fa;}.cls-14,.cls-2{fill:#fff;}.cls-13,.cls-3{fill:none;}.cls-11,.cls-13,.cls-14,.cls-18,.cls-19,.cls-20,.cls-21,.cls-22,.cls-23,.cls-3,.cls-4,.cls-9{stroke:#191816;stroke-linejoin:round;}.cls-21,.cls-22,.cls-23,.cls-3,.cls-4,.cls-9{stroke-linecap:round;}.cls-12,.cls-4{fill:#f0f0f0;}.cls-19,.cls-21,.cls-5{fill:#d18660;}.cls-6{fill:#bd704a;}.cls-7{fill:#ff8a14;}.cls-8{fill:#ffaa54;}.cls-9{fill:#fc9;}.cls-10,.cls-15{fill:#191816;}.cls-10{opacity:0.15;}.cls-11{fill:#bdbec0;}.cls-16,.cls-18{fill:#ff6242;}.cls-17{fill:#ff866e;}.cls-20{fill:#9ceb60;}.cls-22{fill:#e09f7e;}.cls-23,.cls-24{fill:#724f3d;}.cls-25{fill:#a86c4d;}</style></defs><title>32- work-laptop-male-african-american-1</title><g id="Background"><g id="New_Symbol_83-9" data-name="New Symbol 83"><path class="cls-1" d="M90,56A40,40,0,1,0,13.57,72.5H86.44A39.86,39.86,0,0,0,90,56Z"/><path class="cls-2" d="M13.57,72.5a40,40,0,0,0,72.87,0Z"/><line class="cls-3" x1="11.01" y1="72.5" x2="89.01" y2="72.5"/><line class="cls-3" x1="6.51" y1="72.5" x2="9.01" y2="72.5"/><line class="cls-3" x1="91.01" y1="72.5" x2="93.51" y2="72.5"/></g></g><g id="Scene"><path class="cls-4" d="M50.51,49A15.56,15.56,0,0,0,35,64.75V72.5H66V64.75A15.57,15.57,0,0,0,50.51,49Z"/><path class="cls-5" d="M47,46.5v5a3.5,3.5,0,0,0,7,0v-5Z"/><path class="cls-6" d="M54,46.5H47v4.73a6.79,6.79,0,0,0,3.5.77,6.85,6.85,0,0,0,3.5-.77Z"/><path class="cls-3" d="M47,46.5v5a3.5,3.5,0,0,0,7,0v-5Z"/><path class="cls-7" d="M48.51,55.44a2,2,0,0,0-.19-.83l-2-5A15.62,15.62,0,0,0,35,64.75V72.5h13.5Z"/><path class="cls-8" d="M48,53.71l-1.67-4.12A15.62,15.62,0,0,0,35,64.75v1.83A15.77,15.77,0,0,1,48,53.71Z"/><path class="cls-3" d="M48.51,55.44a2,2,0,0,0-.19-.83l-2-5A15.62,15.62,0,0,0,35,64.75V72.5h13.5Z"/><line class="cls-3" x1="40.51" y1="72.5" x2="40.51" y2="63"/><path class="cls-9" d="M46.29,49.59a15.26,15.26,0,0,0-1.9.67l.76,5.46a1,1,0,0,0,1.58.75l1.78-.94v-.09a2,2,0,0,0-.19-.83Z"/><path class="cls-7" d="M54.72,49.59l-2,5a2,2,0,0,0-.18.83V72.5h8V75H66V64.75A15.62,15.62,0,0,0,54.72,49.59Z"/><path class="cls-8" d="M53.05,53.71l1.67-4.12A15.62,15.62,0,0,1,66,64.75v1.83A15.78,15.78,0,0,0,53.05,53.71Z"/><path class="cls-3" d="M54.72,49.59l-2,5a2,2,0,0,0-.18.83V72.5h8V75H66V64.75A15.62,15.62,0,0,0,54.72,49.59Z"/><line class="cls-3" x1="60.51" y1="72.5" x2="60.51" y2="63"/><path class="cls-9" d="M54.72,49.59a15.41,15.41,0,0,1,1.91.67l-.77,5.46a1,1,0,0,1-1.58.75l-1.77-.94v-.09a2,2,0,0,1,.18-.83Z"/><ellipse class="cls-10" cx="40.52" cy="87.5" rx="14" ry="1.5"/><path class="cls-11" d="M52.52,85H28l.31,1.25a1,1,0,0,0,1,.75H51.24a1,1,0,0,0,1-.75Z"/><rect class="cls-12" x="27.02" y="68" width="26.5" height="17" rx="0.97" ry="0.97"/><path class="cls-2" d="M52.55,68H28a1,1,0,0,0-1,1v4a1,1,0,0,1,1-1H52.55a1,1,0,0,1,1,1V69A1,1,0,0,0,52.55,68Z"/><rect class="cls-13" x="27.02" y="68" width="26.5" height="17" rx="0.97" ry="0.97"/><path class="cls-14" d="M41.85,77.58a1.59,1.59,0,0,1,.51-1.19,1.14,1.14,0,0,0-.85-.7,1.27,1.27,0,0,0-1.19.77,1.3,1.3,0,0,0-1.2-.77c-.73.09-1.21,1.09-1.08,2.24s.85,2,1.58,1.92a1,1,0,0,0,.7-.44,1,1,0,0,0,.69.44c.54.07,1.06-.38,1.35-1.07A1.61,1.61,0,0,1,41.85,77.58Z"/><path class="cls-2" d="M41.33,74a1,1,0,0,1,.24-.29.92.92,0,0,1,.33-.19,1.13,1.13,0,0,1-.24.3A1.06,1.06,0,0,1,41.33,74Z"/><path class="cls-15" d="M42.21,73a1.51,1.51,0,0,0-1,.35,1.5,1.5,0,0,0-.54,1,.2.2,0,0,0,0,.15.17.17,0,0,0,.14.07H41a1.49,1.49,0,0,0,1-.35,1.5,1.5,0,0,0,.53-1,.2.2,0,0,0,0-.15.21.21,0,0,0-.14-.07Z"/><ellipse class="cls-10" cx="62.51" cy="86.5" rx="8.5" ry="1.5"/><rect class="cls-16" x="55.51" y="74.5" width="9" height="12" rx="1" ry="1"/><path class="cls-17" d="M63.51,74.5h-7a1,1,0,0,0-1,1V78a1,1,0,0,1,1-1h7a1,1,0,0,1,1,1V75.5A1,1,0,0,0,63.51,74.5Z"/><rect class="cls-13" x="54.01" y="76" width="12" height="9" rx="1" ry="1" transform="translate(-20.5 140.51) rotate(-90)"/><path class="cls-18" d="M64.51,75h.58a3.42,3.42,0,0,1,3.42,3.42v3.67a3.42,3.42,0,0,1-3.42,3.42h-.58a0,0,0,0,1,0,0V75A0,0,0,0,1,64.51,75Z"/><path class="cls-19" d="M67.51,77h.86A1.64,1.64,0,0,1,70,78.64v3.73A1.64,1.64,0,0,1,68.37,84h-.86a3,3,0,0,1-3-3V80A3,3,0,0,1,67.51,77Z"/><polygon class="cls-20" points="64.51 83.82 55.51 80.07 55.51 77.5 64.51 81.25 64.51 83.82"/><path class="cls-21" d="M60.51,36V33.5a10,10,0,0,0-20,0V36a2,2,0,1,0,0,4h.12a10,10,0,0,0,19.75,0h.13a2,2,0,0,0,0-4Z"/><circle class="cls-6" cx="44.76" cy="40.25" r="1.25"/><circle class="cls-6" cx="56.26" cy="40.25" r="1.25"/><path class="cls-3" d="M53.51,42.79a4.32,4.32,0,0,1-6,0"/><path class="cls-3" d="M48,37a1.63,1.63,0,0,0-3,0"/><path class="cls-3" d="M56,37a1.63,1.63,0,0,0-3,0"/><path class="cls-22" d="M45,30.06a3,3,0,0,1-2-2.56,3.08,3.08,0,0,1,.09-.72,10,10,0,0,0-2.59,6.72V36a1.6,1.6,0,0,1,1.6,1.72,8.3,8.3,0,0,0,.4-4.22,4.78,4.78,0,0,0,2.5-1Z"/><path class="cls-22" d="M56,30.06a3,3,0,0,0,2-2.56,3.12,3.12,0,0,0-.1-.72,10,10,0,0,1,2.6,6.72V36a1.6,1.6,0,0,0-1.6,1.72,8.17,8.17,0,0,1-.4-4.22,4.74,4.74,0,0,1-2.5-1Z"/><path class="cls-23" d="M50.51,21.5a7.39,7.39,0,0,1,3,.68V21a2,2,0,0,0-2-2h-2a2,2,0,0,0-2,2v1.18A7.31,7.31,0,0,1,50.51,21.5Z"/><path class="cls-24" d="M50.51,21.5c-3.92,0-7.5,3.57-7.5,6,0,3.12,6.21,3.8,7.5,3.8s7.5-.68,7.5-3.8C58,25.07,54.42,21.5,50.51,21.5Z"/><path class="cls-25" d="M58,27.5c0-2.43-3.59-6-7.5-6s-7.5,3.57-7.5,6a2.19,2.19,0,0,0,.45,1.35,8.49,8.49,0,0,1,7-4.35,8.49,8.49,0,0,1,7,4.35A2.2,2.2,0,0,0,58,27.5Z"/><path class="cls-3" d="M50.51,21.5c-3.92,0-7.5,3.57-7.5,6,0,3.12,6.21,3.8,7.5,3.8s7.5-.68,7.5-3.8C58,25.07,54.42,21.5,50.51,21.5Z"/></g></svg>