<svg id="Multicolor" xmlns="http://www.w3.org/2000/svg" viewBox="0 0 100 112"><defs><style>.cls-1{fill:#e8f4fa;}.cls-2{fill:#191816;opacity:0.15;}.cls-3{fill:#bf8256;}.cls-3,.cls-4,.cls-6,.cls-8{stroke:#191816;}.cls-3,.cls-4,.cls-6,.cls-7,.cls-8{stroke-linecap:round;stroke-linejoin:round;}.cls-4{fill:#ffe3cf;}.cls-5,.cls-8{fill:#ff6242;}.cls-6,.cls-7{fill:none;}.cls-7{stroke:#e04122;}</style></defs><title>38- easy-to-use-cake</title><g id="New_Symbol_53-17" data-name="New Symbol 53"><circle class="cls-1" cx="50.13" cy="56" r="40"/></g><ellipse class="cls-2" cx="50.08" cy="80.85" rx="18.52" ry="1.98"/><path class="cls-3" d="M69.58,46.63,30.09,50.42l1.76,18.43A1.33,1.33,0,0,0,33.3,70L70.16,66.5a1.32,1.32,0,0,0,1.19-1.44Z"/><rect class="cls-4" x="31.07" y="56.41" width="39.68" height="6.61" transform="translate(-5.47 5.13) rotate(-5.48)"/><path class="cls-5" d="M47.77,54.7a2,2,0,1,1,3.95-.38l.06.66a1.32,1.32,0,0,0,2.63-.25l-.06-.66a.65.65,0,0,1,.59-.72.66.66,0,0,1,.73.59l.17,1.84A2.74,2.74,0,0,0,58.3,58.3a2.64,2.64,0,0,0,2.82-2.89l-.31-3.29a2,2,0,1,0,3.94-.38l-.06-.66a1.32,1.32,0,0,1,2.63-.25l.13,1.32a4,4,0,0,0,2.37,3.26,1.32,1.32,0,0,0,1.8-1.36L70.9,46.5c-.38-3.88-8.29-8.89-18.49-9.15a3.94,3.94,0,0,0-2.06.56L30.23,49.69a2.64,2.64,0,0,0-1.3,2.53l.9,9.44a.68.68,0,0,0,.86.58,4,4,0,0,0,2.8-4.05A2.07,2.07,0,0,1,34.87,56a2,2,0,0,1,2.55,1.7l.07.66A2,2,0,1,0,41.44,58l-.13-1.31a.66.66,0,0,1,1.32-.13l.17,1.83a2.74,2.74,0,0,0,2.46,2.53A2.64,2.64,0,0,0,48.08,58Z"/><path class="cls-6" d="M47.77,54.7a2,2,0,1,1,3.95-.38l.06.66a1.32,1.32,0,0,0,2.63-.25l-.06-.66a.65.65,0,0,1,.59-.72.66.66,0,0,1,.73.59l.17,1.84A2.74,2.74,0,0,0,58.3,58.3a2.64,2.64,0,0,0,2.82-2.89l-.31-3.29a2,2,0,1,0,3.94-.38l-.06-.66a1.32,1.32,0,0,1,2.63-.25l.13,1.32a4,4,0,0,0,2.37,3.26,1.32,1.32,0,0,0,1.8-1.36L70.9,46.5c-.38-3.88-8.29-8.89-18.49-9.15a3.94,3.94,0,0,0-2.06.56L30.23,49.69a2.64,2.64,0,0,0-1.3,2.53l.9,9.44a.68.68,0,0,0,.86.58,4,4,0,0,0,2.8-4.05A2.07,2.07,0,0,1,34.87,56a2,2,0,0,1,2.55,1.7l.07.66A2,2,0,1,0,41.44,58l-.13-1.31a.66.66,0,0,1,1.32-.13l.17,1.83a2.74,2.74,0,0,0,2.46,2.53A2.64,2.64,0,0,0,48.08,58Z"/><line class="cls-7" x1="35.35" y1="49.91" x2="66.95" y2="46.88"/><path class="cls-8" d="M62,36.36c-.17-3.28-3.77-8.41-7.05-8.24S48.57,33.76,48.74,37s3.63,5.77,6.91,5.6S62.11,39.64,62,36.36Z"/><line class="cls-6" x1="51.31" y1="35.58" x2="51.38" y2="36.9"/><line class="cls-6" x1="53.09" y1="31.52" x2="53.16" y2="32.84"/><line class="cls-6" x1="55.27" y1="35.38" x2="55.34" y2="36.7"/><line class="cls-6" x1="57.05" y1="31.32" x2="57.12" y2="32.64"/><line class="cls-6" x1="59.24" y1="35.18" x2="59.3" y2="36.5"/><path class="cls-4" d="M63.62,39.9C63.79,41.72,60.4,43.53,56,44s-8-.72-8.22-2.54a2,2,0,0,1,1.79-2.16c1.09-.11,2,0,2.1,1.13-.21-2.18,1.45-3.46,3.63-3.67s4.06.73,4.27,2.91c-.11-1.09.75-1.4,1.85-1.51A2,2,0,0,1,63.62,39.9Z"/></svg>