<svg viewBox="0 0 100 112" xmlns="http://www.w3.org/2000/svg"><circle cx="50.13" cy="56" fill="#e8f4fa" r="40"/><ellipse cx="50.08" cy="80.85" fill="#191816" opacity=".15" rx="18.52" ry="1.98"/><path d="m69.58 46.63-39.49 3.79 1.76 18.43a1.33 1.33 0 0 0 1.45 1.15l36.86-3.5a1.32 1.32 0 0 0 1.19-1.44z" fill="#bf8256" stroke="#191816" stroke-linecap="round" stroke-linejoin="round"/><path d="m31.07 56.41h39.68v6.61h-39.68z" fill="#ffe3cf" stroke="#191816" stroke-linecap="round" stroke-linejoin="round" transform="matrix(.99542959 -.09549829 .09549829 .99542959 -5.47 5.13)"/><path d="m47.77 54.7a2 2 0 1 1 3.95-.38l.06.66a1.32 1.32 0 0 0 2.63-.25l-.06-.66a.65.65 0 0 1 .59-.72.66.66 0 0 1 .73.59l.17 1.84a2.74 2.74 0 0 0 2.46 2.52 2.64 2.64 0 0 0 2.82-2.89l-.31-3.29a2 2 0 1 0 3.94-.38l-.06-.66a1.32 1.32 0 0 1 2.63-.25l.13 1.32a4 4 0 0 0 2.37 3.26 1.32 1.32 0 0 0 1.8-1.36l-.72-7.55c-.38-3.88-8.29-8.89-18.49-9.15a3.94 3.94 0 0 0 -2.06.56l-20.12 11.78a2.64 2.64 0 0 0 -1.3 2.53l.9 9.44a.68.68 0 0 0 .86.58 4 4 0 0 0 2.8-4.05 2.07 2.07 0 0 1 1.38-2.19 2 2 0 0 1 2.55 1.7l.07.66a2 2 0 1 0 3.95-.36l-.13-1.31a.66.66 0 0 1 1.32-.13l.17 1.83a2.74 2.74 0 0 0 2.46 2.53 2.64 2.64 0 0 0 2.82-2.92z" fill="#ff6242"/><g stroke-linecap="round" stroke-linejoin="round"><path d="m47.77 54.7a2 2 0 1 1 3.95-.38l.06.66a1.32 1.32 0 0 0 2.63-.25l-.06-.66a.65.65 0 0 1 .59-.72.66.66 0 0 1 .73.59l.17 1.84a2.74 2.74 0 0 0 2.46 2.52 2.64 2.64 0 0 0 2.82-2.89l-.31-3.29a2 2 0 1 0 3.94-.38l-.06-.66a1.32 1.32 0 0 1 2.63-.25l.13 1.32a4 4 0 0 0 2.37 3.26 1.32 1.32 0 0 0 1.8-1.36l-.72-7.55c-.38-3.88-8.29-8.89-18.49-9.15a3.94 3.94 0 0 0 -2.06.56l-20.12 11.78a2.64 2.64 0 0 0 -1.3 2.53l.9 9.44a.68.68 0 0 0 .86.58 4 4 0 0 0 2.8-4.05 2.07 2.07 0 0 1 1.38-2.19 2 2 0 0 1 2.55 1.7l.07.66a2 2 0 1 0 3.95-.36l-.13-1.31a.66.66 0 0 1 1.32-.13l.17 1.83a2.74 2.74 0 0 0 2.46 2.53 2.64 2.64 0 0 0 2.82-2.92z" fill="none" stroke="#191816"/><path d="m35.35 49.91 31.6-3.03" fill="none" stroke="#e04122"/><path d="m62 36.36c-.17-3.28-3.77-8.41-7.05-8.24s-6.38 5.64-6.21 8.88 3.63 5.77 6.91 5.6 6.46-2.96 6.35-6.24z" fill="#ff6242" stroke="#191816"/><path d="m51.31 35.58.07 1.32" fill="none" stroke="#191816"/><path d="m53.09 31.52.07 1.32" fill="none" stroke="#191816"/><path d="m55.27 35.38.07 1.32" fill="none" stroke="#191816"/><path d="m57.05 31.32.07 1.32" fill="none" stroke="#191816"/><path d="m59.24 35.18.06 1.32" fill="none" stroke="#191816"/><path d="m63.62 39.9c.17 1.82-3.22 3.63-7.62 4.1s-8-.72-8.22-2.54a2 2 0 0 1 1.79-2.16c1.09-.11 2 0 2.1 1.13-.21-2.18 1.45-3.46 3.63-3.67s4.06.73 4.27 2.91c-.11-1.09.75-1.4 1.85-1.51a2 2 0 0 1 2.2 1.74z" fill="#ffe3cf" stroke="#191816"/></g></svg>