<svg id="Multicolor" xmlns="http://www.w3.org/2000/svg" xmlns:xlink="http://www.w3.org/1999/xlink" viewBox="0 0 100 112"><defs><style>.cls-1,.cls-11,.cls-15,.cls-8{fill:none;}.cls-2{fill:#e8f4fa;}.cls-3{clip-path:url(#clip-path);}.cls-4,.cls-7{fill:#ffb59e;}.cls-11,.cls-12,.cls-15,.cls-18,.cls-4,.cls-7,.cls-8{stroke:#191816;}.cls-15,.cls-4{stroke-miterlimit:10;}.cls-5{fill:#ffcebf;}.cls-6{fill:#ffdcd1;}.cls-11,.cls-12,.cls-18,.cls-7,.cls-8{stroke-linejoin:round;}.cls-12,.cls-8{stroke-linecap:round;}.cls-9{fill:#009fd9;}.cls-10{fill:#00b8f0;}.cls-12,.cls-17{fill:#fff;}.cls-13,.cls-18{fill:#ffe500;}.cls-14{fill:#fff48c;}.cls-16{fill:#f0f0f0;}</style><clipPath id="clip-path"><circle class="cls-1" cx="50.55" cy="55.72" r="40"/></clipPath></defs><title>39- bitcoin-cloud-computing</title><g id="Background"><g id="New_Symbol_1-7" data-name="New Symbol 1"><circle class="cls-2" cx="50.55" cy="55.72" r="40"/></g></g><g id="Scene"><g class="cls-3"><path class="cls-4" d="M53.16,36.48a1.6,1.6,0,0,1,2.22-.4l4.24,3a1.6,1.6,0,1,1-1.82,2.62l-4.24-3A1.59,1.59,0,0,1,53.16,36.48Z"/><path class="cls-4" d="M51.87,37.61a1.6,1.6,0,0,1,2.18.58l2.14,3.57a1.59,1.59,0,0,1-2.75,1.6L51.3,39.79A1.59,1.59,0,0,1,51.87,37.61Z"/><path class="cls-5" d="M60.68,36.59A13.37,13.37,0,0,1,66,33.75L68,33.13,65.75,23.5l-2,.66C61,25.28,57.22,23.39,53,25.89c-5.33,3.15-8.32,9.28-5.14,18.26a1.59,1.59,0,1,0,3-1c-.21-.59-.38-1.17-.54-1.73a21.92,21.92,0,0,1-.59-3.29,8.91,8.91,0,0,1,1.76-6.54,1.87,1.87,0,0,1,3.25.08,3.55,3.55,0,0,1-1.63,4.22l-3.38,2.24h0a21.92,21.92,0,0,0,.59,3.29h0a1.56,1.56,0,0,0,.57-.23C58.2,38.33,59.37,37.58,60.68,36.59Z"/><path class="cls-6" d="M49.7,44.38c-3.38-8.67-.6-14.44,4.54-17.31,3.78-2.1,7.3-.61,9.95-1.17l2-.38-.47-2-2,.66C61,25.28,57.22,23.39,53,25.89c-5.33,3.15-8.32,9.28-5.14,18.26a1.6,1.6,0,0,0,2,1l.25-.11A1.7,1.7,0,0,1,49.7,44.38Z"/><path class="cls-7" d="M54.75,31.62a3.55,3.55,0,0,1-1.63,4.22l-3.38,2.24a8.91,8.91,0,0,1,1.76-6.54A1.87,1.87,0,0,1,54.75,31.62Z"/><path class="cls-8" d="M60.68,36.59A13.37,13.37,0,0,1,66,33.75L68,33.13,65.75,23.5l-2,.66C61,25.28,57.22,23.39,53,25.89c-5.33,3.15-8.32,9.28-5.14,18.26a1.59,1.59,0,1,0,3-1c-.21-.59-.38-1.17-.54-1.73a21.92,21.92,0,0,1-.59-3.29,8.91,8.91,0,0,1,1.76-6.54,1.87,1.87,0,0,1,3.25.08,3.55,3.55,0,0,1-1.63,4.22l-3.38,2.24h0a21.92,21.92,0,0,0,.59,3.29h0a1.56,1.56,0,0,0,.57-.23C58.2,38.33,59.37,37.58,60.68,36.59Z"/><path class="cls-9" d="M69.3,34.24l13.82-3.3a1,1,0,0,0,.75-1.2L81.51,19.67a1,1,0,0,0-1.2-.74l-13.83,3.3a1,1,0,0,0-.75,1.2L68.09,33.5A1,1,0,0,0,69.3,34.24Z"/><path class="cls-10" d="M65.69,23.23a.78.78,0,0,1,.59-.95l14.23-3.4a.8.8,0,0,1,.95.6l.28,1.16L66,24.4Z"/><path class="cls-11" d="M69.3,34.24l13.82-3.3a1,1,0,0,0,.75-1.2L81.51,19.67a1,1,0,0,0-1.2-.74l-13.83,3.3a1,1,0,0,0-.75,1.2L68.09,33.5A1,1,0,0,0,69.3,34.24Z"/><path class="cls-12" d="M65.56,23.36h1.39a0,0,0,0,1,0,0V34.11a0,0,0,0,1,0,0H65.56a1,1,0,0,1-1-1V24.36A1,1,0,0,1,65.56,23.36Z" transform="translate(-4.83 15.78) rotate(-13.2)"/><circle class="cls-13" cx="46.8" cy="48.47" r="9.75"/><path class="cls-14" d="M46.8,38.72a9.75,9.75,0,0,0-6.9,16.64L53.69,41.58A9.69,9.69,0,0,0,46.8,38.72Z"/><circle class="cls-15" cx="46.8" cy="48.47" r="9.75"/><path class="cls-8" d="M50.45,46.34a2.13,2.13,0,0,1-2.13,2.13H43.75V44.2h4.57A2.13,2.13,0,0,1,50.45,46.34Z"/><path class="cls-8" d="M50.45,50.6a2.13,2.13,0,0,1-2.13,2.14H43.75V48.47h4.57A2.13,2.13,0,0,1,50.45,50.6Z"/><line class="cls-8" x1="45.58" y1="42.38" x2="45.58" y2="44.2"/><line class="cls-8" x1="48.01" y1="42.38" x2="48.01" y2="44.2"/><line class="cls-8" x1="45.58" y1="52.74" x2="45.58" y2="54.56"/><line class="cls-8" x1="48.01" y1="52.74" x2="48.01" y2="54.56"/><path class="cls-5" d="M54.75,31.62a3.55,3.55,0,0,1-1.63,4.22l-4,2.65a1.59,1.59,0,1,0,1.77,2.65c7.3-2.81,8.47-3.56,9.78-4.55"/><path class="cls-6" d="M51.17,39.17l4-2.65a2.69,2.69,0,0,0,1.24-2.08,2.66,2.66,0,0,0-.95-2.23l-.7-.59a3.55,3.55,0,0,1-1.63,4.22l-4,2.65a1.59,1.59,0,0,0,1.54,2.77A1.57,1.57,0,0,1,51.17,39.17Z"/><path class="cls-8" d="M54.75,31.62a3.55,3.55,0,0,1-1.63,4.22l-4,2.65a1.59,1.59,0,1,0,1.77,2.65c7.3-2.81,8.47-3.56,9.78-4.55"/><path class="cls-5" d="M54.75,31.62a3.55,3.55,0,0,1-1.63,4.22l-4,2.65a1.59,1.59,0,1,0,1.77,2.65c7.3-2.81,8.47-3.56,9.78-4.55"/><path class="cls-6" d="M51.17,39.17l4-2.65a2.69,2.69,0,0,0,1.24-2.08,2.66,2.66,0,0,0-.95-2.23l-.7-.59a3.55,3.55,0,0,1-1.63,4.22l-4,2.65a1.59,1.59,0,0,0,1.54,2.77A1.57,1.57,0,0,1,51.17,39.17Z"/><path class="cls-8" d="M54.75,31.62a3.55,3.55,0,0,1-1.63,4.22l-4,2.65a1.59,1.59,0,1,0,1.77,2.65c7.3-2.81,8.47-3.56,9.78-4.55"/><path class="cls-16" d="M81.55,60.13A6.6,6.6,0,0,0,75,53.54a5.79,5.79,0,0,0-.72,0,9.5,9.5,0,0,0-18.25,3,5.43,5.43,0,1,0-2.74,10.11H75.73S81.55,65.85,81.55,60.13Z"/><path class="cls-17" d="M53.47,58.86a5.44,5.44,0,0,1,2.75.75,9.49,9.49,0,0,1,18.24-3,5.85,5.85,0,0,1,.73,0,6.6,6.6,0,0,1,6.29,4.61,8.17,8.17,0,0,0,.07-1A6.6,6.6,0,0,0,75,53.54a5.79,5.79,0,0,0-.72,0,9.5,9.5,0,0,0-18.25,3,5.42,5.42,0,0,0-7.82,6.58A5.43,5.43,0,0,1,53.47,58.86Z"/><path class="cls-11" d="M81.55,60.13A6.6,6.6,0,0,0,75,53.54a5.79,5.79,0,0,0-.72,0,9.5,9.5,0,0,0-18.25,3,5.43,5.43,0,1,0-2.74,10.11H75.73S81.55,65.85,81.55,60.13Z"/><path class="cls-16" d="M18.05,66.76A7.46,7.46,0,0,1,25.5,59.3a7.55,7.55,0,0,1,.83.05A10.74,10.74,0,0,1,47,62.78a6.14,6.14,0,1,1,3.11,11.44H24.63S18.05,73.23,18.05,66.76Z"/><path class="cls-17" d="M25.28,62.26a7,7,0,0,1,.79.05,10.41,10.41,0,0,1,20,3.33,5.94,5.94,0,0,1,9,5.13,6,6,0,0,1-.1,1,6.14,6.14,0,0,0-8-9,10.74,10.74,0,0,0-20.64-3.43,7.55,7.55,0,0,0-.83-.05,7.46,7.46,0,0,0-7.45,7.46,8.82,8.82,0,0,0,.12,1.41A7.23,7.23,0,0,1,25.28,62.26Z"/><path class="cls-11" d="M18.05,66.76A7.46,7.46,0,0,1,25.5,59.3a7.55,7.55,0,0,1,.83.05A10.74,10.74,0,0,1,47,62.78a6.14,6.14,0,1,1,3.11,11.44H24.63S18.05,73.23,18.05,66.76Z"/><line class="cls-11" x1="38.05" y1="74.22" x2="38.05" y2="88.22"/><polyline class="cls-11" points="45.05 74.22 45.05 81.72 54.55 81.72 54.55 91.72"/><polyline class="cls-11" points="58.55 66.72 58.55 76.72 53.55 76.72"/><line class="cls-11" x1="64.05" y1="66.72" x2="64.05" y2="87.22"/><polyline class="cls-11" points="74.55 66.72 74.55 80.72 70.05 80.72 70.05 85.22"/><line class="cls-11" x1="69.05" y1="66.72" x2="69.05" y2="74.22"/><line class="cls-11" x1="32.05" y1="74.22" x2="32.05" y2="83.22"/><circle class="cls-18" cx="38.05" cy="89.22" r="1"/><circle class="cls-18" cx="32.05" cy="84.22" r="1"/><circle class="cls-18" cx="54.55" cy="92.72" r="1"/><circle class="cls-18" cx="52.55" cy="76.72" r="1"/><circle class="cls-18" cx="46.55" cy="87.22" r="1"/><circle class="cls-18" cx="64.05" cy="88.22" r="1"/><circle class="cls-18" cx="69.05" cy="75.22" r="1"/><circle class="cls-18" cx="70.05" cy="86.22" r="1"/><line class="cls-11" x1="46.55" y1="88.22" x2="46.55" y2="96.72"/><circle class="cls-18" cx="27.05" cy="78.22" r="1"/><polyline class="cls-11" points="26.05 78.22 22.05 78.22 22.05 85.22"/><circle class="cls-18" cx="59.55" cy="82.22" r="1"/><line class="cls-11" x1="59.55" y1="83.22" x2="59.55" y2="95.22"/></g></g></svg>