<svg id="Multicolor" xmlns="http://www.w3.org/2000/svg" viewBox="0 0 100 112"><defs><style>.cls-1{fill:#e8f4fa;}.cls-2{fill:#191816;opacity:0.15;}.cls-3{fill:#6dd627;}.cls-3,.cls-4,.cls-5,.cls-6,.cls-7{stroke:#191816;stroke-linecap:round;stroke-linejoin:round;}.cls-4{fill:#fff;}.cls-5{fill:#ff6242;}.cls-6{fill:#ffe500;}.cls-7{fill:none;stroke-width:2px;}</style></defs><title>40- easy-to-use-2</title><g id="New_Symbol_53-19" data-name="New Symbol 53"><circle class="cls-1" cx="50.13" cy="56" r="40"/></g><ellipse class="cls-2" cx="50.05" cy="86.01" rx="19.55" ry="1.73"/><rect class="cls-3" x="21.88" y="49.79" width="26.45" height="26.45" rx="3.45" ry="3.45"/><rect class="cls-4" x="25.32" y="53.24" width="19.55" height="19.55" rx="1" ry="1"/><path class="cls-3" d="M38.29,62.16a2.86,2.86,0,0,0,.83-2.26,3,3,0,0,0-3-2.64H32.23a1.16,1.16,0,0,0-1.16,1.15v9.2a1.15,1.15,0,0,0,1.16,1.15h4.68a3.35,3.35,0,0,0,3.36-3.36v-.17A3.36,3.36,0,0,0,38.29,62.16Z"/><path class="cls-4" d="M35.1,61.86H34v-2.3H35.1a1.15,1.15,0,0,1,1.15,1.15h0A1.14,1.14,0,0,1,35.1,61.86Z"/><path class="cls-4" d="M35.67,66.46H34v-2.3h1.72a1.16,1.16,0,0,1,1.16,1.15h0A1.15,1.15,0,0,1,35.67,66.46Z"/><rect class="cls-5" x="52.92" y="49.79" width="26.45" height="26.45" rx="3.45" ry="3.45"/><rect class="cls-4" x="56.38" y="53.24" width="19.55" height="19.55" rx="1" ry="1"/><path class="cls-5" d="M70.47,65.19a1.06,1.06,0,0,0-1.24.16,3,3,0,1,1-1.93-5.42,2.84,2.84,0,0,1,1.93.75,1.06,1.06,0,0,0,1.24.15,1.85,1.85,0,0,0,.92-1.56c0-1.38-2.74-2.58-4.87-2.58C62.88,56.69,61,60,61,63s1.9,6.33,5.54,6.33c2.13,0,4.87-1.21,4.87-2.59A1.87,1.87,0,0,0,70.47,65.19Z"/><rect class="cls-6" x="37.4" y="23.34" width="26.45" height="26.45" rx="3.45" ry="3.45"/><rect class="cls-4" x="40.85" y="26.79" width="19.55" height="19.55" rx="1" ry="1"/><path class="cls-6" d="M54.15,42.81a2.29,2.29,0,0,1-2.21-1.58l-.24-.64H49.55l-.23.64a2.3,2.3,0,0,1-2.21,1.58,2.25,2.25,0,0,1-2.31-2.24,3.22,3.22,0,0,1,.24-1.1l3.1-7.37a2.59,2.59,0,0,1,5,0l3.06,7.23a3.52,3.52,0,0,1,.28,1.21A2.25,2.25,0,0,1,54.15,42.81Z"/><line class="cls-7" x1="50.63" y1="35.99" x2="50.63" y2="35.41"/></svg>