<svg id="Multicolor" xmlns="http://www.w3.org/2000/svg" viewBox="0 0 100 112"><defs><style>.cls-1{fill:#e8f4fa;}.cls-2{fill:#fff;}.cls-3,.cls-6{fill:none;}.cls-12,.cls-3,.cls-6{stroke:#191816;stroke-linejoin:round;}.cls-3{stroke-linecap:round;}.cls-4{fill:#adc4d9;}.cls-5{fill:#daedf7;}.cls-7{fill:#191816;opacity:0.15;}.cls-8{fill:#ffe500;}.cls-9{fill:#fff48c;}.cls-10{fill:#ff6242;}.cls-11{fill:#ff866e;}.cls-12{fill:#627b8c;}</style></defs><title>45- program-setting-1</title><g id="Background"><g id="New_Symbol_28-6" data-name="New Symbol 28"><path class="cls-1" d="M90.34,56A40,40,0,1,0,13.9,72.5H86.77A39.7,39.7,0,0,0,90.34,56Z"/><path class="cls-2" d="M13.9,72.5a40,40,0,0,0,72.87,0Z"/><line class="cls-3" x1="10.84" y1="72.5" x2="88.84" y2="72.5"/><line class="cls-3" x1="6.34" y1="72.5" x2="8.84" y2="72.5"/><line class="cls-3" x1="90.84" y1="72.5" x2="93.34" y2="72.5"/></g></g><g id="Scene"><path class="cls-4" d="M63,45.21A1.21,1.21,0,0,0,64.15,44V42.07A1.21,1.21,0,0,0,63,40.86H61A10.68,10.68,0,0,0,59.45,37l1.36-1.35a1.23,1.23,0,0,0,.35-.85,1.25,1.25,0,0,0-.35-.86l-1.37-1.36a1.2,1.2,0,0,0-1.71,0L56.38,34a10.87,10.87,0,0,0-3.82-1.59V30.47a1.21,1.21,0,0,0-1.21-1.2H49.42a1.2,1.2,0,0,0-1.2,1.2v1.91A10.87,10.87,0,0,0,44.4,34l-1.35-1.35a1.2,1.2,0,0,0-1.71,0L40,34a1.21,1.21,0,0,0,0,1.71L41.33,37a10.68,10.68,0,0,0-1.59,3.82H37.83a1.21,1.21,0,0,0-1.21,1.21V44a1.21,1.21,0,0,0,1.21,1.21h1.91A10.71,10.71,0,0,0,41.33,49L40,50.38a1.21,1.21,0,0,0,0,1.7l1.37,1.37a1.21,1.21,0,0,0,1.71,0L44.4,52.1a10.85,10.85,0,0,0,3.82,1.58v1.91a1.21,1.21,0,0,0,1.2,1.21h1.93a1.21,1.21,0,0,0,1.21-1.21V53.68a10.85,10.85,0,0,0,3.82-1.58l1.35,1.35a1.21,1.21,0,0,0,1.71,0l1.37-1.37a1.21,1.21,0,0,0,0-1.7L59.45,49A10.71,10.71,0,0,0,61,45.21ZM50.39,48.1A5.07,5.07,0,1,1,55.46,43,5.07,5.07,0,0,1,50.39,48.1Z"/><path class="cls-5" d="M63,45.21A1.21,1.21,0,0,0,64.15,44V42.07A1.21,1.21,0,0,0,63,40.86H61A10.68,10.68,0,0,0,59.45,37l1.36-1.35a1.23,1.23,0,0,0,.35-.85,1.25,1.25,0,0,0-.35-.86l-1.37-1.36a1.2,1.2,0,0,0-1.71,0L56.38,34a10.87,10.87,0,0,0-3.82-1.59V30.47a1.21,1.21,0,0,0-1.21-1.2H49.42a1.2,1.2,0,0,0-1.2,1.2v1.91A10.87,10.87,0,0,0,44.4,34l-1.35-1.35a1.2,1.2,0,0,0-1.71,0L40,34a1.21,1.21,0,0,0,0,1.71L41.33,37a10.68,10.68,0,0,0-1.59,3.82H37.83a1.21,1.21,0,0,0-1.21,1.21V44a1.21,1.21,0,0,0,1.21,1.21h1.91A10.71,10.71,0,0,0,41.33,49L40,50.38a1.21,1.21,0,0,0,0,1.7l1.37,1.37a1.21,1.21,0,0,0,1.71,0L44.4,52.1a10.85,10.85,0,0,0,3.82,1.58v1.91a1.21,1.21,0,0,0,1.2,1.21h1.93a1.21,1.21,0,0,0,1.21-1.21V53.68a10.85,10.85,0,0,0,3.82-1.58l1.35,1.35a1.21,1.21,0,0,0,1.71,0l1.37-1.37a1.21,1.21,0,0,0,0-1.7L59.45,49A10.71,10.71,0,0,0,61,45.21ZM50.39,51a8,8,0,1,1,8-8A8,8,0,0,1,50.39,51Z"/><path class="cls-6" d="M63,45.21A1.21,1.21,0,0,0,64.15,44V42.07A1.21,1.21,0,0,0,63,40.86H61A10.68,10.68,0,0,0,59.45,37l1.36-1.35a1.23,1.23,0,0,0,.35-.85,1.25,1.25,0,0,0-.35-.86l-1.37-1.36a1.2,1.2,0,0,0-1.71,0L56.38,34a10.87,10.87,0,0,0-3.82-1.59V30.47a1.21,1.21,0,0,0-1.21-1.2H49.42a1.2,1.2,0,0,0-1.2,1.2v1.91A10.87,10.87,0,0,0,44.4,34l-1.35-1.35a1.2,1.2,0,0,0-1.71,0L40,34a1.21,1.21,0,0,0,0,1.71L41.33,37a10.68,10.68,0,0,0-1.59,3.82H37.83a1.21,1.21,0,0,0-1.21,1.21V44a1.21,1.21,0,0,0,1.21,1.21h1.91A10.71,10.71,0,0,0,41.33,49L40,50.38a1.21,1.21,0,0,0,0,1.7l1.37,1.37a1.21,1.21,0,0,0,1.71,0L44.4,52.1a10.85,10.85,0,0,0,3.82,1.58v1.91a1.21,1.21,0,0,0,1.2,1.21h1.93a1.21,1.21,0,0,0,1.21-1.21V53.68a10.85,10.85,0,0,0,3.82-1.58l1.35,1.35a1.21,1.21,0,0,0,1.71,0l1.37-1.37a1.21,1.21,0,0,0,0-1.7L59.45,49A10.71,10.71,0,0,0,61,45.21ZM50.39,48.1A5.07,5.07,0,1,1,55.46,43,5.07,5.07,0,0,1,50.39,48.1Z"/><ellipse class="cls-7" cx="50.39" cy="83.6" rx="24.15" ry="1.81"/><rect class="cls-1" x="25.03" y="51" width="50.72" height="31.88" rx="2" ry="2"/><path class="cls-2" d="M73.33,51H27.45A2.42,2.42,0,0,0,25,53.42v4.83a2.9,2.9,0,0,1,2.9-2.9H72.85a2.9,2.9,0,0,1,2.9,2.9V53.42A2.42,2.42,0,0,0,73.33,51Z"/><path class="cls-8" d="M35.17,58.25a2.9,2.9,0,1,1-2.89-2.9A2.89,2.89,0,0,1,35.17,58.25Z"/><path class="cls-9" d="M32.28,57.26A2.89,2.89,0,0,1,35,59.2a2.75,2.75,0,0,0,.16-1,2.9,2.9,0,1,0-5.79,0,3,3,0,0,0,.16,1A2.9,2.9,0,0,1,32.28,57.26Z"/><path class="cls-6" d="M35.17,58.25a2.9,2.9,0,1,1-2.89-2.9A2.89,2.89,0,0,1,35.17,58.25Z"/><circle class="cls-10" cx="32.28" cy="67.67" r="2.9"/><path class="cls-11" d="M32.28,66.68A2.89,2.89,0,0,1,35,68.62a2.75,2.75,0,0,0,.16-1,2.9,2.9,0,1,0-5.79,0,3,3,0,0,0,.16,1A2.9,2.9,0,0,1,32.28,66.68Z"/><circle class="cls-6" cx="32.28" cy="67.67" r="2.9"/><path class="cls-12" d="M43.87,77.08a1.45,1.45,0,0,1-2.9,0v-21a1.45,1.45,0,1,1,2.9,0Z"/><rect class="cls-1" x="38.07" y="74.19" width="8.69" height="4.35" rx="1" ry="1"/><path class="cls-2" d="M45.56,74.19H39.28a1.21,1.21,0,0,0-1.21,1.2v1.83A1.21,1.21,0,0,1,39.28,76h6.28a1.21,1.21,0,0,1,1.21,1.2V75.39A1.21,1.21,0,0,0,45.56,74.19Z"/><rect class="cls-6" x="38.07" y="74.19" width="8.69" height="4.35" rx="1" ry="1"/><path class="cls-12" d="M56.91,77.08a1.45,1.45,0,1,1-2.9,0v-21a1.45,1.45,0,1,1,2.9,0Z"/><path class="cls-12" d="M70,77.08a1.45,1.45,0,1,1-2.9,0v-21a1.45,1.45,0,1,1,2.9,0Z"/><rect class="cls-1" x="51.11" y="58.97" width="8.69" height="4.35" rx="1" ry="1"/><path class="cls-2" d="M58.6,59H52.32a1.21,1.21,0,0,0-1.21,1.21V62a1.21,1.21,0,0,1,1.21-1.21H58.6A1.21,1.21,0,0,1,59.81,62V60.18A1.21,1.21,0,0,0,58.6,59Z"/><rect class="cls-6" x="51.11" y="58.97" width="8.69" height="4.35" rx="1" ry="1"/><rect class="cls-1" x="64.15" y="66.22" width="8.69" height="4.35" rx="1" ry="1"/><path class="cls-2" d="M71.64,66.22H65.36a1.21,1.21,0,0,0-1.21,1.2v1.83a1.21,1.21,0,0,1,1.21-1.2h6.28a1.21,1.21,0,0,1,1.21,1.2V67.42A1.21,1.21,0,0,0,71.64,66.22Z"/><rect class="cls-6" x="64.15" y="66.22" width="8.69" height="4.35" rx="1" ry="1"/><rect class="cls-3" x="25.03" y="51" width="50.72" height="31.88" rx="2" ry="2"/></g></svg>