<svg id="Multicolor" xmlns="http://www.w3.org/2000/svg" viewBox="0 0 100 112"><defs><style>.cls-1{fill:#e8f4fa;}.cls-2{fill:#fff;}.cls-3{fill:none;}.cls-13,.cls-16,.cls-18,.cls-19,.cls-20,.cls-21,.cls-3,.cls-4,.cls-7{stroke:#191816;stroke-linejoin:round;}.cls-13,.cls-16,.cls-18,.cls-20,.cls-21,.cls-3,.cls-4,.cls-7{stroke-linecap:round;}.cls-22,.cls-4{fill:#614b44;}.cls-5{fill:#debb7e;}.cls-6{fill:#f0d5a8;}.cls-7{fill:#f7e5c6;}.cls-8{fill:#c0dceb;}.cls-9{fill:#daedf7;}.cls-10{fill:#adc4d9;}.cls-11{fill:#191816;opacity:0.15;}.cls-12{fill:#87898c;}.cls-13{fill:#525252;}.cls-14,.cls-18{fill:#ff8a14;}.cls-15{fill:#ffaa54;}.cls-16{fill:#ffda8f;}.cls-17{fill:#ffbe3d;}.cls-19{fill:#dea47a;}.cls-20,.cls-24{fill:#ffe500;}.cls-21{fill:#00b8f0;}.cls-23{fill:#ffc258;}.cls-25{fill:#fff48c;}</style></defs><title>47- warehouse-worker-female-asian-2</title><g id="Background"><g id="New_Symbol_28-13" data-name="New Symbol 28"><path class="cls-1" d="M90,56A40,40,0,1,0,13.57,72.5H86.44A39.85,39.85,0,0,0,90,56Z"/><path class="cls-2" d="M13.57,72.5a40,40,0,0,0,72.87,0Z"/><line class="cls-3" x1="10.5" y1="72.5" x2="88.5" y2="72.5"/><line class="cls-3" x1="6" y1="72.5" x2="8.5" y2="72.5"/><line class="cls-3" x1="90.5" y1="72.5" x2="93" y2="72.5"/></g></g><g id="Scene"><path class="cls-4" d="M40.3,48.13A1.69,1.69,0,0,0,42,46.4c-1.15,0-1.73-1.72-1.73-2.87V33.18a8.05,8.05,0,1,0-16.1,0V43.53c0,1.15-.57,2.87-1.72,2.87a1.69,1.69,0,0,0,1.72,1.73Z"/><rect class="cls-5" x="62.78" y="51.65" width="12.5" height="15" rx="1" ry="1"/><path class="cls-6" d="M63.78,51.65h10.5a1,1,0,0,1,1,1v1.5a0,0,0,0,1,0,0H62.78a0,0,0,0,1,0,0v-1.5A1,1,0,0,1,63.78,51.65Z"/><rect class="cls-3" x="62.78" y="51.65" width="12.5" height="15" rx="1" ry="1"/><path class="cls-7" d="M67.78,51.65h2.5a0,0,0,0,1,0,0v3a.5.5,0,0,1-.5.5h-1.5a.5.5,0,0,1-.5-.5v-3A0,0,0,0,1,67.78,51.65Z"/><rect class="cls-5" x="62.28" y="26.65" width="12.5" height="9" rx="1" ry="1"/><path class="cls-6" d="M63.28,26.65h10.5a1,1,0,0,1,1,1v1.5a0,0,0,0,1,0,0H62.28a0,0,0,0,1,0,0v-1.5A1,1,0,0,1,63.28,26.65Z"/><rect class="cls-3" x="62.28" y="26.65" width="12.5" height="9" rx="1" ry="1"/><path class="cls-7" d="M67.28,26.65h2.5a0,0,0,0,1,0,0v4a.5.5,0,0,1-.5.5h-1.5a.5.5,0,0,1-.5-.5v-4A0,0,0,0,1,67.28,26.65Z"/><rect class="cls-5" x="60.28" y="35.65" width="12.5" height="9" rx="1" ry="1"/><path class="cls-6" d="M61.28,35.65h10.5a1,1,0,0,1,1,1v1.5a0,0,0,0,1,0,0H60.28a0,0,0,0,1,0,0v-1.5A1,1,0,0,1,61.28,35.65Z"/><rect class="cls-3" x="60.28" y="35.65" width="12.5" height="9" rx="1" ry="1"/><path class="cls-7" d="M65.28,35.65h2.5a0,0,0,0,1,0,0v4a.5.5,0,0,1-.5.5h-1.5a.5.5,0,0,1-.5-.5v-4A0,0,0,0,1,65.28,35.65Z"/><path class="cls-8" d="M56.78,72.5h-2.5V28.4a1.25,1.25,0,0,1,2.5,0Z"/><path class="cls-9" d="M55.53,27.15a1.25,1.25,0,0,0-1.25,1.25v3a1.25,1.25,0,0,1,2.5,0v-3A1.25,1.25,0,0,0,55.53,27.15Z"/><path class="cls-3" d="M56.78,72.5h-2.5V28.4a1.25,1.25,0,0,1,2.5,0Z"/><path class="cls-8" d="M79.78,72.5h-2.5V28.4a1.25,1.25,0,0,1,2.5,0Z"/><path class="cls-9" d="M78.53,27.15a1.25,1.25,0,0,0-1.25,1.25v3a1.25,1.25,0,0,1,2.5,0v-3A1.25,1.25,0,0,0,78.53,27.15Z"/><path class="cls-3" d="M79.78,72.5h-2.5V28.4a1.25,1.25,0,0,1,2.5,0Z"/><rect class="cls-8" x="56.78" y="44.65" width="20.5" height="2.5"/><rect class="cls-9" x="56.78" y="44.65" width="20.5" height="1.25"/><rect class="cls-10" x="56.78" y="44.65" width="2" height="2.5"/><rect class="cls-10" x="75.28" y="44.65" width="2" height="2.5"/><rect class="cls-3" x="56.78" y="44.65" width="20.5" height="2.5"/><rect class="cls-8" x="56.78" y="66.65" width="20.5" height="2.5"/><rect class="cls-9" x="56.78" y="66.65" width="20.5" height="1.25"/><rect class="cls-10" x="56.78" y="66.65" width="2" height="2.5"/><rect class="cls-10" x="75.28" y="66.65" width="2" height="2.5"/><rect class="cls-3" x="56.78" y="66.65" width="20.5" height="2.5"/><rect class="cls-5" x="58.78" y="57.15" width="12.5" height="9.5" rx="1" ry="1"/><path class="cls-6" d="M59.78,57.15h10.5a1,1,0,0,1,1,1v1.5a0,0,0,0,1,0,0H58.78a0,0,0,0,1,0,0v-1.5A1,1,0,0,1,59.78,57.15Z"/><rect class="cls-3" x="58.78" y="57.15" width="12.5" height="9.5" rx="1" ry="1"/><path class="cls-7" d="M63.78,57.15h2.5a0,0,0,0,1,0,0v4a.5.5,0,0,1-.5.5h-1.5a.5.5,0,0,1-.5-.5v-4A0,0,0,0,1,63.78,57.15Z"/><ellipse class="cls-11" cx="32.25" cy="88.77" rx="11.5" ry="1.73"/><polygon class="cls-12" points="25.91 66.92 28.2 88.2 36.26 88.2 38.55 66.92 25.91 66.92"/><line class="cls-3" x1="32.23" y1="71.52" x2="32.23" y2="88.19"/><polygon class="cls-3" points="25.91 66.92 28.2 88.2 36.26 88.2 38.55 66.92 25.91 66.92"/><path class="cls-13" d="M32.25,88.2a3.44,3.44,0,0,0-3.45-3.45h-.57a3.43,3.43,0,0,0-3,1.73,1.13,1.13,0,0,0,0,1.15,1.14,1.14,0,0,0,1,.57Z"/><path class="cls-13" d="M32.25,88.2a3.44,3.44,0,0,1,3.45-3.45h.58a3.42,3.42,0,0,1,3,1.73,1.13,1.13,0,0,1,0,1.15,1.14,1.14,0,0,1-1,.57Z"/><path class="cls-14" d="M42.58,56A10.34,10.34,0,1,0,21.9,56v.57h4V66.92H38.57V58.87h4Z"/><path class="cls-15" d="M22.15,56a10.34,10.34,0,0,1,20.43,2.29V56A10.34,10.34,0,1,0,21.9,56Z"/><path class="cls-3" d="M42.58,56A10.34,10.34,0,1,0,21.9,56v.57h4V66.92H38.57V58.87h4Z"/><path class="cls-16" d="M28.7,46.29l3.45,6.23,3.65-6.23a10.17,10.17,0,0,0-7.1,0Z"/><path class="cls-16" d="M38.57,56v5.46a2,2,0,1,0,4,0l0-5.46Z"/><rect class="cls-17" x="38.57" y="56" width="4" height="2.87"/><path class="cls-3" d="M38.57,56v5.46a2,2,0,0,0,4,0l0-5.46Z"/><path class="cls-3" d="M25.93,58.88V56.42a3.5,3.5,0,0,0-.64-2,3.42,3.42,0,0,1-.51-1.88"/><line class="cls-3" x1="32.15" y1="52.52" x2="32.15" y2="54.25"/><polygon class="cls-18" points="36.83 56.47 35.39 57.85 33.95 56.47 33.95 54.27 36.83 54.27 36.83 56.47"/><rect class="cls-19" x="25.92" y="64.04" width="12.65" height="2.89"/><rect class="cls-20" x="30.5" y="64.04" width="3.45" height="2.89"/><path class="cls-3" d="M38.58,56a3.53,3.53,0,0,1,.61-1.58,3.42,3.42,0,0,0,.51-1.88"/><rect class="cls-21" x="40.88" y="50.82" width="8.05" height="11.5" rx="0.58" ry="0.58"/><path class="cls-16" d="M48.37,55.42h1.85a1,1,0,0,1,1,1v2a1,1,0,0,1-1,1H48.37a1.75,1.75,0,0,1-1.75-1.75v-.53a1.75,1.75,0,0,1,1.75-1.75Z"/><path class="cls-16" d="M21.9,56a1.15,1.15,0,0,1-2.3,0V52.84a2,2,0,0,0-2-2h0a2,2,0,0,0-2,2V56a5.18,5.18,0,0,0,10.35,0Z"/><path class="cls-20" d="M19,53.7,17.88,56l-1.15-2.3V43.35a1.14,1.14,0,0,1,1.14-1.15h0A1.15,1.15,0,0,1,19,43.35Z"/><path class="cls-3" d="M16.73,43.35A1.69,1.69,0,0,0,15,45.08V46.8"/><path class="cls-18" d="M32.16,52.53a11.54,11.54,0,0,0-5.86-2.71c-.12,0-.25,0-.38-.06l.84-2.53a10,10,0,0,1,1.94-.95l1.08,2Z"/><path class="cls-18" d="M38.38,49.76l-.22,0a11.65,11.65,0,0,0-6,2.74l2.52-4.3,1.14-2a9.79,9.79,0,0,1,1.66.81Z"/><path class="cls-16" d="M39.15,35.25v-.38a7.44,7.44,0,0,1-6.9-5.72V27.43a6.89,6.89,0,0,0-6.9,6.9v.92A1.4,1.4,0,0,0,25.49,38,6.9,6.9,0,0,0,39,38a1.4,1.4,0,0,0,.14-2.78Z"/><circle class="cls-17" cx="28.51" cy="37.49" r="0.86"/><circle class="cls-17" cx="35.99" cy="37.49" r="0.86"/><path class="cls-3" d="M30.53,39.55a3.1,3.1,0,0,0,3.45,0"/><path class="cls-3" d="M29.33,35.3a.81.81,0,0,1,1.15,0"/><path class="cls-3" d="M33.93,35.3a.81.81,0,0,1,1.15,0"/><path class="cls-22" d="M39.73,34.9a7.43,7.43,0,0,1-7.48-5.75c-1.72,5.18-5.17,3.45-5.17,8.63V47c0,2.3-2.88,2.3-2.88,2.3V33.18a8,8,0,0,1,8.05-8Z"/><path class="cls-3" d="M39.73,34.9a7.43,7.43,0,0,1-7.48-5.75c-1.72,5.18-5.17,3.45-5.17,8.63V47c0,2.3-2.88,2.3-2.88,2.3V33.18a8,8,0,1,1,16.1,0"/><line class="cls-3" x1="23.63" y1="33.24" x2="40.88" y2="33.24"/><path class="cls-23" d="M39.73,32.09a7.48,7.48,0,1,0-14.95,0v1.15H39.73Z"/><path class="cls-24" d="M39.73,32.09a7.48,7.48,0,1,0-14.95,0v1.15H39.73Z"/><path class="cls-25" d="M32.25,24.61a7.47,7.47,0,0,0-7.47,7.48v1.15h.09a7.47,7.47,0,0,1,14.76,0h.1V32.09A7.48,7.48,0,0,0,32.25,24.61Z"/><path class="cls-3" d="M39.73,32.09a7.48,7.48,0,1,0-14.95,0v1.15H39.73Z"/><path class="cls-24" d="M34,33.24H30.53l-1.15-8.63a7.54,7.54,0,0,1,5.75,0Z"/><path class="cls-25" d="M29.37,24.61l.37,2.75a7.23,7.23,0,0,1,5,0l.36-2.75A7.54,7.54,0,0,0,29.37,24.61Z"/><path class="cls-3" d="M34,33.24H30.53l-1.15-8.63a7.54,7.54,0,0,1,5.75,0Z"/><line class="cls-3" x1="37.43" y1="26.91" x2="36.85" y2="30.94"/><line class="cls-3" x1="27.08" y1="26.91" x2="27.65" y2="30.94"/></g></svg>