<svg id="Multicolor" xmlns="http://www.w3.org/2000/svg" viewBox="0 0 100 112"><defs><style>.cls-1{fill:#e8f4fa;}.cls-18,.cls-2{fill:#fff;}.cls-3,.cls-5{fill:none;}.cls-12,.cls-13,.cls-14,.cls-18,.cls-19,.cls-22,.cls-23,.cls-3,.cls-6,.cls-8,.cls-9{stroke:#191816;}.cls-13,.cls-14,.cls-18,.cls-22,.cls-3,.cls-5,.cls-6,.cls-8,.cls-9{stroke-linecap:round;}.cls-12,.cls-13,.cls-14,.cls-18,.cls-19,.cls-22,.cls-23,.cls-3,.cls-5,.cls-6,.cls-8,.cls-9{stroke-linejoin:round;}.cls-4,.cls-8{fill:#ffb0ca;}.cls-5{stroke:#ff87af;}.cls-6{fill:#ffda8f;}.cls-7{fill:#ffbe3d;}.cls-9{fill:#c8ffa1;}.cls-10{fill:#fffef2;}.cls-11{fill:#f7e5c6;}.cls-12{fill:#fffce5;}.cls-13{fill:#b89558;}.cls-14{fill:#00dba8;}.cls-15{fill:#ffe9bd;}.cls-16{fill:#724f3d;}.cls-17{fill:#a86c4d;}.cls-19{fill:#6dd627;}.cls-20,.cls-22{fill:#daedf7;}.cls-21{fill:#c0dceb;}.cls-23{fill:#f0f0f0;}</style></defs><title>48- office-working-desk-female-asian-2</title><g id="Background"><g id="New_Symbol_28-4" data-name="New Symbol 28"><path class="cls-1" d="M90.48,56A40,40,0,1,0,14.05,72.5H86.92A39.85,39.85,0,0,0,90.48,56Z"/><path class="cls-2" d="M14.05,72.5a40,40,0,0,0,72.87,0Z"/><line class="cls-3" x1="10.98" y1="72.5" x2="88.98" y2="72.5"/><line class="cls-3" x1="6.48" y1="72.5" x2="8.98" y2="72.5"/><line class="cls-3" x1="90.98" y1="72.5" x2="93.48" y2="72.5"/></g></g><g id="Scene"><path class="cls-4" d="M77.46,61.67h0c-.21.16-.41.31-.62.45l-.45.31a34.38,34.38,0,0,1-4.55,2.61V72.5H53V65a36.65,36.65,0,0,1-5.76-3.38c0-.17.07-.34.11-.51a15.58,15.58,0,0,1,9.54-10.6,14.72,14.72,0,0,1,2-.59,0,0,0,0,1,0,0,14.63,14.63,0,0,1,3.46-.4,15.17,15.17,0,0,1,3.46.41,0,0,0,0,1,0,0,14.72,14.72,0,0,1,2,.59,15.55,15.55,0,0,1,9.5,10.62C77.39,61.33,77.43,61.5,77.46,61.67Z"/><line class="cls-5" x1="63.23" y1="53.47" x2="63.21" y2="72.5"/><line class="cls-5" x1="61.23" y1="53.46" x2="61.21" y2="72.5"/><path class="cls-3" d="M77.46,61.67h0c-.21.16-.41.31-.62.45l-.45.31a34.38,34.38,0,0,1-4.55,2.61V72.5H53V65a36.65,36.65,0,0,1-5.76-3.38c0-.17.07-.34.11-.51a15.58,15.58,0,0,1,9.54-10.6,14.72,14.72,0,0,1,2-.59,0,0,0,0,1,0,0,14.63,14.63,0,0,1,3.46-.4,15.17,15.17,0,0,1,3.46.41,0,0,0,0,1,0,0,14.72,14.72,0,0,1,2,.59,15.55,15.55,0,0,1,9.5,10.62C77.39,61.33,77.43,61.5,77.46,61.67Z"/><polygon class="cls-6" points="65.73 52.04 62.23 52.03 58.73 52.03 58.74 46.53 65.74 46.54 65.73 52.04"/><path class="cls-7" d="M58.73,50a12.38,12.38,0,0,0,7,0V46.54h-7Z"/><polygon class="cls-3" points="65.73 52.04 62.23 52.03 58.73 52.03 58.74 46.53 65.74 46.54 65.73 52.04"/><path class="cls-8" d="M56.73,53V50.68a1.15,1.15,0,0,1,1.16-1.15h0a1.1,1.1,0,0,1,1,.55c.42.84,1.77,1.45,3.36,1.45a3.8,3.8,0,0,0,3.37-1.44,1.08,1.08,0,0,1,1-.55h0a1.15,1.15,0,0,1,1.15,1.16V53"/><path class="cls-6" d="M83.84,64.46V69.9a6.14,6.14,0,0,1-5.66,6.22,6,6,0,0,1-5.83-3.57,5.93,5.93,0,0,1-.51-2.42V65.05a27,27,0,0,0,5-2.94l0,0v8a1,1,0,0,0,2,0v-8.5H81A2.81,2.81,0,0,1,83.84,64.46Z"/><path class="cls-6" d="M47.84,62.09V72.5H53V65A43.15,43.15,0,0,1,47.84,62.09Z"/><path class="cls-3" d="M56.73,51a7.31,7.31,0,0,0,11,0"/><path class="cls-3" d="M62.23,53.53s-4.5.5-3.5,2c.36.55.93.43,1.5.06A9.76,9.76,0,0,0,62.23,53.53Z"/><path class="cls-3" d="M62.23,53.53s4.5.51,3.5,2c-.37.55-.93.43-1.5.05A9.25,9.25,0,0,1,62.23,53.53Z"/><path class="cls-3" d="M63.72,62a32,32,0,0,0-1.49-8.51A31.52,31.52,0,0,0,60.72,62"/><line class="cls-9" x1="72.23" y1="56.55" x2="71.72" y2="63.05"/><line class="cls-9" x1="75.85" y1="62.81" x2="74.72" y2="60.55"/><line class="cls-9" x1="52.23" y1="56.52" x2="52.72" y2="63.02"/><line class="cls-9" x1="48.66" y1="62.63" x2="49.72" y2="60.52"/><path class="cls-10" d="M77.69,67H72.08a1,1,0,0,1-1-.94l-.94-11.53h9.5l-1,11.5A1,1,0,0,1,77.69,67Z"/><polygon class="cls-11" points="79.48 56.52 79.65 54.52 70.15 54.52 70.31 56.52 79.48 56.52"/><path class="cls-3" d="M77.69,67H72.08a1,1,0,0,1-1-.94l-.94-11.53h9.5l-1,11.5A1,1,0,0,1,77.69,67Z"/><path class="cls-12" d="M70.15,52.52h9.5a1,1,0,0,1,1,1v1a0,0,0,0,1,0,0H69.15a0,0,0,0,1,0,0v-1A1,1,0,0,1,70.15,52.52Z"/><path class="cls-12" d="M71.15,50.52h7.5a1,1,0,0,1,1,1v1a0,0,0,0,1,0,0h-9.5a0,0,0,0,1,0,0v-1A1,1,0,0,1,71.15,50.52Z"/><path class="cls-13" d="M76.15,49a3,3,0,0,0-3-3h-1a1,1,0,0,0,0,2h1a1,1,0,0,1,1,1v1.5h2Z"/><circle class="cls-14" cx="74.9" cy="59.77" r="2.25"/><path class="cls-6" d="M79.57,64.44l2.44.08a1.5,1.5,0,0,0,1.55-1.45l.09-3a1.5,1.5,0,0,0-1.45-1.55l-2.44-.08a2,2,0,0,0-2,1.62,10.14,10.14,0,0,0-.08,2.64A2,2,0,0,0,79.57,64.44Z"/><path class="cls-15" d="M82.14,60.52l-4.45-.14c0-.08,0-.17,0-.25a2,2,0,0,1,2-1.69l2.43.08a1.5,1.5,0,0,1,1.45,1.55l-.06,2A1.51,1.51,0,0,0,82.14,60.52Z"/><path class="cls-3" d="M79.57,64.44l2.44.08a1.5,1.5,0,0,0,1.55-1.45l.09-3a1.5,1.5,0,0,0-1.45-1.55l-2.44-.08a2,2,0,0,0-2,1.62,10.14,10.14,0,0,0-.08,2.64A2,2,0,0,0,79.57,64.44Z"/><circle class="cls-16" cx="63.43" cy="23.28" r="5.25"/><path class="cls-17" d="M63.43,20.53a5.25,5.25,0,0,1,5.09,4,5.1,5.1,0,0,0,.16-1.25,5.25,5.25,0,0,0-10.5,0,5.1,5.1,0,0,0,.17,1.25A5.24,5.24,0,0,1,63.43,20.53Z"/><circle class="cls-3" cx="63.43" cy="23.28" r="5.25"/><circle class="cls-16" cx="62.18" cy="33.53" r="12"/><path class="cls-17" d="M62.18,24.53A12,12,0,0,1,74.08,35a12.32,12.32,0,0,0,.1-1.5,12,12,0,0,0-24,0,12.31,12.31,0,0,0,.11,1.5A12,12,0,0,1,62.18,24.53Z"/><circle class="cls-3" cx="62.18" cy="33.53" r="12"/><path class="cls-6" d="M74.31,38a2,2,0,0,1-2,2h-.12a10,10,0,0,1-19.76,0h-.12a2,2,0,0,1,0-4V34.42A10.14,10.14,0,0,0,59,31.24a19.59,19.59,0,0,0,2.27-3.91,13.36,13.36,0,0,0,3.59,5.43,9.4,9.4,0,0,0,7.43,1.62V36A2,2,0,0,1,74.31,38Z"/><path class="cls-3" d="M67.81,37a1.63,1.63,0,0,0-3,0"/><path class="cls-3" d="M59.82,37a1.63,1.63,0,0,0-3,0"/><circle class="cls-7" cx="56.56" cy="40.28" r="1.25"/><circle class="cls-7" cx="68.06" cy="40.28" r="1.25"/><path class="cls-3" d="M59.93,43a3.61,3.61,0,0,0,5,0"/><circle class="cls-18" cx="51.68" cy="40.03" r="1"/><polygon class="cls-18" points="51.68 41.03 50.68 42.03 51.68 45.53 52.68 42.03 51.68 41.03"/><circle class="cls-18" cx="72.68" cy="40.03" r="1"/><polygon class="cls-18" points="72.68 41.03 71.68 42.03 72.68 45.53 73.68 42.03 72.68 41.03"/><line class="cls-3" x1="66.18" y1="21.03" x2="69.18" y2="18.53"/><circle class="cls-19" cx="70.18" cy="17.53" r="1.5"/><path class="cls-16" d="M62.18,24a11,11,0,0,0-11,11h22A11,11,0,0,0,62.18,24Z"/><path class="cls-17" d="M62.18,26.53A11,11,0,0,1,72.89,35h.29a11,11,0,0,0-22,0h.3A11,11,0,0,1,62.18,26.53Z"/><path class="cls-3" d="M62.18,24a11,11,0,0,0-11,11h22A11,11,0,0,0,62.18,24Z"/><line class="cls-3" x1="54.68" y1="35.03" x2="54.68" y2="31.53"/><line class="cls-3" x1="58.18" y1="35.03" x2="58.18" y2="31.53"/><line class="cls-3" x1="61.68" y1="35.03" x2="61.68" y2="31.53"/><line class="cls-3" x1="65.18" y1="35.03" x2="65.18" y2="31.53"/><line class="cls-3" x1="68.68" y1="35.03" x2="68.68" y2="31.53"/><rect class="cls-20" x="14.92" y="45" width="35.5" height="27.5" rx="2" ry="2"/><path class="cls-2" d="M48.42,45H16.92a2,2,0,0,0-2,2h35.5A2,2,0,0,0,48.42,45Z"/><path class="cls-21" d="M16.92,72.5h31.5a2,2,0,0,0,2-2H14.92A2,2,0,0,0,16.92,72.5Z"/><path class="cls-22" d="M39.42,75.5a1.61,1.61,0,0,1-1.56,2H27.48a1.62,1.62,0,0,1-1.56-2Z"/><rect class="cls-3" x="14.92" y="45" width="35.5" height="27.5" rx="2" ry="2"/><path class="cls-22" d="M37.92,77.5H27.42c1.5-4,2-15.5,2-15.5h6.5S36.42,73.5,37.92,77.5Z"/><line class="cls-3" x1="18.92" y1="68" x2="18.92" y2="69.5"/><line class="cls-3" x1="20.92" y1="68" x2="20.92" y2="69.5"/><line class="cls-3" x1="22.92" y1="68" x2="22.92" y2="69.5"/><line class="cls-3" x1="24.92" y1="68" x2="24.92" y2="69.5"/><path class="cls-23" d="M33.76,54.65a1.16,1.16,0,0,1,.53-.94,1.1,1.1,0,0,0-.89-.48c-.39,0-.75.22-.94.22s-.5-.22-.81-.21a1.19,1.19,0,0,0-1,.61,2.58,2.58,0,0,0,.31,2.48c.21.3.45.63.78.62s.42-.2.8-.2.48.2.81.19.55-.3.75-.6a2.41,2.41,0,0,0,.34-.7A1.09,1.09,0,0,1,33.76,54.65Z"/><line class="cls-3" x1="32.92" y1="51.95" x2="33.37" y2="51.5"/><line class="cls-3" x1="17.92" y1="47" x2="46.92" y2="47"/></g></svg>