<svg id="Multicolor" xmlns="http://www.w3.org/2000/svg" viewBox="0 0 100 112"><defs><style>.cls-1{fill:#e8f4fa;}.cls-2,.cls-9{fill:#fff;}.cls-3{fill:none;}.cls-10,.cls-11,.cls-12,.cls-13,.cls-14,.cls-3,.cls-9{stroke:#191816;stroke-linecap:round;stroke-linejoin:round;}.cls-4{fill:#00b8f0;}.cls-5{fill:#009fd9;}.cls-6{fill:#4acfff;}.cls-7{fill:#e0e0e0;}.cls-8{fill:#87898c;}.cls-10{fill:#dea47a;}.cls-11{fill:#f0f0f0;}.cls-12{fill:#6dd627;}.cls-13{fill:#ff6242;}.cls-14{fill:#ffe500;}</style></defs><title>50- business-graph-2</title><g id="New_Symbol_28" data-name="New Symbol 28"><path class="cls-1" d="M90.12,56a40,40,0,1,0-76.43,16.5H86.56A39.85,39.85,0,0,0,90.12,56Z"/><path class="cls-2" d="M13.69,72.51a40,40,0,0,0,72.87,0Z"/><line class="cls-3" x1="10.63" y1="72.51" x2="88.63" y2="72.51"/><line class="cls-3" x1="6.13" y1="72.51" x2="8.63" y2="72.51"/><line class="cls-3" x1="90.63" y1="72.51" x2="93.13" y2="72.51"/></g><rect class="cls-4" x="21.45" y="24.83" width="50.75" height="38.45" rx="3.6" ry="3.6"/><path class="cls-5" d="M67.59,24.83H59.53A13.06,13.06,0,0,0,71.44,43.29c.26,0,.51,0,.77,0V29.45A4.62,4.62,0,0,0,67.59,24.83Z"/><path class="cls-6" d="M26.06,24.83a4.62,4.62,0,0,0-4.61,4.62v24.6a3.56,3.56,0,0,0,.05.47L51.19,24.83Z"/><rect class="cls-3" x="21.45" y="24.83" width="50.75" height="38.45" rx="3.6" ry="3.6"/><polygon class="cls-7" points="51.44 69.43 42.21 69.43 42.98 63.28 50.67 63.28 51.44 69.43"/><polygon class="cls-8" points="50.96 65.59 42.7 65.59 42.98 63.28 50.67 63.28 50.96 65.59"/><polygon class="cls-3" points="51.44 69.43 42.21 69.43 42.98 63.28 50.67 63.28 51.44 69.43"/><path class="cls-9" d="M56.06,72.51H37.6a3.08,3.08,0,0,1,3.08-3.08H53A3.08,3.08,0,0,1,56.06,72.51Z"/><path class="cls-9" d="M67.59,63.28a4.61,4.61,0,0,0,4.62-4.61V57.13H21.45v1.54a4.61,4.61,0,0,0,4.61,4.61Z"/><path class="cls-10" d="M90.5,45.07a2.43,2.43,0,0,1-3.44,3.44L81.53,43a1.28,1.28,0,0,1,0-1.81l1.62-1.62a1.3,1.3,0,0,1,.91-.38,1.27,1.27,0,0,1,.9.38Z"/><rect class="cls-11" x="78.98" y="35.17" width="2.43" height="6.07" transform="translate(-3.53 67.89) rotate(-45)"/><path class="cls-9" d="M79.33,21.88a10.93,10.93,0,1,1-15.46,0A10.93,10.93,0,0,1,79.33,21.88Z"/><path class="cls-4" d="M77.19,24A7.9,7.9,0,1,1,66,24,7.91,7.91,0,0,1,77.19,24Z"/><path class="cls-6" d="M77.19,24A7.9,7.9,0,1,0,66,35.2l.12.1L77.29,24.15Z"/><path class="cls-3" d="M77.19,24A7.9,7.9,0,1,1,66,24,7.91,7.91,0,0,1,77.19,24Z"/><line class="cls-3" x1="54.52" y1="45.6" x2="63.75" y2="45.6"/><line class="cls-3" x1="54.52" y1="48.67" x2="63.75" y2="48.67"/><line class="cls-3" x1="54.52" y1="51.75" x2="63.75" y2="51.75"/><path class="cls-12" d="M43,27.91V38.67H53.75A10.77,10.77,0,0,0,43,27.91Z"/><polyline class="cls-3" points="49.14 34.83 52.98 30.98 56.83 30.98"/><path class="cls-13" d="M39.91,31a10.77,10.77,0,0,0-7.62,18.38l7.62-7.61Z"/><path class="cls-14" d="M50.67,41.75H39.91l-7.62,7.61a10.76,10.76,0,0,0,18.38-7.61Z"/><polyline class="cls-3" points="40.68 49.44 44.52 54.05 49.9 54.05"/><polyline class="cls-3" points="33.76 40.98 30.68 35.6 24.53 35.6"/><circle class="cls-3" cx="46.83" cy="60.21" r="0.64"/></svg>