<svg id="Multicolor" xmlns="http://www.w3.org/2000/svg" viewBox="0 0 100 112"><defs><style>.cls-1,.cls-7{fill:#fff;}.cls-2{fill:#e8f4fa;}.cls-3,.cls-4{fill:none;}.cls-15,.cls-18,.cls-3,.cls-4,.cls-7,.cls-8{stroke:#191816;stroke-linejoin:round;}.cls-3,.cls-7,.cls-8{stroke-linecap:round;}.cls-5{fill:#ff6242;}.cls-6{fill:#ff866e;}.cls-12,.cls-8{fill:#d18660;}.cls-9{fill:#e09f7e;}.cls-10{fill:#656769;}.cls-11{fill:#87898c;}.cls-13{fill:#bd704a;}.cls-14{fill:#191816;opacity:0.15;}.cls-15{fill:#8ca4b8;}.cls-16{fill:#adc4d9;}.cls-17{fill:#c0dceb;}.cls-18{fill:#f0f0f0;}.cls-19{fill:#724f3d;}.cls-20{fill:#a86c4d;}.cls-21{fill:#00b8f0;}.cls-22{fill:#4acfff;}</style></defs><title>58- programmer-male-african-american</title><g id="Background"><path class="cls-1" d="M50.34,96A39.94,39.94,0,0,0,85,76H15.73A39.94,39.94,0,0,0,50.34,96Z"/><path class="cls-1" d="M13.91,72.5c.54,1.2,1.17,2.36,1.82,3.5H85c.66-1.14,1.28-2.3,1.83-3.5Z"/><path class="cls-2" d="M90.34,56A40,40,0,1,0,13.91,72.5H86.78A39.85,39.85,0,0,0,90.34,56Z"/><line class="cls-3" x1="11.34" y1="72.5" x2="89.34" y2="72.5"/><line class="cls-3" x1="6.84" y1="72.5" x2="9.34" y2="72.5"/><line class="cls-3" x1="91.34" y1="72.5" x2="93.84" y2="72.5"/><line class="cls-4" x1="11.34" y1="72.5" x2="89.32" y2="72.5"/><line class="cls-3" x1="11.84" y1="72.5" x2="88.84" y2="72.5"/></g><g id="Scene"><path class="cls-2" d="M47.84,49.5A15.5,15.5,0,0,0,32.34,65v7.46a1.29,1.29,0,0,1-1.94,1c-2.12-1.26-2.52-1.62-3.55-1.62a3,3,0,0,0-1.55,5.58c2.07,1.25,3.36,2.24,5.73,2.24a7.32,7.32,0,0,0,7.31-7.2h25V65A15.5,15.5,0,0,0,47.84,49.5Z"/><path class="cls-1" d="M63.34,68.5a15.5,15.5,0,0,0-31,0V65a15.5,15.5,0,0,1,31,0Z"/><path class="cls-3" d="M32.34,65a15.5,15.5,0,0,1,31,0v7.5h-25A7.32,7.32,0,0,1,31,79.7c-2.37,0-3.66-1-5.73-2.24a3,3,0,0,1,1.55-5.58c1,0,1.43.36,3.55,1.62a1.29,1.29,0,0,0,1.94-1Z"/><rect class="cls-5" x="22.55" y="59.26" width="10.84" height="15.08" rx="1.4" ry="1.4" transform="translate(-11.78 6.27) rotate(-10.57)"/><path class="cls-6" d="M21.68,62.62a1.35,1.35,0,0,1,.76-.43l9.23-1.72a1.53,1.53,0,0,1,.64,0l-.14-.73a1.4,1.4,0,0,0-1.63-1.12l-7.9,1.47a1.41,1.41,0,0,0-1.12,1.64Z"/><rect class="cls-3" x="22.55" y="59.26" width="10.84" height="15.08" rx="1.4" ry="1.4" transform="translate(-11.78 6.27) rotate(-10.57)"/><circle class="cls-7" cx="27.49" cy="64.77" r="1.2" transform="translate(-22.35 15.1) rotate(-22.1)"/><path class="cls-8" d="M23.92,78.53a1.19,1.19,0,0,0,1.35.52l2.67-.76a2.88,2.88,0,0,0,2-3.57l-.39-1.39a2.9,2.9,0,0,0-3.57-2l-2.68.76a1.21,1.21,0,0,0-.87,1.15A9.67,9.67,0,0,0,23.92,78.53Z"/><path class="cls-9" d="M29.37,77.36a2.84,2.84,0,0,0-.1-.57l-.4-1.39a2.87,2.87,0,0,0-3.56-2l-2.85.81c0-.32,0-.64,0-1a1.21,1.21,0,0,1,.87-1.15L26,71.34a2.9,2.9,0,0,1,3.57,2l.39,1.39A2.88,2.88,0,0,1,29.37,77.36Z"/><path class="cls-3" d="M23.92,78.54a1.2,1.2,0,0,0,1.35.51l2.67-.76a2.88,2.88,0,0,0,2-3.57l-.39-1.39a2.9,2.9,0,0,0-3.57-2l-2.68.76a1.21,1.21,0,0,0-.87,1.15,9.79,9.79,0,0,0,1.5,5.29Z"/><line class="cls-3" x1="23.44" y1="61.94" x2="24.97" y2="61.63"/><path class="cls-3" d="M44.33,81H41.87a1.49,1.49,0,0,0-1.53,1.48h0A1.53,1.53,0,0,0,41.87,84h2.72a1.75,1.75,0,0,1,1.75,1.75h0a1.75,1.75,0,0,1-1.75,1.75H30.34a2.5,2.5,0,0,1-2.5-2.5h0a2.5,2.5,0,0,1,2.5-2.5c4.77,0,3.6-3.62,1.55-8.76"/><path class="cls-10" d="M47.84,49.5a15.44,15.44,0,0,0-9.46,3.22A19.76,19.76,0,0,1,39.84,59c0,4.5-1.5,6-1.5,6v7.5h19V65.06S55.85,63.5,55.85,59a19.73,19.73,0,0,1,1.45-6.28A15.42,15.42,0,0,0,47.84,49.5Z"/><path class="cls-11" d="M47.84,53a15.42,15.42,0,0,1,8.54,2.56,26.28,26.28,0,0,1,.92-2.84,15.51,15.51,0,0,0-18.92,0,24.24,24.24,0,0,1,.92,2.84A15.44,15.44,0,0,1,47.84,53Z"/><path class="cls-3" d="M47.84,49.5a15.44,15.44,0,0,0-9.46,3.22A19.76,19.76,0,0,1,39.84,59c0,4.5-1.5,6-1.5,6v7.5h19V65.06S55.85,63.5,55.85,59a19.73,19.73,0,0,1,1.45-6.28A15.42,15.42,0,0,0,47.84,49.5Z"/><line class="cls-3" x1="57.34" y1="65.5" x2="57.34" y2="63.5"/><polygon class="cls-7" points="52.34 52 43.34 52 42.89 54.25 47.84 72.49 52.8 54.25 52.34 52"/><line class="cls-3" x1="38.34" y1="65" x2="38.34" y2="63.5"/><path class="cls-12" d="M44.34,46.5v4.28a2,2,0,0,0,.89,1.66l2.61,2.06,2.61-2.06a2,2,0,0,0,.89-1.66V46.5Z"/><path class="cls-12" d="M44.34,46.5v4.28a2,2,0,0,0,.89,1.66l2.61,2.06,2.61-2.06a2,2,0,0,0,.89-1.66V46.5Z"/><path class="cls-13" d="M44.34,46.5v2.9a9.48,9.48,0,0,0,7,0V46.5Z"/><path class="cls-3" d="M44.34,46.5v4.28a2,2,0,0,0,.89,1.66l2.61,2.06,2.61-2.06a2,2,0,0,0,.89-1.66V46.5Z"/><path class="cls-7" d="M44.34,50.78V49s-3.18,1-2.64,3.51a13.37,13.37,0,0,0,2,4.5l4.14-2.5-2.61-2.06A2,2,0,0,1,44.34,50.78Z"/><path class="cls-7" d="M51.34,50.78V49S54.53,50,54,52.5A13.59,13.59,0,0,1,52,57l-4.15-2.5,2.61-2.06A2,2,0,0,0,51.34,50.78Z"/><line class="cls-3" x1="47.84" y1="54.5" x2="47.84" y2="57.5"/><path class="cls-14" d="M75.34,84.5c0,.83-7.28,1.5-17.5,1.5s-15.5-.67-15.5-1.5S47.63,83,57.84,83,75.34,83.67,75.34,84.5Z"/><path class="cls-15" d="M44.33,81h29a0,0,0,0,1,0,0v.5a2,2,0,0,1-2,2h-25a2,2,0,0,1-2-2V81A0,0,0,0,1,44.33,81Z"/><path class="cls-16" d="M73.34,81h-29L42.86,67.74a2,2,0,0,1,2-2.24h28a2,2,0,0,1,1.5.67,2,2,0,0,1,.49,1.57Z"/><path class="cls-17" d="M43.07,69.69a1.75,1.75,0,0,1,.28-.52,2,2,0,0,1,1.49-.67h28a2,2,0,0,1,1.5.67,2.08,2.08,0,0,1,.27.51l.22-1.94a2,2,0,0,0-.49-1.57,2,2,0,0,0-1.5-.67h-28a2,2,0,0,0-2,2.24Z"/><path class="cls-4" d="M73.34,81h-29L42.86,67.74a2,2,0,0,1,2-2.24h28a2,2,0,0,1,1.5.67,2,2,0,0,1,.49,1.57Z"/><path class="cls-18" d="M60.45,73.36a1.53,1.53,0,0,1,.73-1.29,1.58,1.58,0,0,0-1.24-.68c-.53,0-1,.31-1.3.31s-.69-.3-1.12-.29a1.65,1.65,0,0,0-1.41.85,3.53,3.53,0,0,0,.43,3.43c.28.41.63.88,1.07.86s.6-.28,1.12-.28.66.28,1.12.27.76-.42,1-.84a3.65,3.65,0,0,0,.47-1A1.52,1.52,0,0,1,60.45,73.36Z"/><line class="cls-3" x1="59.28" y1="69.62" x2="59.91" y2="69"/><path class="cls-12" d="M57.84,35.5V33a10,10,0,0,0-20,0v2.5a2,2,0,0,0,0,4H38a10,10,0,0,0,19.75,0h.12a2,2,0,0,0,0-4Z"/><path class="cls-3" d="M57.84,35.5V33a10,10,0,0,0-20,0v2.5a2,2,0,0,0,0,4H38a10,10,0,0,0,19.75,0h.12a2,2,0,0,0,0-4Z"/><circle class="cls-13" cx="42.09" cy="39.75" r="1.25"/><circle class="cls-13" cx="53.59" cy="39.75" r="1.25"/><path class="cls-3" d="M44.83,42.29a4.38,4.38,0,0,0,6,0"/><path class="cls-19" d="M56.94,25.82a6.92,6.92,0,0,0,.4-1.87.48.48,0,0,0-.2-.44.51.51,0,0,0-.48-.06,2.05,2.05,0,0,1-1.32.05,6.35,6.35,0,0,1-1.09-.43A10.91,10.91,0,0,0,47,21,11.21,11.21,0,0,0,36.84,32.31V36l.56.28a1,1,0,0,0,1.44-.9V35a9,9,0,0,1,4.37-7.7,5.28,5.28,0,0,0,4.63,2.2,6.48,6.48,0,0,0,2.29-.41,2.78,2.78,0,0,0,2.46,1.41,2.85,2.85,0,0,0,2.29-1.11,9,9,0,0,1,2,5.61v.38a1,1,0,0,0,1.45.9l.55-.28V32A10.94,10.94,0,0,0,56.94,25.82Z"/><path class="cls-20" d="M36.84,34.43A11.21,11.21,0,0,1,47,23.15a10.92,10.92,0,0,1,7.3,2,6.35,6.35,0,0,0,1.09.43,2,2,0,0,0,1.75-.29A7.19,7.19,0,0,0,57.34,24a.5.5,0,0,0-.2-.45.51.51,0,0,0-.48-.06,2.05,2.05,0,0,1-1.32.05,6.35,6.35,0,0,1-1.09-.43A10.91,10.91,0,0,0,47,21,11.21,11.21,0,0,0,36.84,32.31Z"/><path class="cls-3" d="M56.94,25.82a6.92,6.92,0,0,0,.4-1.87.48.48,0,0,0-.2-.44.51.51,0,0,0-.48-.06,2.05,2.05,0,0,1-1.32.05,6.35,6.35,0,0,1-1.09-.43A10.91,10.91,0,0,0,47,21,11.21,11.21,0,0,0,36.84,32.31V36l.56.28a1,1,0,0,0,1.44-.9V35a9,9,0,0,1,4.37-7.7,5.28,5.28,0,0,0,4.63,2.2,6.48,6.48,0,0,0,2.29-.41,2.78,2.78,0,0,0,2.46,1.41,2.85,2.85,0,0,0,2.29-1.11,9,9,0,0,1,2,5.61v.38a1,1,0,0,0,1.45.9l.55-.28V32A10.94,10.94,0,0,0,56.94,25.82Z"/><line class="cls-3" x1="46.84" y1="35" x2="48.84" y2="35"/><path class="cls-21" d="M49.34,34h6a.5.5,0,0,1,.5.5v3a1,1,0,0,1-1,1h-4a2,2,0,0,1-2-2v-2A.5.5,0,0,1,49.34,34Z"/><path class="cls-22" d="M50.22,38.39,54,34H49.34a.5.5,0,0,0-.5.5v2A2,2,0,0,0,50.22,38.39Z"/><path class="cls-21" d="M40.34,34h6a.5.5,0,0,1,.5.5v2a2,2,0,0,1-2,2h-4a1,1,0,0,1-1-1v-3A.5.5,0,0,1,40.34,34Z"/><path class="cls-22" d="M40.34,34a.5.5,0,0,0-.5.5v3a1,1,0,0,0,1,1h.22L44.92,34Z"/><path class="cls-3" d="M40.34,34h6a.5.5,0,0,1,.5.5v2a2,2,0,0,1-2,2h-4a1,1,0,0,1-1-1v-3A.5.5,0,0,1,40.34,34Z"/><path class="cls-3" d="M49.84,34h4a2,2,0,0,1,2,2v2a.5.5,0,0,1-.5.5h-6a.5.5,0,0,1-.5-.5V35A1,1,0,0,1,49.84,34Z" transform="translate(104.68 72.5) rotate(-180)"/><path class="cls-3" d="M53.85,36.5a1.63,1.63,0,0,0-3,0"/><path class="cls-3" d="M44.84,36.5a1.63,1.63,0,0,0-3,0"/></g></svg>