<svg id="Duotone" xmlns="http://www.w3.org/2000/svg" viewBox="0 0 100 112"><defs><style>.cls-1{fill:#f0f2ff;}.cls-2,.cls-8{fill:none;}.cls-2,.cls-4,.cls-6,.cls-7,.cls-8{stroke:#4550e5;stroke-linejoin:round;}.cls-2,.cls-4,.cls-6{stroke-linecap:round;}.cls-3,.cls-4,.cls-7{fill:#fff;}.cls-5,.cls-6{fill:#d6daff;}</style></defs><title>59- office-supervisor-desk-male-asian</title><g id="Icons"><g id="Background"><g id="New_Symbol_68-47" data-name="New Symbol 68"><path class="cls-1" d="M90.5,56.1A40,40,0,1,0,14.06,72.6H86.94A39.88,39.88,0,0,0,90.5,56.1Z"/><line class="cls-2" x1="11" y1="72.6" x2="89" y2="72.6"/><line class="cls-2" x1="6.5" y1="72.6" x2="9" y2="72.6"/><line class="cls-2" x1="91" y1="72.6" x2="93.5" y2="72.6"/></g></g><g id="Scene"><rect class="cls-3" x="40" y="32.12" width="38" height="15" rx="4" ry="4"/><path class="cls-4" d="M78,72.62v-6.5a4,4,0,0,0-4-4H44a4,4,0,0,0-4,4v6.5Z"/><rect class="cls-4" x="40" y="47.12" width="38" height="15" rx="4" ry="4"/><rect class="cls-2" x="40" y="32.12" width="38" height="15" rx="4" ry="4"/><path class="cls-5" d="M74.5,65.12a15.5,15.5,0,0,0-31,0v7.5h31Z"/><path class="cls-2" d="M74.5,65.12a15.5,15.5,0,0,0-31,0v7.5h31Z"/><polygon class="cls-6" points="55.83 48.62 59 48.62 59 72.62 50 59.12 52.5 56.12 49.5 55.12 55.83 48.62"/><polygon class="cls-6" points="62.17 48.62 59 48.62 59 72.62 68 59.12 65.5 56.12 68.5 55.12 62.17 48.62"/><path class="cls-4" d="M62.5,52.12v-3.5h-7v3.5c-.55,2.37-1.09,4.22-.32,6.53l3.82,14,3.82-14C63.59,56.34,63.05,54.49,62.5,52.12Z"/><polyline class="cls-2" points="62.98 58.11 59 55.62 55.02 58.11"/><polygon class="cls-6" points="60.81 56.75 60 58.62 58 58.62 57.19 56.75 59 55.62 60.81 56.75"/><path class="cls-6" d="M61,65.19a24.48,24.48,0,0,0-1-6.57H58a24.67,24.67,0,0,0-1,6.57l2,7.43Z"/><polygon class="cls-3" points="62.5 52.12 59 55.62 55.5 52.12 55.5 46.62 62.5 46.62 62.5 52.12"/><polygon class="cls-2" points="62.5 52.12 59 55.62 55.5 52.12 55.5 46.62 62.5 46.62 62.5 52.12"/><line class="cls-2" x1="49.5" y1="63.62" x2="49.5" y2="72.62"/><line class="cls-2" x1="68.5" y1="63.62" x2="68.5" y2="72.62"/><path class="cls-4" d="M69,36.12v-2.5a10,10,0,0,0-20,0v2.5a2,2,0,0,0,0,4h.12a10,10,0,0,0,19.76,0H69a2,2,0,0,0,0-4Z"/><path class="cls-2" d="M64.5,37.12a1.63,1.63,0,0,0-3,0"/><path class="cls-2" d="M56.51,37.12a1.63,1.63,0,0,0-3,0"/><circle class="cls-5" cx="53.25" cy="40.37" r="1.25"/><circle class="cls-5" cx="64.75" cy="40.37" r="1.25"/><path class="cls-7" d="M59,22.62h0a11,11,0,0,0-11,11v2.5h0a3.46,3.46,0,0,0,3.3-2.4l1.17-3.6a25.58,25.58,0,0,0,6.5,1.5,25.58,25.58,0,0,0,6.5-1.5l1.21,3.63A3.46,3.46,0,0,0,70,36.12h0v-2.5A11,11,0,0,0,59,22.62Z"/><path class="cls-2" d="M59,22.62h0a11,11,0,0,0-11,11v2.5h0a3.46,3.46,0,0,0,3.3-2.4l1.17-3.6a25.58,25.58,0,0,0,6.5,1.5,25.58,25.58,0,0,0,6.5-1.5l1.21,3.63A3.46,3.46,0,0,0,70,36.12h0v-2.5A11,11,0,0,0,59,22.62Z"/><path class="cls-7" d="M58.5,41.36s-.5-1-2-.5a8.24,8.24,0,0,0-3,2.5.69.69,0,0,1-1,0s1.5,3,5.5,0C58,43.36,59,42.86,58.5,41.36Z"/><path class="cls-7" d="M59.5,41.36s.5-1,2-.5a8.24,8.24,0,0,1,3,2.5.69.69,0,0,0,1,0s-1.5,3-5.5,0C60,43.36,59,42.86,59.5,41.36Z"/><ellipse class="cls-1" cx="25.75" cy="78.62" rx="10.75" ry="1.5"/><path class="cls-3" d="M26.5,71.12,26,54.62H24l-.5,16.5A4.5,4.5,0,0,1,21,75.18,3.31,3.31,0,0,0,19,78.12H31a3.31,3.31,0,0,0-1.95-2.94A4.5,4.5,0,0,1,26.5,71.12Z"/><path class="cls-8" d="M26.5,71.12,26,54.62H24l-.5,16.5A4.5,4.5,0,0,1,21,75.18,3.31,3.31,0,0,0,19,78.12H31a3.31,3.31,0,0,0-1.95-2.94A4.5,4.5,0,0,1,26.5,71.12Z"/><line class="cls-2" x1="18" y1="63.62" x2="18" y2="70.12"/><rect class="cls-3" x="13.5" y="47.12" width="23" height="16.5" rx="2" ry="2"/><rect class="cls-8" x="13.5" y="47.12" width="23" height="16.5" rx="2" ry="2"/><ellipse class="cls-1" cx="79" cy="78.62" rx="9" ry="1.5"/><path class="cls-4" d="M79.82,68.12h-2v-8.5a1,1,0,0,1,2,0Z"/><rect class="cls-6" x="77.82" y="60.62" width="2" height="2"/><line class="cls-2" x1="78.82" y1="57.12" x2="78.82" y2="58.62"/><path class="cls-2" d="M79.82,59.62h.25a1.25,1.25,0,0,1,1.25,1.25v1.25"/><rect class="cls-4" x="73.84" y="59.96" width="2.5" height="9.5" transform="translate(-13.51 20.25) rotate(-14.11)"/><rect class="cls-6" x="72.93" y="60.07" width="2.5" height="2" transform="translate(-12.66 19.94) rotate(-14.12)"/><path class="cls-4" d="M73.38,57.64h.5a1,1,0,0,1,1,1v1.5a0,0,0,0,1,0,0h-2.5a0,0,0,0,1,0,0v-1.5A1,1,0,0,1,73.38,57.64Z" transform="translate(-12.14 19.73) rotate(-14.11)"/><rect class="cls-4" x="81.65" y="60.98" width="3.5" height="8" transform="translate(21.96 -21.06) rotate(16.55)"/><polygon class="cls-6" points="86.22 61.64 82.86 60.65 83.14 59.69 84.39 59.02 85.83 59.44 86.5 60.69 86.22 61.64"/><path class="cls-3" d="M73.82,68.12h10.5a0,0,0,0,1,0,0v8.5a2,2,0,0,1-2,2h-6.5a2,2,0,0,1-2-2v-8.5A0,0,0,0,1,73.82,68.12Z"/><path class="cls-2" d="M73.82,68.12h10.5a0,0,0,0,1,0,0v8.5a2,2,0,0,1-2,2h-6.5a2,2,0,0,1-2-2v-8.5A0,0,0,0,1,73.82,68.12Z"/><rect class="cls-2" x="77.32" y="68.12" width="3.5" height="10.5"/></g></g></svg>