<svg id="Multicolor" xmlns="http://www.w3.org/2000/svg" viewBox="0 0 100 112"><defs><style>.cls-1{fill:#e8f4fa;}.cls-2{fill:#ffa694;}.cls-3{fill:#80ddff;}.cls-4{fill:#fffacf;}.cls-5{fill:#ff6242;}.cls-5,.cls-6,.cls-7,.cls-8{stroke:#191816;}.cls-5,.cls-6,.cls-8{stroke-miterlimit:10;}.cls-6{fill:#00b8f0;}.cls-7{fill:none;stroke-linecap:round;stroke-linejoin:round;}.Graphic-Style-18{fill:#191816;opacity:0.15;}.cls-8{fill:#ffe500;}</style></defs><title>63- graph-area</title><g id="New_Symbol_53-30" data-name="New Symbol 53"><circle class="cls-1" cx="50" cy="56" r="40"/></g><polygon class="cls-2" points="25.72 55.75 42.22 55.75 42.22 45.85 59.82 45.85 59.82 34.85 75.77 34.85 75.77 72.25 25.72 72.25 25.72 55.75"/><polygon class="cls-3" points="25.72 66.2 42.22 66.2 42.22 56.3 59.82 56.3 59.82 49.15 75.77 49.15 75.77 72.25 25.72 72.25 25.72 66.2"/><polygon class="cls-4" points="25.72 66.75 42.22 66.75 42.22 62.35 59.82 62.35 59.82 66.75 75.77 66.75 75.77 72.25 25.72 72.25 25.72 66.75"/><path class="cls-5" d="M74.67,33.2H60.37a2.2,2.2,0,0,0-2.2,2.2v7.15a1.1,1.1,0,0,1-1.1,1.1H42.77a2.2,2.2,0,0,0-2.2,2.2V53a1.1,1.1,0,0,1-1.1,1.1H25.72v3.3h16a2.19,2.19,0,0,0,2.2-2.2V48.05A1.1,1.1,0,0,1,45,47h14.3a2.19,2.19,0,0,0,2.2-2.2V37.6a1.1,1.1,0,0,1,1.1-1.1h12.1a1.1,1.1,0,0,0,1.1-1.1V34.3A1.1,1.1,0,0,0,74.67,33.2Z"/><path class="cls-6" d="M74.67,47H60.37a2.2,2.2,0,0,0-2.2,2.2v4.4a1.1,1.1,0,0,1-1.1,1.1H42.77a2.2,2.2,0,0,0-2.2,2.2V64a1.1,1.1,0,0,1-1.1,1.1H25.72v3.3h16a2.19,2.19,0,0,0,2.2-2.2V59.05A1.1,1.1,0,0,1,45,58h14.3a2.19,2.19,0,0,0,2.2-2.2v-4.4a1.1,1.1,0,0,1,1.1-1.1h12.1a1.1,1.1,0,0,0,1.1-1.1v-1.1A1.1,1.1,0,0,0,74.67,47Z"/><polyline class="cls-7" points="75.77 72.25 25.72 72.25 25.72 31.55"/><path class="Graphic-Style-18" d="M66.42,84.35c0,.91-7.39,1.65-16.5,1.65s-16.5-.74-16.5-1.65,7.39-1.65,16.5-1.65S66.42,83.44,66.42,84.35Z"/><path class="cls-8" d="M61.47,64V62.9a2.19,2.19,0,0,0-2.2-2.2H42.77a2.2,2.2,0,0,0-2.2,2.2V64a1.1,1.1,0,0,1-1.1,1.1H25.72v3.3h16a2.19,2.19,0,0,0,2.2-2.2V65.1A1.1,1.1,0,0,1,45,64h12.1a1.1,1.1,0,0,1,1.1,1.1v1.1a2.2,2.2,0,0,0,2.2,2.2h14.3a1.1,1.1,0,0,0,1.1-1.1V66.2a1.1,1.1,0,0,0-1.1-1.1H62.57A1.1,1.1,0,0,1,61.47,64Z"/></svg>