<svg id="Multicolor" xmlns="http://www.w3.org/2000/svg" viewBox="0 0 100 112"><defs><style>.cls-1,.cls-10{fill:#e8f4fa;}.cls-2{fill:#191816;opacity:0.15;}.cls-3{fill:#87898c;}.cls-4{fill:#bdbec0;}.cls-5{fill:none;}.cls-10,.cls-5,.cls-6,.cls-7,.cls-9{stroke:#191816;stroke-linecap:round;stroke-linejoin:round;}.cls-6{fill:#ff8a14;}.cls-13,.cls-7{fill:#6dd627;}.cls-8,.cls-9{fill:#fff;}.cls-11{fill:#ffe500;}.cls-12{fill:#fff48c;}.cls-14{fill:#9ceb60;}</style></defs><title>65- cloud-server-document-sync</title><g id="Background"><g id="New_Symbol_1-20" data-name="New Symbol 1"><circle class="cls-1" cx="50" cy="56" r="40"/></g></g><g id="Scene"><ellipse class="cls-2" cx="50.16" cy="86.7" rx="14.4" ry="1.5"/><rect class="cls-3" x="36.5" y="61.5" width="27" height="24" rx="2" ry="2"/><path class="cls-4" d="M63.5,64h-27v-.5a2,2,0,0,1,2-2h23a2,2,0,0,1,2,2Z"/><line class="cls-5" x1="39.5" y1="81.5" x2="45.5" y2="81.5"/><line class="cls-5" x1="39.5" y1="73.5" x2="45.5" y2="73.5"/><line class="cls-5" x1="39.5" y1="65.5" x2="45.5" y2="65.5"/><circle class="cls-6" cx="60" cy="65.5" r="1.5"/><circle class="cls-7" cx="55" cy="65.5" r="1.5"/><circle class="cls-6" cx="60" cy="73.5" r="1.5"/><circle class="cls-7" cx="55" cy="73.5" r="1.5"/><circle class="cls-6" cx="60" cy="81.5" r="1.5"/><path class="cls-2" d="M43.86,69.66a3.4,3.4,0,0,0,.34-2.59L42.71,61.5H38.5a2,2,0,0,0-2,2v9.17l5.28-1.42A3.37,3.37,0,0,0,43.86,69.66Z"/><path class="cls-2" d="M61.5,61.5H56.62l-1,3.75A3.4,3.4,0,0,0,56,67.82,3.33,3.33,0,0,0,58,69.39l5.49,1.48V63.5A2,2,0,0,0,61.5,61.5Z"/><circle class="cls-7" cx="55" cy="81.5" r="1.5"/><path class="cls-5" d="M61.5,85.5h-23a2,2,0,0,1-2-2v-6h27v6A2,2,0,0,1,61.5,85.5Z"/><rect class="cls-5" x="36.5" y="69.5" width="27" height="8"/><path class="cls-5" d="M63.5,69.5h-27v-6a2,2,0,0,1,2-2h23a2,2,0,0,1,2,2Z"/><path class="cls-8" d="M69.73,24.73a6.5,6.5,0,0,0,.21-1.6A7,7,0,0,0,63,16.18a6.83,6.83,0,0,0-4.18,1.43,13.89,13.89,0,0,0-24.49,9v.09a6.25,6.25,0,0,0-.87-.09,7,7,0,0,0,0,13.9H64.72a8.68,8.68,0,0,0,5-15.77Z"/><path class="cls-1" d="M64.72,36H33.45a7,7,0,0,1-6.57-4.7,6.94,6.94,0,0,0,6.57,9.2H64.72a8.69,8.69,0,0,0,8.69-8.69,8.79,8.79,0,0,0-.3-2.25A8.69,8.69,0,0,1,64.72,36Z"/><path class="cls-5" d="M69.73,24.73a6.5,6.5,0,0,0,.21-1.6A7,7,0,0,0,63,16.18a6.83,6.83,0,0,0-4.18,1.43,13.89,13.89,0,0,0-24.49,9v.09a6.25,6.25,0,0,0-.87-.09,7,7,0,0,0,0,13.9H64.72a8.68,8.68,0,0,0,5-15.77Z"/><path class="cls-9" d="M41.78,67.72a.9.9,0,0,1-.64,1.12L29.26,72a.92.92,0,0,1-1.12-.64l-3.8-14.16A.91.91,0,0,1,25,56.1l8.22-2.2L39,57.23Z"/><polygon class="cls-10" points="33.21 53.9 34.42 58.45 38.97 57.23 33.21 53.9"/><line class="cls-5" x1="27.6" y1="60.28" x2="32.15" y2="59.06"/><line class="cls-5" x1="28.21" y1="62.55" x2="36.93" y2="60.22"/><line class="cls-5" x1="28.82" y1="64.83" x2="37.54" y2="62.49"/><line class="cls-5" x1="29.43" y1="67.1" x2="38.15" y2="64.76"/><path class="cls-11" d="M74.25,70.24a.87.87,0,0,1-1.08.63L58.65,67A.88.88,0,0,1,58,65.9l3-11.1a.88.88,0,0,1,1.09-.63l2.56.69L65.9,57l10.25,2.75a.87.87,0,0,1,.62,1.08Z"/><path class="cls-12" d="M76.15,59.77,65.9,57l-1.25-2.16-2.56-.69A.88.88,0,0,0,61,54.8l-.57,2.13a.88.88,0,0,1,1.08-.62l2.57.68,1.25,2.17L75.57,61.9A.9.9,0,0,1,76.2,63l.57-2.14A.87.87,0,0,0,76.15,59.77Z"/><path class="cls-5" d="M74.25,70.24a.87.87,0,0,1-1.08.63L58.65,67A.88.88,0,0,1,58,65.9l3-11.1a.88.88,0,0,1,1.09-.63l2.56.69L65.9,57l10.25,2.75a.87.87,0,0,1,.62,1.08Z"/><path class="cls-13" d="M39.46,39.73,35,45.18A2,2,0,1,0,38,47.73l1.2-1.45A11,11,0,0,0,50,55a2,2,0,0,0,0-4,7,7,0,0,1-6.87-5.65l2,1.69A2,2,0,0,0,48,46.77a2,2,0,0,0,.45-1.27A2,2,0,0,0,47.73,44l-5.46-4.5a2,2,0,0,0-2.81.27Z"/><path class="cls-14" d="M35,47.68l4.5-5.45A2,2,0,0,1,42.27,42l5.46,4.5a2.54,2.54,0,0,1,.28.29A2,2,0,0,0,47.73,44l-5.46-4.5a2,2,0,0,0-2.81.27L35,45.18a2,2,0,0,0,0,2.53Z"/><path class="cls-5" d="M39.46,39.73,35,45.18A2,2,0,1,0,38,47.73l1.2-1.45A11,11,0,0,0,50,55a2,2,0,0,0,0-4,7,7,0,0,1-6.87-5.65l2,1.69A2,2,0,0,0,48,46.77a2,2,0,0,0,.45-1.27A2,2,0,0,0,47.73,44l-5.46-4.5a2,2,0,0,0-2.81.27Z"/><path class="cls-13" d="M50,33a2,2,0,0,0,0,4,7,7,0,0,1,6.87,5.65l-2-1.69A2,2,0,1,0,52.27,44l5.46,4.5a2,2,0,0,0,2.81-.27L65,42.82a2,2,0,0,0,.46-1.27A2,2,0,0,0,62,40.27l-1.2,1.45A11,11,0,0,0,50,33Z"/><path class="cls-14" d="M50.25,35.5a12.22,12.22,0,0,1,10.4,5.8A11,11,0,0,0,50,33a2,2,0,0,0-1.87,2.7A12.38,12.38,0,0,1,50.25,35.5Z"/><path class="cls-5" d="M50,33a2,2,0,0,0,0,4,7,7,0,0,1,6.87,5.65l-2-1.69A2,2,0,1,0,52.27,44l5.46,4.5a2,2,0,0,0,2.81-.27L65,42.82a2,2,0,0,0,.46-1.27A2,2,0,0,0,62,40.27l-1.2,1.45A11,11,0,0,0,50,33Z"/></g></svg>