<svg id="Multicolor" xmlns="http://www.w3.org/2000/svg" viewBox="0 0 100 112"><defs><style>.cls-1{fill:#e8f4fa;}.cls-2{fill:#fff;}.cls-3{fill:none;stroke-linecap:round;}.cls-11,.cls-3{stroke:#191816;stroke-linejoin:round;}.cls-4{fill:#191816;opacity:0.15;}.cls-5{fill:#ff6242;}.cls-6{fill:#ffe500;}.cls-7{fill:#00b8f0;}.cls-8{fill:#4acfff;}.cls-9{fill:#fff48c;}.cls-10{fill:#ff866e;}.cls-11{fill:#6dd627;}.cls-12{fill:#c8ffa1;}.cls-13{fill:#fffacf;}</style></defs><title>65- graph-financial-bar-and-line</title><g id="New_Symbol_25-4" data-name="New Symbol 25"><path class="cls-1" d="M90,56A40,40,0,1,0,13.56,72.5H86.43A39.7,39.7,0,0,0,90,56Z"/><path class="cls-2" d="M13.56,72.5a40,40,0,0,0,72.87,0Z"/><line class="cls-3" x1="11" y1="72.5" x2="89" y2="72.5"/><line class="cls-3" x1="6.5" y1="72.5" x2="9" y2="72.5"/><line class="cls-3" x1="91" y1="72.5" x2="93.5" y2="72.5"/></g><path class="cls-4" d="M48.9,76.5c0,1-5.87,1.73-13.11,1.73s-13.11-.77-13.11-1.73,5.87-1.72,13.11-1.72S48.9,75.55,48.9,76.5Z"/><path class="cls-5" d="M68.16,29.68h5.66a2,2,0,0,1,2,2V72.46a0,0,0,0,1,0,0H66.16a0,0,0,0,1,0,0V31.68A2,2,0,0,1,68.16,29.68Z"/><path class="cls-6" d="M53,40.72h5.66a2,2,0,0,1,2,2V72.46a0,0,0,0,1,0,0H51a0,0,0,0,1,0,0V42.72A2,2,0,0,1,53,40.72Z"/><path class="cls-7" d="M37.8,50.38h5.66a2,2,0,0,1,2,2V72.46a0,0,0,0,1,0,0H35.8a0,0,0,0,1,0,0V52.38A2,2,0,0,1,37.8,50.38Z"/><path class="cls-8" d="M43.16,50.38H38.1a2.3,2.3,0,0,0-2.3,2.3v3.45a2.3,2.3,0,0,1,2.3-2.3h5.06a2.3,2.3,0,0,1,2.3,2.3V52.68A2.3,2.3,0,0,0,43.16,50.38Z"/><path class="cls-9" d="M58.34,40.72H53.28A2.3,2.3,0,0,0,51,43v3.45a2.3,2.3,0,0,1,2.3-2.3h5.06a2.3,2.3,0,0,1,2.3,2.3V43A2.3,2.3,0,0,0,58.34,40.72Z"/><path class="cls-10" d="M73.52,29.68H68.46a2.3,2.3,0,0,0-2.3,2.3v3.45a2.3,2.3,0,0,1,2.3-2.3h5.06a2.3,2.3,0,0,1,2.3,2.3V32A2.3,2.3,0,0,0,73.52,29.68Z"/><path class="cls-3" d="M68.16,29.68h5.66a2,2,0,0,1,2,2V72.46a0,0,0,0,1,0,0H66.16a0,0,0,0,1,0,0V31.68A2,2,0,0,1,68.16,29.68Z"/><path class="cls-3" d="M37.8,50.38h5.66a2,2,0,0,1,2,2V72.46a0,0,0,0,1,0,0H35.8a0,0,0,0,1,0,0V52.38A2,2,0,0,1,37.8,50.38Z"/><path class="cls-3" d="M53,40.72h5.66a2,2,0,0,1,2,2V72.46a0,0,0,0,1,0,0H51a0,0,0,0,1,0,0V42.72A2,2,0,0,1,53,40.72Z"/><path class="cls-3" d="M26.14,47.62l7.51-6.72a2.75,2.75,0,0,1,1.79-.7l8.29-.15a2.77,2.77,0,0,0,1.81-.72L60,26.23"/><polyline class="cls-3" points="53.74 26.23 59.95 26.23 59.95 32.44"/><path class="cls-11" d="M57.33,67.54a1.56,1.56,0,0,0-.88-1.2,1.55,1.55,0,0,0-1.49.08A14.89,14.89,0,0,1,46,68.25a1.59,1.59,0,0,0-1.34.44A1.57,1.57,0,0,0,44.24,70l.45,3.24a1.57,1.57,0,0,0,1.41,1.35A23.18,23.18,0,0,0,56,73.1a2.78,2.78,0,0,0,1.7-2.95Z"/><path class="cls-12" d="M52.1,71.34a1.18,1.18,0,1,1-.87-1.43A1.17,1.17,0,0,1,52.1,71.34Z"/><path class="cls-11" d="M28.08,58a1.57,1.57,0,0,0-1.39-2.22,15,15,0,0,1-8.5-3.29,1.58,1.58,0,0,0-2.47.53l-1.37,3a1.56,1.56,0,0,0,.46,1.9A23.1,23.1,0,0,0,24,61.93a2.75,2.75,0,0,0,3-1.56Z"/><path class="cls-12" d="M21.62,58.34a1.18,1.18,0,1,1,0-1.67A1.18,1.18,0,0,1,21.62,58.34Z"/><path class="cls-6" d="M37.18,64.87a2.07,2.07,0,0,0-2.07-2.07h-6.9a2.07,2.07,0,0,0,0,4.14h6.9A2.07,2.07,0,0,0,37.18,64.87Z"/><path class="cls-13" d="M37.18,64.87a2.07,2.07,0,0,0-2.07-2.07h-6.9a2.07,2.07,0,0,0-2.07,2.07Z"/><path class="cls-6" d="M35.8,69a2.07,2.07,0,0,0-2.07-2.07h-6.9a2.07,2.07,0,0,0,0,4.14h6.9A2.07,2.07,0,0,0,35.8,69Z"/><path class="cls-13" d="M33.73,66.94h-6.9A2.07,2.07,0,0,0,24.76,69h11A2.07,2.07,0,0,0,33.73,66.94Z"/><path class="cls-6" d="M35.8,73.15a2.07,2.07,0,0,0-2.07-2.07h-6.9a2.07,2.07,0,0,0,0,4.14h6.9A2.07,2.07,0,0,0,35.8,73.15Z"/><path class="cls-13" d="M33.73,71.08h-6.9a2.07,2.07,0,0,0-2.07,2.07h11A2.07,2.07,0,0,0,33.73,71.08Z"/><path class="cls-6" d="M46.84,73.15a2.07,2.07,0,0,0-2.07-2.07h-6.9a2.07,2.07,0,1,0,0,4.14h6.9A2.07,2.07,0,0,0,46.84,73.15Z"/><path class="cls-13" d="M44.77,71.08h-6.9a2.07,2.07,0,0,0-2.07,2.07h11A2.07,2.07,0,0,0,44.77,71.08Z"/><path class="cls-6" d="M46.84,69a2.07,2.07,0,0,0-2.07-2.07h-6.9a2.07,2.07,0,1,0,0,4.14h6.9A2.07,2.07,0,0,0,46.84,69Z"/><path class="cls-13" d="M44.77,66.94h-6.9A2.07,2.07,0,0,0,35.8,69h11A2.07,2.07,0,0,0,44.77,66.94Z"/><path class="cls-3" d="M37.18,64.87a2.07,2.07,0,0,0-2.07-2.07h-6.9a2.07,2.07,0,0,0,0,4.14h6.9A2.07,2.07,0,0,0,37.18,64.87Z"/><path class="cls-6" d="M41.32,60.73a2.07,2.07,0,0,0-2.07-2.07h-6.9a2.07,2.07,0,0,0,0,4.14h6.9A2.07,2.07,0,0,0,41.32,60.73Z"/><path class="cls-13" d="M39.25,58.66h-6.9a2.07,2.07,0,0,0-2.07,2.07h11A2.07,2.07,0,0,0,39.25,58.66Z"/><path class="cls-3" d="M41.32,60.73a2.07,2.07,0,0,0-2.07-2.07h-6.9a2.07,2.07,0,0,0,0,4.14h6.9A2.07,2.07,0,0,0,41.32,60.73Z"/><path class="cls-3" d="M35.8,69a2.07,2.07,0,0,0-2.07-2.07h-6.9a2.07,2.07,0,0,0,0,4.14h6.9A2.07,2.07,0,0,0,35.8,69Z"/><path class="cls-3" d="M35.8,73.15a2.07,2.07,0,0,0-2.07-2.07h-6.9a2.07,2.07,0,0,0,0,4.14h6.9A2.07,2.07,0,0,0,35.8,73.15Z"/><path class="cls-3" d="M46.84,73.15a2.07,2.07,0,0,0-2.07-2.07h-6.9a2.07,2.07,0,1,0,0,4.14h6.9A2.07,2.07,0,0,0,46.84,73.15Z"/><path class="cls-3" d="M46.84,69a2.07,2.07,0,0,0-2.07-2.07h-6.9a2.07,2.07,0,1,0,0,4.14h6.9A2.07,2.07,0,0,0,46.84,69Z"/><path class="cls-6" d="M48.22,64.87a2.07,2.07,0,0,0-2.07-2.07h-6.9a2.07,2.07,0,0,0,0,4.14h6.9A2.07,2.07,0,0,0,48.22,64.87Z"/><path class="cls-13" d="M46.15,62.8h-6.9a2.07,2.07,0,0,0-2.07,2.07h11A2.07,2.07,0,0,0,46.15,62.8Z"/><path class="cls-3" d="M48.22,64.87a2.07,2.07,0,0,0-2.07-2.07h-6.9a2.07,2.07,0,0,0,0,4.14h6.9A2.07,2.07,0,0,0,48.22,64.87Z"/></svg>