<svg id="Multicolor" xmlns="http://www.w3.org/2000/svg" viewBox="0 0 100 112"><defs><style>.cls-1,.cls-21{fill:#fff;}.cls-2,.cls-7{fill:#e8f4fa;}.cls-15,.cls-3{fill:none;}.cls-10,.cls-12,.cls-15,.cls-16,.cls-17,.cls-20,.cls-21,.cls-22,.cls-3,.cls-4,.cls-7{stroke:#191816;stroke-linejoin:round;}.cls-10,.cls-22,.cls-3,.cls-4,.cls-7{stroke-linecap:round;}.cls-23,.cls-4{fill:#724f3d;}.cls-5{fill:#ffa694;}.cls-6{fill:#ffcabf;}.cls-8{fill:#00b8f0;}.cls-9{fill:#4acfff;}.cls-10{fill:#bdbec0;}.cls-11{fill:#191816;opacity:0.15;}.cls-12{fill:#8ca4b8;}.cls-13{fill:#adc4d9;}.cls-14{fill:#c0dceb;}.cls-16{fill:#f0f0f0;}.cls-17{fill:#ffe500;}.cls-18,.cls-22{fill:#ffcebf;}.cls-19{fill:#ffb59e;}.cls-20{fill:#00f5bc;}.cls-24{fill:#a86c4d;}</style></defs><title>66- osx-programmer-female-caucasian</title><g id="Background"><g id="New_Symbol_39-6" data-name="New Symbol 39"><path class="cls-1" d="M50.34,96A40,40,0,0,0,85,76H15.73A40,40,0,0,0,50.34,96Z"/><path class="cls-1" d="M13.9,72.51c.55,1.2,1.17,2.36,1.83,3.5H85c.65-1.14,1.28-2.3,1.82-3.5Z"/><path class="cls-2" d="M90.34,56A40,40,0,1,0,13.9,72.51H86.77A39.73,39.73,0,0,0,90.34,56Z"/><line class="cls-3" x1="11.34" y1="72.51" x2="89.34" y2="72.51"/><line class="cls-3" x1="6.84" y1="72.51" x2="9.34" y2="72.51"/><line class="cls-3" x1="91.34" y1="72.51" x2="93.84" y2="72.51"/></g></g><g id="Scene"><polygon class="cls-4" points="54.84 54.51 33.34 54.51 33.84 34.01 54.34 34.01 54.84 54.51"/><path class="cls-5" d="M59.84,65a16,16,0,0,0-32,0v7.5h32Z"/><path class="cls-6" d="M43.84,49a16,16,0,0,0-16,16v4.5a16,16,0,0,1,32,0V65A16,16,0,0,0,43.84,49Z"/><path class="cls-3" d="M59.84,65a16,16,0,0,0-32,0v7.5h32Z"/><path class="cls-7" d="M63.34,85.51h-7a1,1,0,0,1-1-1v-1h9v1A1,1,0,0,1,63.34,85.51Z"/><path class="cls-8" d="M64.34,83.51h-9l1.77-5.32a1,1,0,0,1,1-.68h3.56a1,1,0,0,1,1,.68Z"/><path class="cls-9" d="M61.62,77.51H58.06a1,1,0,0,0-1,.68l-1.77,5.32H56l6.59-5.38A1,1,0,0,0,61.62,77.51Z"/><path class="cls-3" d="M64.34,83.51h-9l1.77-5.32a1,1,0,0,1,1-.68h3.56a1,1,0,0,1,1,.68Z"/><line class="cls-3" x1="59.34" y1="78.89" x2="60.34" y2="78.89"/><rect class="cls-10" x="60.34" y="83.51" width="2" height="2"/><path class="cls-3" d="M34.34,72.51V68c0-3-2.31-4-.89-7.52.3-.73.64-1.65.89-2.48"/><path class="cls-3" d="M53.34,72.51V68c0-3,2.3-4,.88-7.52-.3-.73-.63-1.65-.88-2.48"/><path class="cls-11" d="M52.07,85c0,.83-7.28,1.5-17.5,1.5s-15.5-.67-15.5-1.5,5.29-1.5,15.5-1.5S52.07,84.18,52.07,85Z"/><path class="cls-12" d="M21.06,81.51h29a0,0,0,0,1,0,0V82a2,2,0,0,1-2,2h-25a2,2,0,0,1-2-2v-.5A0,0,0,0,1,21.06,81.51Z"/><path class="cls-13" d="M50.07,81.51h-29L19.59,68.25a2,2,0,0,1,.49-1.57A2,2,0,0,1,21.57,66h28a2,2,0,0,1,2,2.24Z"/><path class="cls-14" d="M19.8,70.19a2,2,0,0,1,.28-.51A2,2,0,0,1,21.57,69h28a2,2,0,0,1,1.5.67,1.92,1.92,0,0,1,.27.51l.22-1.94a2,2,0,0,0-2-2.24h-28a2,2,0,0,0-1.49.67,2,2,0,0,0-.49,1.57Z"/><path class="cls-15" d="M50.07,81.51h-29L19.59,68.25a2,2,0,0,1,.49-1.57A2,2,0,0,1,21.57,66h28a2,2,0,0,1,2,2.24Z"/><path class="cls-16" d="M37.18,73.87a1.55,1.55,0,0,1,.73-1.3,1.6,1.6,0,0,0-1.24-.67c-.53-.05-1,.31-1.3.31s-.69-.3-1.12-.3a1.66,1.66,0,0,0-1.41.86,3.53,3.53,0,0,0,.43,3.43c.28.41.63.87,1.07.86s.6-.28,1.12-.28.66.28,1.12.27.76-.42,1-.84a3.64,3.64,0,0,0,.47-1A1.48,1.48,0,0,1,37.18,73.87Z"/><line class="cls-3" x1="36.02" y1="70.13" x2="36.64" y2="69.51"/><path class="cls-17" d="M44.84,47.51h-2c-2.35,0-5,1.65-5,4,0,5.48,4,7.2,5.18,4.41L43.84,54l.81,1.91c1.18,2.79,5.19,1.07,5.19-4.41C49.84,49.16,47.18,47.51,44.84,47.51Z"/><path class="cls-18" d="M40.34,46.51V51.6s0,2.36,3.5,2.41,3.5-2.41,3.5-2.41V46.51Z"/><path class="cls-19" d="M40.34,48.1c0,.08.06,2.36,3.5,2.41s3.5-2.33,3.5-2.41V46.51h-7Z"/><path class="cls-3" d="M40.34,46.51V51.6s0,2.36,3.5,2.41,3.5-2.41,3.5-2.41V46.51Z"/><path class="cls-13" d="M61.84,32h17.5a2,2,0,0,1,2,2V56a1,1,0,0,1-1,1H61.84a2,2,0,0,1-2-2V34A2,2,0,0,1,61.84,32Z"/><path class="cls-20" d="M76.84,52v4.5h-15a2,2,0,0,1-2-2V34a2,2,0,0,1,2-2h17a2,2,0,0,1,2,2V52Z"/><path class="cls-21" d="M80.84,52q-1,3.75-4,4.5V52Z"/><circle class="cls-17" cx="62.84" cy="32.01" r="1"/><circle class="cls-17" cx="78.34" cy="32.01" r="1"/><circle class="cls-21" cx="70.34" cy="36.01" r="1.5"/><circle class="cls-21" cx="70.34" cy="52.01" r="1.5"/><line class="cls-15" x1="70.34" y1="37.51" x2="70.34" y2="50.51"/><rect class="cls-15" x="63.84" y="41.01" width="13" height="6.5"/><rect class="cls-21" x="74.84" y="43.01" width="4" height="2"/><rect class="cls-21" x="61.84" y="43.01" width="4" height="2"/><rect class="cls-21" x="68.34" y="46.51" width="4" height="2"/><polygon class="cls-21" points="70.34 39.51 66.84 41.01 70.34 42.51 73.84 41.01 70.34 39.51"/><path class="cls-22" d="M53.84,35v-2.5a10,10,0,0,0-20,0V35a2,2,0,0,0,0,4H34a10,10,0,0,0,19.76,0h.12a2,2,0,0,0,0-4Z"/><path class="cls-3" d="M40.82,41.8a4.36,4.36,0,0,0,6,0"/><path class="cls-3" d="M49.34,36a1.63,1.63,0,0,0-3,0"/><path class="cls-3" d="M41.35,36a1.63,1.63,0,0,0-3,0"/><circle class="cls-19" cx="38.09" cy="39.26" r="1.25"/><circle class="cls-19" cx="49.59" cy="39.26" r="1.25"/><path class="cls-4" d="M34.29,35h-.45a1.73,1.73,0,0,1,1.6,1.72A8,8,0,0,0,35.75,35C35.26,35,34.77,35,34.29,35Z"/><path class="cls-23" d="M46.84,26.94V23.83a2.32,2.32,0,0,1,2.32-2.32h0a5.28,5.28,0,0,1,5.5,5.17,29.32,29.32,0,0,1-.35,8.39,1.84,1.84,0,0,0-.47-.06h0a1.71,1.71,0,0,0-1.57,1.71L50,34.1C48.28,32.1,46.84,29.56,46.84,26.94Z"/><path class="cls-24" d="M49.16,24a5.28,5.28,0,0,1,5.5,5.17c0,.81.08,1.56.1,2.27.06-1.44,0-3-.1-4.77a5.28,5.28,0,0,0-5.5-5.17,2.32,2.32,0,0,0-2.32,2.32v2.5A2.32,2.32,0,0,1,49.16,24Z"/><path class="cls-3" d="M46.84,26.94V23.83a2.32,2.32,0,0,1,2.32-2.32h0a5.28,5.28,0,0,1,5.5,5.17,29.32,29.32,0,0,1-.35,8.39,1.84,1.84,0,0,0-.47-.06h0a1.71,1.71,0,0,0-1.57,1.71L50,34.1C48.28,32.1,46.84,29.56,46.84,26.94Z"/><path class="cls-23" d="M48.82,29.11h0C45.32,32.87,39.42,35,34.29,35H32.84a2.49,2.49,0,0,1-2.5-2.49h0a2.5,2.5,0,0,1,2.5-2.5h.5c0-5.25,5.25-9.5,10.5-9.5h0a6,6,0,0,1,6,6h0A3.86,3.86,0,0,1,48.82,29.11Z"/><path class="cls-24" d="M43.84,20.51c-5.25,0-10.5,4.25-10.5,9.5,0,0,4-6.5,10.5-6.5a6,6,0,0,1,5.75,4.32,3.73,3.73,0,0,0,.25-1.32A6,6,0,0,0,43.84,20.51Z"/><path class="cls-3" d="M48.82,29.11h0C45.32,32.87,39.42,35,34.29,35H32.84a2.49,2.49,0,0,1-2.5-2.49h0a2.5,2.5,0,0,1,2.5-2.5h.5c0-5.25,5.25-9.5,10.5-9.5h0a6,6,0,0,1,6,6h0A3.86,3.86,0,0,1,48.82,29.11Z"/><path class="cls-3" d="M33.34,30a2.5,2.5,0,0,1,2.5,2.5"/></g></svg>