<svg id="Multicolor" xmlns="http://www.w3.org/2000/svg" viewBox="0 0 100 112"><defs><style>.cls-1,.cls-6{fill:#fff;}.cls-2{fill:#e8f4fa;}.cls-15,.cls-3{fill:none;}.cls-10,.cls-11,.cls-16,.cls-19,.cls-22,.cls-25,.cls-28,.cls-3,.cls-31,.cls-33,.cls-6,.cls-7,.cls-8,.cls-9{stroke:#191816;}.cls-10,.cls-11,.cls-15,.cls-16,.cls-19,.cls-22,.cls-25,.cls-28,.cls-3,.cls-31,.cls-33,.cls-6,.cls-7,.cls-8,.cls-9{stroke-linecap:round;stroke-linejoin:round;}.cls-4{fill:#00b8f0;}.cls-5{fill:#4acfff;}.cls-17,.cls-7{fill:#c0dceb;}.cls-8{fill:#f7e5c6;}.cls-9{fill:#fff5e3;}.cls-10{fill:#e0e0e0;}.cls-11{fill:#9ceb60;}.cls-12,.cls-21{fill:#191816;}.cls-12{opacity:0.15;}.cls-13{fill:#525252;}.cls-14,.cls-28{fill:#656769;}.cls-15{stroke:#9ceb60;}.cls-16,.cls-27{fill:#87898c;}.cls-18{fill:#adc4d9;}.cls-19{fill:#d18660;}.cls-20{fill:#bd704a;}.cls-22{fill:#724f3d;}.cls-23,.cls-25{fill:#ff6242;}.cls-24{fill:#ff866e;}.cls-26{fill:#bdbec0;}.cls-29,.cls-31{fill:#c8ffa1;}.cls-30{fill:#e4ffd1;}.cls-32{fill:#f0f0f0;}.cls-33{fill:#ffe500;}</style></defs><title>69- web-html-programmer-male-african-american</title><g id="Background"><g id="New_Symbol_39-11" data-name="New Symbol 39"><path class="cls-1" d="M50.34,96A39.94,39.94,0,0,0,85,76H15.73A39.94,39.94,0,0,0,50.34,96Z"/><path class="cls-1" d="M13.91,72.51c.54,1.2,1.17,2.36,1.82,3.5H85c.66-1.14,1.28-2.3,1.83-3.5Z"/><path class="cls-2" d="M90.34,56a40,40,0,1,0-76.43,16.5H86.78A39.85,39.85,0,0,0,90.34,56Z"/><line class="cls-3" x1="11.34" y1="72.51" x2="89.34" y2="72.51"/><line class="cls-3" x1="6.84" y1="72.51" x2="9.34" y2="72.51"/><line class="cls-3" x1="91.34" y1="72.51" x2="93.84" y2="72.51"/></g></g><g id="Scene"><path class="cls-4" d="M65.52,46H78.68a.66.66,0,0,1,.66.66v7.87a0,0,0,0,1,0,0H64.86a0,0,0,0,1,0,0V46.67A.66.66,0,0,1,65.52,46Z"/><path class="cls-5" d="M65.52,46a.67.67,0,0,0-.66.66v7.87h.58L74,46Z"/><path class="cls-3" d="M65.52,46H78.68a.66.66,0,0,1,.66.66v7.87a0,0,0,0,1,0,0H64.86a0,0,0,0,1,0,0V46.67A.66.66,0,0,1,65.52,46Z"/><path class="cls-6" d="M73.16,57H70.53a2.64,2.64,0,0,1-1,2.5h4.62A2.63,2.63,0,0,1,73.16,57Z"/><path class="cls-6" d="M64.86,54.54H79.34a0,0,0,0,1,0,0v1.81a.66.66,0,0,1-.66.66H65.52a.66.66,0,0,1-.66-.66V54.54A0,0,0,0,1,64.86,54.54Z"/><rect class="cls-7" x="49.84" y="56.51" width="2.5" height="3"/><path class="cls-3" d="M52.84,59h-.5V57h.5a1,1,0,0,1,1,1h0A1,1,0,0,1,52.84,59Z"/><path class="cls-8" d="M55.84,56.51h6.58a.69.69,0,0,1,.69.69v1.62a.69.69,0,0,1-.69.69H55.84a0,0,0,0,1,0,0v-3A0,0,0,0,1,55.84,56.51Z"/><path class="cls-9" d="M63.34,55.76a.75.75,0,0,0-.75-.75H58.34v1.5h4.25A.74.74,0,0,0,63.34,55.76Z"/><line class="cls-3" x1="55.84" y1="58.01" x2="60.73" y2="58.01"/><path class="cls-10" d="M80.34,66h1.5a1,1,0,0,1,1,1v5.5a0,0,0,0,1,0,0h-3.5a0,0,0,0,1,0,0V67A1,1,0,0,1,80.34,66Z"/><rect class="cls-11" x="79.34" y="68.01" width="3.5" height="2"/><path class="cls-3" d="M75.34,57.19v.5a1.82,1.82,0,0,0,1.82,1.82h1.37a2.31,2.31,0,0,1,2.31,2.31V66"/><path class="cls-12" d="M58.56,45a.5.5,0,0,0,.4-.8,3.31,3.31,0,0,1-.62-1.93V28.51a.5.5,0,0,0-.5-.5h-12a.5.5,0,0,0-.5.5V42.28a3.37,3.37,0,0,0,1.28,2.63.51.51,0,0,0,.32.1Z"/><path class="cls-13" d="M58.56,43.51a.5.5,0,0,0,.4-.8,3.31,3.31,0,0,1-.62-1.93V27a.5.5,0,0,0-.5-.5h-12a.5.5,0,0,0-.5.5V40.78a3.37,3.37,0,0,0,1.28,2.63.51.51,0,0,0,.32.1Z"/><path class="cls-14" d="M45.35,41a3.34,3.34,0,0,0,1.27,2.39.52.52,0,0,0,.32.11H58.56a.5.5,0,0,0,.4-.8,3.25,3.25,0,0,1-.61-1.7Z"/><circle class="cls-15" cx="51.84" cy="34.51" r="4.5"/><polyline class="cls-15" points="52.84 33.01 54.34 34.51 52.84 36.01"/><polyline class="cls-15" points="50.84 33.01 49.34 34.51 50.84 36.01"/><path class="cls-3" d="M58.56,43.51a.5.5,0,0,0,.4-.8,3.31,3.31,0,0,1-.62-1.93V27a.5.5,0,0,0-.5-.5h-12a.5.5,0,0,0-.5.5V40.78a3.37,3.37,0,0,0,1.28,2.63.51.51,0,0,0,.32.1Z"/><path class="cls-3" d="M58.56,43.51a.5.5,0,0,0,.4-.8,3.31,3.31,0,0,1-.62-1.93V27a.5.5,0,0,0-.5-.5h-12a.5.5,0,0,0-.5.5V40.78a3.37,3.37,0,0,0,1.28,2.63.51.51,0,0,0,.32.1Z"/><path class="cls-3" d="M58.56,43.51a.5.5,0,0,0,.4-.8,3.31,3.31,0,0,1-.62-1.93V27a.5.5,0,0,0-.5-.5h-12a.5.5,0,0,0-.5.5V40.78a3.37,3.37,0,0,0,1.28,2.63.51.51,0,0,0,.32.1Z"/><path class="cls-16" d="M77.84,61.51H48.34a1,1,0,0,1-1-1h0a1,1,0,0,1,1-1h29.5a1,1,0,0,1,1,1h0A1,1,0,0,1,77.84,61.51Z"/><rect class="cls-17" x="48.34" y="61.51" width="2" height="11"/><rect class="cls-18" x="48.34" y="61.51" width="2" height="3"/><rect class="cls-3" x="48.34" y="61.51" width="2" height="11"/><rect class="cls-17" x="75.34" y="61.51" width="2" height="11"/><rect class="cls-18" x="75.34" y="61.51" width="2" height="3"/><rect class="cls-3" x="75.34" y="61.51" width="2" height="11"/><rect class="cls-7" x="50.34" y="68.01" width="25" height="2"/><path class="cls-19" d="M37.27,33a1.42,1.42,0,0,0-1.15-1.38v-.92a6.9,6.9,0,0,0-13.8,0v.92a1.41,1.41,0,0,0,.15,2.79,6.9,6.9,0,0,0,13.51,0A1.43,1.43,0,0,0,37.27,33Z"/><circle class="cls-20" cx="25.48" cy="33.81" r="0.86"/><circle class="cls-20" cx="32.96" cy="33.81" r="0.86"/><path class="cls-21" d="M26.64,31.22a.87.87,0,1,0,.86.87.86.86,0,0,0-.86-.87Z"/><path class="cls-21" d="M31.82,31.22a.87.87,0,1,0,.86.87.87.87,0,0,0-.86-.87Z"/><path class="cls-22" d="M29.22,41.57A15.41,15.41,0,0,0,32,40.85a5.27,5.27,0,0,0,3.57-4L36,34.36a2.3,2.3,0,0,1-2.11,2,3.4,3.4,0,0,1-2.48-.45,4.05,4.05,0,0,0-4.34,0,3.39,3.39,0,0,1-2.48.45,2.29,2.29,0,0,1-2.1-2l.4,2.49a5.29,5.29,0,0,0,3.57,4A15.41,15.41,0,0,0,29.22,41.57Z"/><path class="cls-23" d="M22.33,28.35h13.8a1.06,1.06,0,0,1,.5.12,7.48,7.48,0,0,0-14.81,0A1.13,1.13,0,0,1,22.33,28.35Z"/><path class="cls-24" d="M22.33,28.35h.27a7.47,7.47,0,0,1,13.26,0h.27a1.06,1.06,0,0,1,.5.12,7.48,7.48,0,0,0-14.81,0A1.13,1.13,0,0,1,22.33,28.35Z"/><path class="cls-3" d="M22.33,28.35h13.8a1.06,1.06,0,0,1,.5.12,7.48,7.48,0,0,0-14.81,0A1.13,1.13,0,0,1,22.33,28.35Z"/><path class="cls-25" d="M37.28,29.5a1.15,1.15,0,0,0-1.15-1.15H22.33a1.14,1.14,0,0,0-1.15,1.15h0a1.14,1.14,0,0,0,1.15,1.15h13.8a1.15,1.15,0,0,0,1.15-1.15Z"/><line class="cls-3" x1="24.05" y1="28.35" x2="24.05" y2="30.65"/><line class="cls-3" x1="27.5" y1="28.35" x2="27.5" y2="30.65"/><line class="cls-3" x1="30.95" y1="28.35" x2="30.95" y2="30.65"/><line class="cls-3" x1="34.4" y1="28.35" x2="34.4" y2="30.65"/><path class="cls-26" d="M24.05,81.25h-.57a3.49,3.49,0,0,0-1.73.46V62.85h15V81.71A3.43,3.43,0,0,0,35,81.25H34.4a3.45,3.45,0,0,0-2.93,1.63l-.4-12.49a1.85,1.85,0,0,0-3.69,0L27,82.88A3.46,3.46,0,0,0,24.05,81.25Z"/><path class="cls-27" d="M36.7,62.85v7.47H31.07a1.84,1.84,0,0,0-3.68,0H21.75V62.85Z"/><path class="cls-3" d="M24.05,81.25h-.57a3.49,3.49,0,0,0-1.73.46V62.85h15V81.71A3.43,3.43,0,0,0,35,81.25H34.4a3.45,3.45,0,0,0-2.93,1.63l-.4-12.49a1.85,1.85,0,0,0-3.69,0L27,82.88A3.46,3.46,0,0,0,24.05,81.25Z"/><ellipse class="cls-12" cx="29.23" cy="85.27" rx="14.95" ry="1.73"/><path class="cls-28" d="M21.49,84.7a1.14,1.14,0,0,1-1-1.67,3.45,3.45,0,0,1,3-1.78h.57a3.44,3.44,0,0,1,3,1.78,1.14,1.14,0,0,1-1,1.67Z"/><path class="cls-28" d="M32.41,84.7a1.15,1.15,0,0,1-1-1.67,3.45,3.45,0,0,1,3-1.78H35A3.45,3.45,0,0,1,38,83a1.15,1.15,0,0,1-1,1.67Z"/><path class="cls-29" d="M29.23,42.15a11.5,11.5,0,0,0-11.5,11.5v1.88a1.11,1.11,0,0,1,.57-.16h3.45V65.72h5.18a1.16,1.16,0,0,0,.92-.46l1.38-1.84,1.38,1.84a1.16,1.16,0,0,0,.92.46H36.7V55.37h3.45a1.15,1.15,0,0,1,.58.16V53.65A11.5,11.5,0,0,0,29.23,42.15Z"/><path class="cls-30" d="M29.23,42.15a11.5,11.5,0,0,0-11.5,11.5v1.88l0,0a11.5,11.5,0,0,1,22.91,0l0,0V53.65A11.5,11.5,0,0,0,29.23,42.15Z"/><path class="cls-19" d="M18.3,58.25h3.45v8.91a2,2,0,0,1-4,0V58.1A1.21,1.21,0,0,0,18.3,58.25Z"/><path class="cls-19" d="M40.73,58.25v4.6a2,2,0,0,1-4,0v-4.6Z"/><path class="cls-19" d="M29.23,42.15a11.53,11.53,0,0,1,3.49.54l-3.49,3.48-3.49-3.48A11.48,11.48,0,0,1,29.23,42.15Z"/><line class="cls-3" x1="36.7" y1="51.35" x2="36.7" y2="56.52"/><line class="cls-3" x1="21.75" y1="51.35" x2="21.75" y2="55.37"/><path class="cls-31" d="M17.15,55.37h3.6a1,1,0,0,1,1,1v.88a1,1,0,0,1-1,1h-3.6a0,0,0,0,1,0,0V55.37A0,0,0,0,1,17.15,55.37Z" transform="translate(38.91 113.62) rotate(180)"/><path class="cls-6" d="M36.7,55.37h3.6a1,1,0,0,1,1,1v.88a1,1,0,0,1-1,1H36.7a0,0,0,0,1,0,0V55.37A0,0,0,0,1,36.7,55.37Z"/><path class="cls-31" d="M31.26,48.21l-2-2,3.49-3.48a11.32,11.32,0,0,1,3.7,2l-3.53,3.53A1.15,1.15,0,0,1,31.26,48.21Z"/><path class="cls-31" d="M27.2,48.21l2-2-3.49-3.48a11.32,11.32,0,0,0-3.7,2l3.53,3.53A1.15,1.15,0,0,0,27.2,48.21Z"/><path class="cls-3" d="M29.23,42.15a11.5,11.5,0,0,0-11.5,11.5v1.88a1.11,1.11,0,0,1,.57-.16h3.45V65.72h5.18a1.16,1.16,0,0,0,.92-.46l1.38-1.84,1.38,1.84a1.16,1.16,0,0,0,.92.46H36.7V55.37h3.45a1.15,1.15,0,0,1,.58.16V53.65A11.5,11.5,0,0,0,29.23,42.15Z"/><line class="cls-3" x1="29.23" y1="46.17" x2="29.23" y2="63.42"/><rect class="cls-1" x="32.68" y="50.77" width="13.23" height="8.63" rx="1" ry="1"/><rect class="cls-32" x="32.68" y="53.65" width="13.23" height="5.75" rx="1.15" ry="1.15"/><rect class="cls-3" x="32.68" y="50.77" width="13.23" height="8.63" rx="1" ry="1"/><circle class="cls-33" cx="39.29" cy="55.95" r="1.15"/><line class="cls-3" x1="39.29" y1="53.65" x2="39.87" y2="53.07"/><path class="cls-19" d="M37.52,58.82h3a.81.81,0,0,1,.81.81v.86a1.2,1.2,0,0,1-1.2,1.2h-2.2a1.2,1.2,0,0,1-1.2-1.2v-.86a.81.81,0,0,1,.81-.81Z"/></g></svg>