<svg id="Multicolor" xmlns="http://www.w3.org/2000/svg" viewBox="0 0 100 112"><defs><style>.cls-1,.cls-18{fill:#fff;}.cls-2{fill:#e8f4fa;}.cls-3{fill:none;}.cls-15,.cls-17,.cls-18,.cls-19,.cls-22,.cls-23,.cls-24,.cls-25,.cls-26,.cls-3,.cls-6,.cls-9{stroke:#191816;}.cls-15,.cls-17,.cls-18,.cls-19,.cls-22,.cls-23,.cls-24,.cls-25,.cls-26,.cls-3,.cls-6{stroke-linecap:round;stroke-linejoin:round;}.cls-4{fill:#00b8f0;}.cls-5{fill:#4acfff;}.cls-14,.cls-6{fill:#ffcebf;}.cls-7{fill:#ffaa54;}.cls-8{fill:#fc9;}.cls-10,.cls-9{fill:#191816;}.cls-9{stroke-miterlimit:10;stroke-width:0;opacity:0.15;}.cls-11{fill:#ffb59e;}.cls-12{fill:#a86c4d;}.cls-13{fill:#de926a;}.cls-15{fill:#947746;}.cls-16{fill:#f0f0f0;}.cls-17{fill:#ffe500;}.cls-19{fill:#87898c;}.cls-20,.cls-22{fill:#c0dceb;}.cls-21{fill:#adc4d9;}.cls-23{fill:#f7e5c6;}.cls-24{fill:#fff5e3;}.cls-25{fill:#e0e0e0;}.cls-26{fill:#9ceb60;}</style></defs><title>75- web-html-developer</title><g id="Background"><g id="New_Symbol_39-2" data-name="New Symbol 39"><path class="cls-1" d="M50.34,96a39.93,39.93,0,0,0,34.6-20H15.73A39.94,39.94,0,0,0,50.34,96Z"/><path class="cls-1" d="M13.9,72.5c.55,1.2,1.17,2.36,1.83,3.5H84.94a38.79,38.79,0,0,0,1.83-3.5Z"/><path class="cls-2" d="M90.34,56A40,40,0,1,0,13.9,72.5H86.77A39.7,39.7,0,0,0,90.34,56Z"/><line class="cls-3" x1="11.34" y1="72.5" x2="89.34" y2="72.5"/><line class="cls-3" x1="6.84" y1="72.5" x2="9.34" y2="72.5"/><line class="cls-3" x1="91.34" y1="72.5" x2="93.84" y2="72.5"/></g></g><g id="Scene"><path class="cls-4" d="M65.64,45.93H78.47a.66.66,0,0,1,.66.66v7.87a0,0,0,0,1,0,0H65a0,0,0,0,1,0,0V46.59A.66.66,0,0,1,65.64,45.93Z"/><path class="cls-5" d="M65.64,45.93a.66.66,0,0,0-.67.66v7.87h.59l8.52-8.53Z"/><path class="cls-6" d="M30.34,29.43a6,6,0,0,0-6,6v.8a1.22,1.22,0,0,0,.13,2.42,6,6,0,0,0,11.87-1.22v-2A6,6,0,0,0,30.34,29.43Z"/><path class="cls-5" d="M23.84,63.93v17.5a1,1,0,0,0,1,1h3.5l.39-12.38a1.66,1.66,0,0,1,1.2-1.57,1.6,1.6,0,0,1,2,1.5l.37,11.48a1,1,0,0,0,1,1h3.53V63.93Z"/><rect class="cls-4" x="23.84" y="63.93" width="13" height="2.5"/><path class="cls-3" d="M23.84,63.93v17.5a1,1,0,0,0,1,1h3.5l.39-12.38a1.66,1.66,0,0,1,1.2-1.57,1.6,1.6,0,0,1,2,1.5l.37,11.48a1,1,0,0,0,1,1h3.53V63.93Z"/><path class="cls-2" d="M39.34,54.93v1.5h-2.5v7.5h-13v-7.5h-3.5v-1.5a9.51,9.51,0,0,1,3.83-7.63h0a9.59,9.59,0,0,1,5.66-1.86,9.43,9.43,0,0,1,6.83,2.9h0A9.45,9.45,0,0,1,39.34,54.93Z"/><path class="cls-1" d="M36.68,48.34h0a9.43,9.43,0,0,0-6.83-2.9,9.59,9.59,0,0,0-5.66,1.86h0a9.51,9.51,0,0,0-3.83,7.63v1.5h.09a9.48,9.48,0,0,1,3.74-6.38h0a9.59,9.59,0,0,1,5.66-1.86,9.43,9.43,0,0,1,6.83,2.9h0a9.4,9.4,0,0,1,2.57,5.34h.09v-1.5A9.45,9.45,0,0,0,36.68,48.34Z"/><path class="cls-3" d="M39.34,54.93v1.5h-2.5v7.5h-13v-7.5h-3.5v-1.5a9.51,9.51,0,0,1,3.83-7.63h0a9.59,9.59,0,0,1,5.66-1.86,9.43,9.43,0,0,1,6.83,2.9h0A9.45,9.45,0,0,1,39.34,54.93Z"/><path class="cls-7" d="M36.84,56.43v7.5h-13v-7.5a17.52,17.52,0,0,0,.33-9.13h0a8,8,0,0,1,.68-.45,6.22,6.22,0,0,1,.56-.32h0c.2-.11.41-.21.62-.3l.07,0,.29-.11.15-.06h0l.82,2.49,2.94,8.92,3-8.59.83-2.38a3.3,3.3,0,0,1,.32.18,6,6,0,0,1,.6.36l.54.38c.2.16.4.32.58.49s.33.3.48.46h0a18.49,18.49,0,0,0-.33,2.43,17,17,0,0,0,.29,4.76Z"/><path class="cls-8" d="M27.4,48.51a9.46,9.46,0,0,0-2.84,1.27,16.65,16.65,0,0,0-.39-2.48h0a8,8,0,0,1,.68-.45,6.22,6.22,0,0,1,.56-.32h0c.2-.11.41-.21.62-.3l.07,0,.29-.11.15,0Z"/><path class="cls-8" d="M36.68,48.34a18.49,18.49,0,0,0-.33,2.43,9.21,9.21,0,0,0-3-1.93l.83-2.38a3.3,3.3,0,0,1,.32.18,6,6,0,0,1,.6.36l.54.38c.2.16.4.32.58.49s.33.3.48.46Z"/><path class="cls-3" d="M36.84,56.43v7.5h-13v-7.5a17.15,17.15,0,0,0,.33-9.13h0a9.53,9.53,0,0,1,1.89-1.08l.51-.2,3.76,11.42,3.81-11a3.3,3.3,0,0,1,.32.18,9.34,9.34,0,0,1,2.2,1.69h0a18.13,18.13,0,0,0,0,7.19Z"/><ellipse class="cls-9" cx="30.34" cy="82.93" rx="13" ry="1.5"/><path class="cls-10" d="M29.59,35.43a.75.75,0,1,0,.75.75.75.75,0,0,0-.75-.75Z"/><path class="cls-10" d="M33.59,35.43a.75.75,0,1,0,.75.75.75.75,0,0,0-.75-.75Z"/><circle class="cls-11" cx="27.59" cy="38.18" r="0.75"/><path class="cls-3" d="M29.84,40a2.69,2.69,0,0,0,3,0"/><path class="cls-12" d="M36.84,33.93a6.5,6.5,0,0,0-13,0v2a5.15,5.15,0,0,0,3.5-3C30.14,34.81,33.84,34.43,36.84,33.93Z"/><path class="cls-13" d="M30.34,29.93a6.5,6.5,0,0,1,6,4.07l.47-.07a6.5,6.5,0,0,0-13,0v2h0A6.51,6.51,0,0,1,30.34,29.93Z"/><path class="cls-3" d="M36.84,33.93a6.5,6.5,0,0,0-13,0v2a5.15,5.15,0,0,0,3.5-3C30.14,34.81,33.84,34.43,36.84,33.93Z"/><path class="cls-3" d="M26.34,31.93a3.32,3.32,0,0,0,1,1"/><path class="cls-14" d="M20.34,66.68a1.75,1.75,0,0,0,3.5,0V56.43h-3.5Z"/><rect class="cls-11" x="20.34" y="56.43" width="3.5" height="2"/><path class="cls-3" d="M20.34,66.68a1.75,1.75,0,0,0,3.5,0V56.43h-3.5Z"/><line class="cls-3" x1="36.84" y1="56.43" x2="36.84" y2="53.43"/><path class="cls-15" d="M39.24,82.43a3,3,0,0,0-3-3h-4v2a1,1,0,0,0,1,1Z"/><path class="cls-15" d="M30.84,82.43a3,3,0,0,0-3-3h-4v2a1,1,0,0,0,1,1Z"/><path class="cls-6" d="M32.72,45.87l-2.38,3.06-2.46-3.29a9.05,9.05,0,0,1,2-.21A9.48,9.48,0,0,1,32.72,45.87Z"/><line class="cls-3" x1="30.34" y1="57.43" x2="30.34" y2="63.93"/><rect class="cls-1" x="33.34" y="52.43" width="11.5" height="7.5" rx="1" ry="1"/><rect class="cls-16" x="33.34" y="54.93" width="11.5" height="5" rx="1" ry="1"/><rect class="cls-3" x="33.34" y="52.43" width="11.5" height="7.5" rx="1" ry="1"/><circle class="cls-17" cx="39.09" cy="56.93" r="1"/><line class="cls-3" x1="39.09" y1="54.93" x2="39.59" y2="54.43"/><path class="cls-6" d="M37.65,59.43H40a.81.81,0,0,1,.81.81v.49a1.2,1.2,0,0,1-1.2,1.2H38a1.2,1.2,0,0,1-1.2-1.2v-.49A.81.81,0,0,1,37.65,59.43Z"/><path class="cls-18" d="M34.47,46.64l-.79,2.65a1,1,0,0,1-1.41.6l-1.93-1,2.38-3.06a11.11,11.11,0,0,1,1.74.75Z"/><path class="cls-18" d="M30.34,48.93l-1.94,1a1,1,0,0,1-1.4-.61l-.93-3.08.51-.2a8.38,8.38,0,0,1,1.3-.37Z"/><line class="cls-3" x1="30.34" y1="48.93" x2="30.34" y2="50.93"/><path class="cls-4" d="M34.84,37.43H33.66a1,1,0,0,1-1-.81l-.22-1.09a.5.5,0,0,1,.49-.6h2.39a.5.5,0,0,1,.5.5v1A1,1,0,0,1,34.84,37.43Z"/><path class="cls-5" d="M33,34.93a.5.5,0,0,0-.49.6l.22,1.09a1,1,0,0,0,.47.65l1.64-2.34Z"/><path class="cls-4" d="M29.52,37.43H28.34a1,1,0,0,1-1-1v-1a.5.5,0,0,1,.5-.5h2.39a.5.5,0,0,1,.49.6l-.22,1.09A1,1,0,0,1,29.52,37.43Z"/><path class="cls-5" d="M27.84,34.93a.5.5,0,0,0-.5.5v1a1,1,0,0,0,.51.85L30,34.93Z"/><path class="cls-3" d="M34.84,37.43H33.66a1,1,0,0,1-1-.81l-.22-1.09a.5.5,0,0,1,.49-.6h2.39a.5.5,0,0,1,.5.5v1A1,1,0,0,1,34.84,37.43Z"/><path class="cls-3" d="M29.52,37.43H28.34a1,1,0,0,1-1-1v-1a.5.5,0,0,1,.5-.5h2.39a.5.5,0,0,1,.49.6l-.22,1.09A1,1,0,0,1,29.52,37.43Z"/><line class="cls-3" x1="30.84" y1="35.93" x2="32.34" y2="35.93"/><path class="cls-19" d="M78.34,61.43H48.84a1,1,0,0,1-1-1h0a1,1,0,0,1,1-1h29.5a1,1,0,0,1,1,1h0A1,1,0,0,1,78.34,61.43Z"/><rect class="cls-20" x="48.84" y="61.43" width="2" height="11"/><rect class="cls-21" x="48.84" y="61.43" width="2" height="3"/><rect class="cls-3" x="48.84" y="61.43" width="2" height="11"/><rect class="cls-20" x="75.84" y="61.43" width="2" height="11"/><rect class="cls-21" x="75.84" y="61.43" width="2" height="3"/><rect class="cls-3" x="75.84" y="61.43" width="2" height="11"/><rect class="cls-22" x="50.84" y="67.93" width="25" height="2"/><path class="cls-3" d="M65.64,45.93H78.47a.66.66,0,0,1,.66.66v7.87a0,0,0,0,1,0,0H65a0,0,0,0,1,0,0V46.59A.66.66,0,0,1,65.64,45.93Z"/><path class="cls-18" d="M74.29,59.43H69.65a2.24,2.24,0,0,0,1-1.86v-.46h2.65v.46a2.25,2.25,0,0,0,1,1.86Z"/><path class="cls-18" d="M65,54.46H79.14a0,0,0,0,1,0,0v2a.66.66,0,0,1-.66.66H65.64a.66.66,0,0,1-.66-.66v-2A0,0,0,0,1,65,54.46Z"/><path class="cls-22" d="M50.34,56.43h1.5a.5.5,0,0,1,.5.5v2.5a0,0,0,0,1,0,0h-2.5a0,0,0,0,1,0,0v-2.5A.5.5,0,0,1,50.34,56.43Z"/><path class="cls-3" d="M52.84,58.93h-.5v-2h.5a1,1,0,0,1,1,1h0A1,1,0,0,1,52.84,58.93Z"/><path class="cls-23" d="M55.84,56.66h6.58a.69.69,0,0,1,.69.69v1.38a.69.69,0,0,1-.69.69H55.84a0,0,0,0,1,0,0V56.66A0,0,0,0,1,55.84,56.66Z"/><path class="cls-24" d="M62.24,54.93H58.76a.5.5,0,0,0-.5.5v1.23h4a.87.87,0,0,0,.87-.87h0A.86.86,0,0,0,62.24,54.93Z"/><line class="cls-3" x1="55.84" y1="58.04" x2="60.72" y2="58.04"/><path class="cls-10" d="M70,49.48a.54.54,0,0,0-.25.08l-1.91.88a.27.27,0,0,0-.18.27.28.28,0,0,0,.18.28l1.91.88a.48.48,0,0,0,.25.07c.12,0,.23-.1.23-.3a.25.25,0,0,0-.18-.25l-1.61-.68L70,50a.25.25,0,0,0,.18-.25c0-.2-.11-.31-.23-.31Z"/><path class="cls-10" d="M72.57,48.43a.27.27,0,0,0-.27.18L71,51.6a.58.58,0,0,0-.05.13.28.28,0,0,0,.29.27.25.25,0,0,0,.27-.18l1.3-3a.43.43,0,0,0,0-.14.27.27,0,0,0-.29-.26Z"/><path class="cls-10" d="M73.8,49.48c-.12,0-.23.11-.23.31a.24.24,0,0,0,.17.25l1.62.67-1.62.68a.24.24,0,0,0-.17.25c0,.2.11.3.23.3a.48.48,0,0,0,.24-.07L76,51a.28.28,0,0,0,.18-.28.27.27,0,0,0-.18-.27L74,49.56a.55.55,0,0,0-.24-.08Z"/><path class="cls-25" d="M80.84,65.93h1.5a1,1,0,0,1,1,1v5.5a0,0,0,0,1,0,0h-3.5a0,0,0,0,1,0,0v-5.5A1,1,0,0,1,80.84,65.93Z"/><rect class="cls-26" x="79.84" y="67.93" width="3.5" height="2"/><path class="cls-3" d="M75.84,57.11v.5a1.82,1.82,0,0,0,1.82,1.82H79a2.31,2.31,0,0,1,2.31,2.31v4.19"/><path class="cls-3" d="M44.84,58.93h0a1.5,1.5,0,0,1,1.5,1.5V76.29A5.64,5.64,0,0,0,52,81.93h7.61a2.25,2.25,0,0,0,2.25-2.25h0a2.25,2.25,0,0,0-2.25-2.25h-1.5a1.25,1.25,0,0,1-1.25-1.25h0a1.25,1.25,0,0,1,1.25-1.25H78.34a2.5,2.5,0,0,0,2.5-2.5h0"/><path class="cls-18" d="M55.34,82.93h-2a1,1,0,0,1-1-1h0a1,1,0,0,1,1-1h2a1,1,0,0,1,1,1h0A1,1,0,0,1,55.34,82.93Z"/></g></svg>