<svg id="Multicolor" xmlns="http://www.w3.org/2000/svg" viewBox="0 0 100 112"><defs><style>.cls-1{fill:#e8f4fa;}.cls-2{fill:#6dd627;}.cls-10,.cls-15,.cls-18,.cls-2,.cls-21,.cls-4,.cls-5,.cls-7,.cls-8,.cls-9{stroke:#191816;stroke-linejoin:round;}.cls-3{fill:#c8ffa1;}.cls-18,.cls-4{fill:#fff;}.cls-5{fill:#ffe500;}.cls-6{fill:#191816;opacity:0.15;}.cls-11,.cls-7{fill:#ffda8f;}.cls-10,.cls-15,.cls-18,.cls-21,.cls-7,.cls-8,.cls-9{stroke-linecap:round;}.cls-8{fill:none;}.cls-9{fill:#915e3a;}.cls-10,.cls-16{fill:#ff6242;}.cls-12{fill:#ffbe3d;}.cls-13,.cls-15{fill:#fff5e3;}.cls-14{fill:#f7e5c6;}.cls-17{fill:#ff866e;}.cls-19,.cls-21{fill:#614b44;}.cls-20{fill:#947063;}</style></defs><title>86- business-income-female-asian</title><g id="New_Symbol_53-27" data-name="New Symbol 53"><circle class="cls-1" cx="50" cy="56" r="40"/></g><path class="cls-2" d="M38.57,48a1.15,1.15,0,0,0-.13-1.73,28.64,28.64,0,0,1-6.19-6.18,1.12,1.12,0,0,0-.84-.46,1.11,1.11,0,0,0-.89.33l-.65.65-1.74,1.74A1.15,1.15,0,0,0,28,43.86a28.84,28.84,0,0,0,6.71,6.7,1.13,1.13,0,0,0,1.46-.13l1.75-1.74Z"/><path class="cls-3" d="M33.9,46.28a1.14,1.14,0,0,1-1.61-1.61,1.13,1.13,0,0,1,1.61,0A1.15,1.15,0,0,1,33.9,46.28Z"/><path class="cls-2" d="M82,51.73a1.18,1.18,0,0,0-.69-.66,1.13,1.13,0,0,0-1,.09,27.19,27.19,0,0,1-4,1.91,28.06,28.06,0,0,1-4.19,1.29,1.15,1.15,0,0,0-.76.58,1.17,1.17,0,0,0,0,1l.33.85.91,2.3a1.11,1.11,0,0,0,1.29.69,28.17,28.17,0,0,0,4.55-1.36,28.69,28.69,0,0,0,4.27-2.1,1.13,1.13,0,0,0,.47-1.39l-.9-2.3Z"/><path class="cls-3" d="M78.54,55.3a1.14,1.14,0,0,1-.64,1.48,1.14,1.14,0,1,1,.64-1.48Z"/><path class="cls-4" d="M86,6.08a2.41,2.41,0,0,0-2.41-2.41H57.12a2.41,2.41,0,0,0-2.41,2.41V24.73a2.41,2.41,0,0,0,2.41,2.41h8.42v3.6a1,1,0,0,0,.62.92,1,1,0,0,0,1.09-.21l4.31-4.31h12A2.41,2.41,0,0,0,86,24.73Z"/><path class="cls-2" d="M38.19,28.58a1.15,1.15,0,0,0-1-1.38,28.45,28.45,0,0,1-4.35-.61,28.76,28.76,0,0,1-4.2-1.26,1.13,1.13,0,0,0-1,.06,1.15,1.15,0,0,0-.58.76l-.19.89-.53,2.41a1.13,1.13,0,0,0,.69,1.3,29.32,29.32,0,0,0,4.55,1.4,28.29,28.29,0,0,0,4.71.62,1.14,1.14,0,0,0,1.17-.89L38,29.47Z"/><path class="cls-3" d="M33.3,29.61a1.14,1.14,0,1,1-.86-1.35A1.13,1.13,0,0,1,33.3,29.61Z"/><path class="cls-2" d="M26,50.78a1.1,1.1,0,0,0-.7-.65,1.15,1.15,0,0,0-.94.11,28.82,28.82,0,0,1-8.09,3.34,1.16,1.16,0,0,0-.74.59,1.13,1.13,0,0,0,0,.95l.35.85.94,2.28a1.14,1.14,0,0,0,1.31.68,28.37,28.37,0,0,0,4.53-1.45,29.08,29.08,0,0,0,4.23-2.18,1.13,1.13,0,0,0,.45-1.39l-1-2.28Z"/><path class="cls-3" d="M22.56,54.42a1.14,1.14,0,0,1-2.1.87,1.14,1.14,0,1,1,2.1-.87Z"/><path class="cls-2" d="M75.58,39.81a1.14,1.14,0,0,0-1.28-1.17,27.6,27.6,0,0,1-4.38.2,28.24,28.24,0,0,1-4.36-.48,1.15,1.15,0,0,0-.93.23,1.13,1.13,0,0,0-.42.85l0,.92-.08,2.47A1.13,1.13,0,0,0,65,44a28.18,28.18,0,0,0,4.73.54,27.53,27.53,0,0,0,4.74-.24,1.14,1.14,0,0,0,1-1.09l.08-2.46Z"/><path class="cls-3" d="M71,41.72a1.14,1.14,0,1,1-2.27-.08,1.14,1.14,0,1,1,2.27.08Z"/><path class="cls-5" d="M70.35,22.82a1.16,1.16,0,0,1-1.15-1.16V21a3.53,3.53,0,0,1-2.35-3.29,1.16,1.16,0,0,1,2.31,0,1.2,1.2,0,1,0,1.19-1.19,3.48,3.48,0,0,1-2.47-1,3.43,3.43,0,0,1-1-2.47A3.5,3.5,0,0,1,69.2,9.77V9.15a1.18,1.18,0,0,1,.33-.82,1.15,1.15,0,0,1,2,.81v.62a3.46,3.46,0,0,1,2.34,3.3,1.15,1.15,0,1,1-2.3,0,1.2,1.2,0,0,0-1.19-1.2,1.2,1.2,0,0,0-1.2,1.2,1.2,1.2,0,0,0,1.19,1.19,3.51,3.51,0,0,1,2.48,6,3.44,3.44,0,0,1-1.32.81v.62a1.16,1.16,0,0,1-1.16,1.16Z"/><ellipse class="cls-6" cx="50.3" cy="92.23" rx="11.5" ry="1.73"/><polygon class="cls-7" points="43.97 70.37 46.25 91.64 54.3 91.64 56.62 70.37 43.97 70.37"/><line class="cls-8" x1="50.28" y1="74.98" x2="50.28" y2="91.64"/><polygon class="cls-8" points="43.97 70.37 46.25 91.64 54.3 91.64 56.62 70.37 43.97 70.37"/><path class="cls-9" d="M50.3,91.65a3.46,3.46,0,0,0-3.45-3.45h-.58a3.47,3.47,0,0,0-3,1.73,1.18,1.18,0,0,0,0,1.15,1.15,1.15,0,0,0,1,.57Z"/><path class="cls-9" d="M50.3,91.65a3.45,3.45,0,0,1,3.45-3.45h.57a3.45,3.45,0,0,1,3,1.73,1.15,1.15,0,0,1-1,1.72Z"/><polygon class="cls-10" points="43.97 70.37 44.55 80.73 56.05 80.73 56.62 70.37 56.62 68.66 43.97 68.66 43.97 70.37"/><path class="cls-11" d="M40,59.45a7.48,7.48,0,0,1-7.48,7.48v0a1.33,1.33,0,0,0-.28,0,2,2,0,1,0,0,4l.28,0v0A11.5,11.5,0,0,0,44,59.45Z"/><path class="cls-12" d="M43.74,61.75a11.57,11.57,0,0,0,.23-2.3H40a7.25,7.25,0,0,1-.37,2.3Z"/><path class="cls-8" d="M40,59.45a7.48,7.48,0,0,1-7.48,7.48v0a1.33,1.33,0,0,0-.28,0,2,2,0,1,0,0,4l.28,0v0A11.5,11.5,0,0,0,44,59.45Z"/><path class="cls-11" d="M60.65,59.45a7.47,7.47,0,0,0,7.47,7.48v0a1.43,1.43,0,0,1,.29,0,2,2,0,1,1,0,4l-.29,0v0a11.5,11.5,0,0,1-11.5-11.5Z"/><path class="cls-12" d="M56.85,61.75a11.57,11.57,0,0,1-.23-2.3h4a7.53,7.53,0,0,0,.36,2.3Z"/><path class="cls-8" d="M60.65,59.45a7.47,7.47,0,0,0,7.47,7.48v0a1.43,1.43,0,0,1,.29,0,2,2,0,1,1,0,4l-.29,0v0a11.5,11.5,0,0,1-11.5-11.5Z"/><path class="cls-13" d="M32.57,70.43H31.19C29.8,74.58,25,76.66,25,82.19c0,3.44,2.77,5.54,6.92,5.54s6.92-2.1,6.92-5.54C38.8,76.66,34,74.58,32.57,70.43Z"/><path class="cls-14" d="M31.88,84.27c-3.5,0-6-1.51-6.7-4a8.71,8.71,0,0,0-.22,2c0,3.44,2.77,5.54,6.92,5.54s6.92-2.1,6.92-5.54a8.71,8.71,0,0,0-.22-2C37.88,82.76,35.38,84.27,31.88,84.27Z"/><path class="cls-15" d="M35.34,62.13a9,9,0,0,1-6.92,0L31.19,67h1.38Z"/><path class="cls-8" d="M32.57,70.43H31.19C29.8,74.58,25,76.66,25,82.19c0,3.44,2.77,5.54,6.92,5.54s6.92-2.1,6.92-5.54C38.8,76.66,34,74.58,32.57,70.43Z"/><path class="cls-7" d="M31.88,66.67a2.08,2.08,0,0,1,0,4.15H29.8a.69.69,0,0,1-.69-.69V67.36a.69.69,0,0,1,.69-.69Z"/><path class="cls-13" d="M69.19,70.43H67.81c-1.38,4.15-6.23,6.23-6.23,11.76,0,3.44,2.77,5.54,6.92,5.54s6.92-2.1,6.92-5.54C75.42,76.66,70.58,74.58,69.19,70.43Z"/><path class="cls-14" d="M68.5,84.27c-3.5,0-6-1.51-6.7-4a8.71,8.71,0,0,0-.22,2c0,3.44,2.77,5.54,6.92,5.54s6.92-2.1,6.92-5.54a8.71,8.71,0,0,0-.22-2C74.5,82.76,72,84.27,68.5,84.27Z"/><path class="cls-15" d="M72,62.13a9,9,0,0,1-6.92,0L67.81,67h1.38Z"/><path class="cls-8" d="M69.19,70.43H67.81c-1.38,4.15-6.23,6.23-6.23,11.76,0,3.44,2.77,5.54,6.92,5.54s6.92-2.1,6.92-5.54C75.42,76.66,70.58,74.58,69.19,70.43Z"/><path class="cls-7" d="M67.81,66.67a2.08,2.08,0,1,0,0,4.15h2.08a.69.69,0,0,0,.69-.69V67.36a.69.69,0,0,0-.69-.69Z"/><path class="cls-16" d="M60.65,59.45a10.35,10.35,0,0,0-20.7,0h4V70.38l4.6,1.72,1.73-2.87L52,72.1l4.6-1.72V59.45Z"/><path class="cls-17" d="M50.3,52a10.35,10.35,0,0,1,10,7.49h.4a10.35,10.35,0,0,0-20.7,0h.4A10.35,10.35,0,0,1,50.3,52Z"/><path class="cls-8" d="M60.65,59.45a10.35,10.35,0,0,0-20.7,0h4V70.38l4.6,1.72,1.73-2.87L52,72.1l4.6-1.72V59.45Z"/><path class="cls-8" d="M44,59.45a3.46,3.46,0,0,0-.63-2,3.45,3.45,0,0,1-.52-1.88"/><path class="cls-8" d="M56.62,59.45a3.4,3.4,0,0,1,.64-2,3.45,3.45,0,0,0,.51-1.88"/><line class="cls-8" x1="50.3" y1="58.88" x2="50.3" y2="69.23"/><path class="cls-18" d="M53.69,49.68l-3.39,9.2-3.39-9.2a10.2,10.2,0,0,1,6.78,0Z"/><path class="cls-8" d="M45.7,56l.57-2.87L43.4,54.28V51.75a10,10,0,0,1,3.51-2.07l3.39,9.2Z"/><path class="cls-8" d="M57.2,54.28l-2.88-1.15L54.9,56l-4.6,2.88,3.39-9.2a10,10,0,0,1,3.51,2.07Z"/><path class="cls-18" d="M50.3,49.1l2.07,4.16,1.32-3.58A10.06,10.06,0,0,0,50.3,49.1Z"/><path class="cls-18" d="M50.3,49.1l-2.07,4.16-1.32-3.58A10,10,0,0,1,50.3,49.1Z"/><path class="cls-19" d="M54.36,28.57a8,8,0,0,0-3.63-1.05,8.33,8.33,0,0,0-4.67,1.05,8.68,8.68,0,0,0-4.48,7.57V47a.57.57,0,0,0,.6.58,3.52,3.52,0,0,0,3.55-3.44V38.56A2.77,2.77,0,0,1,48.5,35.8h3.43a2.77,2.77,0,0,1,2.76,2.76V44.1a3.52,3.52,0,0,0,3.55,3.44.58.58,0,0,0,.61-.58V36.14A8.7,8.7,0,0,0,54.36,28.57Z"/><path class="cls-20" d="M54.36,28.57a8,8,0,0,0-3.63-1.05,8.33,8.33,0,0,0-4.67,1.05,8.68,8.68,0,0,0-4.48,7.57V39.4a8.7,8.7,0,0,1,4.48-7.58,8.32,8.32,0,0,1,4.67-1,7.86,7.86,0,0,1,3.63,1,8.73,8.73,0,0,1,4.49,7.58V36.14A8.7,8.7,0,0,0,54.36,28.57Z"/><path class="cls-8" d="M54.36,28.57a8,8,0,0,0-3.63-1.05,8.33,8.33,0,0,0-4.67,1.05,8.68,8.68,0,0,0-4.48,7.57V47a.57.57,0,0,0,.6.58,3.52,3.52,0,0,0,3.55-3.44V38.56A2.77,2.77,0,0,1,48.5,35.8h3.43a2.77,2.77,0,0,1,2.76,2.76V44.1a3.52,3.52,0,0,0,3.55,3.44.58.58,0,0,0,.61-.58V36.14A8.7,8.7,0,0,0,54.36,28.57Z"/><path class="cls-7" d="M46.67,34.69A1.38,1.38,0,0,0,45,35.6l-1.72,2.92c-2,0-1.84,3.45.35,3.45h0a6.86,6.86,0,0,0,13.1,0h0c2.18,0,2.31-3.45.34-3.45l-1.73-2.93a1.39,1.39,0,0,0-1.65-.9Z"/><path class="cls-12" d="M47.45,40.87a.69.69,0,1,1-.69-.69A.69.69,0,0,1,47.45,40.87Z"/><path class="cls-12" d="M54.35,40.87a.69.69,0,1,1-.69-.69A.69.69,0,0,1,54.35,40.87Z"/><path class="cls-8" d="M48.49,42.83a3.1,3.1,0,0,0,3.45,0"/><path class="cls-8" d="M47.43,38.87a.83.83,0,0,1,1.15,0"/><path class="cls-8" d="M52,38.87a.83.83,0,0,1,1.15,0"/><path class="cls-21" d="M56,33.76v1.72a1.14,1.14,0,0,1-1.15,1.15H45.6a1.15,1.15,0,0,1-1.15-1.15V33.76"/><line class="cls-8" x1="47.33" y1="36.63" x2="47.33" y2="33.76"/><line class="cls-8" x1="50.2" y1="36.63" x2="50.2" y2="33.76"/><line class="cls-8" x1="53.08" y1="36.63" x2="53.08" y2="33.76"/></svg>