<svg viewBox="0 0 100 100" xmlns="http://www.w3.org/2000/svg"><path d="m90 50a40 40 0 1 0 -76.44 16.5h72.88a39.85 39.85 0 0 0 3.56-16.5z" fill="#e8f4fa"/><path d="m13.56 66.5a40 40 0 0 0 72.88 0z" fill="#fff"/><path d="m11 66.5h78" fill="none" stroke="#45413c" stroke-linecap="round" stroke-linejoin="round"/><path d="m6.5 66.5h2.5" fill="none" stroke="#45413c" stroke-linecap="round" stroke-linejoin="round"/><path d="m91 66.5h2.5" fill="none" stroke="#45413c" stroke-linecap="round" stroke-linejoin="round"/><rect fill="#00b8f0" height="34.5" rx="3.6" width="48.3" x="23.15" y="35.36"/><path d="m52.36 35.36h-25.07a4.14 4.14 0 0 0 -4.14 4.15v25.07z" fill="#4acfff"/><path d="m37 56.76a2.77 2.77 0 0 1 -2.81-2.76v-.45l-2.76 2.75v.46a2.77 2.77 0 0 0 2.76 2.76h34.5a2.77 2.77 0 0 0 2.76-2.76z" fill="#009fd9"/><path d="m34.19 35.37h-2.76v20.93l2.76-2.76z" fill="#009fd9"/><rect fill="none" height="34.5" rx="3.6" stroke="#45413c" stroke-linecap="round" stroke-linejoin="round" width="48.3" x="23.15" y="35.36"/><path d="m67.31 69.86a4.14 4.14 0 0 0 4.14-4.13v-1.38h-48.3v1.38a4.13 4.13 0 0 0 4.14 4.13z" fill="#fff" stroke="#45413c" stroke-linecap="round" stroke-linejoin="round"/><path d="m51.44 75.39h-8.28l.69-5.53h6.9z" fill="#e0e0e0"/><path d="m51.01 71.94h-7.42l.26-2.08h6.9z" fill="#87898c"/><g stroke="#45413c" stroke-linejoin="round"><path d="m51.44 75.39h-8.28l.69-5.53h6.9z" fill="none" stroke-linecap="round"/><path d="m56.27 78.15h-17.94a2.75 2.75 0 0 1 2.76-2.76h12.42a2.76 2.76 0 0 1 2.76 2.76z" fill="#fff" stroke-linecap="round"/><path d="m34.19 30.54h40a0 0 0 0 1 0 0v23.82a2.4 2.4 0 0 1 -2.4 2.4h-35.2a2.4 2.4 0 0 1 -2.4-2.4v-23.82a0 0 0 0 1 0 0z" fill="#daedf7" stroke-linecap="round"/><path d="m36.59 22.26h35.22a2.4 2.4 0 0 1 2.4 2.4v5.88a0 0 0 0 1 0 0h-40a0 0 0 0 1 0 0v-5.89a2.4 2.4 0 0 1 2.38-2.39z" fill="#fff" stroke-linecap="round"/><circle cx="38.33" cy="26.4" fill="#ff6242" r="1.38" stroke-linecap="round"/><circle cx="43.85" cy="26.4" fill="#fff48c" r="1.38" stroke-linecap="round"/><circle cx="49.37" cy="26.4" fill="#6dd627" r="1.38" stroke-linecap="round"/><rect fill="#6dd627" height="5.52" rx="1" stroke-linecap="round" width="5.52" x="46.61" y="38.81"/><rect fill="#ff6242" height="5.52" rx="1" stroke-linecap="round" width="5.52" x="55.58" y="38.81"/><rect fill="#6dd627" height="5.52" rx="1" stroke-linecap="round" width="5.52" x="64.55" y="38.81"/><rect fill="#ff6242" height="5.52" rx="1" stroke-linecap="round" width="5.52" x="46.61" y="47.1"/><rect fill="#6dd627" height="5.52" rx="1" stroke-linecap="round" width="5.52" x="55.58" y="47.1"/><rect fill="#ffe500" height="5.52" rx="1" stroke-linecap="round" width="5.52" x="64.55" y="47.1"/><rect fill="#00b8f0" height="2.76" rx="1" stroke-linecap="round" width="5.52" x="38.33" y="33.3"/><rect fill="#00b8f0" height="2.76" rx="1" width="23.46" x="46.61" y="33.3"/><path d="m38.33 38.81h5.52" fill="none" stroke-linecap="round"/><path d="m38.33 41.57h5.52" fill="none" stroke-linecap="round"/><path d="m38.33 44.34h5.52" fill="none" stroke-linecap="round"/><path d="m38.33 47.1h5.52" fill="none" stroke-linecap="round"/><path d="m38.33 49.85h5.52" fill="none" stroke-linecap="round"/><path d="m38.33 52.61h3.45" fill="none" stroke-linecap="round"/><path d="m83.18 67.72c-.2.73-.6.76-.89.06l-4.53-10.87c-.29-.7 0-1 .75-.74l10.86 4.53c.7.29.67.69-.06.89l-3.48.95a2.7 2.7 0 0 0 -1.7 1.69z" fill="#fff"/><circle cx="47.3" cy="67.1" fill="#daedf7" r=".58" stroke-linecap="round"/></g></svg>