<svg height="24" viewBox="0 0 24 24" width="24" xmlns="http://www.w3.org/2000/svg"><path d="m21.5 17.5-10 6-10-6v-17h20z" fill="#fff"/><path d="m19.833 16-8.333 5-8.333-5-1.563 1.563 9.896 5.937 9.895-5.937z" fill="#cce7ff"/><path d="m14.5 7.5h-3.5l-2.5-1 3-1.5 3 1.5z" fill="#cce7ff"/><g fill="none"><path d="m21.5 17.5-10 6-10-6v-17h20z" stroke="#1078ff" stroke-linecap="round" stroke-linejoin="round"/><path d="m14.5 10-3 1.5-3-1.5v-3.5l3-1.5 3 1.5z" stroke="#1078ff" stroke-linecap="round" stroke-linejoin="round"/><path d="m16.5 16.5v-2.5l-5-1.5-5 1.5v2.5" stroke="#1078ff" stroke-linecap="round" stroke-linejoin="round"/><path d="m14.5 7.5h-3.5l-2.5-1 3-1.5 3 1.5z" stroke="#1078ff" stroke-linecap="round" stroke-linejoin="round"/><path d="m0 0h24v24h-24z"/></g></svg>