<?xml version="1.0" encoding="utf-8"?>
<!-- Generator: Adobe Illustrator 21.0.2, SVG Export Plug-In . SVG Version: 6.00 Build 0)  -->
<svg version="1.1" xmlns="http://www.w3.org/2000/svg" xmlns:xlink="http://www.w3.org/1999/xlink" x="0px" y="0px" width="24px"
	 height="24px" viewBox="0 0 24 24" enable-background="new 0 0 24 24" xml:space="preserve">
<g id="Black">
	<g>
		<polygon fill="none" stroke="#58595B" stroke-linecap="round" stroke-linejoin="round" stroke-miterlimit="10" points="3.5,23.5 
			5.5,21.5 7.5,23.5 9.5,21.5 11.5,23.5 13.5,21.5 15.5,23.5 17.5,21.5 19.5,23.5 19.5,0.5 17.5,2.5 15.5,0.5 13.5,2.5 11.5,0.5 
			9.5,2.5 7.5,0.5 5.5,2.5 3.5,0.5 		"/>
		
			<line fill="none" stroke="#58595B" stroke-linecap="round" stroke-linejoin="round" stroke-miterlimit="10" x1="6.5" y1="6.5" x2="12.5" y2="6.5"/>
		
			<line fill="none" stroke="#58595B" stroke-linecap="round" stroke-linejoin="round" stroke-miterlimit="10" x1="14.5" y1="6.5" x2="16.5" y2="6.5"/>
		
			<line fill="none" stroke="#58595B" stroke-linecap="round" stroke-linejoin="round" stroke-miterlimit="10" x1="6.5" y1="9.5" x2="11.5" y2="9.5"/>
		
			<line fill="none" stroke="#58595B" stroke-linecap="round" stroke-linejoin="round" stroke-miterlimit="10" x1="13.5" y1="9.5" x2="16.5" y2="9.5"/>
		
			<line fill="none" stroke="#58595B" stroke-linecap="round" stroke-linejoin="round" stroke-miterlimit="10" x1="6.5" y1="12.5" x2="10.5" y2="12.5"/>
		
			<line fill="none" stroke="#58595B" stroke-linecap="round" stroke-linejoin="round" stroke-miterlimit="10" x1="6.5" y1="15.5" x2="8.5" y2="15.5"/>
		
			<line fill="none" stroke="#58595B" stroke-linecap="round" stroke-linejoin="round" stroke-miterlimit="10" x1="6.5" y1="18.5" x2="9.5" y2="18.5"/>
		<g>
			<polyline fill="none" stroke="#58595B" stroke-linecap="round" stroke-linejoin="round" stroke-miterlimit="10" points="
				15.5,14.5 13.5,14.5 13,15.5 13.5,16.5 15.5,16.5 16,17.5 15.5,18.5 13.5,18.5 			"/>
			
				<line fill="none" stroke="#58595B" stroke-linecap="round" stroke-linejoin="round" stroke-miterlimit="10" x1="14.5" y1="14.5" x2="14.5" y2="13.5"/>
			
				<line fill="none" stroke="#58595B" stroke-linecap="round" stroke-linejoin="round" stroke-miterlimit="10" x1="14.5" y1="19.5" x2="14.5" y2="18.5"/>
		</g>
	</g>
</g>
<g id="Frames-24px">
	<rect fill="none" width="24" height="24"/>
</g>
</svg>
