<svg height="24" viewBox="0 0 24 24" width="24" xmlns="http://www.w3.org/2000/svg"><path d="m3.5 23.5 2-2 2 2 2-2 2 2 2-2 2 2 2-2 2 2v-23l-2 2-2-2-2 2-2-2-2 2-2-2-2 2-2-2z" fill="#fff"/><path d="m3.5 19.5v4l2-2 2 2 2-2 2 2 2-2 2 2 2-2 2 2v-4z" fill="#cce7ff"/><g fill="none"><g stroke="#1078ff" stroke-linecap="round" stroke-linejoin="round"><path d="m6.5 6.5h6"/><path d="m14.5 6.5h2"/><path d="m6.5 9.5h5"/><path d="m13.5 9.5h3"/><path d="m6.5 12.5h4"/><path d="m6.5 15.5h2"/><path d="m6.5 18.5h3"/><path d="m15.5 14.5h-2l-.5 1 .5 1h2l.5 1-.5 1h-2"/><path d="m14.5 14.5v-1"/><path d="m14.5 19.5v-1"/><path d="m3.5 23.5 2-2 2 2 2-2 2 2 2-2 2 2 2-2 2 2v-23l-2 2-2-2-2 2-2-2-2 2-2-2-2 2-2-2z"/></g><path d="m0 0h24v24h-24z"/></g></svg>