<svg height="24" viewBox="0 0 24 24" width="24" xmlns="http://www.w3.org/2000/svg"><path d="m9.5 6.5-3 1-3-2.5v16.5l6 1.5 11-3v-16.5z" fill="#fff"/><g fill="#cce7ff"><path d="m9.5 20.999 11-3v2.001l-11 3z"/><path d="m3.5 5 11-3 2.836 2.363-7.836 2.137-3 1z"/><path d="m3.5 21.5 3-2 3 3.5z"/></g><g fill="none"><g stroke="#1078ff" stroke-linecap="round" stroke-linejoin="round"><path d="m13.5 8.5v4.5l2 2 2-2v-5.5"/><path d="m14.5 2v3.136"/><path d="m6.5 19.5v-12"/><path d="m3.5 5 11-3"/><path d="m17.336 4.363-2.836-2.363"/><path d="m3.5 21.5 3-2 3 3.5"/><path d="m20.5 20-11 3v-16.5l11-3z"/><path d="m3.5 21.5 6 1.5v-16.5l-3 1-3-2.5z"/></g><path d="m0 0h24v24h-24z"/></g></svg>