<svg width="18" height="15" viewBox="0 0 18 15" xmlns="http://www.w3.org/2000/svg"><title>Fill 1</title><path d="M17.647 1.714c-.652.293-1.348.49-2.078.574.748-.45 1.322-1.167 1.593-2.02-.703.416-1.477.723-2.303.886C14.202.444 13.26 0 12.22 0c-2 0-3.62 1.636-3.62 3.656 0 .287.033.567.098.835C5.684 4.335 3.02 2.88 1.232.67c-.31.542-.49 1.168-.49 1.84 0 1.27.64 2.385 1.613 3.043-.594-.02-1.148-.182-1.64-.456v.045c0 1.773 1.247 3.246 2.905 3.585-.304.085-.626.13-.955.13-.232 0-.458-.026-.684-.065.46 1.454 1.8 2.51 3.382 2.542-1.24.978-2.8 1.565-4.497 1.565-.29 0-.58-.02-.865-.054 1.6 1.037 3.504 1.643 5.55 1.643 6.658 0 10.297-5.574 10.297-10.403 0-.157-.007-.32-.013-.476.716-.52 1.33-1.166 1.813-1.896z" fill="#D2B69B" fill-rule="evenodd"/></svg>