<svg id="Duotone" xmlns="http://www.w3.org/2000/svg" viewBox="0 0 100 112"><defs><style>.cls-1{fill:#f0f2ff;}.cls-2,.cls-7{fill:none;}.cls-2,.cls-3,.cls-6,.cls-7,.cls-8{stroke:#4550e5;stroke-linejoin:round;}.cls-2,.cls-3{stroke-linecap:round;}.cls-3,.cls-4,.cls-6{fill:#fff;}.cls-5,.cls-8{fill:#d6daff;}</style></defs><title>66- osx-programmer-female-caucasian</title><g id="Icons"><g id="Background"><path class="cls-1" d="M90.33,56A40,40,0,1,0,13.9,72.5H86.77A39.85,39.85,0,0,0,90.33,56Z"/><line class="cls-2" x1="11.34" y1="72.5" x2="89.34" y2="72.5"/><line class="cls-2" x1="6.84" y1="72.5" x2="9.34" y2="72.5"/><line class="cls-2" x1="91.34" y1="72.5" x2="93.84" y2="72.5"/></g><g id="Scene"><polygon class="cls-3" points="54.84 54.5 33.34 54.5 33.84 34 54.34 34 54.84 54.5"/><path class="cls-4" d="M59.84,65a16,16,0,0,0-32,0v7.5h32Z"/><path class="cls-2" d="M59.84,65a16,16,0,0,0-32,0v7.5h32Z"/><path class="cls-3" d="M63.34,85.5h-7a1,1,0,0,1-1-1v-1h9v1A1,1,0,0,1,63.34,85.5Z"/><path class="cls-5" d="M64.34,83.5h-9l1.77-5.32a1,1,0,0,1,1-.68h3.56a1,1,0,0,1,1,.68Z"/><path class="cls-4" d="M61.62,77.5H58.06a1,1,0,0,0-1,.68L55.34,83.5H56l6.6-5.37A1,1,0,0,0,61.62,77.5Z"/><path class="cls-2" d="M64.34,83.5h-9l1.77-5.32a1,1,0,0,1,1-.68h3.56a1,1,0,0,1,1,.68Z"/><line class="cls-2" x1="59.34" y1="78.88" x2="60.34" y2="78.88"/><rect class="cls-3" x="60.34" y="83.5" width="2" height="2"/><path class="cls-2" d="M34.34,72.5V68c0-3-2.31-4-.89-7.52.3-.73.64-1.65.89-2.48"/><path class="cls-2" d="M53.34,72.5V68c0-3,2.3-4,.88-7.52-.3-.73-.63-1.65-.88-2.48"/><path class="cls-1" d="M52.07,85c0,.83-7.28,1.5-17.5,1.5s-15.5-.67-15.5-1.5,5.29-1.5,15.5-1.5S52.07,84.17,52.07,85Z"/><path class="cls-6" d="M21.06,81.5h29a0,0,0,0,1,0,0V82a2,2,0,0,1-2,2h-25a2,2,0,0,1-2-2v-.5A0,0,0,0,1,21.06,81.5Z"/><path class="cls-4" d="M50.07,81.5h-29L19.59,68.24a2,2,0,0,1,2-2.24h28a2,2,0,0,1,2,2.24Z"/><path class="cls-7" d="M50.07,81.5h-29L19.59,68.24a2,2,0,0,1,2-2.24h28a2,2,0,0,1,2,2.24Z"/><path class="cls-8" d="M37.18,73.86a1.51,1.51,0,0,1,.74-1.29,1.6,1.6,0,0,0-1.25-.68c-.53,0-1,.31-1.3.31s-.68-.3-1.12-.29a1.66,1.66,0,0,0-1.41.85,3.56,3.56,0,0,0,.43,3.43c.29.41.63.88,1.07.86s.6-.28,1.12-.28.67.28,1.12.27.76-.42,1-.84a3.32,3.32,0,0,0,.47-1A1.52,1.52,0,0,1,37.18,73.86Z"/><line class="cls-2" x1="36.02" y1="70.12" x2="36.64" y2="69.5"/><path class="cls-8" d="M44.84,47.5h-2c-2.35,0-5,1.65-5,4,0,5.48,4,7.2,5.19,4.41L43.84,54l.81,1.91c1.18,2.79,5.19,1.07,5.19-4.41C49.84,49.15,47.19,47.5,44.84,47.5Z"/><path class="cls-4" d="M40.34,46.5v5.09s0,2.36,3.5,2.41,3.5-2.41,3.5-2.41V46.5Z"/><path class="cls-2" d="M40.34,46.5v5.09s0,2.36,3.5,2.41,3.5-2.41,3.5-2.41V46.5Z"/><path class="cls-5" d="M61.84,32h17.5a2,2,0,0,1,2,2V56a1,1,0,0,1-1,1H61.84a2,2,0,0,1-2-2V34A2,2,0,0,1,61.84,32Z"/><path class="cls-8" d="M76.84,52v4.5h-15a2,2,0,0,1-2-2V34a2,2,0,0,1,2-2h17a2,2,0,0,1,2,2V52Z"/><path class="cls-6" d="M80.84,52q-1,3.75-4,4.5V52Z"/><circle class="cls-6" cx="62.84" cy="32" r="1"/><circle class="cls-6" cx="78.34" cy="32" r="1"/><circle class="cls-6" cx="70.34" cy="36" r="1.5"/><circle class="cls-6" cx="70.34" cy="52" r="1.5"/><line class="cls-7" x1="70.34" y1="37.5" x2="70.34" y2="50.5"/><rect class="cls-7" x="63.84" y="41" width="13" height="6.5"/><rect class="cls-6" x="74.84" y="43" width="4" height="2"/><rect class="cls-6" x="61.84" y="43" width="4" height="2"/><rect class="cls-6" x="68.34" y="46.5" width="4" height="2"/><polygon class="cls-6" points="70.34 39.5 66.84 41 70.34 42.5 73.84 41 70.34 39.5"/><path class="cls-3" d="M53.84,35V32.5a10,10,0,0,0-20,0V35a2,2,0,0,0,0,4H34a10,10,0,0,0,19.76,0h.12a2,2,0,0,0,0-4Z"/><path class="cls-2" d="M40.82,41.8a4.38,4.38,0,0,0,6,0"/><path class="cls-2" d="M49.34,36a1.63,1.63,0,0,0-3,0"/><path class="cls-2" d="M41.35,36a1.63,1.63,0,0,0-3,0"/><circle class="cls-5" cx="38.09" cy="39.25" r="1.25"/><circle class="cls-5" cx="49.59" cy="39.25" r="1.25"/><path class="cls-3" d="M34.29,35h-.45a1.73,1.73,0,0,1,1.6,1.72,8.35,8.35,0,0,0,.32-1.78Q35,35,34.29,35Z"/><path class="cls-4" d="M46.84,26.93V23.82a2.32,2.32,0,0,1,2.32-2.32h0a5.28,5.28,0,0,1,5.5,5.17,29.3,29.3,0,0,1-.35,8.39,2.42,2.42,0,0,0-.47-.06h0a1.73,1.73,0,0,0-1.57,1.71L50,34.09C48.28,32.1,46.84,29.56,46.84,26.93Z"/><path class="cls-2" d="M46.84,26.93V23.82a2.32,2.32,0,0,1,2.32-2.32h0a5.28,5.28,0,0,1,5.5,5.17,29.3,29.3,0,0,1-.35,8.39,2.42,2.42,0,0,0-.47-.06h0a1.73,1.73,0,0,0-1.57,1.71L50,34.09C48.28,32.1,46.84,29.56,46.84,26.93Z"/><path class="cls-4" d="M48.82,29.1h0c-3.5,3.76-9.4,5.9-14.53,5.9H32.84a2.5,2.5,0,0,1-2.5-2.5h0a2.5,2.5,0,0,1,2.5-2.5h.5c0-5.25,5.25-9.5,10.5-9.5h0a6,6,0,0,1,6,6h0A3.86,3.86,0,0,1,48.82,29.1Z"/><path class="cls-2" d="M48.82,29.1h0c-3.5,3.76-9.4,5.9-14.53,5.9H32.84a2.5,2.5,0,0,1-2.5-2.5h0a2.5,2.5,0,0,1,2.5-2.5h.5c0-5.25,5.25-9.5,10.5-9.5h0a6,6,0,0,1,6,6h0A3.86,3.86,0,0,1,48.82,29.1Z"/><path class="cls-2" d="M33.34,30a2.5,2.5,0,0,1,2.5,2.5"/></g></g></svg>